<svg width="1415" height="941" viewBox="0 0 1415 941" fill="none" xmlns="http://www.w3.org/2000/svg">
<rect width="1415" height="941" fill="white"/>
<path d="M524.574 511.832L631.643 451.896L827.223 560.297L897.439 521.386L918.939 480.886L961.439 456.886L832.939 385.386" stroke="#6419AE" stroke-width="17"/>
<path d="M524.035 511.43L958.7 753.978" stroke="#6419AE" stroke-width="17"/>
<path d="M786.174 657.912L630.14 745.559L563.324 707.434L435.588 778.967L382.529 749.882" stroke="#6419AE" stroke-width="17"/>
<ellipse cx="629.939" cy="744.386" rx="22.5" ry="13" fill="#6419AE"/>
<ellipse cx="957.344" cy="753.622" rx="22.5" ry="13" fill="#6419AE"/>
<ellipse cx="434.939" cy="778.386" rx="22.5" ry="13" fill="#6419AE"/>
<ellipse cx="785.939" cy="658.386" rx="22.5" ry="13" fill="#6419AE"/>
<ellipse cx="961.343" cy="457.835" rx="22.5" ry="13" fill="#6419AE"/>
<ellipse cx="562.939" cy="709.386" rx="33.5" ry="19" fill="#6419AE"/>
<ellipse cx="852" cy="695.386" rx="33.5" ry="19" fill="#6419AE"/>
<ellipse cx="384.939" cy="747.386" rx="33.5" ry="19" fill="#6419AE"/>
<ellipse cx="524.939" cy="512.386" rx="33.5" ry="19" fill="#6419AE"/>
<ellipse cx="631.697" cy="452.183" rx="33.5" ry="19" fill="#6419AE"/>
<ellipse cx="827.25" cy="560.195" rx="33.5" ry="19" fill="#6419AE"/>
<path d="M865.321 385.256C865.321 395.749 850.322 404.256 831.821 404.256C813.319 404.256 798.321 395.749 798.321 385.256C798.321 374.762 813.319 366.256 831.821 366.256C850.322 366.256 865.321 374.762 865.321 385.256Z" fill="#6419AE"/>
<g filter="url(#filter0_df)">
<path d="M820.708 391.935C823.652 393.571 827.455 394.371 831.213 394.378C834.97 394.384 838.766 393.597 841.694 391.97C844.614 390.348 846.261 388.103 846.247 385.683C846.233 383.266 844.565 381.019 841.63 379.389C838.686 377.754 834.883 376.953 831.125 376.946C827.367 376.94 823.572 377.727 820.644 379.354C817.724 380.977 816.077 383.222 816.091 385.642C816.104 388.059 817.773 390.305 820.708 391.935Z" stroke="#67ECFF" stroke-width="1.52517"/>
</g>
<g filter="url(#filter1_df)">
<path d="M441.625 775.501L552.012 714.13" stroke="#67ECFF" stroke-width="1.52517" stroke-linecap="round" stroke-linejoin="round"/>
</g>
<g filter="url(#filter2_df)">
<path d="M895.689 521.706L845.993 550" stroke="#67ECFF" stroke-width="1.52517" stroke-linejoin="round"/>
</g>
<g filter="url(#filter3_df)">
<path d="M429.5 775.625L394.538 755.486" stroke="#67ECFF" stroke-width="1.52517" stroke-linejoin="round"/>
</g>
<g filter="url(#filter4_df)">
<path d="M535 517.375L677.904 597.156" stroke="#67ECFF" stroke-width="1.52517" stroke-linejoin="round"/>
</g>
<g filter="url(#filter5_df)">
<path d="M895.546 521.652L919.119 480.43L955.625 461" stroke="#67ECFF" stroke-width="1.52517" stroke-linejoin="round"/>
</g>
<g filter="url(#filter6_df)">
<path d="M624.958 748.844C626.506 749.789 628.485 750.243 630.422 750.246C632.359 750.25 634.336 749.805 635.876 748.863C637.418 747.921 638.329 746.587 638.321 745.119C638.314 743.654 637.392 742.321 635.844 741.375C634.296 740.43 632.317 739.976 630.38 739.973C628.443 739.969 626.467 740.415 624.926 741.356C623.384 742.299 622.473 743.633 622.481 745.1C622.488 746.565 623.41 747.898 624.958 748.844Z" stroke="#67ECFF" stroke-width="1.52517"/>
</g>
<g filter="url(#filter7_df)">
<path d="M430.386 782.735C431.933 783.681 433.913 784.134 435.85 784.138C437.787 784.142 439.763 783.696 441.304 782.755C442.846 781.812 443.757 780.479 443.749 779.011C443.742 777.546 442.82 776.213 441.272 775.267C439.724 774.321 437.745 773.868 435.808 773.864C433.871 773.861 431.894 774.306 430.354 775.248C428.811 776.19 427.901 777.524 427.908 778.992C427.916 780.457 428.838 781.789 430.386 782.735Z" stroke="#67ECFF" stroke-width="1.52517"/>
</g>
<g filter="url(#filter8_df)">
<path d="M677.746 610.198C680.69 611.833 684.493 612.634 688.251 612.641C692.008 612.647 695.804 611.86 698.732 610.233C701.652 608.611 703.299 606.366 703.285 603.946C703.272 601.528 701.603 599.282 698.668 597.652C695.724 596.017 691.921 595.216 688.163 595.209C684.406 595.203 680.61 595.99 677.682 597.617C674.762 599.239 673.115 601.484 673.129 603.905C673.143 606.322 674.811 608.568 677.746 610.198Z" stroke="#67ECFF" stroke-width="1.52517"/>
</g>
<g filter="url(#filter9_df)">
<path d="M807.25 548.375L642.25 457.25" stroke="#67ECFF" stroke-width="1.52517" stroke-linejoin="round"/>
</g>
<g filter="url(#filter10_df)">
<path d="M956.875 453.75L840.429 388.975" stroke="#67ECFF" stroke-width="1.52517" stroke-linejoin="round"/>
</g>
<g filter="url(#filter11_df)">
<path d="M536.25 505.125L619.792 458.418" stroke="#67ECFF" stroke-width="1.52517" stroke-linejoin="round"/>
</g>
<g filter="url(#filter12_df)">
<path d="M513.894 517.15C516.877 518.898 520.733 519.756 524.544 519.763C528.355 519.77 532.204 518.927 535.171 517.187C538.136 515.449 539.776 513.062 539.763 510.523C539.749 507.986 538.086 505.597 535.106 503.85C532.123 502.102 528.267 501.244 524.456 501.237C520.645 501.23 516.796 502.073 513.829 503.813C510.864 505.551 509.224 507.938 509.237 510.478C509.251 513.014 510.914 515.403 513.894 517.15Z" stroke="#67ECFF" stroke-width="1.52517"/>
</g>
<g filter="url(#filter13_df)">
<path d="M635.75 741.875L699.5 706.5" stroke="#67ECFF" stroke-width="1.52517" stroke-linejoin="round"/>
</g>
<g filter="url(#filter14_df)">
<path d="M624.25 741.5L575.5 714.125" stroke="#67ECFF" stroke-width="1.52517" stroke-linejoin="round"/>
</g>
<g filter="url(#filter15_df)">
<path d="M700.329 608.426L781.25 654.625" stroke="#67ECFF" stroke-width="1.52517" stroke-linejoin="round"/>
</g>
<g filter="url(#filter16_df)">
<path d="M841.5 688.75L793 661.125" stroke="#67ECFF" stroke-width="1.52517" stroke-linejoin="round"/>
</g>
<g filter="url(#filter17_df)">
<path d="M945.25 746.25L864.75 701.25" stroke="#67ECFF" stroke-width="1.52517" stroke-linejoin="round"/>
</g>
<g filter="url(#filter18_df)">
<path d="M781.842 661.366C783.31 662.229 785.183 662.641 787.014 662.644C788.845 662.648 790.715 662.243 792.176 661.383C793.635 660.525 794.524 659.294 794.517 657.914C794.509 656.536 793.61 655.306 792.146 654.445C790.678 653.582 788.805 653.17 786.974 653.166C785.144 653.163 783.273 653.568 781.812 654.427C780.353 655.286 779.464 656.517 779.471 657.897C779.479 659.275 780.378 660.504 781.842 661.366Z" stroke="#67ECFF" stroke-width="1.52517"/>
</g>
<g filter="url(#filter19_df)">
<path d="M956.192 461.295C957.659 462.159 959.532 462.571 961.363 462.574C963.194 462.578 965.064 462.172 966.525 461.313C967.985 460.455 968.873 459.224 968.866 457.843C968.859 456.466 967.96 455.236 966.495 454.375C965.027 453.511 963.154 453.099 961.323 453.096C959.493 453.092 957.622 453.498 956.161 454.357C954.702 455.216 953.813 456.446 953.82 457.827C953.828 459.204 954.727 460.434 956.192 461.295Z" stroke="#67ECFF" stroke-width="1.52517"/>
</g>
<g filter="url(#filter20_df)">
<path d="M780.875 660.875L699 706.625" stroke="#67ECFF" stroke-width="1.52517" stroke-linejoin="round"/>
</g>
<ellipse opacity="0.6" cx="386.5" cy="754.5" rx="140.5" ry="58.5" fill="url(#paint0_radial)"/>
<path d="M299 747.003C299 699.58 337.579 661 385 661C432.421 661 471 699.58 471 747.003C471 794.425 432.424 833 385.003 833C337.581 833 299 794.42 299 747.003ZM301.738 747.003C301.738 792.913 339.091 830.266 385.003 830.266C430.915 830.266 468.267 792.913 468.267 747.003C468.267 701.092 430.915 663.734 385.003 663.734C339.091 663.734 301.738 701.087 301.738 747.003Z" fill="#05FF00"/>
<path d="M305.952 826.197C284.704 805.042 273 776.92 273 747C273 717.08 284.704 688.958 305.952 667.803C327.201 646.649 355.451 635 385.501 635C415.552 635 443.802 646.649 465.051 667.803C486.299 688.958 498 717.085 498 747C498 776.915 486.299 805.042 465.051 826.197C443.802 847.351 415.552 859 385.501 859C355.451 859 327.201 847.351 305.952 826.197ZM277.109 747.005C277.109 806.507 325.734 854.915 385.501 854.915C445.269 854.915 493.894 806.507 493.894 747.005C493.894 687.503 445.269 639.095 385.501 639.095C325.734 639.09 277.109 687.498 277.109 747.005Z" fill="url(#paint1_linear)"/>
<g filter="url(#filter21_f)">
<path d="M286.152 847.701C259.616 821.07 245 785.663 245 748C245 710.337 259.616 674.93 286.152 648.299C312.689 621.667 347.972 607 385.5 607C423.028 607 458.311 621.667 484.848 648.299C511.385 674.93 526 710.337 526 748C526 785.663 511.385 821.07 484.848 847.701C458.311 874.333 423.028 889 385.5 889C347.972 889 312.689 874.333 286.152 847.701ZM253.228 748C253.228 821.194 312.564 880.743 385.503 880.743C458.441 880.743 517.775 821.194 517.775 748C517.775 674.806 458.436 615.251 385.5 615.251C312.564 615.251 253.228 674.801 253.228 748Z" fill="url(#paint2_linear)"/>
</g>
<g filter="url(#filter22_f)">
<path d="M319.91 902.75C299.842 894.264 281.823 882.113 266.351 866.643C250.879 851.168 238.731 833.149 230.244 813.085C221.456 792.309 217 770.243 217 747.5C217 724.757 221.456 702.686 230.244 681.91C238.731 661.846 250.879 643.826 266.351 628.351C281.823 612.877 299.845 600.731 319.91 592.245C340.689 583.455 362.756 579 385.5 579C408.244 579 430.311 583.455 451.09 592.245C471.155 600.731 489.176 612.882 504.649 628.351C520.121 643.821 532.269 661.841 540.756 681.91C549.544 702.686 554 724.752 554 747.5C554 770.248 549.544 792.309 540.756 813.09C532.269 833.154 520.121 851.174 504.649 866.649C489.176 882.123 471.158 894.269 451.09 902.755C430.311 911.54 408.244 916 385.5 916C362.756 915.995 340.689 911.54 319.91 902.75ZM230.007 747.5C230.007 833.237 299.761 902.987 385.5 902.987C471.239 902.987 540.993 833.237 540.993 747.5C540.993 661.763 471.239 592.008 385.5 592.008C299.761 592.008 230.007 661.758 230.007 747.5Z" fill="url(#paint3_linear)"/>
</g>
<path d="M385 674C403.68 674 421.245 681.522 434.46 695.182C447.705 708.873 455 727.098 455 746.5C455 765.902 447.705 784.127 434.46 797.818C421.245 811.478 403.68 819 385 819C366.32 819 348.755 811.478 335.54 797.818C322.295 784.127 315 765.902 315 746.5C315 727.098 322.295 708.873 335.54 695.182C348.755 681.522 366.32 674 385 674ZM385 818.358C423.401 818.358 454.643 786.122 454.643 746.504C454.643 706.882 423.401 674.65 385 674.65C346.599 674.65 315.357 706.882 315.357 746.5C315.357 786.122 346.599 818.358 385 818.358Z" fill="#05FF00"/>
<path d="M384.756 719.744C397.633 719.744 409.753 722.614 418.885 727.822C428.192 733.131 433.317 740.25 433.317 747.867C433.317 755.484 428.192 762.603 418.885 767.914C409.753 773.123 397.633 775.992 384.756 775.992C371.88 775.992 359.759 773.123 350.627 767.914C341.321 762.605 336.196 755.486 336.196 747.867C336.196 740.248 341.321 733.131 350.627 727.822C359.759 722.614 371.88 719.744 384.756 719.744ZM384.756 774.022C397.297 774.022 409.069 771.245 417.909 766.202C426.575 761.258 431.347 754.748 431.347 747.867C431.347 740.988 426.575 734.476 417.909 729.532C409.069 724.489 397.297 721.712 384.756 721.712C372.218 721.712 360.444 724.489 351.604 729.532C342.938 734.476 338.166 740.986 338.166 747.867C338.166 754.748 342.938 761.258 351.604 766.202C360.444 771.245 372.218 774.022 384.756 774.022Z" fill="#05FF00"/>
<path d="M384.756 714.014C400.447 714.014 415.205 717.504 426.317 723.842C437.523 730.234 443.695 738.766 443.695 747.867C443.695 756.968 437.523 765.501 426.317 771.894C415.207 778.232 400.447 781.722 384.756 781.722C369.066 781.722 354.307 778.232 343.198 771.894C331.992 765.501 325.82 756.968 325.82 747.867C325.82 738.766 331.992 730.232 343.198 723.842C354.307 717.504 369.066 714.014 384.756 714.014ZM384.756 780.836C416.853 780.836 442.964 766.047 442.964 747.869C442.964 729.691 416.851 714.902 384.756 714.902C352.662 714.902 326.549 729.689 326.549 747.867C326.549 766.047 352.659 780.836 384.756 780.836Z" fill="#05FF00"/>
<path d="M384.757 707.733C403.496 707.733 421.117 711.897 434.373 719.459C447.661 727.038 454.979 737.126 454.979 747.867C454.979 758.607 447.661 768.695 434.373 776.274C421.117 783.836 403.496 788 384.757 788C366.018 788 348.397 783.836 335.141 776.274C321.853 768.695 314.535 758.607 314.535 747.867C314.535 737.126 321.853 727.038 335.141 719.459C348.397 711.897 366.018 707.733 384.757 707.733ZM384.757 787.644C423.28 787.644 454.621 769.8 454.621 747.869C454.621 725.936 423.28 708.093 384.757 708.093C346.234 708.093 314.893 725.936 314.893 747.867C314.893 769.8 346.234 787.644 384.757 787.644Z" fill="#05FF00"/>
<path opacity="0.3" d="M410.18 732.31C424.445 740.541 424.445 753.895 410.18 762.127C395.917 770.365 372.795 770.365 358.535 762.131C344.271 753.895 344.271 740.545 358.535 732.31C372.795 724.073 395.92 724.073 410.18 732.31Z" fill="#4CF55D"/>
<path opacity="0.5" d="M408.475 733.292C421.794 740.981 421.794 753.452 408.475 761.141C395.158 768.831 373.56 768.831 360.24 761.141C346.923 753.452 346.923 740.984 360.24 733.294C373.56 725.603 395.157 725.603 408.475 733.292Z" fill="#4CF55D"/>
<path d="M406.633 734.36C418.933 741.46 418.933 752.975 406.633 760.077C394.326 767.177 374.386 767.177 362.088 760.077C349.787 752.975 349.787 741.462 362.088 734.36C374.386 727.258 394.33 727.258 406.633 734.36Z" fill="#4CF55D"/>
<path d="M404.841 735.392C416.158 741.922 416.158 752.513 404.841 759.044C393.529 765.578 375.182 765.578 363.873 759.044C352.56 752.512 352.56 741.922 363.873 735.392C375.183 728.859 393.529 728.859 404.841 735.392Z" fill="url(#paint4_linear)"/>
<path opacity="0.3" d="M422 562H345L353.945 736.612C358.46 754.485 365.448 762 383.501 762C401.555 762 410.399 754.937 413.055 736.612L422 562Z" fill="url(#paint5_linear)"/>
<g style="mix-blend-mode:color-dodge" filter="url(#filter23_f)">
<path d="M401.822 737.101C411.393 742.567 411.393 751.432 401.822 756.898C392.255 762.367 376.74 762.367 367.175 756.898C357.608 751.431 357.608 742.567 367.175 737.101C376.74 731.633 392.255 731.633 401.822 737.101Z" fill="#DAFFD4"/>
</g>
<path d="M377.081 693.503C382.445 692.569 388.099 692.944 392.993 694.559C397.888 696.174 401.444 698.836 403.001 702.056C405.626 707.478 401.858 713.319 393.843 716.261C392.26 716.843 390.544 717.295 388.748 717.608C381.386 718.891 373.455 717.658 368.053 714.392C365.607 712.913 363.799 711.068 362.827 709.057C360.204 703.636 363.971 697.794 371.987 694.852C373.57 694.269 375.285 693.817 377.081 693.503ZM398.478 702.844C397.27 700.349 394.516 698.287 390.723 697.035C386.93 695.784 382.552 695.494 378.396 696.218C377.001 696.462 375.673 696.814 374.446 697.264C368.237 699.542 365.32 704.069 367.352 708.268C368.107 709.826 369.506 711.256 371.397 712.4C375.586 714.932 381.729 715.888 387.435 714.893C388.83 714.649 390.159 714.298 391.383 713.848C397.593 711.569 400.509 707.043 398.478 702.844Z" fill="url(#paint6_linear)"/>
<path opacity="0.5" d="M382.897 712.674C361.335 712.674 343.794 702.206 343.794 689.337C343.794 676.468 361.335 666 382.897 666C404.459 666 422 676.468 422 689.337C422 702.206 404.459 712.674 382.897 712.674ZM382.897 671.949C366.831 671.949 353.76 679.75 353.76 689.337C353.76 698.925 366.831 706.725 382.897 706.725C398.963 706.725 412.034 698.925 412.034 689.337C412.034 679.75 398.963 671.949 382.897 671.949Z" fill="url(#paint7_linear)"/>
<path d="M420.766 709.483C421.621 709.483 422.313 708.79 422.313 707.936C422.313 707.081 421.621 706.389 420.766 706.389C419.912 706.389 419.219 707.081 419.219 707.936C419.219 708.79 419.912 709.483 420.766 709.483Z" fill="#48F559"/>
<path d="M414.799 660.499C415.23 660.499 415.579 660.15 415.579 659.719C415.579 659.288 415.23 658.939 414.799 658.939C414.369 658.939 414.02 659.288 414.02 659.719C414.02 660.15 414.369 660.499 414.799 660.499Z" fill="#48F559"/>
<path d="M426.56 626.384C426.56 626.599 426.386 626.77 426.173 626.77C425.964 626.77 425.789 626.599 425.789 626.384C425.789 626.173 425.964 626 426.173 626C426.386 626 426.56 626.173 426.56 626.384Z" fill="#48F559"/>
<path d="M412.386 692.256C412.598 692.256 412.771 692.084 412.771 691.871C412.771 691.658 412.598 691.485 412.386 691.485C412.173 691.485 412 691.658 412 691.871C412 692.084 412.173 692.256 412.386 692.256Z" fill="#48F559"/>
<path d="M427.319 648.934C427.532 648.934 427.705 648.762 427.705 648.549C427.705 648.336 427.532 648.163 427.319 648.163C427.106 648.163 426.934 648.336 426.934 648.549C426.934 648.762 427.106 648.934 427.319 648.934Z" fill="#48F559"/>
<path d="M422.313 677.193C422.743 677.193 423.092 676.845 423.092 676.414C423.092 675.984 422.743 675.636 422.313 675.636C421.883 675.636 421.534 675.984 421.534 676.414C421.534 676.845 421.883 677.193 422.313 677.193Z" fill="#48F559"/>
<path d="M347.677 661.309C347.747 662.161 347.116 662.909 346.265 662.977C345.416 663.05 344.665 662.414 344.596 661.564C344.523 660.714 345.162 659.967 346.008 659.896C346.861 659.826 347.609 660.458 347.677 661.309Z" fill="#48F578"/>
<path d="M362.111 683.416C362.185 684.266 361.55 685.015 360.698 685.082C359.848 685.155 359.102 684.519 359.032 683.669C358.959 682.82 359.593 682.072 360.444 682.003C361.293 681.931 362.043 682.564 362.111 683.416Z" fill="#48F578"/>
<path d="M353.193 638.714C353.229 639.142 352.906 639.521 352.478 639.555C352.05 639.591 351.677 639.271 351.64 638.843C351.602 638.413 351.919 638.036 352.351 638.003C352.779 637.965 353.16 638.286 353.193 638.714Z" fill="#48F578"/>
<path d="M337.768 643.701C337.786 643.914 337.629 644.101 337.42 644.12C337.205 644.135 337.018 643.978 337.001 643.765C336.984 643.554 337.141 643.367 337.354 643.349C337.565 643.333 337.752 643.49 337.768 643.701Z" fill="#48F578"/>
<path d="M357.528 696.024C357.544 696.235 357.386 696.423 357.176 696.439C356.962 696.457 356.778 696.299 356.76 696.086C356.74 695.875 356.903 695.689 357.109 695.673C357.325 695.652 357.507 695.809 357.528 696.024Z" fill="#48F578"/>
<path d="M347.219 683.865C347.257 684.292 346.933 684.671 346.506 684.705C346.077 684.738 345.702 684.421 345.667 683.991C345.632 683.563 345.949 683.185 346.379 683.149C346.805 683.116 347.183 683.435 347.219 683.865Z" fill="#48F578"/>
<path d="M353.886 709.848C353.924 710.278 353.601 710.655 353.175 710.689C352.745 710.724 352.37 710.406 352.333 709.978C352.301 709.55 352.617 709.174 353.048 709.136C353.477 709.102 353.852 709.421 353.886 709.848Z" fill="#48F578"/>
<path d="M345.388 721.573C345.422 722 345.103 722.377 344.677 722.415C344.243 722.447 343.869 722.132 343.831 721.7C343.797 721.272 344.118 720.896 344.547 720.86C344.978 720.826 345.353 721.142 345.388 721.573Z" fill="#48F578"/>
<path d="M360.375 662.084L368.541 666.895L368.541 666.896L368.547 666.899C370.284 667.881 372.135 668.683 374.082 669.285C377.133 670.228 380.418 670.678 383.865 670.557C387.117 670.443 390.3 669.828 393.343 668.784L393.224 668.438L393.343 668.784C395.405 668.076 397.403 667.172 399.315 666.093C400.822 665.243 402.276 664.285 403.666 663.228C404.948 662.255 406.176 661.198 407.341 660.067C408.496 658.947 409.59 657.753 410.615 656.495L410.307 656.244L410.615 656.495C411.697 655.167 412.702 653.767 413.621 652.304L413.621 652.304C414.704 650.578 415.668 648.766 416.496 646.882C418.299 642.781 419.46 638.341 419.818 633.727C420.859 620.31 414.848 608.808 405.074 603.05L396.904 598.236C396.903 598.235 396.902 598.235 396.901 598.235L396.7 598.577L396.498 598.92C405.985 604.51 411.873 615.707 410.853 628.85C410.502 633.371 409.364 637.724 407.596 641.747C406.783 643.594 405.838 645.373 404.775 647.065L405.089 647.263L404.775 647.065C403.874 648.501 402.887 649.875 401.826 651.178C400.821 652.412 399.748 653.583 398.615 654.681C397.472 655.79 396.269 656.826 395.013 657.78C393.651 658.814 392.227 659.753 390.751 660.586C388.88 661.641 386.927 662.525 384.913 663.217C381.94 664.236 378.835 664.836 375.665 664.947C372.306 665.065 369.11 664.627 366.144 663.71C364.253 663.125 362.454 662.345 360.766 661.392L360.369 662.08L360.375 662.084Z" fill="url(#paint8_radial)" stroke="#00BD35" stroke-width="0.79532"/>
<path d="M368.59 666.368L360.523 661.64C360.664 661.722 360.806 661.804 360.948 661.884L369.015 666.612C368.872 666.532 368.731 666.451 368.59 666.368Z" fill="#1C3800"/>
<path d="M372.855 658.831L364.788 654.103C364.795 654.107 364.803 654.111 364.81 654.115L372.877 658.844C372.87 658.839 372.862 658.835 372.855 658.831Z" fill="#4B4B4B"/>
<path d="M372.878 658.627L364.811 653.898C364.896 653.946 364.988 653.985 365.085 654.015L373.152 658.743C373.055 658.713 372.963 658.675 372.878 658.627Z" fill="#545454"/>
<path d="M373.152 658.743L365.085 654.015C365.268 654.07 365.472 654.094 365.698 654.086C366.019 654.075 366.384 653.999 366.792 653.859L374.859 658.588C374.451 658.728 374.086 658.804 373.764 658.815C373.539 658.823 373.335 658.799 373.152 658.743Z" fill="#5E5E5E"/>
<path d="M374.859 658.588L366.792 653.86C366.981 653.795 367.179 653.717 367.386 653.624C370.736 652.127 374.02 650.397 377.301 648.694C378.24 648.207 379.18 647.799 380.122 647.476L388.189 652.204C387.247 652.528 386.307 652.935 385.368 653.423C382.087 655.126 378.803 656.856 375.453 658.352C375.246 658.445 375.048 658.523 374.859 658.588Z" fill="#545454"/>
<path d="M388.189 652.203L380.122 647.475C381.698 646.933 383.279 646.626 384.866 646.571C386.087 646.528 387.312 646.634 388.541 646.898C388.698 646.93 388.853 646.971 389.008 647.019L397.075 651.747C396.92 651.699 396.764 651.659 396.608 651.626C395.378 651.362 394.154 651.256 392.932 651.299C391.345 651.355 389.765 651.662 388.189 652.203Z" fill="#5E5E5E"/>
<path d="M397.074 651.747L389.008 647.019C389.37 647.131 389.724 647.283 390.055 647.469L398.121 652.197C397.791 652.011 397.437 651.859 397.074 651.747Z" fill="#545454"/>
<path d="M398.122 652.197L390.055 647.469C390.082 647.483 390.108 647.499 390.133 647.514L398.2 652.242C398.174 652.227 398.148 652.212 398.122 652.197Z" fill="#4B4B4B"/>
<path d="M398.744 607.205L390.677 602.477C391.143 602.46 391.611 602.477 392.081 602.535C393.803 602.752 395.555 603.011 397.19 603.517L405.257 608.245C403.622 607.74 401.87 607.481 400.148 607.264C399.677 607.206 399.21 607.189 398.744 607.205Z" fill="#5E5E5E"/>
<path d="M405.258 608.244L397.191 603.516C397.561 603.63 397.925 603.757 398.281 603.899C398.504 603.989 398.711 604.087 398.901 604.194L406.968 608.923C406.778 608.815 406.571 608.717 406.348 608.628C405.992 608.486 405.628 608.358 405.258 608.244Z" fill="#545454"/>
<path d="M406.968 608.924L398.901 604.195C398.925 604.208 398.947 604.222 398.97 604.235L407.037 608.963C407.014 608.95 406.991 608.937 406.968 608.924Z" fill="#4B4B4B"/>
<path d="M376.328 636.816L368.261 632.088C371.097 631.164 373.644 630.173 376.231 629.544C378.774 628.927 381.361 628.5 383.912 628.33C383.998 628.324 384.084 628.32 384.169 628.317C384.736 628.297 385.29 628.341 385.797 628.497L393.864 633.225C393.357 633.07 392.803 633.025 392.236 633.045C392.151 633.048 392.065 633.053 391.979 633.058C389.428 633.228 386.841 633.655 384.298 634.272C381.711 634.901 379.164 635.892 376.328 636.816Z" fill="#5E5E5E"/>
<path d="M393.864 633.225L385.798 628.497C386.013 628.563 386.22 628.65 386.416 628.76L394.483 633.488C394.287 633.378 394.08 633.292 393.864 633.225Z" fill="#545454"/>
<path d="M394.483 633.488L386.416 628.76C386.431 628.768 386.446 628.777 386.461 628.785L394.528 633.514C394.513 633.505 394.498 633.497 394.483 633.488Z" fill="#4B4B4B"/>
<path d="M389.601 597.43L381.535 592.702C385.221 592.573 388.731 593.052 391.989 594.055L400.056 598.783C396.797 597.781 393.287 597.302 389.601 597.43Z" fill="#234700"/>
<path d="M400.056 598.784L391.989 594.056C394.068 594.695 396.044 595.547 397.899 596.59L405.966 601.319C404.111 600.275 402.134 599.423 400.056 598.784Z" fill="#203F00"/>
<path d="M405.965 601.319L397.898 596.591C398.055 596.679 398.21 596.768 398.365 596.859L406.432 601.587C406.277 601.496 406.122 601.407 405.965 601.319Z" fill="#1C3800"/>
<path d="M369.884 662.808L361.817 658.08C359.721 656.851 358.611 654.436 358.469 650.798C358.227 644.628 360.039 638.577 361.692 632.546C362.77 628.611 364.045 624.716 365.225 620.801C365.336 620.431 365.391 620.045 365.482 619.614L373.548 624.343C373.458 624.773 373.403 625.158 373.292 625.53C372.113 629.445 370.837 633.339 369.759 637.274C368.106 643.305 366.294 649.356 366.536 655.526C366.678 659.164 367.788 661.579 369.884 662.808Z" fill="#1B1B1B"/>
<path d="M364.913 621.25L356.846 616.522C358.751 615.36 360.643 614.063 362.607 612.96L370.674 617.688C368.709 618.791 366.819 620.088 364.913 621.25Z" fill="#4B4B4B"/>
<path d="M369.5 618L361 613.5C361.432 613.258 363.475 612.182 363.915 611.962C366.415 610.705 368.824 609.197 371.462 608.29L379.529 613.018C376.891 613.925 374.482 615.434 371.982 616.69C371.541 616.911 369.932 617.758 369.5 618Z" fill="#545454"/>
<path d="M379.529 613.019L371.463 608.291C371.93 608.13 372.404 607.988 372.888 607.87C374.78 607.41 376.656 606.808 378.526 606.165L386.593 610.893C384.723 611.536 382.846 612.138 380.955 612.599C380.471 612.717 379.997 612.858 379.529 613.019Z" fill="#5E5E5E"/>
<path d="M386.592 610.892L378.525 606.164C379.971 605.667 381.413 605.145 382.855 604.644C383.937 604.268 385.017 603.845 386.1 603.472L394.167 608.2C393.084 608.573 392.004 608.997 390.922 609.372C389.48 609.873 388.038 610.395 386.592 610.892Z" fill="#545454"/>
<path d="M394.167 608.2L386.1 603.471C387.613 602.951 389.133 602.529 390.677 602.476L398.744 607.204C397.2 607.258 395.68 607.679 394.167 608.2Z" fill="#5E5E5E"/>
<path d="M367.086 626.344L359.019 621.616C357.288 620.623 356.657 618.596 356.845 616.22L364.912 620.948C364.724 623.324 365.355 625.352 367.086 626.344Z" fill="#1B1B1B"/>
<path d="M398.743 607.205C399.209 607.189 399.677 607.206 400.147 607.264C402.259 607.53 404.416 607.859 406.347 608.629C408.549 609.511 409.129 611.268 408.707 613.78C399.475 614.149 390.587 617.647 381.606 620.32C380.589 620.625 380.165 621.174 379.911 622.25C378.795 626.997 377.587 631.727 376.328 636.816C379.165 635.893 381.711 634.902 384.298 634.273C386.841 633.656 389.428 633.229 391.979 633.059C392.065 633.053 392.151 633.049 392.236 633.046C394.049 632.982 395.726 633.575 396.169 636.369C394.163 637.199 392.155 638.104 390.111 638.859C387.309 639.899 384.479 640.826 381.663 641.802C380.496 642.207 379.336 642.637 378.169 643.011C376.781 643.457 374.962 643.433 374.107 644.388C373.215 645.382 373.16 647.295 372.903 648.819C372.503 651.206 372.041 653.622 371.972 655.993C371.915 657.923 372.513 658.859 373.765 658.815C374.235 658.799 374.797 658.644 375.452 658.352C378.802 656.855 382.086 655.125 385.367 653.422C387.876 652.119 390.396 651.388 392.932 651.299C394.153 651.257 395.378 651.363 396.607 651.626C397.363 651.785 398.116 652.125 398.718 652.592C399.92 653.513 399.74 655.054 398.274 655.744C390.891 659.223 383.513 662.796 375.588 663.675C375.191 663.718 374.806 663.747 374.435 663.76C369.367 663.937 366.758 661.239 366.536 655.527C366.294 649.356 368.106 643.306 369.759 637.274C370.836 633.339 372.112 629.444 373.292 625.53C373.402 625.159 373.458 624.773 373.548 624.343C371.714 624.754 370.124 626.626 368.401 626.686C367.972 626.701 367.536 626.604 367.085 626.345C365.354 625.352 364.723 623.325 364.911 620.949C367.236 619.532 369.539 617.913 371.981 616.69C374.924 615.211 377.74 613.383 380.953 612.598C384.306 611.781 387.613 610.521 390.92 609.372C393.514 608.473 396.094 607.298 398.743 607.205Z" fill="#C2C2C2"/>
<path d="M389.601 597.43C409.209 596.745 423.829 613.257 422.193 634.237C420.556 655.218 403.272 672.844 383.664 673.529C364.056 674.213 349.435 657.701 351.072 636.721C352.709 615.74 369.993 598.115 389.601 597.43ZM383.927 670.154C401.797 669.53 417.547 653.468 419.038 634.347C420.53 615.226 407.207 600.18 389.337 600.804C371.47 601.428 355.717 617.489 354.226 636.61C352.734 655.732 366.06 670.778 383.927 670.154Z" fill="#499200"/>
<path d="M368 670L358.917 665.218C348.465 659.035 342.007 646.666 343.125 632.195C343.51 627.218 344.562 622.427 346.5 618L354.778 622.782C352.84 627.209 351.593 632 351.208 636.977C350.09 651.448 357.548 663.817 368 670Z" fill="#0A1500"/>
<path d="M354.5 623.001L346.5 618.001C347.388 615.99 348.492 614.013 349.654 612.171L357.721 616.899C356.559 618.74 355.388 620.99 354.5 623.001Z" fill="#0E1C00"/>
<path d="M357.72 616.899L349.653 612.171C350.639 610.609 351.717 609.114 352.878 607.697L360.945 612.425C359.784 613.843 358.706 615.338 357.72 616.899Z" fill="#112300"/>
<path d="M360.946 612.426L352.879 607.698C353.978 606.355 355.152 605.081 356.391 603.886L364.458 608.614C363.219 609.809 362.045 611.083 360.946 612.426Z" fill="#152A00"/>
<path d="M364.457 608.613L356.39 603.885C357.64 602.678 358.957 601.551 360.331 600.513L368.398 605.241C367.023 606.28 365.707 607.407 364.457 608.613Z" fill="#193100"/>
<path d="M368.398 605.241L360.331 600.512C361.822 599.386 363.38 598.364 364.996 597.457L373.062 602.185C371.448 603.092 369.889 604.114 368.398 605.241Z" fill="#1C3800"/>
<path d="M373.063 602.185L364.996 597.457C367.045 596.307 369.185 595.343 371.393 594.59L379.46 599.318C377.252 600.072 375.112 601.035 373.063 602.185Z" fill="#203F00"/>
<path d="M379.459 599.318L371.392 594.59C374.65 593.478 378.055 592.824 381.534 592.702L389.601 597.43C386.122 597.552 382.717 598.207 379.459 599.318Z" fill="#234700"/>
<g style="mix-blend-mode:luminosity">
<path d="M368.59 666.368L360.523 661.64C360.664 661.722 360.806 661.804 360.948 661.884L369.015 666.612C368.872 666.532 368.731 666.451 368.59 666.368Z" fill="#1C3800"/>
<g style="mix-blend-mode:darken" opacity="0.5">
<g filter="url(#filter24_i)">
<path d="M404.872 603.394L396.7 598.579C406.33 604.254 412.28 615.603 411.249 628.883C410.895 633.45 409.745 637.846 407.96 641.909C407.139 643.774 406.185 645.57 405.112 647.279C404.202 648.728 403.206 650.115 402.134 651.431C401.119 652.677 400.036 653.859 398.892 654.969C397.738 656.088 396.522 657.135 395.254 658.098C393.877 659.144 392.438 660.092 390.947 660.934C389.055 662.001 387.08 662.895 385.042 663.595C382.034 664.627 378.89 665.234 375.679 665.347C372.276 665.466 369.035 665.022 366.027 664.092C364.108 663.498 362.283 662.707 360.571 661.74L368.743 666.555C370.456 667.523 372.28 668.314 374.199 668.907C377.207 669.837 380.448 670.281 383.851 670.162C387.062 670.049 390.206 669.442 393.214 668.41C395.252 667.71 397.228 666.816 399.119 665.749C400.61 664.908 402.049 663.959 403.426 662.913C404.695 661.95 405.911 660.904 407.064 659.784C408.208 658.674 409.292 657.492 410.307 656.246C411.378 654.931 412.374 653.543 413.284 652.094C414.357 650.385 415.312 648.59 416.132 646.724C417.918 642.662 419.067 638.265 419.422 633.698C420.452 620.418 414.503 609.068 404.872 603.394Z" fill="url(#paint9_angular)"/>
</g>
<path d="M360.375 662.086L368.541 666.897L368.541 666.898L368.547 666.901C370.284 667.883 372.135 668.685 374.082 669.287C377.133 670.23 380.418 670.68 383.865 670.559C387.117 670.445 390.3 669.83 393.343 668.786L393.224 668.44L393.343 668.786C395.405 668.078 397.403 667.174 399.315 666.095C400.822 665.245 402.276 664.286 403.666 663.23C404.948 662.257 406.176 661.2 407.341 660.069C408.496 658.949 409.59 657.755 410.615 656.497L410.307 656.246L410.615 656.497C411.697 655.169 412.702 653.769 413.621 652.306L413.621 652.306C414.704 650.58 415.668 648.768 416.496 646.884C418.299 642.782 419.46 638.343 419.818 633.729C420.859 620.312 414.848 608.81 405.074 603.052L396.904 598.238C396.903 598.237 396.902 598.237 396.901 598.236L396.7 598.579L396.498 598.922C405.985 604.512 411.873 615.709 410.853 628.852C410.502 633.373 409.364 637.726 407.596 641.749C406.783 643.596 405.838 645.375 404.775 647.067L405.089 647.265L404.775 647.067C403.874 648.503 402.887 649.877 401.826 651.18C400.821 652.414 399.748 653.585 398.615 654.683C397.472 655.792 396.269 656.828 395.013 657.782C393.651 658.816 392.227 659.755 390.751 660.588C388.88 661.643 386.927 662.527 384.913 663.219C381.94 664.238 378.835 664.838 375.665 664.949C372.306 665.067 369.11 664.628 366.144 663.712C364.253 663.127 362.454 662.347 360.766 661.393L360.369 662.082L360.375 662.086Z" stroke="#43FFF4" stroke-width="0.79532"/>
</g>
<path d="M372.855 658.832L364.788 654.104C364.795 654.108 364.803 654.112 364.81 654.116L372.877 658.845C372.87 658.84 372.862 658.836 372.855 658.832Z" fill="#4B4B4B"/>
<path d="M372.878 658.628L364.811 653.899C364.896 653.947 364.988 653.986 365.085 654.016L373.152 658.744C373.055 658.714 372.963 658.676 372.878 658.628Z" fill="#545454"/>
<path d="M373.152 658.744L365.085 654.015C365.268 654.071 365.472 654.095 365.698 654.087C366.019 654.076 366.384 654 366.792 653.86L374.859 658.589C374.451 658.729 374.086 658.805 373.764 658.816C373.539 658.823 373.335 658.8 373.152 658.744Z" fill="#5E5E5E"/>
<path d="M374.859 658.589L366.792 653.861C366.981 653.796 367.179 653.718 367.386 653.625C370.736 652.128 374.02 650.398 377.301 648.695C378.24 648.208 379.18 647.8 380.122 647.477L388.189 652.205C387.247 652.529 386.307 652.936 385.368 653.424C382.087 655.127 378.803 656.857 375.453 658.353C375.246 658.446 375.048 658.524 374.859 658.589Z" fill="#545454"/>
<path d="M388.189 652.204L380.122 647.476C381.698 646.934 383.279 646.627 384.866 646.572C386.087 646.529 387.312 646.635 388.541 646.899C388.698 646.931 388.853 646.972 389.008 647.02L397.075 651.748C396.92 651.7 396.764 651.66 396.608 651.627C395.378 651.363 394.154 651.257 392.932 651.3C391.345 651.356 389.765 651.663 388.189 652.204Z" fill="#5E5E5E"/>
<path d="M397.074 651.748L389.008 647.02C389.37 647.132 389.724 647.284 390.055 647.469L398.121 652.198C397.791 652.012 397.437 651.86 397.074 651.748Z" fill="#545454"/>
<path d="M398.122 652.198L390.055 647.47C390.082 647.484 390.108 647.5 390.133 647.515L398.2 652.243C398.174 652.228 398.148 652.213 398.122 652.198Z" fill="#4B4B4B"/>
<path d="M398.744 607.205L390.677 602.477C391.143 602.46 391.611 602.477 392.081 602.535C393.803 602.752 395.555 603.011 397.19 603.517L405.257 608.245C403.622 607.74 401.87 607.481 400.148 607.264C399.677 607.206 399.21 607.189 398.744 607.205Z" fill="#5E5E5E"/>
<path d="M405.258 608.244L397.191 603.516C397.561 603.63 397.925 603.757 398.281 603.899C398.504 603.989 398.711 604.087 398.901 604.194L406.968 608.923C406.778 608.815 406.571 608.717 406.348 608.628C405.992 608.486 405.628 608.358 405.258 608.244Z" fill="#545454"/>
<path d="M406.968 608.924L398.901 604.195C398.925 604.208 398.947 604.222 398.97 604.235L407.037 608.963C407.014 608.95 406.991 608.937 406.968 608.924Z" fill="#4B4B4B"/>
<path d="M376.328 636.816L368.261 632.088C371.097 631.164 373.644 630.173 376.231 629.544C378.774 628.927 381.361 628.5 383.912 628.33C383.998 628.324 384.084 628.32 384.169 628.317C384.736 628.297 385.29 628.341 385.797 628.497L393.864 633.225C393.357 633.07 392.803 633.025 392.236 633.045C392.151 633.048 392.065 633.053 391.979 633.058C389.428 633.228 386.841 633.655 384.298 634.272C381.711 634.901 379.164 635.892 376.328 636.816Z" fill="#5E5E5E"/>
<path d="M393.864 633.225L385.798 628.497C386.013 628.563 386.22 628.65 386.416 628.76L394.483 633.488C394.287 633.378 394.08 633.292 393.864 633.225Z" fill="#545454"/>
<path d="M394.483 633.488L386.416 628.76C386.431 628.768 386.446 628.777 386.461 628.785L394.528 633.514C394.513 633.505 394.498 633.497 394.483 633.488Z" fill="#4B4B4B"/>
<path d="M405.965 601.319L397.898 596.591C398.055 596.679 398.21 596.768 398.365 596.859L406.432 601.587C406.277 601.496 406.122 601.407 405.965 601.319Z" fill="#1C3800"/>
<path d="M369.884 662.809L361.817 658.081C359.721 656.852 358.611 654.437 358.469 650.799C358.227 644.629 360.039 638.578 361.692 632.547C362.77 628.612 364.045 624.717 365.225 620.802C365.336 620.432 365.391 620.046 365.482 619.615L373.548 624.344C373.458 624.774 373.403 625.159 373.292 625.531C372.113 629.446 370.837 633.34 369.759 637.275C368.106 643.306 366.294 649.357 366.536 655.527C366.678 659.165 367.788 661.58 369.884 662.809Z" fill="#1B1B1B"/>
<path d="M364.913 621.25L358 617C359.905 615.838 361.035 614.103 363 613L370.674 617.689C368.709 618.792 366.818 620.089 364.913 621.25Z" fill="#4B4B4B"/>
<path d="M379.529 613.019L371.462 608.291C371.93 608.13 372.404 607.988 372.888 607.87C374.779 607.41 376.656 606.808 378.526 606.165L386.592 610.893C384.723 611.536 382.846 612.138 380.955 612.599C380.471 612.717 379.997 612.858 379.529 613.019Z" fill="#5E5E5E"/>
<path d="M386.592 610.892L378.525 606.164C379.971 605.667 381.413 605.145 382.855 604.644C383.937 604.268 385.017 603.845 386.1 603.472L394.167 608.2C393.083 608.573 392.003 608.997 390.921 609.372C389.48 609.873 388.038 610.395 386.592 610.892Z" fill="#545454"/>
<path d="M394.167 608.2L386.1 603.471C387.613 602.951 389.133 602.529 390.677 602.476L398.744 607.204C397.2 607.258 395.68 607.679 394.167 608.2Z" fill="#5E5E5E"/>
<path d="M367.086 626.345L359.019 621.617C357.288 620.624 357.812 619.377 358 617.001L364.912 620.949C364.724 623.325 365.355 625.352 367.086 626.345Z" fill="#1B1B1B"/>
<path d="M398.743 607.205C399.209 607.189 399.677 607.206 400.147 607.264C402.259 607.53 404.416 607.859 406.347 608.629C408.549 609.511 409.129 611.268 408.707 613.78C399.475 614.149 390.587 617.647 381.606 620.32C380.589 620.625 380.165 621.174 379.911 622.25C378.795 626.997 377.587 631.727 376.328 636.816C379.165 635.893 381.711 634.902 384.298 634.273C386.841 633.656 389.428 633.229 391.979 633.059C392.065 633.053 392.151 633.049 392.236 633.046C394.049 632.982 395.726 633.575 396.169 636.369C394.163 637.199 392.155 638.104 390.111 638.859C387.309 639.899 384.479 640.826 381.663 641.802C380.496 642.207 379.336 642.637 378.169 643.011C376.781 643.457 374.962 643.433 374.107 644.388C373.215 645.382 373.16 647.295 372.903 648.819C372.503 651.206 372.041 653.622 371.972 655.993C371.915 657.923 372.513 658.859 373.765 658.815C374.235 658.799 374.797 658.644 375.452 658.352C378.802 656.855 382.086 655.125 385.367 653.422C387.876 652.119 390.396 651.388 392.932 651.299C394.153 651.257 395.378 651.363 396.607 651.626C397.363 651.785 398.116 652.125 398.718 652.592C399.92 653.513 399.74 655.054 398.274 655.744C390.891 659.223 383.513 662.796 375.588 663.675C375.191 663.718 374.806 663.747 374.435 663.76C369.367 663.937 366.758 661.239 366.536 655.527C366.294 649.356 368.106 643.306 369.759 637.274C370.836 633.339 372.112 629.444 373.292 625.53C373.402 625.159 373.458 624.773 373.548 624.343C371.714 624.754 370.124 626.626 368.401 626.686C367.972 626.701 367.536 626.604 367.085 626.345C365.354 625.352 364.723 623.325 364.911 620.949C367.236 619.532 369.539 617.913 371.981 616.69C374.924 615.211 377.74 613.383 380.953 612.598C384.306 611.781 387.613 610.521 390.92 609.372C393.514 608.473 396.094 607.298 398.743 607.205Z" fill="#C2C2C2"/>
<path d="M389.601 597.431C409.209 596.746 423.829 613.258 422.193 634.238C420.556 655.218 403.272 672.845 383.664 673.53C364.056 674.214 349.435 657.702 351.072 636.722C352.709 615.741 369.993 598.116 389.601 597.431ZM383.927 670.155C401.797 669.531 417.547 653.469 419.038 634.348C420.53 615.227 407.207 600.181 389.337 600.805C371.47 601.429 355.717 617.49 354.226 636.611C352.734 655.733 366.06 670.779 383.927 670.155Z" fill="url(#paint10_angular)"/>
</g>
<g style="mix-blend-mode:color-dodge" filter="url(#filter25_f)">
<path d="M398.645 607.009C399.111 606.993 399.579 607.01 400.049 607.068C402.161 607.334 404.318 607.662 406.249 608.433C408.451 609.315 409.031 611.072 408.609 613.584C399.377 613.953 390.489 617.451 381.508 620.123C380.491 620.428 380.067 620.978 379.813 622.054C378.698 626.801 377.489 631.531 376.23 636.62C379.067 635.696 381.613 634.706 384.2 634.077C386.743 633.459 389.33 633.032 391.881 632.862C391.967 632.857 392.053 632.852 392.138 632.849C393.951 632.786 395.628 633.379 396.071 636.172C394.065 637.003 392.057 637.908 390.013 638.662C387.212 639.703 384.381 640.629 381.565 641.606C380.398 642.01 379.238 642.441 378.071 642.815C376.683 643.261 374.864 643.237 374.009 644.192C373.117 645.185 373.062 647.099 372.805 648.623C372.405 651.009 371.943 653.425 371.874 655.797C371.817 657.727 372.415 658.663 373.667 658.619C374.137 658.603 374.699 658.448 375.354 658.156C378.704 656.659 381.988 654.929 385.269 653.226C387.778 651.923 390.298 651.192 392.834 651.103C394.055 651.061 395.28 651.167 396.509 651.43C397.265 651.589 398.018 651.929 398.62 652.396C399.822 653.317 399.642 654.858 398.176 655.548C390.793 659.027 383.415 662.599 375.49 663.478C375.093 663.522 374.708 663.55 374.337 663.564C369.27 663.74 366.66 661.043 366.438 655.33C366.196 649.16 368.008 643.109 369.661 637.078C370.738 633.143 372.014 629.248 373.194 625.333C373.305 624.963 373.36 624.577 373.45 624.146C371.617 624.558 370.026 626.43 368.303 626.49C367.874 626.505 367.438 626.408 366.987 626.149C365.256 625.156 364.625 623.128 364.813 620.753C367.138 619.335 369.441 617.717 371.883 616.494C374.826 615.015 377.642 613.186 380.855 612.401C384.208 611.584 387.515 610.324 390.822 609.176C393.416 608.277 395.996 607.101 398.645 607.009Z" fill="white"/>
<path d="M381.394 619.743L381.395 619.742C383.254 619.189 385.114 618.598 386.978 618.006C393.969 615.787 401.017 613.549 408.265 613.201C408.411 612.128 408.344 611.251 408.047 610.553C407.728 609.803 407.122 609.211 406.102 608.802L381.394 619.743ZM381.394 619.743C380.835 619.91 380.4 620.157 380.072 620.541C379.749 620.92 379.56 621.395 379.426 621.962L379.426 621.963M381.394 619.743L379.426 621.963M379.426 621.963C378.632 625.341 377.791 628.71 376.918 632.208C376.565 633.623 376.207 635.058 375.844 636.524L375.672 637.22M379.426 621.963L375.672 637.22M375.672 637.22L376.353 636.998M375.672 637.22L376.353 636.998M376.353 636.998C377.241 636.709 378.094 636.416 378.926 636.13C380.778 635.493 382.522 634.894 384.294 634.463C386.818 633.85 389.383 633.427 391.908 633.259L391.908 633.259M376.353 636.998L391.908 633.259M391.908 633.259C391.989 633.254 392.071 633.25 392.152 633.247L391.908 633.259ZM389.875 638.29L389.876 638.289C391.285 637.769 392.672 637.179 394.063 636.587C394.582 636.367 395.101 636.146 395.622 635.928C395.389 634.796 394.932 634.144 394.391 633.765C393.791 633.347 393.019 633.216 392.152 633.247L389.875 638.29ZM389.875 638.29C387.941 639.008 385.996 639.671 384.046 640.335C383.177 640.631 382.306 640.928 381.435 641.23C381.047 641.364 380.664 641.501 380.282 641.636C379.502 641.912 378.73 642.186 377.949 642.436L377.949 642.436M389.875 638.29L377.949 642.436M377.949 642.436C377.625 642.54 377.27 642.619 376.893 642.694C376.79 642.714 376.683 642.735 376.576 642.756C376.302 642.809 376.02 642.863 375.751 642.925C375.009 643.095 374.23 643.349 373.713 643.927M377.949 642.436L371.477 655.785M371.477 655.785C371.538 653.689 371.901 651.559 372.257 649.476C372.309 649.169 372.362 648.862 372.413 648.557L372.413 648.556C372.466 648.245 372.51 647.916 372.555 647.575C372.564 647.508 372.573 647.441 372.582 647.374C372.638 646.964 372.698 646.541 372.779 646.131C372.939 645.324 373.192 644.507 373.713 643.927M371.477 655.785C371.447 656.778 371.582 657.591 371.944 658.161C372.33 658.767 372.936 659.042 373.681 659.016C374.222 658.998 374.837 658.822 375.516 658.519L375.517 658.519C378.579 657.151 381.585 655.588 384.573 654.036C384.866 653.884 385.159 653.731 385.453 653.579L385.453 653.579C387.919 652.298 390.381 651.587 392.848 651.5C394.036 651.459 395.228 651.563 396.426 651.819L396.428 651.819C397.127 651.966 397.824 652.282 398.376 652.71L398.378 652.712C398.883 653.098 399.061 653.58 399.004 654.006C398.947 654.434 398.641 654.889 398.006 655.188L398.006 655.188C397.781 655.295 397.555 655.401 397.33 655.507C390.161 658.888 383.054 662.239 375.446 663.083C375.058 663.126 374.683 663.153 374.323 663.166C371.861 663.252 370.068 662.639 368.857 661.38C367.638 660.112 366.945 658.122 366.835 655.315L366.835 655.315C366.612 649.633 368.152 644.049 369.705 638.416C369.818 638.005 369.932 637.594 370.044 637.183L370.044 637.183C370.769 634.536 371.582 631.912 372.398 629.281C372.793 628.006 373.188 626.73 373.575 625.448L373.575 625.447C373.657 625.172 373.713 624.876 373.769 624.587C373.792 624.466 373.815 624.345 373.839 624.228L373.966 623.623L373.363 623.758C372.449 623.964 371.6 624.499 370.836 624.98C370.764 625.025 370.694 625.069 370.624 625.113C369.767 625.649 369.027 626.067 368.289 626.092L368.289 626.092C367.936 626.105 367.573 626.027 367.185 625.804L367.185 625.804C365.693 624.948 365.064 623.198 365.196 620.985C365.867 620.573 366.531 620.149 367.193 619.726C368.795 618.704 370.39 617.687 372.061 616.85L372.061 616.849C372.818 616.469 373.558 616.071 374.293 615.676C376.467 614.506 378.591 613.364 380.949 612.788C383.669 612.125 386.361 611.172 389.026 610.229C389.67 610.001 390.312 609.774 390.953 609.552L371.477 655.785ZM373.713 643.927C373.713 643.927 373.713 643.926 373.714 643.926L374.009 644.191L373.713 643.927C373.713 643.927 373.713 643.927 373.713 643.927ZM400 607.462C402.111 607.728 404.223 608.052 406.101 608.802L400 607.462Z" stroke="white" stroke-width="0.79532"/>
</g>
<g style="mix-blend-mode:color" opacity="0.8">
<g filter="url(#filter26_f)">
<path d="M398.645 607.009C399.111 606.993 399.579 607.01 400.049 607.068C402.161 607.334 404.318 607.662 406.249 608.433C408.451 609.315 409.031 611.072 408.609 613.584C399.377 613.953 390.489 617.451 381.508 620.123C380.491 620.428 380.067 620.978 379.813 622.054C378.698 626.801 377.489 631.531 376.23 636.62C379.067 635.696 381.613 634.706 384.2 634.077C386.743 633.459 389.33 633.032 391.881 632.862C391.967 632.857 392.053 632.852 392.138 632.849C393.951 632.786 395.628 633.379 396.071 636.172C394.065 637.003 392.057 637.908 390.013 638.662C387.212 639.703 384.381 640.629 381.565 641.606C380.398 642.01 379.238 642.441 378.071 642.815C376.683 643.261 374.864 643.237 374.009 644.192C373.117 645.185 373.062 647.099 372.805 648.623C372.405 651.009 371.943 653.425 371.874 655.797C371.817 657.727 372.415 658.663 373.667 658.619C374.137 658.603 374.699 658.448 375.354 658.156C378.704 656.659 381.988 654.929 385.269 653.226C387.778 651.923 390.298 651.192 392.834 651.103C394.055 651.061 395.28 651.167 396.509 651.43C397.265 651.589 398.018 651.929 398.62 652.396C399.822 653.317 399.642 654.858 398.176 655.548C390.793 659.027 383.415 662.599 375.49 663.478C375.093 663.522 374.708 663.55 374.337 663.564C369.27 663.74 366.66 661.043 366.438 655.33C366.196 649.16 368.008 643.109 369.661 637.078C370.738 633.143 372.014 629.248 373.194 625.333C373.305 624.963 373.36 624.577 373.45 624.146C371.617 624.558 370.026 626.43 368.303 626.49C367.874 626.505 367.438 626.408 366.987 626.149C365.256 625.156 364.625 623.128 364.813 620.753C367.138 619.335 369.441 617.717 371.883 616.494C374.826 615.015 377.642 613.186 380.855 612.401C384.208 611.584 387.515 610.324 390.822 609.176C393.416 608.277 395.996 607.101 398.645 607.009Z" fill="white"/>
<path d="M376.286 636.392C376.629 635.007 376.969 633.648 377.303 632.307C378.177 628.808 379.019 625.435 379.813 622.054C380.067 620.978 380.491 620.428 381.508 620.123C383.383 619.565 385.255 618.971 387.126 618.377C394.216 616.127 401.304 613.876 408.609 613.584M376.286 636.392L408.609 613.584M376.286 636.392C376.267 636.468 376.249 636.544 376.23 636.62M376.286 636.392L376.453 636.547M376.286 636.392C376.247 636.405 376.208 636.418 376.168 636.431L376.23 636.62M376.286 636.392L376.453 636.547M408.609 613.584L408.601 613.385C408.547 613.387 408.493 613.389 408.438 613.392C408.43 613.444 408.422 613.497 408.413 613.551L408.609 613.584ZM373.674 658.818C372.988 658.842 372.454 658.593 372.112 658.055C371.781 657.535 371.647 656.77 371.675 655.791L371.874 655.797L374.33 663.365M373.674 658.818C373.674 658.818 373.674 658.818 373.674 658.818L373.667 658.619L373.674 658.818ZM373.674 658.818C374.179 658.8 374.768 658.635 375.435 658.337L375.435 658.337C378.492 656.972 381.493 655.412 384.481 653.859C384.775 653.707 385.068 653.555 385.361 653.402L385.361 653.402C387.849 652.111 390.339 651.389 392.841 651.302C394.046 651.26 395.254 651.365 396.468 651.624L396.469 651.625C397.196 651.777 397.921 652.106 398.498 652.553L398.499 652.554C399.052 652.977 399.269 653.526 399.202 654.032C399.134 654.54 398.775 655.046 398.091 655.368L398.091 655.368C397.862 655.476 397.632 655.585 397.403 655.693C390.244 659.069 383.109 662.433 375.468 663.281C375.468 663.281 375.468 663.281 375.468 663.281L375.49 663.478M375.49 663.478C375.093 663.522 374.708 663.55 374.337 663.564M375.49 663.478C383.165 662.627 390.326 659.25 397.476 655.878C397.709 655.768 397.942 655.658 398.176 655.548M375.49 663.478L398.176 655.548M374.337 663.564L374.33 663.365C374.33 663.365 374.33 663.365 374.33 663.365M374.337 663.564L374.33 663.365M374.337 663.564C369.27 663.74 366.66 661.043 366.438 655.33C366.212 649.584 367.768 643.943 369.318 638.323C369.433 637.908 369.547 637.493 369.661 637.078C370.387 634.425 371.204 631.79 372.02 629.155C372.415 627.882 372.809 626.609 373.194 625.333C373.27 625.078 373.32 624.816 373.373 624.536C373.384 624.478 373.395 624.42 373.407 624.361C373.436 624.354 373.465 624.347 373.494 624.34L373.45 624.146L373.255 624.106C373.249 624.138 373.242 624.17 373.236 624.201C372.472 624.42 371.749 624.875 371.039 625.322C370.126 625.896 369.234 626.457 368.303 626.49C367.874 626.505 367.438 626.408 366.987 626.149C365.256 625.156 364.625 623.128 364.813 620.753M374.33 663.365C371.832 663.452 369.976 662.83 368.714 661.518C367.448 660.201 366.747 658.154 366.637 655.323L366.637 655.323C366.412 649.609 367.96 643.996 369.511 638.37C369.625 637.957 369.739 637.543 369.853 637.13L369.853 637.13C370.578 634.48 371.393 631.851 372.209 629.218C372.604 627.944 372.999 626.669 373.384 625.391L373.384 625.39C373.464 625.125 373.517 624.846 373.571 624.562C373.595 624.438 373.618 624.313 373.645 624.187L373.708 623.885L373.406 623.952C372.528 624.15 371.708 624.666 370.938 625.151C370.868 625.195 370.799 625.238 370.73 625.281C369.88 625.813 369.096 626.263 368.296 626.291L368.296 626.291C367.905 626.305 367.505 626.217 367.086 625.977L367.086 625.976C365.476 625.053 364.844 623.165 365.004 620.869M364.813 620.753L364.917 620.922C364.946 620.905 364.975 620.887 365.004 620.869M364.813 620.753C365.529 620.316 366.243 619.861 366.959 619.404C368.569 618.376 370.193 617.34 371.883 616.494L365.004 620.869M364.813 620.753L365.012 620.768C365.009 620.802 365.006 620.836 365.004 620.869M398.62 652.396C398.018 651.929 397.265 651.589 396.509 651.43C395.28 651.167 394.055 651.061 392.834 651.103C390.298 651.192 387.778 651.923 385.269 653.226L398.62 652.396ZM398.62 652.396C399.822 653.317 399.642 654.858 398.176 655.548M398.62 652.396L398.176 655.548M376.23 636.62C376.304 636.596 376.379 636.571 376.453 636.547M376.23 636.62L376.423 636.668C376.433 636.627 376.443 636.587 376.453 636.547M374.009 644.192L373.862 644.059C373.861 644.059 373.861 644.059 373.861 644.059L374.009 644.192ZM381.565 641.606L381.5 641.418C381.5 641.418 381.5 641.418 381.5 641.418L381.565 641.606ZM395.995 635.989C395.946 636.009 395.897 636.029 395.848 636.049C395.857 636.1 395.866 636.151 395.874 636.203L396.071 636.172L395.995 635.989ZM392.145 633.048C392.145 633.048 392.145 633.048 392.145 633.048C392.145 633.048 392.145 633.048 392.145 633.048L392.138 632.85L392.145 633.048ZM384.247 634.27C384.247 634.27 384.247 634.27 384.247 634.27L384.2 634.077L384.247 634.27Z" stroke="#4EFFFF" stroke-width="0.39766"/>
</g>
</g>
<defs>
<filter id="filter0_df" x="814.565" y="375.421" width="34.7322" height="22.0071" filterUnits="userSpaceOnUse" color-interpolation-filters="sRGB">
<feFlood flood-opacity="0" result="BackgroundImageFix"/>
<feColorMatrix in="SourceAlpha" type="matrix" values="0 0 0 0 0 0 0 0 0 0 0 0 0 0 0 0 0 0 127 0" result="hardAlpha"/>
<feOffset dx="0.762585" dy="0.762585"/>
<feGaussianBlur stdDeviation="0.762585"/>
<feColorMatrix type="matrix" values="0 0 0 0 1 0 0 0 0 1 0 0 0 0 1 0 0 0 0.25 0"/>
<feBlend mode="normal" in2="BackgroundImageFix" result="effect1_dropShadow"/>
<feBlend mode="normal" in="SourceGraphic" in2="effect1_dropShadow" result="shape"/>
<feGaussianBlur stdDeviation="0.381292" result="effect2_foregroundBlur"/>
</filter>
<filter id="filter1_df" x="440.1" y="712.605" width="114.963" height="65.9466" filterUnits="userSpaceOnUse" color-interpolation-filters="sRGB">
<feFlood flood-opacity="0" result="BackgroundImageFix"/>
<feColorMatrix in="SourceAlpha" type="matrix" values="0 0 0 0 0 0 0 0 0 0 0 0 0 0 0 0 0 0 127 0" result="hardAlpha"/>
<feOffset dx="0.762585" dy="0.762585"/>
<feGaussianBlur stdDeviation="0.762585"/>
<feColorMatrix type="matrix" values="0 0 0 0 1 0 0 0 0 1 0 0 0 0 1 0 0 0 0.25 0"/>
<feBlend mode="normal" in2="BackgroundImageFix" result="effect1_dropShadow"/>
<feBlend mode="normal" in="SourceGraphic" in2="effect1_dropShadow" result="shape"/>
<feGaussianBlur stdDeviation="0.381292" result="effect2_foregroundBlur"/>
</filter>
<filter id="filter2_df" x="844.854" y="520.28" width="53.5007" height="32.6697" filterUnits="userSpaceOnUse" color-interpolation-filters="sRGB">
<feFlood flood-opacity="0" result="BackgroundImageFix"/>
<feColorMatrix in="SourceAlpha" type="matrix" values="0 0 0 0 0 0 0 0 0 0 0 0 0 0 0 0 0 0 127 0" result="hardAlpha"/>
<feOffset dx="0.762585" dy="0.762585"/>
<feGaussianBlur stdDeviation="0.762585"/>
<feColorMatrix type="matrix" values="0 0 0 0 1 0 0 0 0 1 0 0 0 0 1 0 0 0 0.25 0"/>
<feBlend mode="normal" in2="BackgroundImageFix" result="effect1_dropShadow"/>
<feBlend mode="normal" in="SourceGraphic" in2="effect1_dropShadow" result="shape"/>
<feGaussianBlur stdDeviation="0.381292" result="effect2_foregroundBlur"/>
</filter>
<filter id="filter3_df" x="393.395" y="754.063" width="38.7733" height="24.5111" filterUnits="userSpaceOnUse" color-interpolation-filters="sRGB">
<feFlood flood-opacity="0" result="BackgroundImageFix"/>
<feColorMatrix in="SourceAlpha" type="matrix" values="0 0 0 0 0 0 0 0 0 0 0 0 0 0 0 0 0 0 127 0" result="hardAlpha"/>
<feOffset dx="0.762585" dy="0.762585"/>
<feGaussianBlur stdDeviation="0.762585"/>
<feColorMatrix type="matrix" values="0 0 0 0 1 0 0 0 0 1 0 0 0 0 1 0 0 0 0.25 0"/>
<feBlend mode="normal" in2="BackgroundImageFix" result="effect1_dropShadow"/>
<feBlend mode="normal" in="SourceGraphic" in2="effect1_dropShadow" result="shape"/>
<feGaussianBlur stdDeviation="0.381292" result="effect2_foregroundBlur"/>
</filter>
<filter id="filter4_df" x="533.866" y="515.946" width="146.698" height="84.1633" filterUnits="userSpaceOnUse" color-interpolation-filters="sRGB">
<feFlood flood-opacity="0" result="BackgroundImageFix"/>
<feColorMatrix in="SourceAlpha" type="matrix" values="0 0 0 0 0 0 0 0 0 0 0 0 0 0 0 0 0 0 127 0" result="hardAlpha"/>
<feOffset dx="0.762585" dy="0.762585"/>
<feGaussianBlur stdDeviation="0.762585"/>
<feColorMatrix type="matrix" values="0 0 0 0 1 0 0 0 0 1 0 0 0 0 1 0 0 0 0.25 0"/>
<feBlend mode="normal" in2="BackgroundImageFix" result="effect1_dropShadow"/>
<feBlend mode="normal" in="SourceGraphic" in2="effect1_dropShadow" result="shape"/>
<feGaussianBlur stdDeviation="0.381292" result="effect2_foregroundBlur"/>
</filter>
<filter id="filter5_df" x="894.121" y="459.565" width="64.15" height="64.7538" filterUnits="userSpaceOnUse" color-interpolation-filters="sRGB">
<feFlood flood-opacity="0" result="BackgroundImageFix"/>
<feColorMatrix in="SourceAlpha" type="matrix" values="0 0 0 0 0 0 0 0 0 0 0 0 0 0 0 0 0 0 127 0" result="hardAlpha"/>
<feOffset dx="0.762585" dy="0.762585"/>
<feGaussianBlur stdDeviation="0.762585"/>
<feColorMatrix type="matrix" values="0 0 0 0 1 0 0 0 0 1 0 0 0 0 1 0 0 0 0.25 0"/>
<feBlend mode="normal" in2="BackgroundImageFix" result="effect1_dropShadow"/>
<feBlend mode="normal" in="SourceGraphic" in2="effect1_dropShadow" result="shape"/>
<feGaussianBlur stdDeviation="0.381292" result="effect2_foregroundBlur"/>
</filter>
<filter id="filter6_df" x="620.955" y="738.447" width="20.4164" height="14.8492" filterUnits="userSpaceOnUse" color-interpolation-filters="sRGB">
<feFlood flood-opacity="0" result="BackgroundImageFix"/>
<feColorMatrix in="SourceAlpha" type="matrix" values="0 0 0 0 0 0 0 0 0 0 0 0 0 0 0 0 0 0 127 0" result="hardAlpha"/>
<feOffset dx="0.762585" dy="0.762585"/>
<feGaussianBlur stdDeviation="0.762585"/>
<feColorMatrix type="matrix" values="0 0 0 0 1 0 0 0 0 1 0 0 0 0 1 0 0 0 0.25 0"/>
<feBlend mode="normal" in2="BackgroundImageFix" result="effect1_dropShadow"/>
<feBlend mode="normal" in="SourceGraphic" in2="effect1_dropShadow" result="shape"/>
<feGaussianBlur stdDeviation="0.381292" result="effect2_foregroundBlur"/>
</filter>
<filter id="filter7_df" x="426.383" y="772.339" width="20.4164" height="14.8492" filterUnits="userSpaceOnUse" color-interpolation-filters="sRGB">
<feFlood flood-opacity="0" result="BackgroundImageFix"/>
<feColorMatrix in="SourceAlpha" type="matrix" values="0 0 0 0 0 0 0 0 0 0 0 0 0 0 0 0 0 0 127 0" result="hardAlpha"/>
<feOffset dx="0.762585" dy="0.762585"/>
<feGaussianBlur stdDeviation="0.762585"/>
<feColorMatrix type="matrix" values="0 0 0 0 1 0 0 0 0 1 0 0 0 0 1 0 0 0 0.25 0"/>
<feBlend mode="normal" in2="BackgroundImageFix" result="effect1_dropShadow"/>
<feBlend mode="normal" in="SourceGraphic" in2="effect1_dropShadow" result="shape"/>
<feGaussianBlur stdDeviation="0.381292" result="effect2_foregroundBlur"/>
</filter>
<filter id="filter8_df" x="671.604" y="593.684" width="34.7322" height="22.0071" filterUnits="userSpaceOnUse" color-interpolation-filters="sRGB">
<feFlood flood-opacity="0" result="BackgroundImageFix"/>
<feColorMatrix in="SourceAlpha" type="matrix" values="0 0 0 0 0 0 0 0 0 0 0 0 0 0 0 0 0 0 127 0" result="hardAlpha"/>
<feOffset dx="0.762585" dy="0.762585"/>
<feGaussianBlur stdDeviation="0.762585"/>
<feColorMatrix type="matrix" values="0 0 0 0 1 0 0 0 0 1 0 0 0 0 1 0 0 0 0.25 0"/>
<feBlend mode="normal" in2="BackgroundImageFix" result="effect1_dropShadow"/>
<feBlend mode="normal" in="SourceGraphic" in2="effect1_dropShadow" result="shape"/>
<feGaussianBlur stdDeviation="0.381292" result="effect2_foregroundBlur"/>
</filter>
<filter id="filter9_df" x="641.119" y="455.819" width="168.788" height="95.5104" filterUnits="userSpaceOnUse" color-interpolation-filters="sRGB">
<feFlood flood-opacity="0" result="BackgroundImageFix"/>
<feColorMatrix in="SourceAlpha" type="matrix" values="0 0 0 0 0 0 0 0 0 0 0 0 0 0 0 0 0 0 127 0" result="hardAlpha"/>
<feOffset dx="0.762585" dy="0.762585"/>
<feGaussianBlur stdDeviation="0.762585"/>
<feColorMatrix type="matrix" values="0 0 0 0 1 0 0 0 0 1 0 0 0 0 1 0 0 0 0.25 0"/>
<feBlend mode="normal" in2="BackgroundImageFix" result="effect1_dropShadow"/>
<feBlend mode="normal" in="SourceGraphic" in2="effect1_dropShadow" result="shape"/>
<feGaussianBlur stdDeviation="0.381292" result="effect2_foregroundBlur"/>
</filter>
<filter id="filter10_df" x="839.296" y="387.546" width="120.237" height="69.159" filterUnits="userSpaceOnUse" color-interpolation-filters="sRGB">
<feFlood flood-opacity="0" result="BackgroundImageFix"/>
<feColorMatrix in="SourceAlpha" type="matrix" values="0 0 0 0 0 0 0 0 0 0 0 0 0 0 0 0 0 0 127 0" result="hardAlpha"/>
<feOffset dx="0.762585" dy="0.762585"/>
<feGaussianBlur stdDeviation="0.762585"/>
<feColorMatrix type="matrix" values="0 0 0 0 1 0 0 0 0 1 0 0 0 0 1 0 0 0 0.25 0"/>
<feBlend mode="normal" in2="BackgroundImageFix" result="effect1_dropShadow"/>
<feBlend mode="normal" in="SourceGraphic" in2="effect1_dropShadow" result="shape"/>
<feGaussianBlur stdDeviation="0.381292" result="effect2_foregroundBlur"/>
</filter>
<filter id="filter11_df" x="535.115" y="456.989" width="87.3368" height="51.0889" filterUnits="userSpaceOnUse" color-interpolation-filters="sRGB">
<feFlood flood-opacity="0" result="BackgroundImageFix"/>
<feColorMatrix in="SourceAlpha" type="matrix" values="0 0 0 0 0 0 0 0 0 0 0 0 0 0 0 0 0 0 127 0" result="hardAlpha"/>
<feOffset dx="0.762585" dy="0.762585"/>
<feGaussianBlur stdDeviation="0.762585"/>
<feColorMatrix type="matrix" values="0 0 0 0 1 0 0 0 0 1 0 0 0 0 1 0 0 0 0.25 0"/>
<feBlend mode="normal" in2="BackgroundImageFix" result="effect1_dropShadow"/>
<feBlend mode="normal" in="SourceGraphic" in2="effect1_dropShadow" result="shape"/>
<feGaussianBlur stdDeviation="0.381292" result="effect2_foregroundBlur"/>
</filter>
<filter id="filter12_df" x="507.712" y="499.712" width="35.1007" height="23.1007" filterUnits="userSpaceOnUse" color-interpolation-filters="sRGB">
<feFlood flood-opacity="0" result="BackgroundImageFix"/>
<feColorMatrix in="SourceAlpha" type="matrix" values="0 0 0 0 0 0 0 0 0 0 0 0 0 0 0 0 0 0 127 0" result="hardAlpha"/>
<feOffset dx="0.762585" dy="0.762585"/>
<feGaussianBlur stdDeviation="0.762585"/>
<feColorMatrix type="matrix" values="0 0 0 0 1 0 0 0 0 1 0 0 0 0 1 0 0 0 0.25 0"/>
<feBlend mode="normal" in2="BackgroundImageFix" result="effect1_dropShadow"/>
<feBlend mode="normal" in="SourceGraphic" in2="effect1_dropShadow" result="shape"/>
<feGaussianBlur stdDeviation="0.381292" result="effect2_foregroundBlur"/>
</filter>
<filter id="filter13_df" x="634.617" y="705.07" width="67.5404" height="39.7589" filterUnits="userSpaceOnUse" color-interpolation-filters="sRGB">
<feFlood flood-opacity="0" result="BackgroundImageFix"/>
<feColorMatrix in="SourceAlpha" type="matrix" values="0 0 0 0 0 0 0 0 0 0 0 0 0 0 0 0 0 0 127 0" result="hardAlpha"/>
<feOffset dx="0.762585" dy="0.762585"/>
<feGaussianBlur stdDeviation="0.762585"/>
<feColorMatrix type="matrix" values="0 0 0 0 1 0 0 0 0 1 0 0 0 0 1 0 0 0 0.25 0"/>
<feBlend mode="normal" in2="BackgroundImageFix" result="effect1_dropShadow"/>
<feBlend mode="normal" in="SourceGraphic" in2="effect1_dropShadow" result="shape"/>
<feGaussianBlur stdDeviation="0.381292" result="effect2_foregroundBlur"/>
</filter>
<filter id="filter14_df" x="574.364" y="712.697" width="52.5471" height="31.7552" filterUnits="userSpaceOnUse" color-interpolation-filters="sRGB">
<feFlood flood-opacity="0" result="BackgroundImageFix"/>
<feColorMatrix in="SourceAlpha" type="matrix" values="0 0 0 0 0 0 0 0 0 0 0 0 0 0 0 0 0 0 127 0" result="hardAlpha"/>
<feOffset dx="0.762585" dy="0.762585"/>
<feGaussianBlur stdDeviation="0.762585"/>
<feColorMatrix type="matrix" values="0 0 0 0 1 0 0 0 0 1 0 0 0 0 1 0 0 0 0.25 0"/>
<feBlend mode="normal" in2="BackgroundImageFix" result="effect1_dropShadow"/>
<feBlend mode="normal" in="SourceGraphic" in2="effect1_dropShadow" result="shape"/>
<feGaussianBlur stdDeviation="0.381292" result="effect2_foregroundBlur"/>
</filter>
<filter id="filter15_df" x="699.188" y="607.001" width="84.7274" height="50.5743" filterUnits="userSpaceOnUse" color-interpolation-filters="sRGB">
<feFlood flood-opacity="0" result="BackgroundImageFix"/>
<feColorMatrix in="SourceAlpha" type="matrix" values="0 0 0 0 0 0 0 0 0 0 0 0 0 0 0 0 0 0 127 0" result="hardAlpha"/>
<feOffset dx="0.762585" dy="0.762585"/>
<feGaussianBlur stdDeviation="0.762585"/>
<feColorMatrix type="matrix" values="0 0 0 0 1 0 0 0 0 1 0 0 0 0 1 0 0 0 0.25 0"/>
<feBlend mode="normal" in2="BackgroundImageFix" result="effect1_dropShadow"/>
<feBlend mode="normal" in="SourceGraphic" in2="effect1_dropShadow" result="shape"/>
<feGaussianBlur stdDeviation="0.381292" result="effect2_foregroundBlur"/>
</filter>
<filter id="filter16_df" x="791.86" y="659.699" width="52.3052" height="32.0006" filterUnits="userSpaceOnUse" color-interpolation-filters="sRGB">
<feFlood flood-opacity="0" result="BackgroundImageFix"/>
<feColorMatrix in="SourceAlpha" type="matrix" values="0 0 0 0 0 0 0 0 0 0 0 0 0 0 0 0 0 0 127 0" result="hardAlpha"/>
<feOffset dx="0.762585" dy="0.762585"/>
<feGaussianBlur stdDeviation="0.762585"/>
<feColorMatrix type="matrix" values="0 0 0 0 1 0 0 0 0 1 0 0 0 0 1 0 0 0 0.25 0"/>
<feBlend mode="normal" in2="BackgroundImageFix" result="effect1_dropShadow"/>
<feBlend mode="normal" in="SourceGraphic" in2="effect1_dropShadow" result="shape"/>
<feGaussianBlur stdDeviation="0.381292" result="effect2_foregroundBlur"/>
</filter>
<filter id="filter17_df" x="863.615" y="699.821" width="84.2945" height="49.3816" filterUnits="userSpaceOnUse" color-interpolation-filters="sRGB">
<feFlood flood-opacity="0" result="BackgroundImageFix"/>
<feColorMatrix in="SourceAlpha" type="matrix" values="0 0 0 0 0 0 0 0 0 0 0 0 0 0 0 0 0 0 127 0" result="hardAlpha"/>
<feOffset dx="0.762585" dy="0.762585"/>
<feGaussianBlur stdDeviation="0.762585"/>
<feColorMatrix type="matrix" values="0 0 0 0 1 0 0 0 0 1 0 0 0 0 1 0 0 0 0.25 0"/>
<feBlend mode="normal" in2="BackgroundImageFix" result="effect1_dropShadow"/>
<feBlend mode="normal" in="SourceGraphic" in2="effect1_dropShadow" result="shape"/>
<feGaussianBlur stdDeviation="0.381292" result="effect2_foregroundBlur"/>
</filter>
<filter id="filter18_df" x="777.946" y="651.641" width="19.6211" height="14.0539" filterUnits="userSpaceOnUse" color-interpolation-filters="sRGB">
<feFlood flood-opacity="0" result="BackgroundImageFix"/>
<feColorMatrix in="SourceAlpha" type="matrix" values="0 0 0 0 0 0 0 0 0 0 0 0 0 0 0 0 0 0 127 0" result="hardAlpha"/>
<feOffset dx="0.762585" dy="0.762585"/>
<feGaussianBlur stdDeviation="0.762585"/>
<feColorMatrix type="matrix" values="0 0 0 0 1 0 0 0 0 1 0 0 0 0 1 0 0 0 0.25 0"/>
<feBlend mode="normal" in2="BackgroundImageFix" result="effect1_dropShadow"/>
<feBlend mode="normal" in="SourceGraphic" in2="effect1_dropShadow" result="shape"/>
<feGaussianBlur stdDeviation="0.381292" result="effect2_foregroundBlur"/>
</filter>
<filter id="filter19_df" x="952.295" y="451.57" width="19.6211" height="14.0539" filterUnits="userSpaceOnUse" color-interpolation-filters="sRGB">
<feFlood flood-opacity="0" result="BackgroundImageFix"/>
<feColorMatrix in="SourceAlpha" type="matrix" values="0 0 0 0 0 0 0 0 0 0 0 0 0 0 0 0 0 0 127 0" result="hardAlpha"/>
<feOffset dx="0.762585" dy="0.762585"/>
<feGaussianBlur stdDeviation="0.762585"/>
<feColorMatrix type="matrix" values="0 0 0 0 1 0 0 0 0 1 0 0 0 0 1 0 0 0 0.25 0"/>
<feBlend mode="normal" in2="BackgroundImageFix" result="effect1_dropShadow"/>
<feBlend mode="normal" in="SourceGraphic" in2="effect1_dropShadow" result="shape"/>
<feGaussianBlur stdDeviation="0.381292" result="effect2_foregroundBlur"/>
</filter>
<filter id="filter20_df" x="697.865" y="659.446" width="85.6693" height="50.1318" filterUnits="userSpaceOnUse" color-interpolation-filters="sRGB">
<feFlood flood-opacity="0" result="BackgroundImageFix"/>
<feColorMatrix in="SourceAlpha" type="matrix" values="0 0 0 0 0 0 0 0 0 0 0 0 0 0 0 0 0 0 127 0" result="hardAlpha"/>
<feOffset dx="0.762585" dy="0.762585"/>
<feGaussianBlur stdDeviation="0.762585"/>
<feColorMatrix type="matrix" values="0 0 0 0 1 0 0 0 0 1 0 0 0 0 1 0 0 0 0.25 0"/>
<feBlend mode="normal" in2="BackgroundImageFix" result="effect1_dropShadow"/>
<feBlend mode="normal" in="SourceGraphic" in2="effect1_dropShadow" result="shape"/>
<feGaussianBlur stdDeviation="0.381292" result="effect2_foregroundBlur"/>
</filter>
<filter id="filter21_f" x="240" y="602" width="291" height="292" filterUnits="userSpaceOnUse" color-interpolation-filters="sRGB">
<feFlood flood-opacity="0" result="BackgroundImageFix"/>
<feBlend mode="normal" in="SourceGraphic" in2="BackgroundImageFix" result="shape"/>
<feGaussianBlur stdDeviation="2.5" result="effect1_foregroundBlur"/>
</filter>
<filter id="filter22_f" x="207" y="569" width="357" height="357" filterUnits="userSpaceOnUse" color-interpolation-filters="sRGB">
<feFlood flood-opacity="0" result="BackgroundImageFix"/>
<feBlend mode="normal" in="SourceGraphic" in2="BackgroundImageFix" result="shape"/>
<feGaussianBlur stdDeviation="5" result="effect1_foregroundBlur"/>
</filter>
<filter id="filter23_f" x="350" y="723" width="69" height="48" filterUnits="userSpaceOnUse" color-interpolation-filters="sRGB">
<feFlood flood-opacity="0" result="BackgroundImageFix"/>
<feBlend mode="normal" in="SourceGraphic" in2="BackgroundImageFix" result="shape"/>
<feGaussianBlur stdDeviation="5" result="effect1_foregroundBlur"/>
</filter>
<filter id="filter24_i" x="360.167" y="597.894" width="60.9606" height="73.8778" filterUnits="userSpaceOnUse" color-interpolation-filters="sRGB">
<feFlood flood-opacity="0" result="BackgroundImageFix"/>
<feBlend mode="normal" in="SourceGraphic" in2="BackgroundImageFix" result="shape"/>
<feColorMatrix in="SourceAlpha" type="matrix" values="0 0 0 0 0 0 0 0 0 0 0 0 0 0 0 0 0 0 127 0" result="hardAlpha"/>
<feOffset dx="0.79532" dy="0.79532"/>
<feGaussianBlur stdDeviation="3.9766"/>
<feComposite in2="hardAlpha" operator="arithmetic" k2="-1" k3="1"/>
<feColorMatrix type="matrix" values="0 0 0 0 1 0 0 0 0 1 0 0 0 0 1 0 0 0 0.25 0"/>
<feBlend mode="normal" in2="shape" result="effect1_innerShadow"/>
</filter>
<filter id="filter25_f" x="361.6" y="603.822" width="50.3185" height="62.9313" filterUnits="userSpaceOnUse" color-interpolation-filters="sRGB">
<feFlood flood-opacity="0" result="BackgroundImageFix"/>
<feBlend mode="normal" in="SourceGraphic" in2="BackgroundImageFix" result="shape"/>
<feGaussianBlur stdDeviation="1.59064" result="effect1_foregroundBlur"/>
</filter>
<filter id="filter26_f" x="361.6" y="603.822" width="50.3185" height="62.9313" filterUnits="userSpaceOnUse" color-interpolation-filters="sRGB">
<feFlood flood-opacity="0" result="BackgroundImageFix"/>
<feBlend mode="normal" in="SourceGraphic" in2="BackgroundImageFix" result="shape"/>
<feGaussianBlur stdDeviation="1.59064" result="effect1_foregroundBlur"/>
</filter>
<radialGradient id="paint0_radial" cx="0" cy="0" r="1" gradientUnits="userSpaceOnUse" gradientTransform="translate(389.5 754.5) scale(137.5 47)">
<stop stop-color="#60FF79"/>
<stop offset="0.265455" stop-color="#00F645"/>
<stop offset="1" stop-color="#008334" stop-opacity="0"/>
</radialGradient>
<linearGradient id="paint1_linear" x1="345.746" y1="624.319" x2="353.338" y2="867.248" gradientUnits="userSpaceOnUse">
<stop offset="0.0463646" stop-color="#037A24" stop-opacity="0.31"/>
<stop offset="1" stop-color="#A4FF95"/>
</linearGradient>
<linearGradient id="paint2_linear" x1="335.851" y1="593.554" x2="345.487" y2="899.379" gradientUnits="userSpaceOnUse">
<stop offset="0.0463646" stop-color="#037A24" stop-opacity="0.31"/>
<stop offset="1" stop-color="#A4FF95" stop-opacity="0.98"/>
</linearGradient>
<linearGradient id="paint3_linear" x1="325.957" y1="562.931" x2="337.431" y2="928.405" gradientUnits="userSpaceOnUse">
<stop offset="0.0463646" stop-color="#037A24" stop-opacity="0.31"/>
<stop offset="1" stop-color="#A4FF95" stop-opacity="0.49"/>
</linearGradient>
<linearGradient id="paint4_linear" x1="406" y1="762" x2="406" y2="715.5" gradientUnits="userSpaceOnUse">
<stop stop-color="#DAFFD4"/>
<stop offset="0.586022" stop-color="#DAFFD4" stop-opacity="0"/>
</linearGradient>
<linearGradient id="paint5_linear" x1="383.5" y1="605.167" x2="383.5" y2="765.974" gradientUnits="userSpaceOnUse">
<stop stop-color="white" stop-opacity="0"/>
<stop offset="1" stop-color="#4CF55D"/>
</linearGradient>
<linearGradient id="paint6_linear" x1="381.957" y1="714.548" x2="381.957" y2="689.5" gradientUnits="userSpaceOnUse">
<stop stop-color="#00CC00"/>
<stop offset="0.925892" stop-color="white" stop-opacity="0"/>
</linearGradient>
<linearGradient id="paint7_linear" x1="382.897" y1="666" x2="382.897" y2="712.674" gradientUnits="userSpaceOnUse">
<stop stop-color="white" stop-opacity="0"/>
<stop offset="0.525129" stop-color="#D2FFCA"/>
<stop offset="1" stop-color="#46FFC9"/>
</linearGradient>
<radialGradient id="paint8_radial" cx="0" cy="0" r="1" gradientUnits="userSpaceOnUse" gradientTransform="translate(332.351 678.603) rotate(-40.1009) scale(104.621 100.363)">
<stop offset="0.219354" stop-color="#7CFF7C"/>
<stop offset="1" stop-color="#009800"/>
</radialGradient>
<radialGradient id="paint9_angular" cx="0" cy="0" r="1" gradientUnits="userSpaceOnUse" gradientTransform="translate(400.667 615) rotate(119.376) scale(68.7096 65.9136)">
<stop offset="0.012286" stop-color="#FFC895"/>
<stop offset="0.0671683" stop-color="#7845E4"/>
<stop offset="0.105557" stop-color="#991F52"/>
<stop offset="0.147388" stop-color="#7845E4"/>
<stop offset="0.255859" stop-color="#FFC895"/>
<stop offset="0.459892" stop-color="#721F99"/>
<stop offset="0.709868" stop-color="#FFC895"/>
<stop offset="0.975736" stop-color="#991F52"/>
</radialGradient>
<radialGradient id="paint10_angular" cx="0" cy="0" r="1" gradientUnits="userSpaceOnUse" gradientTransform="translate(386.507 597.101) rotate(41.3414) scale(57.5815 54.7885)">
<stop offset="0.479167" stop-color="#7CFF7C"/>
<stop offset="1" stop-color="#009800"/>
</radialGradient>
</defs>
</svg>
