<svg width="192" height="224" viewBox="0 0 192 224" fill="none" xmlns="http://www.w3.org/2000/svg">
<ellipse opacity="0.6" cx="96" cy="186" rx="93" ry="35" fill="url(#paint0_radial)"/>
<path opacity="0.7" d="M51.2857 187.326C46.4671 176.236 55.7303 164.653 73.8156 159.167C80.5228 157.132 88.0963 156.05 95.7107 156.039C112.531 156.017 128.011 161.073 136.108 169.233C138.082 171.226 139.567 173.346 140.519 175.534C145.338 186.627 136.074 198.206 117.986 203.693C107.249 206.953 94.8565 207.696 83.0924 205.797C71.3283 203.895 61.5987 199.574 55.6999 193.627C53.7258 191.64 52.2375 189.517 51.2857 187.326ZM130.469 176.867C129.734 175.17 128.582 173.527 127.052 171.979C120.775 165.656 108.786 161.739 95.7446 161.758C89.8558 161.765 83.993 162.603 78.7913 164.181C64.7839 168.434 57.6031 177.404 61.3359 185.993C62.0736 187.69 63.2226 189.333 64.7531 190.881C69.3237 195.486 76.8578 198.836 85.9729 200.31C95.088 201.784 104.691 201.205 113.013 198.679C127.021 194.429 134.202 185.459 130.469 176.867Z" fill="url(#paint1_linear)"/>
<path d="M52.1058 195.044C38.8941 181.581 47.9234 164.694 72.2358 157.395C96.5453 150.096 127.073 155.113 140.285 168.574C153.496 182.038 144.464 198.925 120.155 206.224C95.8452 213.522 65.3175 208.505 52.1058 195.044ZM139.522 168.803C126.539 155.572 96.5389 150.644 72.6468 157.815C48.7546 164.986 39.8806 181.584 52.863 194.815C65.8454 208.046 95.8456 212.974 119.735 205.803C143.63 198.629 152.504 182.034 139.522 168.803Z" fill="url(#paint2_linear)"/>
<path d="M47.7662 196.347C33.2541 181.558 43.1721 163.009 69.8776 154.992C96.5799 146.974 130.112 152.486 144.625 167.271C159.137 182.06 149.215 200.609 122.513 208.627C95.8108 216.644 62.2783 211.132 47.7662 196.347ZM143.786 167.523C129.526 152.989 96.5728 147.577 70.329 155.454C44.0851 163.33 34.3376 181.562 48.5979 196.096C62.8582 210.629 95.8113 216.042 122.052 208.165C148.299 200.284 158.047 182.056 143.786 167.523Z" fill="url(#paint3_linear)"/>
<ellipse cx="95.4807" cy="178.72" rx="31.9829" ry="18.9561" fill="#3F45A6"/>
<ellipse cx="95.4807" cy="178.72" rx="31.9829" ry="18.9561" fill="#626AFF"/>
<ellipse cx="95.4809" cy="178.72" rx="35.121" ry="21.4232" fill="#626AFF" fill-opacity="0.5"/>
<ellipse cx="95.4807" cy="178.731" rx="38.4807" ry="24.3757" fill="#626AFF" fill-opacity="0.3"/>
<ellipse cx="95.4806" cy="178.665" rx="29.182" ry="16.551" fill="#6419AE"/>
<ellipse cx="95.4808" cy="178.422" rx="25.9715" ry="13.7402" fill="#9E8EFF"/>
<path d="M121.254 159.648C121.669 159.648 122.005 159.312 122.005 158.897C122.005 158.483 121.669 158.146 121.254 158.146C120.84 158.146 120.503 158.483 120.503 158.897C120.503 159.312 120.84 159.648 121.254 159.648Z" fill="#48D8F5"/>
<path d="M118.359 135.872C118.568 135.872 118.737 135.703 118.737 135.494C118.737 135.285 118.568 135.115 118.359 135.115C118.15 135.115 117.98 135.285 117.98 135.494C117.98 135.703 118.15 135.872 118.359 135.872Z" fill="#48D8F5"/>
<path d="M124.067 119.313C124.067 119.418 123.983 119.501 123.879 119.501C123.778 119.501 123.693 119.418 123.693 119.313C123.693 119.211 123.778 119.127 123.879 119.127C123.983 119.127 124.067 119.211 124.067 119.313Z" fill="#48D8F5"/>
<path d="M117.187 151.286C117.29 151.286 117.374 151.203 117.374 151.099C117.374 150.996 117.29 150.912 117.187 150.912C117.084 150.912 117 150.996 117 151.099C117 151.203 117.084 151.286 117.187 151.286Z" fill="#48D8F5"/>
<path d="M124.435 130.259C124.538 130.259 124.622 130.175 124.622 130.072C124.622 129.969 124.538 129.885 124.435 129.885C124.331 129.885 124.247 129.969 124.247 130.072C124.247 130.175 124.331 130.259 124.435 130.259Z" fill="#48D8F5"/>
<path d="M122.006 143.975C122.215 143.975 122.384 143.805 122.384 143.597C122.384 143.388 122.215 143.219 122.006 143.219C121.798 143.219 121.628 143.388 121.628 143.597C121.628 143.805 121.798 143.975 122.006 143.975Z" fill="#48D8F5"/>
<path d="M71.1817 133.453C71.2156 133.867 70.9095 134.229 70.496 134.263C70.0841 134.298 69.7198 133.989 69.6859 133.577C69.6508 133.164 69.9606 132.802 70.3716 132.767C70.7856 132.733 71.1486 133.04 71.1817 133.453Z" fill="#48D8F5"/>
<path d="M78.1885 144.184C78.2244 144.597 77.9158 144.96 77.5024 144.993C77.0897 145.028 76.7278 144.719 76.6936 144.307C76.6584 143.895 76.9662 143.532 77.3793 143.498C77.7911 143.463 78.1554 143.77 78.1885 144.184Z" fill="#48D8F5"/>
<path d="M73.86 122.486C73.8778 122.694 73.7208 122.878 73.513 122.895C73.3053 122.912 73.1243 122.757 73.1062 122.549C73.088 122.34 73.2417 122.157 73.4515 122.141C73.6593 122.123 73.8439 122.278 73.86 122.486Z" fill="#48D8F5"/>
<path d="M66.3729 124.907C66.3815 125.01 66.3051 125.101 66.2039 125.11C66.0994 125.118 66.0085 125.041 66.0007 124.938C65.992 124.835 66.0684 124.745 66.1717 124.736C66.2741 124.728 66.365 124.804 66.3729 124.907Z" fill="#48D8F5"/>
<path d="M75.9635 150.303C75.9713 150.405 75.8945 150.497 75.7925 150.505C75.6888 150.513 75.5991 150.437 75.5905 150.334C75.581 150.231 75.6603 150.141 75.7598 150.133C75.8647 150.122 75.9531 150.199 75.9635 150.303Z" fill="#48D8F5"/>
<path d="M70.9604 144.401C70.9786 144.609 70.8212 144.792 70.6143 144.809C70.4061 144.825 70.2239 144.671 70.207 144.463C70.1901 144.255 70.3437 144.071 70.5523 144.054C70.7593 144.038 70.9427 144.193 70.9604 144.401Z" fill="#48D8F5"/>
<path d="M74.1956 157.013C74.2142 157.221 74.0572 157.404 73.8507 157.421C73.6417 157.438 73.4599 157.284 73.4417 157.076C73.4264 156.868 73.5797 156.685 73.7887 156.667C73.9969 156.65 74.1791 156.805 74.1956 157.013Z" fill="#48D8F5"/>
<path d="M70.072 162.704C70.0881 162.911 69.9336 163.094 69.7267 163.112C69.516 163.128 69.3343 162.975 69.3161 162.765C69.2996 162.558 69.4553 162.375 69.6635 162.358C69.8729 162.341 70.0547 162.495 70.072 162.704Z" fill="#48D8F5"/>
<path opacity="0.3" d="M135 35H58L66.9448 172.07C71.4604 186.101 78.4479 192 96.5013 192C114.555 192 123.399 186.456 126.055 172.07L135 35Z" fill="url(#paint4_linear)"/>
<path d="M94.8977 181.643C94.3581 180.945 94.2055 179.879 94.4387 178.446C94.6413 177.201 94.7134 176.366 94.6572 175.937C94.5608 175.279 94.1775 174.775 93.506 174.426C92.9604 174.142 92.3707 174.01 91.7396 174.03C91.1072 174.052 90.542 174.257 90.0403 174.648C89.3542 175.182 89.176 175.694 89.5056 176.189C89.6948 176.472 90.1416 176.814 90.8387 177.211L88.6474 178.916C87.5853 178.317 86.8724 177.717 86.5135 177.117C85.825 175.976 86.2498 174.809 87.7855 173.613C89.0002 172.668 90.3455 172.113 91.8214 171.947C93.2973 171.782 94.6584 172.023 95.9073 172.674C96.8644 173.171 97.4613 173.812 97.6969 174.592C97.8556 175.108 97.8605 175.82 97.7042 176.727L97.5236 177.807C97.41 178.483 97.349 178.954 97.3429 179.221C97.3368 179.488 97.3966 179.747 97.5211 179.996L102.53 176.097L104.768 177.262L96.9107 183.379C96.0025 182.88 95.3335 182.301 94.8977 181.643Z" fill="white"/>
<path d="M124.202 129.488C125.056 129.488 125.749 128.795 125.749 127.941C125.749 127.086 125.056 126.394 124.202 126.394C123.347 126.394 122.655 127.086 122.655 127.941C122.655 128.795 123.347 129.488 124.202 129.488Z" fill="#FF00F2" fill-opacity="0.3"/>
<path d="M118.235 80.5034C118.665 80.5034 119.014 80.1544 119.014 79.7239C119.014 79.2934 118.665 78.9443 118.235 78.9443C117.804 78.9443 117.455 79.2934 117.455 79.7239C117.455 80.1544 117.804 80.5034 118.235 80.5034Z" fill="#FF00F2" fill-opacity="0.3"/>
<path d="M129.996 46.3887C129.996 46.604 129.822 46.7751 129.609 46.7751C129.4 46.7751 129.225 46.604 129.225 46.3887C129.225 46.1776 129.4 46.0049 129.609 46.0049C129.822 46.0049 129.996 46.1776 129.996 46.3887Z" fill="#FF00F2" fill-opacity="0.3"/>
<path d="M115.821 112.261C116.034 112.261 116.207 112.089 116.207 111.876C116.207 111.663 116.034 111.49 115.821 111.49C115.608 111.49 115.436 111.663 115.436 111.876C115.436 112.089 115.608 112.261 115.821 112.261Z" fill="#FF00F2" fill-opacity="0.3"/>
<path d="M130.755 68.939C130.968 68.939 131.14 68.7664 131.14 68.5535C131.14 68.3406 130.968 68.168 130.755 68.168C130.542 68.168 130.369 68.3406 130.369 68.5535C130.369 68.7664 130.542 68.939 130.755 68.939Z" fill="#FF00F2" fill-opacity="0.3"/>
<path d="M125.749 97.198C126.179 97.198 126.528 96.8494 126.528 96.4193C126.528 95.9893 126.179 95.6406 125.749 95.6406C125.319 95.6406 124.97 95.9893 124.97 96.4193C124.97 96.8494 125.319 97.198 125.749 97.198Z" fill="#FF00F2" fill-opacity="0.3"/>
<g opacity="0.3">
<path d="M74.6426 75.5204C74.7124 76.3723 74.0818 77.1195 73.2299 77.1884C72.3814 77.2608 71.6308 76.625 71.561 75.7749C71.4887 74.9247 72.127 74.1783 72.9737 74.1068C73.8265 74.037 74.5745 74.6694 74.6426 75.5204Z" fill="white"/>
<path d="M89.0769 97.6271C89.1509 98.4773 88.5152 99.2262 87.6633 99.2934C86.8131 99.3658 86.0676 98.73 85.997 97.8798C85.9246 97.0314 86.5586 96.2833 87.4097 96.2135C88.2582 96.142 89.0088 96.7752 89.0769 97.6271Z" fill="white"/>
<path d="M80.1582 52.9247C80.1948 53.3527 79.8714 53.7314 79.4433 53.7663C79.0153 53.8021 78.6425 53.4821 78.6051 53.054C78.5676 52.6242 78.8842 52.2472 79.3165 52.214C79.7446 52.1757 80.125 52.4966 80.1582 52.9247Z" fill="white"/>
<path d="M64.7335 57.9121C64.7514 58.1248 64.5939 58.3121 64.3854 58.3308C64.1701 58.3461 63.9829 58.1887 63.9667 57.9759C63.9488 57.7648 64.1063 57.5776 64.319 57.5597C64.5301 57.5436 64.7173 57.701 64.7335 57.9121Z" fill="white"/>
<path d="M84.4934 110.235C84.5096 110.445 84.3513 110.634 84.1411 110.65C83.9275 110.668 83.7428 110.51 83.7249 110.297C83.7053 110.086 83.8687 109.9 84.0738 109.884C84.29 109.862 84.4721 110.02 84.4934 110.235Z" fill="white"/>
<path d="M74.1848 98.0755C74.2223 98.5027 73.898 98.8814 73.4717 98.9155C73.0427 98.9487 72.6674 98.6321 72.6325 98.2023C72.5976 97.7742 72.9142 97.3955 73.344 97.3598C73.7704 97.3266 74.1482 97.6457 74.1848 98.0755Z" fill="white"/>
<path d="M80.8512 124.059C80.8895 124.489 80.5661 124.866 80.1406 124.9C79.7099 124.935 79.3355 124.617 79.298 124.189C79.2665 123.761 79.5823 123.385 80.0129 123.347C80.4418 123.312 80.8171 123.632 80.8512 124.059Z" fill="white"/>
<path d="M72.3539 135.784C72.3871 136.211 72.0688 136.588 71.6424 136.626C71.2084 136.658 70.834 136.343 70.7965 135.911C70.7625 135.483 71.0833 135.107 71.5122 135.071C71.9437 135.037 72.3182 135.353 72.3539 135.784Z" fill="white"/>
</g>
<g style="mix-blend-mode:lighten" opacity="0.7">
<path d="M132.818 0H63.8997L69.9838 178.124C69.9838 178.124 69.767 190.699 96.3368 192.02C121.925 191.502 123.44 179.104 123.44 179.104L132.818 0Z" fill="url(#paint5_linear)"/>
</g>
<g style="mix-blend-mode:lighten" opacity="0.7">
<path d="M131.691 6.55762H66.0001L71.7993 176.341C71.7993 176.341 71.5926 188.327 96.9184 189.587C121.309 189.093 122.753 177.276 122.753 177.276L131.691 6.55762Z" fill="url(#paint6_linear)"/>
</g>
<path d="M63.2494 132.093L91.5594 73.2256C91.5594 74.5556 94.8594 78.9256 108.059 85.7256C121.259 92.5256 129.229 92.5556 131.559 91.7256L104.116 151.124C102.574 154.36 93.9973 156.943 80.0594 150.226C63.8713 142.424 62.1985 134.681 63.2494 132.093Z" fill="url(#paint7_linear)"/>
<path d="M112.044 89.616C100.544 84.996 91.6938 76.946 92.2838 71.626L85.6138 85.736C85.0238 91.046 93.8738 99.096 105.374 103.726C114.024 107.196 121.704 107.746 125.234 105.546L131.904 91.436C128.374 93.646 120.684 93.096 112.044 89.616Z" fill="url(#paint8_linear)"/>
<path d="M87.8738 84.3363C87.3338 82.3463 89.6438 77.1963 90.4738 77.6263C90.9338 77.8663 91.2638 79.7463 90.7738 81.8463C90.4038 83.4063 89.5538 84.6763 88.7538 84.8763C88.5538 84.9163 88.0938 84.9663 87.8738 84.3363ZM90.9038 77.9263C90.7338 77.5063 90.2138 76.2363 88.6438 79.9663C86.9938 83.8863 87.6738 85.5763 88.8938 85.0563C90.8038 84.2463 91.5738 79.8363 90.9038 77.9263Z" fill="white"/>
<path d="M88.9838 79.4961C87.7138 82.2561 87.8738 83.4661 87.9238 83.8661C88.4238 82.4761 88.7838 81.0061 88.9838 79.4961Z" fill="white"/>
<path d="M90.1938 83.0157C89.3038 82.5357 88.5538 83.5057 88.0638 84.2757C88.5938 84.9957 89.4538 84.4857 90.1938 83.0157Z" fill="white"/>
<path d="M90.7238 78.2959C89.9138 79.1259 88.7038 81.2759 87.9938 84.0759C89.5838 82.3659 90.4338 79.4659 90.7238 78.2959Z" fill="white"/>
<path d="M93.6038 82.8759C93.4638 82.7159 93.3238 82.5459 93.1838 82.3859L92.7138 83.3859C92.4638 83.0859 92.2338 82.7859 92.0038 82.4859L92.4738 81.4859C92.3538 81.3259 92.2438 81.1659 92.1338 81.0059L90.9038 83.5959C91.0138 83.7559 91.1238 83.9159 91.2438 84.0759L91.7738 82.9559C91.9938 83.2559 92.2238 83.5559 92.4838 83.8559L91.9538 84.9759C92.0938 85.1359 92.2338 85.3059 92.3738 85.4659L93.6038 82.8759Z" fill="white"/>
<path d="M95.6338 84.9259C95.0238 84.3659 94.4638 83.8059 93.9538 83.2559L92.7238 85.8459C93.2438 86.4159 93.8138 86.9759 94.4338 87.5459L94.6638 87.0659C94.2238 86.6659 93.8138 86.2659 93.4238 85.8559L93.7238 85.2159C94.0738 85.5759 94.4438 85.9359 94.8338 86.2959L95.0438 85.8559C94.6538 85.4959 94.2838 85.1359 93.9338 84.7759L94.1938 84.2259C94.5738 84.6159 94.9838 85.0159 95.4138 85.4059L95.6338 84.9259Z" fill="white"/>
<path d="M95.9838 86.8961L96.3238 86.1661C96.5338 86.3461 96.7438 86.5261 96.9638 86.6961C97.5438 87.1961 97.1338 87.5761 96.9738 87.5861C96.8438 87.5961 96.7038 87.4861 96.6238 87.4261C96.4038 87.2561 96.1938 87.0761 95.9838 86.8961ZM97.3938 86.4361C96.9038 86.0361 96.4338 85.6461 95.9838 85.2461L94.7538 87.8361C94.9338 87.9961 95.1238 88.1661 95.3138 88.3261L95.7938 87.3161C95.9838 87.4761 96.1738 87.6361 96.3738 87.8061C96.4838 87.8961 96.6638 88.0561 96.6838 88.3061C96.7038 88.6461 96.4738 88.9261 96.4538 89.2661C96.6538 89.4261 96.8638 89.5861 97.0738 89.7461C97.0438 89.5861 97.0738 89.4461 97.1938 89.1461C97.3738 88.7061 97.3538 88.4261 97.1138 88.1161V88.1061C97.8638 88.3361 98.1038 87.5161 97.8038 86.9461C97.6638 86.6661 97.4738 86.5061 97.3938 86.4361Z" fill="white"/>
<path d="M98.7538 87.4856C98.7538 87.4756 98.7538 87.4756 98.7538 87.4856V87.4856ZM98.3938 90.1056L98.7338 89.3956C98.9738 89.5656 99.2238 89.7356 99.4738 89.9056C100.134 90.3756 99.7438 90.7556 99.6038 90.7756C99.4338 90.8056 99.2138 90.6656 99.1238 90.6056C98.8738 90.4356 98.6338 90.2656 98.3938 90.1056ZM98.9138 89.0056L99.2038 88.3956C99.4138 88.5456 99.6238 88.6856 99.8338 88.8356C100.544 89.3356 100.044 89.5956 99.9738 89.6056C99.8338 89.6256 99.6738 89.5156 99.6038 89.4756C99.3638 89.3256 99.1338 89.1656 98.9138 89.0056ZM100.184 88.4856C99.6938 88.1556 99.2138 87.8156 98.7538 87.4756L97.5338 90.0656C98.0138 90.4156 98.5038 90.7656 99.0038 91.1056C100.294 91.9356 100.654 91.0356 100.534 90.5856C100.474 90.3356 100.294 90.1556 100.204 90.0556C101.024 90.2156 101.104 89.4556 100.794 89.0256C100.624 88.8056 100.364 88.6156 100.184 88.4856Z" fill="white"/>
<path d="M101.734 91.5461L102.624 90.8561C102.624 90.8561 102.634 90.8561 102.634 90.8661L102.614 92.0661C102.324 91.8961 102.024 91.7161 101.734 91.5461ZM103.334 90.4461C103.074 90.2961 102.814 90.1461 102.564 89.9961C101.814 90.5361 100.824 91.2661 100.074 91.8161C100.314 91.9661 100.564 92.1261 100.804 92.2761L101.334 91.8561C101.754 92.1061 102.174 92.3561 102.614 92.6061L102.604 93.3361C102.874 93.4861 103.144 93.6361 103.414 93.7761C103.394 92.7761 103.354 91.4461 103.334 90.4461Z" fill="white"/>
<path d="M105.694 91.7264C105.424 91.5864 105.164 91.4564 104.894 91.3164L103.664 93.9064C104.514 94.3564 105.384 94.7864 106.274 95.1964L106.504 94.7164C105.884 94.4364 105.284 94.1364 104.684 93.8364L105.694 91.7264Z" fill="white"/>
<path d="M108.664 93.1261C108.384 93.0061 108.104 92.8761 107.824 92.7461L106.594 95.3361C106.874 95.4661 107.154 95.5861 107.434 95.7161L108.664 93.1261Z" fill="white"/>
<path d="M112.104 94.486C111.454 94.256 110.794 94.006 110.134 93.736C109.874 93.626 109.614 93.526 109.354 93.416L108.124 96.006C108.384 96.116 108.644 96.226 108.904 96.326C108.934 96.336 108.954 96.346 108.984 96.356L109.484 95.286C110.034 95.506 110.584 95.716 111.124 95.916L111.334 95.476C110.794 95.276 110.244 95.076 109.694 94.846L109.974 94.246C110.604 94.496 111.234 94.736 111.864 94.956L112.104 94.486Z" fill="white"/>
<path d="M115.344 95.5257C114.424 95.2657 113.484 94.9757 112.524 94.6357L111.304 97.2257C112.274 97.5657 113.234 97.8657 114.164 98.1257L114.394 97.6457C113.734 97.4657 113.054 97.2557 112.374 97.0357L112.674 96.3957C113.294 96.5957 113.894 96.7857 114.494 96.9557L114.704 96.5157C114.104 96.3457 113.494 96.1557 112.884 95.9557L113.134 95.4057C113.804 95.6257 114.464 95.8257 115.124 96.0057L115.344 95.5257Z" fill="white"/>
<path d="M92.1038 86.0761C91.9638 85.9261 91.8338 85.7661 91.7138 85.6161L90.8938 87.3561C90.8938 87.3561 90.8938 87.3561 90.8838 87.3461C90.9138 86.5461 90.9338 85.4761 90.9738 84.6861C90.8538 84.5261 90.7438 84.3661 90.6338 84.2061L89.4038 86.7961C89.5038 86.9461 89.6138 87.0961 89.7238 87.2461L90.5438 85.5161C90.5438 85.5161 90.5438 85.5161 90.5538 85.5261C90.5238 86.3261 90.4738 87.3861 90.4538 88.1861C90.5938 88.3461 90.7338 88.5161 90.8738 88.6761L92.1038 86.0761Z" fill="white"/>
<path d="M94.4038 88.3756C94.2238 88.2156 94.0438 88.0456 93.8638 87.8856L93.1038 89.4956C92.6638 90.3756 92.0838 89.1856 92.0838 89.1756C92.0038 88.9156 92.1138 88.6956 92.1638 88.5756L92.9238 86.9656C92.7638 86.8056 92.6138 86.6356 92.4538 86.4756L91.6938 88.0856C91.0638 89.5556 92.5638 90.7156 93.1738 90.4856C93.4238 90.3856 93.5538 90.1456 93.6338 89.9956L94.4038 88.3756Z" fill="white"/>
<path d="M96.9038 90.4162C96.1138 89.8262 95.3638 89.2162 94.6738 88.6162L94.4438 89.0962C94.6938 89.3162 94.9538 89.5362 95.2238 89.7662L94.2238 91.8762C94.4138 92.0362 94.6138 92.1962 94.8238 92.3562L95.8238 90.2462C96.1038 90.4662 96.3838 90.6862 96.6738 90.8962L96.9038 90.4162Z" fill="white"/>
<path d="M97.3238 92.2962L97.6638 91.5662C97.9038 91.7362 98.1538 91.9062 98.4038 92.0762C99.1138 92.5862 98.5638 92.9362 98.4938 92.9562C98.3338 92.9862 98.1438 92.8663 98.0538 92.8063C97.8138 92.6463 97.5638 92.4762 97.3238 92.2962ZM98.8638 91.8063C98.2938 91.4263 97.7538 91.0462 97.2238 90.6562L95.9938 93.2463C96.2038 93.4063 96.4238 93.5663 96.6538 93.7163L97.1338 92.7062C97.3538 92.8662 97.5838 93.0163 97.8138 93.1763C97.9438 93.2663 98.1538 93.4162 98.1738 93.6562C98.2138 93.9962 97.9738 94.2763 97.9638 94.6063C98.1938 94.7563 98.4338 94.9162 98.6738 95.0662C98.6338 94.9062 98.6638 94.7662 98.7838 94.4762C98.9638 94.0362 98.9238 93.7562 98.6438 93.4562V93.4463C99.4938 93.6663 99.7138 92.8462 99.3538 92.2762C99.1838 92.0262 98.9638 91.8763 98.8638 91.8063Z" fill="white"/>
<path d="M101.224 93.2957C100.974 93.1457 100.724 92.9957 100.484 92.8457L99.2638 95.4357C99.5038 95.5857 99.7538 95.7357 100.004 95.8857L101.224 93.2957Z" fill="white"/>
<path d="M104.594 95.1159C103.584 94.6159 102.604 94.0859 101.664 93.5459L101.434 94.0259C101.774 94.2259 102.124 94.4159 102.484 94.6159L101.484 96.7259C101.744 96.8659 102.004 97.0059 102.264 97.1459L103.264 95.0359C103.624 95.2259 103.994 95.4159 104.354 95.5959L104.594 95.1159Z" fill="white"/>
<path d="M105.894 95.7464C105.614 95.6164 105.344 95.4864 105.074 95.3564L103.854 97.9464C104.124 98.0764 104.404 98.2064 104.674 98.3364L105.894 95.7464Z" fill="white"/>
<path d="M107.234 98.9564C105.944 98.3664 106.614 97.3164 107.114 97.1264C107.834 96.8564 109.194 97.4864 108.714 98.5064C108.514 98.9364 108.014 99.2764 107.234 98.9564ZM108.294 96.7164C106.094 95.8864 105.354 97.3964 105.724 98.2964C106.274 99.6464 108.904 100.246 109.574 98.8364C109.954 98.0264 109.454 97.1964 108.294 96.7164Z" fill="white"/>
<path d="M110.694 97.7155C110.694 97.7055 110.694 97.7055 110.694 97.7155C110.684 97.7055 110.694 97.7055 110.694 97.7155ZM113.884 98.7255C113.634 98.6555 113.374 98.5755 113.114 98.5055L112.294 100.246H112.284C112.054 99.5755 111.754 98.6755 111.524 98.0055C111.244 97.9155 110.964 97.8155 110.694 97.7155L109.464 100.306C109.734 100.396 109.994 100.486 110.254 100.576L111.074 98.8455H111.084C111.314 99.5155 111.614 100.416 111.834 101.076L112.654 101.306L113.884 98.7255Z" fill="white"/>
<path d="M118.604 109.556C114.684 109.706 109.494 108.686 103.914 106.436C100.814 105.186 97.9038 103.696 95.3138 102.066C93.3338 100.936 91.6238 101.376 90.6038 103.276L80.8038 124.006C84.0638 126.446 88.0938 128.736 92.5238 130.516C99.4338 133.296 105.734 134.196 109.784 133.336L119.584 112.606C120.774 109.926 119.484 109.546 118.604 109.556Z" fill="#2D703D"/>
<path d="M101.104 108.826C100.064 108.376 99.0438 107.896 98.0638 107.396L96.1738 111.386C96.4738 111.546 96.7938 111.696 97.1038 111.846L98.6638 108.546C99.3538 108.886 100.064 109.206 100.784 109.516L101.104 108.826Z" fill="white"/>
<path d="M101.824 111.366L102.384 110.186C102.694 110.306 103.004 110.426 103.314 110.546C104.244 110.906 103.654 111.656 103.404 111.756C103.144 111.866 102.854 111.756 102.754 111.726C102.444 111.606 102.134 111.486 101.824 111.366ZM103.854 109.936C103.404 109.766 102.954 109.596 102.504 109.416C102.234 109.306 101.974 109.206 101.714 109.096L99.8238 113.086C100.084 113.196 100.354 113.306 100.614 113.406C100.684 113.436 100.744 113.456 100.814 113.486L101.494 112.056C101.854 112.196 102.214 112.336 102.574 112.466C104.334 113.106 105.164 111.416 104.784 110.646C104.594 110.256 104.164 110.056 103.854 109.936Z" fill="white"/>
<path d="M109.574 111.676C109.274 111.606 108.964 111.526 108.654 111.456C107.744 112.126 106.534 113.026 105.614 113.686H105.604L106.884 110.966C106.584 110.876 106.284 110.786 105.974 110.686L104.084 114.676C104.404 114.776 104.724 114.876 105.044 114.976C105.954 114.316 107.174 113.436 108.074 112.766H108.084L106.804 115.466C107.094 115.546 107.384 115.606 107.674 115.676L109.574 111.676Z" fill="white"/>
<path d="M113.684 112.385C113.414 112.355 113.144 112.325 112.864 112.285L112.144 113.805C111.624 113.735 111.094 113.645 110.554 113.545L111.274 112.025C110.984 111.975 110.694 111.915 110.404 111.855L108.514 115.845C108.804 115.905 109.104 115.965 109.394 116.015L110.234 114.235C110.774 114.335 111.304 114.425 111.824 114.495L110.984 116.275C111.264 116.315 111.534 116.345 111.804 116.375L113.684 112.385Z" fill="white"/>
<path d="M98.2238 115.616C97.7438 115.416 97.2738 115.206 96.8138 114.986C96.1338 115.806 95.2338 116.896 94.5538 117.716C94.5538 117.716 94.5438 117.716 94.5438 117.706C94.7538 116.656 95.0238 115.266 95.2338 114.216C94.7838 113.986 94.3338 113.756 93.9038 113.526L92.0138 117.516C92.2838 117.666 92.5638 117.806 92.8438 117.956L94.4238 114.616C94.4238 114.616 94.4338 114.616 94.4338 114.626C94.2038 115.746 93.8938 117.246 93.6638 118.366C93.9638 118.516 94.2738 118.656 94.5738 118.806C95.3038 117.926 96.2838 116.746 97.0138 115.866C97.0138 115.866 97.0238 115.866 97.0238 115.876L95.4438 119.216C95.7438 119.346 96.0338 119.476 96.3338 119.606L98.2238 115.616Z" fill="white"/>
<path d="M99.2738 118.996L100.614 117.636H100.624L100.454 119.416C100.064 119.286 99.6738 119.146 99.2738 118.996ZM101.614 116.936C101.244 116.806 100.874 116.676 100.504 116.536C99.4338 117.536 98.0038 118.866 96.9338 119.866C97.1138 119.936 97.2938 120.016 97.4738 120.086C97.6438 120.156 97.8038 120.216 97.9738 120.286L98.6938 119.586C99.2738 119.806 99.8438 120.016 100.414 120.216L100.314 121.136C100.664 121.256 101.004 121.366 101.354 121.476C101.424 120.106 101.534 118.296 101.614 116.936Z" fill="white"/>
<path d="M107.644 118.616C107.264 118.536 106.884 118.456 106.504 118.366C105.774 118.726 104.804 119.216 104.074 119.566L104.844 117.946C104.534 117.866 104.224 117.776 103.914 117.676L102.024 121.666C102.334 121.756 102.644 121.846 102.954 121.936L103.594 120.586L104.244 120.286C104.394 120.916 104.604 121.756 104.744 122.386C105.124 122.476 105.494 122.546 105.864 122.626C105.644 121.796 105.364 120.686 105.144 119.866C105.894 119.486 106.904 118.996 107.644 118.616Z" fill="white"/>
<path d="M109.884 118.876C107.654 118.596 106.134 121.536 107.004 122.616C107.514 123.246 109.134 123.516 110.274 121.776C110.014 121.756 109.754 121.736 109.494 121.706C108.694 122.736 107.764 122.396 107.684 121.806C107.534 120.676 109.034 119.066 109.954 119.746C110.194 119.926 110.134 120.226 110.104 120.396C110.374 120.426 110.634 120.446 110.894 120.466C111.024 120.146 111.314 119.066 109.884 118.876Z" fill="white"/>
<path d="M77.4638 106.876C75.7938 110.006 73.9038 111.656 73.1038 111.836L81.7338 93.5859C78.5738 104.806 78.5738 104.806 77.4638 106.876Z" fill="#86E232"/>
<path d="M95.9038 124.136C94.7938 123.716 94.2938 124.426 94.4238 124.766C94.4538 124.846 94.5338 124.956 94.8538 125.176C95.2138 125.416 95.3138 125.486 95.3438 125.566C95.3938 125.696 95.2438 125.806 95.1138 125.836C95.0038 125.856 94.0738 125.776 94.3638 125.256C94.2038 125.186 94.0538 125.126 93.8938 125.056C93.3438 125.776 94.5738 126.286 95.1938 126.196C95.6638 126.136 96.3038 125.646 95.6838 125.186C95.6538 125.166 95.6338 125.146 95.6038 125.126C95.0538 124.756 95.0238 124.736 94.9838 124.666C94.9138 124.536 95.0638 124.416 95.1938 124.386C95.4638 124.336 96.0838 124.556 95.8738 124.886C95.8738 124.896 95.8638 124.906 95.8638 124.906C96.0238 124.966 96.1838 125.026 96.3438 125.086C96.7438 124.526 96.1038 124.216 95.9038 124.136Z" fill="white"/>
<path d="M96.7037 125.836C97.0737 125.476 97.4837 125.696 97.4837 125.906C97.4837 125.986 97.4337 126.056 97.4137 126.086C97.1837 126.006 96.9437 125.926 96.7037 125.836ZM97.5237 125.386C96.5437 125.056 95.7437 126.006 95.9437 126.456C96.1837 126.986 97.1437 127.046 97.5337 126.666C97.3837 126.616 97.2237 126.556 97.0737 126.506C96.7137 126.696 96.3437 126.476 96.4337 126.216C96.4537 126.156 96.4937 126.106 96.5137 126.066C96.9137 126.216 97.3037 126.356 97.7037 126.486C98.1337 125.946 98.0737 125.576 97.5237 125.386Z" fill="white"/>
<path d="M99.4438 125.456C99.2938 125.406 99.1438 125.366 98.9938 125.316L97.5538 127.176C97.7038 127.226 97.8538 127.276 98.0038 127.326L99.4438 125.456Z" fill="white"/>
<path d="M99.3937 126.736C99.7637 126.366 100.144 126.546 100.144 126.736C100.144 126.816 100.094 126.896 100.074 126.926C99.8537 126.866 99.6237 126.806 99.3937 126.736ZM100.194 126.246C99.2437 125.996 98.3937 126.976 98.6837 127.436C98.9637 127.886 99.8337 127.846 100.194 127.486C100.044 127.446 99.9037 127.406 99.7537 127.366C99.3837 127.586 99.0637 127.376 99.1337 127.146C99.1537 127.076 99.1937 127.016 99.2237 126.976C99.6037 127.096 99.9937 127.206 100.364 127.306C100.774 126.746 100.724 126.386 100.194 126.246Z" fill="white"/>
<path d="M101.944 126.716C100.974 126.496 100.204 127.576 100.434 127.966C100.614 128.276 101.464 128.406 101.974 127.826C101.834 127.796 101.684 127.756 101.544 127.726C101.254 128.046 100.914 127.906 100.904 127.746C100.874 127.386 101.544 126.826 101.844 127.096C101.924 127.166 101.874 127.296 101.844 127.336C101.984 127.376 102.134 127.406 102.274 127.436C102.374 127.246 102.594 126.876 101.944 126.716Z" fill="white"/>
<path d="M103.674 126.695C103.534 126.665 103.404 126.635 103.264 126.605L102.974 127.005C102.904 126.985 102.824 126.975 102.754 126.955L102.554 127.215C102.634 127.235 102.704 127.245 102.774 127.265C102.084 128.215 102.084 128.215 102.064 128.275C102.024 128.405 102.134 128.485 102.394 128.535L102.594 128.565C102.654 128.485 102.734 128.375 102.794 128.285C102.524 128.245 102.544 128.225 102.634 128.105L103.184 127.355C103.264 127.375 103.354 127.385 103.444 127.405L103.634 127.145C103.554 127.125 103.464 127.115 103.374 127.095L103.674 126.695Z" fill="white"/>
<path d="M92.7138 124.275C89.8438 122.965 87.1738 121.465 84.8438 119.855L84.7838 119.985C87.1238 121.585 89.7838 123.095 92.6538 124.405L92.7138 124.275Z" fill="white"/>
<path d="M111.394 128.236C109.524 128.506 107.254 128.436 104.724 128.046L104.664 128.176C107.194 128.576 109.464 128.636 111.334 128.366L111.394 128.236Z" fill="white"/>
<g style="mix-blend-mode:soft-light">
<path d="M107.644 134.696C103.634 135.066 98.0537 134.066 92.0137 131.636C88.2437 130.126 84.7637 128.246 81.8037 126.206C81.0837 125.856 80.8537 126.556 80.9537 126.936C81.0237 127.176 81.1737 127.296 81.2537 127.366C84.2137 129.396 87.6937 131.276 91.4637 132.796C97.5037 135.226 103.084 136.226 107.094 135.856C107.744 135.686 108.114 134.826 107.734 134.696C107.704 134.686 107.664 134.696 107.644 134.696Z" fill="#E1DFDF"/>
</g>
<g style="mix-blend-mode:soft-light">
<path d="M106.504 137.106C102.494 137.476 96.9138 136.476 90.8738 134.046C87.1038 132.536 83.6238 130.656 80.6638 128.616C79.9438 128.266 79.7138 128.966 79.8138 129.346C79.8738 129.586 80.0338 129.706 80.1138 129.776C83.0738 131.806 86.5538 133.686 90.3238 135.206C96.3638 137.636 101.944 138.636 105.954 138.266C106.604 138.096 106.974 137.236 106.594 137.106C106.564 137.096 106.524 137.106 106.504 137.106Z" fill="#E1DFDF"/>
</g>
<g style="mix-blend-mode:soft-light">
<path d="M105.354 139.516C101.344 139.886 95.7638 138.886 89.7238 136.456C85.9538 134.946 82.4738 133.066 79.5138 131.026C78.7938 130.676 78.5638 131.376 78.6638 131.756C78.7338 131.996 78.8838 132.116 78.9638 132.186C81.9238 134.216 85.4038 136.096 89.1738 137.616C95.2138 140.046 100.794 141.046 104.804 140.676C105.454 140.506 105.824 139.646 105.444 139.516C105.424 139.516 105.384 139.516 105.354 139.516Z" fill="#E1DFDF"/>
</g>
<g style="mix-blend-mode:soft-light">
<path d="M104.214 141.926C100.204 142.296 94.6238 141.296 88.5838 138.866C84.8138 137.356 81.3338 135.476 78.3738 133.436C77.6538 133.086 77.4238 133.786 77.5238 134.166C77.5938 134.406 77.7438 134.526 77.8238 134.596C80.7838 136.626 84.2638 138.506 88.0338 140.026C94.0738 142.456 99.6538 143.456 103.664 143.086C104.314 142.916 104.684 142.056 104.304 141.926C104.274 141.926 104.244 141.926 104.214 141.926Z" fill="#E1DFDF"/>
</g>
<g style="mix-blend-mode:soft-light">
<path d="M103.074 144.346C99.0638 144.716 93.4838 143.716 87.4438 141.286C83.6738 139.776 80.1938 137.896 77.2338 135.856C76.5138 135.506 76.2838 136.206 76.3838 136.586C76.4538 136.826 76.6038 136.946 76.6838 137.016C79.6438 139.046 83.1238 140.926 86.8938 142.446C92.9338 144.876 98.5138 145.876 102.524 145.506C103.164 145.336 103.544 144.476 103.164 144.346C103.144 144.336 103.104 144.346 103.074 144.346Z" fill="#E1DFDF"/>
</g>
<g style="mix-blend-mode:soft-light">
<path d="M101.934 146.756C97.9238 147.126 92.3438 146.126 86.3038 143.696C82.5338 142.186 79.0538 140.306 76.0938 138.266C75.3738 137.916 75.1438 138.616 75.2438 138.996C75.3038 139.236 75.4638 139.356 75.5438 139.426C78.5038 141.456 81.9838 143.336 85.7538 144.856C91.7938 147.286 97.3738 148.286 101.384 147.916C102.034 147.746 102.404 146.886 102.024 146.756C101.994 146.746 101.964 146.756 101.934 146.756Z" fill="#E1DFDF"/>
</g>
<path d="M71.2738 145.086C66.1138 137.906 68.2838 128.716 70.0338 123.886C72.8438 134.836 73.5238 141.016 72.4438 145.926C72.0438 145.646 71.6538 145.376 71.2738 145.086Z" fill="#78BE21"/>
<path d="M92.0738 72.5063C91.4938 77.7163 100.184 85.6263 111.474 90.1663C122.764 94.7063 132.384 94.1563 132.954 88.9463C133.524 83.7363 124.844 75.8263 113.554 71.2863C102.264 66.7463 92.6438 67.2963 92.0738 72.5063Z" fill="url(#paint9_linear)"/>
<path d="M93.2938 68.4264C93.8838 63.0864 103.734 62.5264 115.304 67.1764C126.874 71.8264 135.764 79.9264 135.174 85.2564C134.584 90.5964 124.734 91.1564 113.164 86.5064C101.594 81.8564 92.7038 73.7664 93.2938 68.4264ZM93.7438 68.6064C93.1638 73.8264 101.874 81.7564 113.184 86.2964C124.494 90.8464 134.134 90.2964 134.714 85.0764C135.294 79.8564 126.584 71.9264 115.274 67.3864C103.964 62.8364 94.3238 63.3764 93.7438 68.6064Z" fill="#B5B5B5"/>
<path d="M93.6538 67.3564L91.9238 70.9464C91.9238 70.9464 91.0038 72.6264 92.0538 75.1364C93.1038 77.6564 96.3938 82.2364 103.854 86.5564C111.314 90.8764 116.964 92.8264 123.994 93.4064C131.024 93.9864 132.914 90.6164 132.914 90.6164L134.604 87.1164L93.6538 67.3564Z" fill="url(#paint10_linear)"/>
<path d="M93.6538 67.3564L91.9238 70.9464C91.9238 70.9464 91.0038 72.6264 92.0538 75.1364C93.1038 77.6564 96.3938 82.2364 103.854 86.5564C111.314 90.8764 116.964 92.8264 123.994 93.4064C131.024 93.9864 132.914 90.6164 132.914 90.6164L134.604 87.1164L93.6538 67.3564Z" fill="url(#paint11_linear)"/>
<g style="mix-blend-mode:luminosity">
<path d="M93.2938 68.6959C93.8838 63.3559 103.734 62.7959 115.304 67.4459C126.874 72.0959 135.764 80.1859 135.174 85.5259C134.584 90.8659 124.734 91.4259 113.164 86.7759C101.604 82.1359 92.7038 74.0359 93.2938 68.6959ZM93.7438 68.8759C93.1638 74.0959 101.874 82.0259 113.184 86.5659C124.494 91.1159 134.134 90.5659 134.714 85.3459C135.294 80.1259 126.594 72.2059 115.274 67.6559C103.964 63.1059 94.3238 63.6559 93.7438 68.8759Z" fill="#919191"/>
</g>
<path d="M97.9238 59.4063L98.0738 57.6963L93.7238 67.0063C93.7238 67.0063 91.9338 70.9463 97.5038 76.3963C102.684 81.4763 110.434 85.3663 113.554 86.4763C116.674 87.5863 124.324 90.6263 130.984 89.0663C134.234 88.3063 135.384 85.2363 135.384 85.2363L139.404 76.7363C139.404 76.7363 138.354 80.0063 131.674 79.8663C124.994 79.7263 117.354 76.8263 114.104 75.0963C110.844 73.3663 103.214 68.7763 100.514 65.0863C97.6838 61.1963 97.9238 59.4063 97.9238 59.4063Z" fill="url(#paint12_linear)"/>
<path d="M97.7838 58.8063C98.3738 53.4663 108.224 52.9063 119.794 57.5563C131.354 62.2063 140.254 70.2963 139.664 75.6363C139.074 80.9763 129.224 81.5363 117.654 76.8863C106.094 72.2463 97.1938 64.1463 97.7838 58.8063Z" fill="url(#paint13_linear)"/>
<path d="M118.724 67.1462C118.704 67.3562 119.054 67.6862 119.514 67.8662C119.974 68.0562 120.364 68.0262 120.394 67.8162C120.414 67.6062 120.064 67.2762 119.604 67.0962C119.144 66.9062 118.754 66.9362 118.724 67.1462Z" fill="white"/>
<defs>
<radialGradient id="paint0_radial" cx="0" cy="0" r="1" gradientUnits="userSpaceOnUse" gradientTransform="translate(97.9858 186) scale(91.0142 28.1197)">
<stop stop-color="#44FFFF"/>
<stop offset="0.265455" stop-color="#44FFFF"/>
<stop offset="1" stop-color="#44FFFF" stop-opacity="0"/>
</radialGradient>
<linearGradient id="paint1_linear" x1="95.9235" y1="156.523" x2="95.8813" y2="206.594" gradientUnits="userSpaceOnUse">
<stop stop-color="#4CF55D" stop-opacity="0"/>
<stop offset="1" stop-color="#4CF55D"/>
</linearGradient>
<linearGradient id="paint2_linear" x1="79.8693" y1="151.744" x2="112.518" y2="211.874" gradientUnits="userSpaceOnUse">
<stop offset="0.0319" stop-color="#9D00FE"/>
<stop offset="0.2502" stop-color="#6800EC"/>
<stop offset="0.4327" stop-color="#5400DE"/>
<stop offset="0.5703" stop-color="#9200D6"/>
<stop offset="0.6471" stop-color="#5D00D3"/>
<stop offset="0.7363" stop-color="#3900DD"/>
<stop offset="0.9345" stop-color="#6C00F6"/>
<stop offset="1" stop-color="#7000FF"/>
</linearGradient>
<linearGradient id="paint3_linear" x1="78.2624" y1="148.785" x2="114.125" y2="214.833" gradientUnits="userSpaceOnUse">
<stop offset="0.0319" stop-color="#9D00FE"/>
<stop offset="0.2502" stop-color="#6800EC"/>
<stop offset="0.4327" stop-color="#5400DE"/>
<stop offset="0.5703" stop-color="#9200D6"/>
<stop offset="0.6471" stop-color="#5D00D3"/>
<stop offset="0.7363" stop-color="#3900DD"/>
<stop offset="0.9345" stop-color="#6C00F6"/>
<stop offset="1" stop-color="#7000FF"/>
</linearGradient>
<linearGradient id="paint4_linear" x1="96.5002" y1="68.8863" x2="96.5002" y2="195.119" gradientUnits="userSpaceOnUse">
<stop stop-color="white" stop-opacity="0"/>
<stop offset="1" stop-color="#00FFF0"/>
</linearGradient>
<linearGradient id="paint5_linear" x1="98.3589" y1="1.83082" x2="98.3589" y2="191.142" gradientUnits="userSpaceOnUse">
<stop stop-color="#4CF55D" stop-opacity="0"/>
<stop offset="1" stop-color="#4CF55D"/>
</linearGradient>
<linearGradient id="paint6_linear" x1="98.8459" y1="8.30271" x2="98.8459" y2="188.75" gradientUnits="userSpaceOnUse">
<stop stop-color="#4CF55D" stop-opacity="0"/>
<stop offset="1" stop-color="#4CF55D"/>
</linearGradient>
<linearGradient id="paint7_linear" x1="109.273" y1="77.6866" x2="79.5711" y2="163.187" gradientUnits="userSpaceOnUse">
<stop offset="0.45" stop-color="white"/>
<stop offset="1" stop-color="#65FFED"/>
</linearGradient>
<linearGradient id="paint8_linear" x1="123.344" y1="103.906" x2="103.615" y2="69.2373" gradientUnits="userSpaceOnUse">
<stop stop-color="#21BEB5"/>
<stop offset="1" stop-color="#8EE423"/>
</linearGradient>
<linearGradient id="paint9_linear" x1="92.043" y1="80.7242" x2="132.983" y2="80.7242" gradientUnits="userSpaceOnUse">
<stop stop-color="#C0C0C0"/>
<stop offset="0.286" stop-color="#F9F9F9"/>
<stop offset="0.4378" stop-color="white"/>
<stop offset="0.5012" stop-color="#EDEDED"/>
<stop offset="0.613" stop-color="#D5D5D5"/>
<stop offset="0.73" stop-color="#C3C3C3"/>
<stop offset="0.8547" stop-color="#B8B8B8"/>
<stop offset="1" stop-color="#B5B5B5"/>
</linearGradient>
<linearGradient id="paint10_linear" x1="94.7869" y1="74.1809" x2="132.991" y2="94.0415" gradientUnits="userSpaceOnUse">
<stop stop-color="#BDBDBD"/>
<stop offset="0.0396" stop-color="#CBCBCB"/>
<stop offset="0.1195" stop-color="#E2E2E2"/>
<stop offset="0.2058" stop-color="#F2F2F2"/>
<stop offset="0.3023" stop-color="#FCFCFC"/>
<stop offset="0.4296" stop-color="white"/>
<stop offset="0.4508" stop-color="#FAFAFA"/>
<stop offset="0.5948" stop-color="#DCDCDC"/>
<stop offset="0.7364" stop-color="#C6C6C6"/>
<stop offset="0.8733" stop-color="#B9B9B9"/>
<stop offset="1" stop-color="#B5B5B5"/>
</linearGradient>
<linearGradient id="paint11_linear" x1="94.92" y1="74.4503" x2="131.058" y2="96.0829" gradientUnits="userSpaceOnUse">
<stop stop-color="#F8E4FF"/>
<stop offset="0.286" stop-color="#F9F9F9"/>
<stop offset="0.4378" stop-color="white"/>
<stop offset="0.5012" stop-color="#EDEDED"/>
<stop offset="0.613" stop-color="#D9DDF1"/>
<stop offset="0.73" stop-color="#DADDEA"/>
<stop offset="0.8547" stop-color="#ACB2D1"/>
<stop offset="1" stop-color="#81A7C3"/>
</linearGradient>
<linearGradient id="paint12_linear" x1="97.046" y1="66.3354" x2="138.131" y2="87.8914" gradientUnits="userSpaceOnUse">
<stop stop-color="#F8E4FF"/>
<stop offset="0.286" stop-color="#F9F9F9"/>
<stop offset="0.4378" stop-color="white"/>
<stop offset="0.5012" stop-color="#EDEDED"/>
<stop offset="0.613" stop-color="#D9DDF1"/>
<stop offset="0.73" stop-color="#DADDEA"/>
<stop offset="0.8547" stop-color="#ACB2D1"/>
<stop offset="1" stop-color="#81A7C3"/>
</linearGradient>
<linearGradient id="paint13_linear" x1="125.439" y1="56.6284" x2="113.703" y2="75.1497" gradientUnits="userSpaceOnUse">
<stop offset="0.243356" stop-color="#E5CAFF"/>
<stop offset="1" stop-color="white"/>
</linearGradient>
</defs>
</svg>
