<svg width="152" height="184" viewBox="0 0 152 184" fill="none" xmlns="http://www.w3.org/2000/svg">
<g style="mix-blend-mode:lighten">
<path d="M122.386 86.8725C111.821 131.231 104.965 167.597 107.072 168.099C109.18 168.601 119.452 133.048 130.018 88.6897C140.583 44.3318 147.439 7.96528 145.331 7.46363C143.224 6.96139 132.951 42.5145 122.386 86.8725Z" fill="url(#paint0_radial)"/>
</g>
<g style="mix-blend-mode:lighten">
<path d="M111.415 86.6928C100.85 131.051 93.9941 167.418 96.101 167.919C98.2085 168.421 108.481 132.869 119.047 88.51C129.612 44.1521 136.468 7.78558 134.36 7.28393C132.253 6.78228 121.98 42.3348 111.415 86.6928Z" fill="url(#paint1_radial)"/>
</g>
<g style="mix-blend-mode:lighten">
<path d="M128.391 101.311C117.826 145.669 110.97 182.036 113.077 182.537C115.184 183.039 125.457 147.486 136.023 103.128C146.588 58.7698 153.444 22.4034 151.336 21.9011C149.229 21.3995 138.956 56.952 128.391 101.311Z" fill="url(#paint2_radial)"/>
</g>
<path d="M125.763 134.292C125.838 133.979 125.645 133.662 125.332 133.587C125.019 133.512 124.702 133.71 124.633 134.018C124.558 134.331 124.751 134.648 125.064 134.723C125.104 134.73 125.145 134.736 125.192 134.737C125.453 134.741 125.694 134.559 125.763 134.292ZM126.437 131.459C126.506 131.146 126.32 130.834 126.001 130.759C125.688 130.684 125.376 130.878 125.302 131.19C125.233 131.503 125.42 131.814 125.739 131.889C125.779 131.902 125.82 131.908 125.86 131.909C126.127 131.913 126.369 131.731 126.437 131.459ZM127.112 128.631C127.181 128.318 126.989 128.006 126.675 127.931C126.368 127.857 126.051 128.049 125.976 128.362C125.901 128.675 126.094 128.986 126.407 129.061C126.453 129.074 126.494 129.08 126.535 129.081C126.802 129.086 127.043 128.903 127.112 128.631ZM127.781 125.804C127.856 125.491 127.663 125.179 127.35 125.104C127.037 125.029 126.726 125.222 126.651 125.535C126.576 125.848 126.768 126.159 127.081 126.234C127.122 126.246 127.168 126.247 127.21 126.248C127.477 126.252 127.719 126.075 127.781 125.804ZM128.455 122.975C128.53 122.662 128.338 122.346 128.025 122.271C127.712 122.202 127.4 122.394 127.325 122.707C127.25 123.014 127.443 123.331 127.756 123.406C127.797 123.413 127.843 123.419 127.884 123.42C128.151 123.424 128.393 123.242 128.455 122.975ZM129.13 120.142C129.205 119.835 129.012 119.517 128.699 119.443C128.386 119.368 128.075 119.561 128 119.879C127.925 120.186 128.118 120.504 128.431 120.579C128.471 120.585 128.512 120.592 128.558 120.592C128.82 120.596 129.067 120.414 129.13 120.142ZM129.805 117.314C129.879 117.001 129.686 116.689 129.373 116.615C129.06 116.54 128.749 116.733 128.675 117.046C128.6 117.359 128.792 117.67 129.105 117.744C129.146 117.757 129.186 117.763 129.233 117.764C129.495 117.768 129.742 117.586 129.805 117.314ZM130.479 114.486C130.553 114.173 130.361 113.862 130.048 113.787C129.735 113.712 129.418 113.905 129.343 114.218C129.274 114.53 129.466 114.842 129.78 114.917C129.82 114.93 129.861 114.93 129.908 114.931C130.169 114.935 130.411 114.758 130.479 114.486ZM131.154 111.658C131.229 111.345 131.036 111.028 130.723 110.959C130.41 110.884 130.093 111.077 130.018 111.39C129.944 111.702 130.142 112.014 130.449 112.089C130.496 112.095 130.536 112.102 130.577 112.103C130.844 112.107 131.085 111.925 131.154 111.658ZM131.828 108.825C131.897 108.518 131.705 108.201 131.392 108.126C131.085 108.057 130.768 108.244 130.693 108.557C130.618 108.869 130.811 109.187 131.124 109.262C131.17 109.268 131.21 109.275 131.252 109.275C131.518 109.279 131.76 109.098 131.828 108.825ZM132.497 105.997C132.572 105.684 132.379 105.373 132.067 105.298C131.754 105.223 131.442 105.416 131.367 105.729C131.292 106.042 131.486 106.353 131.798 106.428C131.838 106.44 131.885 106.446 131.926 106.447C132.193 106.451 132.435 106.27 132.497 105.997ZM133.172 103.169C133.247 102.856 133.054 102.545 132.741 102.47C132.428 102.395 132.117 102.588 132.042 102.901C131.967 103.214 132.16 103.525 132.472 103.6C132.513 103.613 132.559 103.619 132.601 103.619C132.868 103.618 133.109 103.441 133.172 103.169ZM133.846 100.341C133.921 100.028 133.729 99.7111 133.416 99.642C133.103 99.5677 132.791 99.7604 132.716 100.073C132.641 100.386 132.834 100.697 133.147 100.772C133.188 100.778 133.234 100.786 133.275 100.786C133.542 100.79 133.784 100.608 133.846 100.341ZM134.521 97.5136C134.596 97.2007 134.403 96.8834 134.09 96.8143C133.777 96.7393 133.466 96.9262 133.391 97.2391C133.316 97.552 133.509 97.8693 133.822 97.9442C133.862 97.9507 133.903 97.9578 133.95 97.9585C134.211 97.9628 134.458 97.7801 134.521 97.5136ZM135.196 94.6806C135.27 94.3735 135.078 94.0562 134.765 93.9813C134.452 93.9063 134.141 94.099 134.06 94.4118C133.991 94.7248 134.183 95.0421 134.496 95.1112C134.537 95.1235 134.578 95.1294 134.625 95.1302C134.886 95.1345 135.127 94.9523 135.196 94.6806ZM135.87 91.8522C135.945 91.5393 135.752 91.2284 135.439 91.1535C135.127 91.0786 134.815 91.2712 134.734 91.5841C134.66 91.897 134.857 92.2085 135.165 92.2834C135.211 92.2958 135.252 92.3017 135.293 92.3023C135.56 92.3067 135.802 92.1245 135.87 91.8522ZM136.545 89.0245C136.613 88.7114 136.426 88.4007 136.108 88.3256C135.801 88.2508 135.483 88.4434 135.409 88.7563C135.334 89.0692 135.527 89.3807 135.845 89.4557C135.886 89.468 135.927 89.4687 135.967 89.4693C136.235 89.4731 136.476 89.2973 136.545 89.0245ZM137.214 86.1966C137.289 85.8837 137.096 85.5664 136.783 85.4979C136.47 85.4229 136.159 85.6156 136.084 85.9227C136.009 86.2356 136.202 86.5529 136.515 86.6273C136.555 86.6343 136.601 86.6409 136.643 86.6416C136.91 86.6454 137.151 86.4632 137.214 86.1966ZM137.888 83.3688C137.963 83.0559 137.771 82.7386 137.458 82.6637C137.145 82.5888 136.833 82.7873 136.758 83.0944C136.684 83.4073 136.877 83.7246 137.189 83.7995C137.236 83.8067 137.276 83.8131 137.317 83.8138C137.584 83.8176 137.826 83.6354 137.888 83.3688ZM138.563 80.5353C138.638 80.2223 138.445 79.9109 138.132 79.8359C137.819 79.761 137.508 79.9537 137.433 80.2666C137.358 80.5795 137.551 80.891 137.864 80.9659C137.904 80.9782 137.951 80.9848 137.992 80.9855C138.259 80.9904 138.5 80.8076 138.563 80.5353ZM139.237 77.7081C139.312 77.3952 139.12 77.0837 138.807 77.0088C138.494 76.9338 138.182 77.1265 138.107 77.4394C138.033 77.7523 138.226 78.0638 138.539 78.1387C138.579 78.151 138.62 78.1517 138.666 78.1525C138.928 78.1562 139.175 77.9799 139.237 77.7081ZM139.912 74.8797C139.987 74.5668 139.794 74.2559 139.481 74.181C139.168 74.1061 138.857 74.2987 138.782 74.6116C138.707 74.9187 138.9 75.236 139.213 75.311C139.253 75.3174 139.295 75.3239 139.335 75.3246C139.603 75.3284 139.844 75.152 139.912 74.8797ZM140.587 72.052C140.662 71.739 140.469 71.4218 140.156 71.3474C139.843 71.2725 139.526 71.4703 139.457 71.7839C139.382 72.091 139.574 72.4083 139.887 72.4832C139.928 72.4897 139.969 72.4962 140.016 72.4969C140.277 72.5006 140.518 72.3184 140.587 72.052ZM141.261 69.2184C141.33 68.9054 141.144 68.594 140.824 68.519C140.518 68.4447 140.2 68.6373 140.126 68.9502C140.051 69.2631 140.243 69.5804 140.556 69.6489C140.603 69.6619 140.643 69.6678 140.684 69.6685C140.951 69.6729 141.193 69.4907 141.261 69.2184Z" fill="url(#paint3_linear)"/>
<path d="M110.463 159.975C110.538 159.662 110.345 159.351 110.032 159.276C109.719 159.201 109.408 159.394 109.333 159.707C109.258 160.019 109.45 160.331 109.763 160.406C109.81 160.418 109.85 160.419 109.892 160.42C110.159 160.423 110.401 160.248 110.463 159.975ZM111.137 157.147C111.212 156.834 111.02 156.517 110.707 156.448C110.394 156.373 110.082 156.566 110.007 156.879C109.932 157.192 110.125 157.503 110.438 157.577C110.478 157.585 110.525 157.591 110.566 157.592C110.833 157.596 111.075 157.413 111.137 157.147ZM111.812 154.319C111.887 154.006 111.694 153.689 111.381 153.614C111.068 153.539 110.757 153.732 110.682 154.045C110.607 154.358 110.8 154.675 111.112 154.75C111.153 154.757 111.2 154.763 111.241 154.764C111.508 154.768 111.749 154.586 111.812 154.319ZM112.486 151.486C112.561 151.173 112.368 150.861 112.055 150.786C111.743 150.711 111.431 150.904 111.357 151.217C111.282 151.53 111.474 151.841 111.787 151.916C111.828 151.928 111.874 151.935 111.915 151.936C112.182 151.94 112.424 151.758 112.486 151.486ZM113.161 148.658C113.236 148.345 113.043 148.034 112.73 147.959C112.417 147.884 112.106 148.077 112.031 148.39C111.956 148.703 112.149 149.014 112.462 149.089C112.502 149.101 112.543 149.108 112.589 149.109C112.851 149.113 113.098 148.93 113.161 148.658ZM113.836 145.831C113.911 145.518 113.718 145.206 113.405 145.131C113.092 145.056 112.781 145.249 112.706 145.562C112.631 145.875 112.824 146.186 113.137 146.261C113.178 146.268 113.218 146.274 113.259 146.275C113.526 146.279 113.773 146.097 113.836 145.831ZM114.51 143.002C114.579 142.689 114.393 142.372 114.074 142.298C113.767 142.229 113.449 142.421 113.38 142.734C113.305 143.041 113.492 143.358 113.811 143.433C113.852 143.44 113.892 143.446 113.933 143.447C114.2 143.451 114.442 143.269 114.51 143.002ZM115.185 140.169C115.26 139.856 115.067 139.544 114.754 139.469C114.441 139.395 114.124 139.588 114.049 139.9C113.981 140.213 114.173 140.524 114.48 140.599C114.527 140.612 114.567 140.618 114.608 140.619C114.875 140.623 115.116 140.441 115.185 140.169ZM115.854 137.341C115.929 137.028 115.736 136.716 115.423 136.641C115.11 136.567 114.799 136.76 114.724 137.073C114.649 137.386 114.842 137.696 115.155 137.771C115.195 137.784 115.241 137.79 115.283 137.791C115.55 137.795 115.791 137.613 115.854 137.341ZM116.528 134.513C116.603 134.2 116.411 133.889 116.098 133.814C115.785 133.739 115.473 133.932 115.398 134.244C115.323 134.557 115.516 134.869 115.829 134.944C115.869 134.957 115.916 134.957 115.957 134.958C116.224 134.962 116.466 134.785 116.528 134.513ZM117.203 131.685C117.278 131.372 117.085 131.055 116.772 130.986C116.459 130.911 116.148 131.104 116.073 131.417C115.998 131.729 116.191 132.041 116.504 132.116C116.544 132.122 116.585 132.129 116.632 132.13C116.899 132.134 117.141 131.952 117.203 131.685ZM117.878 128.852C117.952 128.545 117.76 128.228 117.447 128.153C117.134 128.078 116.823 128.271 116.748 128.584C116.673 128.896 116.865 129.214 117.178 129.289C117.219 129.295 117.26 129.302 117.3 129.302C117.568 129.306 117.815 129.125 117.878 128.852ZM118.552 126.024C118.627 125.711 118.434 125.4 118.121 125.325C117.809 125.25 117.497 125.443 117.422 125.756C117.347 126.069 117.54 126.38 117.853 126.455C117.893 126.467 117.935 126.473 117.975 126.474C118.242 126.478 118.49 126.296 118.552 126.024ZM119.227 123.196C119.302 122.883 119.108 122.572 118.796 122.497C118.483 122.422 118.172 122.615 118.091 122.928C118.022 123.241 118.214 123.552 118.527 123.627C118.568 123.64 118.609 123.646 118.649 123.646C118.917 123.651 119.158 123.468 119.227 123.196ZM119.901 120.368C119.976 120.055 119.783 119.744 119.47 119.669C119.157 119.595 118.84 119.787 118.766 120.1C118.691 120.413 118.883 120.724 119.196 120.799C119.243 120.805 119.283 120.813 119.324 120.813C119.591 120.817 119.833 120.635 119.901 120.368ZM120.577 117.541C120.645 117.228 120.453 116.91 120.14 116.835C119.832 116.766 119.515 116.959 119.44 117.266C119.366 117.579 119.558 117.896 119.871 117.971C119.918 117.978 119.958 117.985 119.999 117.985C120.266 117.99 120.508 117.807 120.577 117.541ZM121.245 114.707C121.32 114.4 121.127 114.083 120.814 114.008C120.501 113.933 120.19 114.126 120.115 114.439C120.04 114.752 120.233 115.069 120.546 115.138C120.592 115.151 120.632 115.156 120.674 115.157C120.941 115.161 121.182 114.979 121.245 114.707ZM121.919 111.879C121.994 111.566 121.802 111.255 121.489 111.18C121.176 111.105 120.864 111.298 120.789 111.611C120.714 111.924 120.908 112.235 121.221 112.31C121.261 112.323 121.307 112.329 121.348 112.329C121.615 112.334 121.857 112.152 121.919 111.879ZM122.594 109.051C122.669 108.738 122.476 108.428 122.163 108.353C121.85 108.278 121.539 108.47 121.464 108.783C121.389 109.096 121.582 109.408 121.895 109.482C121.935 109.495 121.976 109.496 122.023 109.496C122.285 109.5 122.531 109.324 122.594 109.051ZM123.269 106.224C123.344 105.911 123.151 105.593 122.838 105.518C122.525 105.45 122.214 105.642 122.139 105.956C122.064 106.263 122.256 106.579 122.569 106.654C122.61 106.661 122.651 106.668 122.698 106.669C122.959 106.672 123.207 106.49 123.269 106.224ZM123.943 103.39C124.018 103.083 123.826 102.766 123.513 102.691C123.2 102.616 122.882 102.808 122.813 103.121C122.738 103.434 122.931 103.752 123.244 103.827C123.284 103.833 123.326 103.84 123.366 103.841C123.633 103.845 123.881 103.662 123.943 103.39ZM124.618 100.563C124.693 100.25 124.494 99.9384 124.187 99.8635C123.874 99.7886 123.557 99.9812 123.482 100.294C123.407 100.607 123.6 100.918 123.913 100.993C123.959 101.006 124 101.012 124.04 101.013C124.308 101.017 124.549 100.835 124.618 100.563ZM125.287 97.735C125.362 97.4221 125.175 97.1107 124.856 97.0357C124.543 96.9607 124.232 97.1534 124.157 97.4663C124.088 97.7793 124.275 98.0907 124.594 98.1657C124.634 98.178 124.676 98.1787 124.716 98.1794C124.983 98.1832 125.224 98.0068 125.287 97.735ZM125.961 94.9066C126.036 94.5937 125.844 94.2765 125.531 94.2079C125.218 94.133 124.906 94.3257 124.832 94.6386C124.757 94.9515 124.95 95.263 125.262 95.3379C125.309 95.3445 125.349 95.3509 125.39 95.3516C125.657 95.3554 125.899 95.1732 125.961 94.9066ZM126.636 92.0789C126.711 91.766 126.518 91.4487 126.205 91.3738C125.892 91.2994 125.581 91.4921 125.507 91.805C125.432 92.1179 125.624 92.4352 125.937 92.5101C125.977 92.5166 126.024 92.5232 126.065 92.5239C126.332 92.5276 126.573 92.3454 126.636 92.0789ZM127.31 89.2453C127.385 88.9324 127.193 88.6209 126.88 88.546C126.567 88.4711 126.255 88.6643 126.181 88.9772C126.106 89.2901 126.299 89.6074 126.612 89.676C126.652 89.6888 126.698 89.6948 126.739 89.6955C127.006 89.6999 127.248 89.5177 127.31 89.2453ZM127.985 86.4175C128.06 86.1046 127.867 85.7932 127.554 85.7182C127.242 85.6433 126.93 85.8366 126.855 86.1489C126.78 86.4618 126.973 86.7733 127.286 86.8482C127.326 86.8611 127.367 86.867 127.408 86.8676C127.675 86.872 127.922 86.6899 127.985 86.4175ZM128.66 83.5898C128.735 83.2769 128.542 82.9654 128.229 82.8905C127.916 82.8155 127.605 83.0082 127.53 83.3211C127.455 83.634 127.648 83.9455 127.961 84.0204C128.001 84.0269 128.042 84.0334 128.083 84.0341C128.35 84.0384 128.597 83.8622 128.66 83.5898ZM129.334 80.7626C129.409 80.4497 129.217 80.1324 128.904 80.0575C128.591 79.9883 128.273 80.1803 128.204 80.4939C128.129 80.801 128.322 81.1183 128.635 81.1932C128.676 81.1997 128.717 81.2062 128.757 81.2069C129.025 81.2107 129.266 81.0291 129.334 80.7626ZM130.009 77.9284C130.078 77.6154 129.891 77.3046 129.572 77.2296C129.265 77.1548 128.948 77.3473 128.873 77.6603C128.798 77.9732 128.991 78.2904 129.304 78.3654C129.35 78.372 129.391 78.3784 129.431 78.3791C129.699 78.3829 129.941 78.2007 130.009 77.9284ZM130.678 75.1006C130.758 74.7877 130.559 74.4762 130.253 74.4019C129.94 74.327 129.623 74.5196 129.548 74.8325C129.473 75.1454 129.666 75.4563 129.978 75.5312C130.025 75.5442 130.065 75.5501 130.106 75.5508C130.374 75.5551 130.615 75.3729 130.678 75.1006ZM131.353 72.2728C131.427 71.9599 131.235 71.6484 130.922 71.5735C130.609 71.4991 130.298 71.6918 130.223 72.0047C130.148 72.3176 130.341 72.6285 130.654 72.7035C130.694 72.7163 130.735 72.717 130.781 72.7178C131.042 72.7215 131.29 72.5452 131.353 72.2728ZM132.027 69.445C132.102 69.1321 131.909 68.8148 131.596 68.7457C131.283 68.6708 130.972 68.8641 130.898 69.177C130.823 69.4835 131.015 69.8008 131.328 69.8757C131.369 69.8822 131.415 69.8893 131.456 69.89C131.723 69.8944 131.964 69.7116 132.027 69.445ZM132.701 66.6173C132.776 66.3044 132.584 65.9871 132.271 65.9121C131.958 65.8372 131.647 66.0299 131.572 66.3428C131.497 66.6557 131.69 66.973 132.003 67.0479C132.043 67.0544 132.089 67.061 132.131 67.0616C132.392 67.0659 132.639 66.8838 132.701 66.6173ZM133.376 63.7837C133.451 63.4708 133.258 63.1599 132.946 63.085C132.633 63.01 132.321 63.2027 132.246 63.5156C132.172 63.8285 132.365 64.14 132.677 64.2149C132.717 64.2272 132.759 64.2331 132.799 64.2338C133.066 64.2382 133.308 64.0566 133.376 63.7837ZM134.051 60.9559C134.126 60.643 133.933 60.3321 133.62 60.2572C133.307 60.1823 132.99 60.3748 132.921 60.6878C132.846 61.0008 133.039 61.3122 133.352 61.3866C133.392 61.3995 133.433 61.4054 133.474 61.406C133.741 61.4104 133.983 61.2288 134.051 60.9559ZM134.725 58.1281C134.8 57.8152 134.602 57.4979 134.295 57.4294C133.982 57.3545 133.665 57.5471 133.59 57.86C133.515 58.1729 133.713 58.4839 134.02 58.5587C134.067 58.5659 134.107 58.5723 134.149 58.573C134.416 58.5768 134.657 58.4004 134.725 58.1281ZM135.394 55.3003C135.469 54.9874 135.276 54.6701 134.964 54.5952C134.651 54.5202 134.339 54.7187 134.264 55.0258C134.189 55.3387 134.382 55.656 134.695 55.7309C134.741 55.7375 134.782 55.7446 134.823 55.7453C135.091 55.7491 135.332 55.5669 135.394 55.3003ZM136.069 52.4673C136.144 52.1602 135.95 51.8429 135.638 51.768C135.325 51.693 135.014 51.8857 134.939 52.1986C134.864 52.5115 135.057 52.8288 135.37 52.8979C135.416 52.9103 135.456 52.9168 135.497 52.9175C135.765 52.9219 136.006 52.7391 136.069 52.4673ZM136.743 49.6395C136.818 49.3266 136.625 49.0151 136.312 48.9402C135.999 48.8653 135.688 49.058 135.613 49.3709C135.539 49.6838 135.731 49.9952 136.044 50.0702C136.085 50.0825 136.131 50.0832 136.172 50.0839C136.439 50.0877 136.681 49.9113 136.743 49.6395ZM137.419 46.8112C137.493 46.4983 137.3 46.1874 136.987 46.1124C136.674 46.0375 136.364 46.2302 136.289 46.5431C136.214 46.856 136.406 47.1675 136.719 47.2424C136.76 47.2547 136.801 47.2554 136.841 47.2561C137.108 47.2598 137.355 47.0836 137.419 46.8112ZM138.093 43.9834C138.168 43.6705 137.975 43.3532 137.662 43.2783C137.349 43.2097 137.038 43.4019 136.963 43.7153C136.888 44.0224 137.081 44.3397 137.394 44.4147C137.434 44.4211 137.475 44.4276 137.522 44.4284C137.783 44.4321 138.03 44.25 138.093 43.9834ZM138.767 41.1498C138.842 40.8427 138.65 40.5255 138.337 40.4505C138.024 40.3756 137.706 40.5688 137.638 40.8818C137.563 41.1947 137.756 41.512 138.068 41.5863C138.109 41.5934 138.15 41.5999 138.19 41.6005C138.457 41.6043 138.705 41.4222 138.767 41.1498ZM139.442 38.3221C139.511 38.0091 139.324 37.6977 139.005 37.6227C138.698 37.5478 138.381 37.741 138.312 38.0534C138.237 38.3663 138.43 38.6778 138.743 38.7527C138.782 38.7656 138.824 38.7715 138.864 38.7722C139.132 38.7765 139.373 38.5944 139.442 38.3221ZM140.111 35.4942C140.186 35.1813 139.993 34.8698 139.68 34.7949C139.367 34.72 139.056 34.9126 138.981 35.2255C138.906 35.5384 139.098 35.8499 139.411 35.9249C139.458 35.9372 139.498 35.9379 139.54 35.9386C139.807 35.943 140.048 35.7666 140.111 35.4942ZM140.785 32.667C140.86 32.3541 140.668 32.0368 140.355 31.9677C140.042 31.8928 139.73 32.0855 139.655 32.3984C139.58 32.7113 139.773 33.0227 140.086 33.0977C140.127 33.1042 140.173 33.1107 140.214 33.1114C140.481 33.1152 140.723 32.9336 140.785 32.667ZM141.46 29.8329C141.535 29.5258 141.342 29.2091 141.029 29.1341C140.716 29.0592 140.405 29.2519 140.33 29.5648C140.255 29.8777 140.448 30.195 140.761 30.2699C140.801 30.2764 140.848 30.283 140.889 30.2836C141.156 30.2874 141.397 30.1052 141.46 29.8329ZM142.135 27.0051C142.209 26.6922 142.016 26.3807 141.704 26.3064C141.391 26.2314 141.079 26.4241 141.005 26.737C140.93 27.0499 141.122 27.3672 141.435 27.4357C141.476 27.4486 141.522 27.4546 141.563 27.4553C141.831 27.4597 142.072 27.2775 142.135 27.0051ZM142.809 24.1773C142.884 23.8644 142.691 23.5529 142.378 23.478C142.065 23.4037 141.754 23.5963 141.679 23.9092C141.604 24.2222 141.797 24.533 142.11 24.608C142.15 24.6209 142.191 24.6268 142.237 24.6275C142.499 24.626 142.746 24.4497 142.809 24.1773Z" fill="url(#paint4_linear)"/>
<path d="M103.092 139.528C103.167 139.215 102.974 138.898 102.661 138.823C102.348 138.748 102.037 138.941 101.956 139.253C101.881 139.566 102.079 139.884 102.392 139.959C102.433 139.965 102.474 139.972 102.514 139.973C102.782 139.977 103.023 139.794 103.092 139.528ZM103.761 136.695C103.835 136.382 103.649 136.071 103.336 135.996C103.016 135.921 102.706 136.113 102.631 136.426C102.561 136.739 102.748 137.051 103.061 137.126C103.108 137.138 103.148 137.144 103.189 137.145C103.456 137.15 103.698 136.967 103.761 136.695ZM104.435 133.867C104.509 133.554 104.317 133.243 104.004 133.168C103.697 133.093 103.38 133.286 103.305 133.599C103.23 133.911 103.423 134.223 103.736 134.298C103.782 134.31 103.823 134.311 103.864 134.312C104.131 134.315 104.373 134.139 104.435 133.867ZM105.11 131.039C105.185 130.726 104.992 130.409 104.679 130.34C104.366 130.265 104.055 130.458 103.98 130.771C103.905 131.084 104.098 131.395 104.411 131.47C104.452 131.482 104.498 131.483 104.539 131.484C104.806 131.488 105.047 131.311 105.11 131.039ZM105.784 128.211C105.859 127.898 105.667 127.581 105.354 127.512C105.041 127.432 104.73 127.63 104.655 127.943C104.58 128.25 104.773 128.567 105.086 128.642C105.126 128.649 105.172 128.655 105.213 128.656C105.48 128.66 105.722 128.478 105.784 128.211ZM106.459 125.377C106.534 125.07 106.341 124.753 106.028 124.678C105.715 124.603 105.404 124.796 105.33 125.109C105.255 125.422 105.447 125.74 105.76 125.814C105.8 125.821 105.841 125.827 105.882 125.828C106.149 125.832 106.396 125.65 106.459 125.377ZM107.134 122.55C107.209 122.237 107.016 121.925 106.703 121.85C106.39 121.775 106.079 121.969 106.004 122.281C105.929 122.594 106.122 122.905 106.435 122.98C106.475 122.993 106.516 122.999 106.557 123C106.824 123.004 107.071 122.822 107.134 122.55ZM107.808 119.722C107.883 119.409 107.69 119.098 107.378 119.023C107.065 118.948 106.747 119.14 106.672 119.453C106.604 119.766 106.796 120.078 107.109 120.153C107.149 120.165 107.191 120.166 107.231 120.166C107.498 120.171 107.74 119.994 107.808 119.722ZM108.483 116.895C108.552 116.582 108.36 116.264 108.046 116.195C107.739 116.121 107.422 116.313 107.347 116.626C107.278 116.933 107.471 117.25 107.784 117.325C107.824 117.332 107.865 117.338 107.906 117.339C108.173 117.343 108.414 117.161 108.483 116.895ZM109.152 114.06C109.227 113.748 109.034 113.437 108.721 113.362C108.408 113.287 108.097 113.48 108.022 113.792C107.947 114.105 108.139 114.423 108.452 114.498C108.499 114.504 108.539 114.511 108.581 114.511C108.848 114.515 109.089 114.333 109.152 114.06ZM109.826 111.233C109.901 110.92 109.708 110.608 109.395 110.534C109.083 110.459 108.771 110.652 108.696 110.965C108.621 111.278 108.814 111.588 109.127 111.663C109.167 111.676 109.214 111.682 109.255 111.683C109.522 111.687 109.764 111.505 109.826 111.233ZM110.501 108.405C110.576 108.092 110.383 107.781 110.07 107.706C109.757 107.631 109.446 107.824 109.371 108.137C109.296 108.45 109.489 108.761 109.802 108.836C109.842 108.848 109.889 108.849 109.929 108.85C110.197 108.854 110.438 108.677 110.501 108.405ZM111.176 105.577C111.25 105.264 111.058 104.953 110.745 104.878C110.432 104.803 110.121 104.996 110.046 105.309C109.971 105.621 110.164 105.933 110.477 106.008C110.517 106.014 110.558 106.021 110.604 106.022C110.866 106.026 111.113 105.85 111.176 105.577ZM111.85 102.744C111.925 102.431 111.732 102.12 111.419 102.045C111.106 101.976 110.796 102.163 110.721 102.481C110.646 102.788 110.838 103.106 111.151 103.181C111.192 103.187 111.233 103.194 111.273 103.194C111.54 103.198 111.782 103.016 111.85 102.744ZM112.525 99.9158C112.6 99.6029 112.407 99.2921 112.094 99.2171C111.781 99.1422 111.464 99.3348 111.395 99.6478C111.32 99.9607 111.513 100.278 111.826 100.347C111.866 100.359 111.907 100.365 111.948 100.366C112.215 100.37 112.456 100.189 112.525 99.9158ZM113.199 97.0881C113.274 96.7752 113.082 96.4643 112.769 96.3894C112.456 96.3144 112.138 96.507 112.064 96.8199C111.989 97.1328 112.182 97.4443 112.495 97.5187C112.54 97.5316 112.581 97.5375 112.622 97.5382C112.889 97.5426 113.131 97.3609 113.199 97.0881ZM113.868 94.2602C113.943 93.9473 113.75 93.6358 113.437 93.5615C113.13 93.4867 112.813 93.6792 112.738 93.9921C112.663 94.3051 112.856 94.6159 113.169 94.6909C113.215 94.698 113.256 94.7045 113.297 94.7052C113.564 94.709 113.805 94.5326 113.868 94.2602ZM114.543 91.4325C114.618 91.1196 114.425 90.8023 114.112 90.7273C113.799 90.6588 113.488 90.8509 113.413 91.1644C113.338 91.4773 113.53 91.7882 113.843 91.8631C113.884 91.8696 113.93 91.8768 113.972 91.8774C114.239 91.8812 114.481 91.7048 114.543 91.4325ZM115.217 88.5995C115.292 88.2866 115.1 87.9751 114.787 87.9002C114.474 87.8252 114.162 88.0179 114.087 88.3308C114.012 88.6437 114.205 88.961 114.518 89.0359C114.559 89.0424 114.605 89.0496 114.646 89.0502C114.913 89.054 115.155 88.8713 115.217 88.5995ZM115.892 85.7717C115.967 85.4588 115.774 85.1473 115.461 85.0724C115.148 84.9974 114.837 85.1901 114.762 85.503C114.687 85.8159 114.88 86.1274 115.193 86.2023C115.233 86.2146 115.274 86.2206 115.32 86.2213C115.582 86.2256 115.829 86.0435 115.892 85.7717ZM116.567 82.9433C116.641 82.6304 116.448 82.3195 116.135 82.2446C115.822 82.1697 115.511 82.3624 115.437 82.6753C115.362 82.9882 115.554 83.2997 115.867 83.3746C115.908 83.3869 115.948 83.3928 115.989 83.3934C116.257 83.3978 116.504 83.2157 116.567 82.9433ZM117.241 80.1156C117.315 79.8027 117.123 79.4918 116.81 79.4168C116.497 79.3419 116.18 79.5345 116.111 79.8475C116.036 80.1604 116.229 80.4719 116.542 80.5468C116.582 80.5533 116.623 80.5598 116.664 80.5605C116.931 80.5642 117.173 80.3821 117.241 80.1156ZM117.916 77.282C117.991 76.9749 117.798 76.6576 117.485 76.5827C117.172 76.5078 116.861 76.701 116.78 77.0138C116.706 77.3267 116.903 77.6441 117.217 77.7185C117.258 77.7255 117.298 77.732 117.339 77.7327C117.606 77.7365 117.847 77.5543 117.916 77.282ZM118.585 74.4541C118.66 74.1412 118.467 73.8298 118.154 73.7548C117.841 73.6799 117.53 73.8732 117.455 74.1855C117.38 74.4984 117.573 74.8157 117.886 74.8848C117.932 74.8978 117.972 74.9037 118.014 74.9043C118.28 74.9087 118.522 74.7265 118.585 74.4541ZM119.265 71.6265C119.334 71.3135 119.142 71.002 118.829 70.9271C118.516 70.8521 118.204 71.0448 118.129 71.3577C118.054 71.6706 118.248 71.9821 118.56 72.057C118.606 72.0694 118.647 72.0701 118.688 72.0708C118.955 72.0751 119.197 71.8988 119.265 71.6265ZM119.934 68.7992C120.009 68.4863 119.816 68.1748 119.503 68.0999C119.19 68.0249 118.879 68.2176 118.804 68.5305C118.729 68.8434 118.922 69.1549 119.234 69.2298C119.275 69.2363 119.321 69.2429 119.363 69.2436C119.63 69.2474 119.871 69.0658 119.934 68.7992ZM120.608 65.9708C120.683 65.6579 120.491 65.3412 120.178 65.2663C119.865 65.1972 119.553 65.384 119.478 65.697C119.403 66.0157 119.596 66.3271 119.909 66.4021C119.95 66.4086 119.996 66.4151 120.037 66.4158C120.304 66.4196 120.546 66.2374 120.608 65.9708ZM121.283 63.1373C121.358 62.8244 121.165 62.5129 120.852 62.4385C120.539 62.3636 120.228 62.5563 120.153 62.8692C120.078 63.1821 120.271 63.4994 120.584 63.5679C120.624 63.5808 120.665 63.5867 120.712 63.5875C120.973 63.5917 121.22 63.4096 121.283 63.1373ZM121.958 60.3095C122.033 59.9966 121.84 59.6851 121.527 59.6102C121.214 59.5358 120.897 59.7284 120.828 60.0414C120.753 60.3543 120.945 60.6652 121.258 60.7402C121.299 60.753 121.34 60.7589 121.38 60.7596C121.648 60.764 121.895 60.5819 121.958 60.3095ZM122.632 57.4817C122.707 57.1688 122.514 56.8573 122.201 56.7824C121.889 56.7075 121.571 56.9007 121.496 57.2136C121.422 57.5259 121.614 57.8374 121.927 57.9123C121.973 57.9253 122.014 57.9259 122.055 57.9266C122.322 57.931 122.564 57.754 122.632 57.4817ZM123.307 54.654C123.375 54.341 123.183 54.0295 122.87 53.9546C122.563 53.8797 122.245 54.0723 122.171 54.3852C122.096 54.6981 122.289 55.0096 122.602 55.0845C122.648 55.0911 122.688 55.0976 122.729 55.0982C122.997 55.1026 123.238 54.9204 123.307 54.654ZM123.976 51.8203C124.051 51.5138 123.858 51.1965 123.545 51.1216C123.232 51.0466 122.921 51.2393 122.846 51.5522C122.771 51.8651 122.964 52.1824 123.277 52.2515C123.323 52.2639 123.363 52.2698 123.405 52.2705C123.672 52.2749 123.913 52.0933 123.976 51.8203ZM124.65 48.9925C124.725 48.6796 124.533 48.3687 124.22 48.2938C123.907 48.2189 123.595 48.4115 123.52 48.7244C123.446 49.0374 123.639 49.3488 123.952 49.4232C123.991 49.4361 124.038 49.4421 124.079 49.4427C124.346 49.4471 124.588 49.2655 124.65 48.9925ZM125.325 46.1648C125.4 45.8519 125.207 45.5404 124.894 45.466C124.581 45.3911 124.27 45.5838 124.195 45.8967C124.12 46.2096 124.313 46.5205 124.626 46.5954C124.666 46.6083 124.707 46.609 124.754 46.6097C125.015 46.6134 125.262 46.4371 125.325 46.1648ZM125.999 43.337C126.074 43.0241 125.882 42.7126 125.569 42.6377C125.256 42.5633 124.944 42.756 124.869 43.0689C124.795 43.3818 124.988 43.6927 125.301 43.7677C125.341 43.7741 125.382 43.7812 125.428 43.782C125.69 43.7857 125.937 43.6036 125.999 43.337ZM126.674 40.5092C126.749 40.1963 126.556 39.879 126.243 39.8041C125.931 39.7292 125.619 39.9277 125.544 40.2412C125.469 40.5477 125.662 40.8649 125.975 40.9399C126.015 40.9464 126.057 40.9534 126.097 40.9541C126.365 40.9585 126.606 40.7757 126.674 40.5092Z" fill="url(#paint5_linear)"/>
<path opacity="0.3" d="M107.085 147.616C121.349 155.848 121.349 169.202 107.085 177.433C92.8213 185.671 69.6994 185.671 55.4394 177.438C41.1751 169.202 41.1751 155.852 55.4394 147.616C69.6994 139.379 92.8238 139.379 107.085 147.616Z" fill="#858C2C"/>
<path opacity="0.5" d="M105.379 148.599C118.698 156.288 118.698 168.759 105.379 176.448C92.0624 184.138 70.4647 184.138 57.1443 176.448C43.8272 168.759 43.8272 156.29 57.1443 148.6C70.4639 140.91 92.0616 140.91 105.379 148.599Z" fill="#858C2C"/>
<path d="M103.537 149.668C115.837 156.767 115.837 168.283 103.537 175.385C91.23 182.485 71.2902 182.485 58.9918 175.385C46.6909 168.283 46.6909 156.77 58.9918 149.668C71.2902 142.565 91.2343 142.565 103.537 149.668Z" fill="#858C2C"/>
<path d="M101.745 150.698C113.062 157.229 113.062 167.819 101.745 174.35C90.433 180.885 72.0863 180.885 60.7769 174.35C49.464 167.819 49.464 157.228 60.7769 150.698C72.0872 144.166 90.433 144.166 101.745 150.698Z" fill="url(#paint6_linear)"/>
<path d="M12.7412 12.4385C12.7412 12.4385 45.4217 154.004 49.9713 164.778C54.5208 175.553 70.3927 180.034 84.2928 179.376C96.8747 178.78 113.485 172.362 115.139 163.286C116.794 154.211 147.741 12.4385 147.741 12.4385H79.9034H12.7412Z" fill="url(#paint7_linear)"/>
<path d="M22.7412 12.4385C22.7412 12.4385 50.1812 154.004 54.0231 164.778C57.8651 175.553 71.4261 180.034 83.1643 179.376C93.7893 178.78 107.816 172.362 109.213 163.286C110.61 154.211 138.741 12.4385 138.741 12.4385H74.8241H22.7412Z" fill="url(#paint8_linear)"/>
<g style="mix-blend-mode:color-dodge">
<path d="M81.4195 174.093C70.0168 174.093 60.7412 168.562 60.7412 161.766C60.7412 154.969 70.0168 149.438 81.4195 149.438C92.8223 149.438 102.098 154.968 102.098 161.766C102.098 168.564 92.8203 174.093 81.4195 174.093ZM81.4195 152.581C72.923 152.581 66.0124 156.702 66.0124 161.766C66.0124 166.83 72.925 170.951 81.4195 170.951C89.9141 170.951 96.8267 166.83 96.8267 161.766C96.8267 156.702 89.9141 152.581 81.4195 152.581Z" fill="url(#paint9_linear)"/>
</g>
<g filter="url(#filter0_df)">
<path d="M71.7538 168.437C74.698 170.073 78.501 170.873 82.2588 170.88C86.0163 170.886 89.8118 170.099 92.74 168.472C95.66 166.85 97.307 164.605 97.2932 162.185C97.2795 159.767 95.6107 157.521 92.676 155.891C89.7319 154.256 85.9289 153.455 82.1711 153.448C78.4136 153.442 74.618 154.229 71.6899 155.856C68.7699 157.479 67.1229 159.723 67.1367 162.144C67.1504 164.561 68.8193 166.807 71.7538 168.437Z" stroke="#FFE767" stroke-width="1.52517"/>
</g>
<path d="M75.742 163.014L73.9717 161.938C74.7433 161.267 75.2556 160.778 75.506 160.476C75.9048 159.992 76.0936 159.515 76.0723 159.046C76.0554 158.726 75.9064 158.396 75.6255 158.065C75.4551 157.868 75.311 157.735 75.1946 157.665L77.3414 155.947L90.585 163.987L87.9514 166.095L78.8187 160.549L75.742 163.014Z" fill="white"/>
<path d="M81.2409 149.825C87.0169 149.825 92.454 151.112 96.5505 153.448C100.725 155.829 103.024 159.022 103.024 162.438C103.024 165.855 100.725 169.048 96.5505 171.43C92.454 173.766 87.0169 175.053 81.2409 175.053C75.4649 175.053 70.0278 173.766 65.9314 171.43C61.7567 169.049 59.4578 165.856 59.4578 162.438C59.4578 159.021 61.7567 155.829 65.9314 153.448C70.0278 151.112 75.4649 149.825 81.2409 149.825ZM81.2409 174.169C86.8663 174.169 92.1469 172.924 96.1125 170.662C99.9998 168.444 102.14 165.525 102.14 162.438C102.14 159.353 99.9998 156.433 96.1125 154.215C92.1469 151.953 86.8663 150.708 81.2409 150.708C75.6165 150.708 70.335 151.953 66.3694 154.215C62.482 156.433 60.3417 159.352 60.3417 162.438C60.3417 165.525 62.482 168.444 66.3694 170.662C70.335 172.924 75.6165 174.169 81.2409 174.169Z" fill="#FFE600"/>
<path d="M81.2409 147.255C88.2793 147.255 94.8996 148.82 99.8839 151.663C104.911 154.53 107.679 158.356 107.679 162.438C107.679 166.52 104.911 170.347 99.8839 173.215C94.9006 176.057 88.2793 177.622 81.2409 177.622C74.2025 177.622 67.5822 176.057 62.5989 173.215C57.5721 170.347 54.8035 166.52 54.8035 162.438C54.8035 158.356 57.5721 154.529 62.5989 151.663C67.5822 148.82 74.2025 147.255 81.2409 147.255ZM81.2409 177.225C95.6388 177.225 107.351 170.592 107.351 162.439C107.351 154.286 95.6378 147.653 81.2409 147.653C66.844 147.653 55.1305 154.285 55.1305 162.438C55.1305 170.592 66.843 177.225 81.2409 177.225Z" fill="#FFE600"/>
<path d="M81.2412 144.438C89.6471 144.438 97.5516 146.306 103.498 149.697C109.458 153.097 112.741 157.621 112.741 162.438C112.741 167.256 109.458 171.78 103.498 175.18C97.5516 178.571 89.6471 180.438 81.2412 180.438C72.8353 180.438 64.9309 178.571 58.9844 175.18C53.0241 171.78 49.7412 167.256 49.7412 162.438C49.7412 157.621 53.0241 153.097 58.9844 149.697C64.9309 146.306 72.8353 144.438 81.2412 144.438ZM81.2412 180.279C98.5217 180.279 112.581 172.276 112.581 162.439C112.581 152.602 98.5217 144.6 81.2412 144.6C63.9608 144.6 49.9017 152.602 49.9017 162.438C49.9017 172.276 63.9608 180.279 81.2412 180.279Z" fill="#FFE600"/>
<path d="M107.56 140.209L64.7539 148.914C59.3977 150.003 54.1718 146.538 53.081 141.174L29.0848 23.1746C27.994 17.8108 31.4515 12.58 36.8077 11.4907L79.614 2.78572C84.9702 1.69649 90.1961 5.16145 91.2868 10.5253L115.283 128.525C116.374 133.889 112.916 139.12 107.56 140.209Z" fill="url(#paint10_linear)"/>
<path d="M107.361 139.948L69.8106 147.584C64.4839 148.667 59.2867 145.221 58.2019 139.887L34.3016 22.3585C33.2168 17.0242 36.6553 11.8221 41.9821 10.7389L79.5327 3.10266C84.8594 2.01941 90.0566 5.46531 91.1413 10.7996L115.042 128.329C116.127 133.662 112.688 138.864 107.361 139.948Z" fill="url(#paint11_linear)"/>
<path d="M107.295 139.559L69.7197 147.201C64.67 148.228 59.7423 144.961 58.7139 139.903L34.8134 22.3745C33.785 17.3176 37.0448 12.3853 42.095 11.3583L79.67 3.71712C84.7197 2.69023 89.6474 5.95698 90.6759 11.0144L114.576 128.544C115.605 133.601 112.344 138.533 107.295 139.559Z" fill="black"/>
<path d="M88.669 11.9237L112.345 128.35C113.148 132.298 111.068 136.055 107.699 136.74L68.2464 144.763C64.8776 145.448 61.4958 142.802 60.6929 138.854L37.0166 22.4276C36.213 18.4762 38.2933 14.719 41.6616 14.034L46.7863 12.9918C47.1217 12.9236 47.4586 13.1869 47.5385 13.5801L47.6642 14.1984C48.0674 16.1808 49.7652 17.509 51.4565 17.1651L73.3128 12.7204C75.0075 12.3758 76.0522 10.4898 75.6491 8.50747L75.5233 7.88912C75.4434 7.49598 75.6507 7.12203 75.9861 7.05382L81.1146 6.01089C84.4829 5.32592 87.8654 7.97229 88.669 11.9237Z" fill="url(#paint12_angular)"/>
<path d="M41.8006 67.8372L41.6318 67.8716C41.2481 67.9496 40.8738 67.7014 40.7956 67.3172L38.98 58.389C38.9019 58.0048 39.1495 57.6301 39.5332 57.5521L39.7026 57.5177C40.0857 57.4397 40.4599 57.6873 40.538 58.0716L42.3539 67.0009C42.4315 67.3852 42.1837 67.7593 41.8006 67.8372Z" fill="url(#paint13_linear)"/>
<path d="M41.7827 67.7991L41.1791 67.9219C41.0198 67.9543 40.864 67.851 40.8316 67.6914L38.8669 58.0304C38.8345 57.8708 38.9375 57.7149 39.0968 57.6825L39.7004 57.5597C40.0614 57.4864 40.413 57.72 40.4864 58.0809L42.3027 67.0124C42.3762 67.3739 42.1436 67.7257 41.7827 67.7991Z" fill="url(#paint14_linear)"/>
<path d="M41.1872 67.9215C40.8051 67.9992 40.4322 67.7519 40.3544 67.3694L38.5538 58.5151C38.476 58.1326 38.7227 57.7593 39.1048 57.6816C39.4868 57.6039 39.8598 57.8512 39.9376 58.2337L41.7381 67.088C41.8159 67.4705 41.5692 67.8438 41.1872 67.9215Z" fill="url(#paint15_linear)"/>
<path d="M39.1405 54.7659L38.9717 54.8003C38.588 54.8783 38.2137 54.6301 38.1356 54.2459L36.32 45.3177C36.2418 44.9335 36.4895 44.5588 36.8731 44.4808L37.0425 44.4464C37.4256 44.3685 37.7999 44.6166 37.878 45.0003L39.6939 53.9302C39.7713 54.3134 39.5236 54.688 39.1405 54.7659Z" fill="url(#paint16_linear)"/>
<path d="M39.1217 54.7278L38.5181 54.8506C38.3587 54.883 38.203 54.7797 38.1706 54.6202L36.2059 44.9591C36.1734 44.7995 36.2765 44.6436 36.4358 44.6112L37.0394 44.4885C37.4004 44.4151 37.752 44.6487 37.8254 45.0096L39.6417 53.9411C39.7151 54.302 39.4826 54.6544 39.1217 54.7278Z" fill="url(#paint17_linear)"/>
<path d="M38.5273 54.8483C38.1453 54.926 37.7724 54.6787 37.6946 54.2961L35.894 45.4419C35.8162 45.0593 36.0629 44.686 36.445 44.6083C36.827 44.5306 37.1999 44.7779 37.2777 45.1605L39.0783 54.0147C39.1561 54.3973 38.9094 54.7706 38.5273 54.8483Z" fill="url(#paint18_linear)"/>
<path d="M36.1626 39.7281L35.4057 39.882C35.0687 39.9506 34.7399 39.7326 34.6713 39.3956L33.8628 35.4197C33.7942 35.0822 34.0117 34.753 34.3488 34.6845L35.1051 34.5307C35.4416 34.4623 35.7697 34.6798 35.8382 35.0168L36.6472 38.9949C36.7162 39.3312 36.4985 39.6598 36.1626 39.7281Z" fill="url(#paint19_linear)"/>
<path d="M36.1224 39.7075L35.7825 39.7766C35.4494 39.8443 35.1239 39.6285 35.056 39.2949L34.2561 35.3613C34.1882 35.0276 34.4036 34.7018 34.7368 34.6341L35.0766 34.565C35.4092 34.4973 35.734 34.7127 35.8018 35.0458L36.602 38.9811C36.6699 39.3147 36.4555 39.6397 36.1224 39.7075Z" fill="url(#paint20_linear)"/>
<path d="M35.6508 39.8029C35.3648 39.861 35.0861 39.6762 35.0279 39.3899L34.1929 35.2839C34.1346 34.9975 34.319 34.7185 34.605 34.6604C34.891 34.6022 35.1697 34.787 35.2279 35.0734L36.0629 39.1794C36.1211 39.4658 35.9367 39.7447 35.6508 39.8029Z" fill="url(#paint21_linear)"/>
<path d="M69.0766 11.9205C69.8301 11.7672 70.2897 10.8994 70.1031 9.98205C69.9166 9.06473 69.1545 8.4453 68.4011 8.59853C67.6476 8.75176 67.188 9.61962 67.3745 10.5369C67.5611 11.4543 68.3231 12.0737 69.0766 11.9205Z" fill="url(#paint22_linear)"/>
<path d="M69.0326 11.6982C69.6855 11.5654 70.0838 10.8137 69.9222 10.0193C69.7607 9.22477 69.1004 8.68834 68.4475 8.82112C67.7946 8.95389 67.3963 9.70558 67.5579 10.5001C67.7194 11.2945 68.3797 11.831 69.0326 11.6982Z" fill="url(#paint23_linear)"/>
<path d="M69.0326 11.6982C69.6855 11.5654 70.0838 10.8137 69.9222 10.0193C69.7607 9.22477 69.1004 8.68834 68.4475 8.82112C67.7946 8.95389 67.3963 9.70558 67.5579 10.5001C67.7194 11.2945 68.3797 11.831 69.0326 11.6982Z" fill="url(#paint24_linear)"/>
<path d="M68.8956 11.0309C69.2461 10.9596 69.46 10.556 69.3732 10.1295C69.2865 9.7029 68.932 9.41488 68.5815 9.48617C68.2309 9.55745 68.0171 9.96104 68.1038 10.3876C68.1906 10.8142 68.5451 11.1022 68.8956 11.0309Z" fill="url(#paint25_linear)"/>
<path opacity="0.42" d="M68.9988 11.5376C69.5791 11.4196 69.933 10.7514 69.7893 10.045C69.6457 9.33867 69.0589 8.86172 68.4787 8.97971C67.8984 9.09771 67.5445 9.76597 67.6882 10.4723C67.8318 11.1787 68.4186 11.6556 68.9988 11.5376Z" fill="url(#paint26_linear)"/>
<path opacity="0.4" d="M57.1693 134.808L52.0003 135.859L52.2658 137.165L57.4349 136.114L57.1693 134.808Z" fill="url(#paint27_linear)"/>
<path opacity="0.4" d="M35.0853 26.2125L29.9162 27.2637L30.1817 28.5693L35.3508 27.5181L35.0853 26.2125Z" fill="url(#paint28_linear)"/>
<path d="M66.4048 11.3065L58.415 12.9313C58.139 12.9874 57.8702 12.8087 57.8141 12.5329L57.7933 12.4306C57.7371 12.1542 57.9154 11.8852 58.1908 11.8291L66.1807 10.2043C66.4567 10.1482 66.7255 10.3269 66.7816 10.6027L66.8024 10.705C66.8586 10.9814 66.6803 11.2505 66.4048 11.3065Z" fill="url(#paint29_linear)"/>
<path opacity="0.28" d="M88.6666 11.9268L112.342 128.351C112.686 130.043 112.498 131.691 111.912 133.086L38.6825 15.7461C39.4779 14.8831 40.4946 14.2727 41.6635 14.035L46.7853 12.9935C47.1246 12.9245 47.4547 13.1857 47.5349 13.5799L47.6606 14.1983C48.0639 16.1812 49.7649 17.5082 51.454 17.1647L73.3108 12.7199C75.0061 12.3752 76.0537 10.4892 75.6504 8.5063L75.5246 7.8874C75.4444 7.49315 75.6529 7.12242 75.9855 7.05478L81.1135 6.01196C84.4808 5.32777 87.8627 7.9737 88.6666 11.9268Z" fill="url(#paint30_linear)"/>
<path d="M48.3502 43.1406L52.9814 42.2211L54.2401 48.561L62.757 46.87L61.4982 40.5302L66.1294 39.6107L69.4072 56.1199L64.776 57.0394L63.3653 49.9338L54.8484 51.6248L56.2592 58.7303L51.628 59.6498L48.3502 43.1406Z" fill="black"/>
<path d="M68.6697 39.1064L73.2475 38.1976L84.2599 47.5426L84.3129 47.5321L82.1102 36.4379L86.4489 35.5765L89.7267 52.0857L85.0954 53.0052L74.1469 43.702L74.0939 43.7125L76.2862 54.7542L71.9482 55.6155L68.6703 39.1063L68.6697 39.1064Z" fill="black"/>
<path d="M52.8927 70.9807C51.8975 65.9685 52.7172 62.4117 56.5001 61.6606C60.3303 60.9001 61.7404 64.039 62.0513 65.6048L61.0889 65.7958C60.6626 63.6488 59.1055 61.934 56.699 62.4118C53.4428 63.0583 52.9557 66.2476 53.8487 70.7455C54.7014 75.0401 56.2347 78.0849 59.5376 77.4292C62.6352 76.8142 62.9875 73.6758 62.4319 70.8776L62.2364 69.8927L57.739 70.7856L57.5878 70.0243L63.0476 68.9403L64.6335 76.9278L63.8531 77.0828L63.2133 73.8605L63.1684 73.8694C63.0721 76.1444 61.866 77.7552 59.5487 78.2153C55.9711 78.9256 53.9185 76.1473 52.8927 70.9807Z" fill="black"/>
<path d="M64.7611 64.2749L65.7626 64.0761L66.1917 66.2374L66.2426 66.2273C66.4592 64.7035 67.3886 63.4584 69.2068 63.0974L69.7846 62.9827L69.9449 63.7904L69.3672 63.9051C67.0496 64.3653 66.2627 66.5946 66.6631 68.6114L68.2277 76.4918L67.2262 76.6906L64.7611 64.2749Z" fill="black"/>
<path d="M76.0502 74.9405C73.0451 75.5371 71.7397 72.8284 71.0435 69.322C70.3521 65.8398 70.5259 62.8373 73.6617 62.2147C76.6668 61.6181 77.9717 64.3269 78.6631 67.8092C79.3571 71.316 79.1855 74.318 76.0502 74.9405ZM73.7509 63.0175C71.5735 63.4498 71.2655 65.6578 71.9617 69.1642C72.653 72.6464 73.7813 74.5698 75.9587 74.1375C78.1356 73.7053 78.4436 71.4973 77.7521 68.0145C77.056 64.5087 75.9278 62.5853 73.7509 63.0175Z" fill="black"/>
<path d="M85.3462 61.255L85.2994 61.2643L85.0692 73.1491L83.9071 73.3798L78.6744 61.2188L79.6889 61.0173L84.2002 71.9607L84.2476 71.9513L84.4802 60.066L85.6424 59.8353L90.2983 70.75L90.3456 70.7406L90.3587 58.8989L91.3738 58.6973L91.1617 71.9394L89.9996 72.1702L85.3462 61.255Z" fill="black"/>
<g style="mix-blend-mode:lighten">
<path d="M30.0094 86.8657C40.8056 131.168 47.8517 167.499 45.7474 168.011C43.6425 168.524 33.1843 133.026 22.3874 88.7227C11.5912 44.4205 4.54519 8.09034 6.65006 7.57769C8.75491 7.06447 19.2132 42.5635 30.0094 86.8657Z" fill="url(#paint31_radial)"/>
</g>
<g style="mix-blend-mode:lighten">
<path d="M40.9793 86.6284C51.7755 130.931 58.8216 167.261 56.7173 167.774C54.6124 168.287 44.1542 132.788 33.3574 88.4854C22.5611 44.1832 15.5151 7.85302 17.62 7.34038C19.7248 6.82773 30.1831 42.3262 40.9793 86.6284Z" fill="url(#paint32_radial)"/>
</g>
<g style="mix-blend-mode:lighten">
<path d="M24.08 101.334C34.8768 145.637 41.9222 181.967 39.8179 182.48C37.7131 182.992 27.2548 147.494 16.458 103.191C5.66179 58.8889 -1.38424 22.5587 0.720616 22.0455C2.8249 21.5328 13.2837 57.0312 24.08 101.334Z" fill="url(#paint33_radial)"/>
</g>
<path d="M26.8806 134.302C26.804 133.99 26.995 133.671 27.3075 133.595C27.62 133.518 27.9384 133.715 28.0084 134.022C28.085 134.335 27.8941 134.653 27.5816 134.729C27.541 134.736 27.5004 134.743 27.4539 134.744C27.1928 134.749 26.9503 134.568 26.8806 134.302ZM26.1911 131.472C26.1204 131.159 26.3056 130.847 26.6239 130.77C26.9365 130.694 27.2489 130.885 27.3255 131.197C27.3957 131.51 27.2104 131.822 26.8921 131.899C26.8522 131.912 26.8111 131.918 26.7704 131.919C26.5034 131.925 26.261 131.744 26.1911 131.472ZM25.5018 128.648C25.431 128.335 25.6215 128.023 25.9346 127.946C26.2413 127.87 26.5596 128.061 26.6362 128.373C26.7127 128.686 26.5217 128.998 26.2092 129.075C26.1629 129.087 26.1223 129.094 26.081 129.095C25.8141 129.101 25.5717 128.92 25.5018 128.648ZM24.8183 125.824C24.7417 125.512 24.9328 125.199 25.2453 125.123C25.5578 125.046 25.8703 125.237 25.9468 125.55C26.0234 125.862 25.8323 126.174 25.5198 126.251C25.4794 126.264 25.4329 126.265 25.3916 126.265C25.1246 126.271 24.8817 126.096 24.8183 125.824ZM24.1289 122.999C24.0524 122.687 24.2433 122.369 24.5558 122.292C24.8684 122.222 25.1809 122.412 25.2575 122.725C25.3339 123.032 25.143 123.35 24.8305 123.427C24.7899 123.434 24.7435 123.44 24.7022 123.441C24.4353 123.446 24.1929 123.266 24.1289 122.999ZM23.4395 120.169C23.363 119.863 23.5545 119.544 23.8665 119.468C24.179 119.392 24.4915 119.583 24.5681 119.901C24.6446 120.208 24.4537 120.526 24.1411 120.603C24.1006 120.609 24.0594 120.616 24.0135 120.617C23.7518 120.622 23.5035 120.441 23.4395 120.169ZM22.7501 117.345C22.6736 117.033 22.8652 116.72 23.1777 116.643C23.4902 116.568 23.8021 116.759 23.8787 117.071C23.9552 117.384 23.7642 117.695 23.4517 117.772C23.4112 117.785 23.3706 117.791 23.3241 117.792C23.0624 117.798 22.8142 117.617 22.7501 117.345ZM22.0608 114.521C21.9848 114.208 22.1759 113.896 22.4884 113.819C22.8009 113.743 23.1192 113.934 23.1952 114.247C23.2659 114.559 23.0754 114.871 22.7623 114.948C22.7219 114.961 22.6812 114.962 22.6347 114.963C22.373 114.968 22.1307 114.793 22.0608 114.521ZM21.3709 111.697C21.2949 111.384 21.4858 111.066 21.7984 110.995C22.1109 110.919 22.4292 111.109 22.5058 111.422C22.5818 111.734 22.3855 112.047 22.0782 112.124C22.0318 112.13 21.9918 112.137 21.9505 112.138C21.6836 112.144 21.4412 111.963 21.3709 111.697ZM20.682 108.867C20.6114 108.56 20.8017 108.242 21.1148 108.166C21.4216 108.095 21.7398 108.28 21.8163 108.593C21.8923 108.905 21.7014 109.223 21.3889 109.3C21.3425 109.307 21.3025 109.313 21.2612 109.314C20.9943 109.319 20.7519 109.139 20.682 108.867ZM19.9985 106.042C19.9219 105.73 20.113 105.418 20.4255 105.341C20.738 105.265 21.0504 105.456 21.127 105.768C21.2036 106.081 21.0119 106.393 20.6994 106.469C20.6596 106.482 20.6131 106.489 20.5719 106.49C20.3049 106.495 20.0625 106.315 19.9985 106.042ZM19.3091 103.218C19.2325 102.906 19.4236 102.593 19.7361 102.517C20.0486 102.441 20.3611 102.632 20.4377 102.944C20.5142 103.257 20.3226 103.569 20.0107 103.645C19.9702 103.658 19.9238 103.664 19.8825 103.665C19.6155 103.665 19.3732 103.49 19.3091 103.218ZM18.6198 100.394C18.5432 100.081 18.7341 99.7631 19.0468 99.6923C19.3593 99.6163 19.6718 99.8074 19.7483 100.12C19.8249 100.432 19.6338 100.744 19.3213 100.821C19.2807 100.828 19.2344 100.835 19.1931 100.836C18.9261 100.841 18.6831 100.66 18.6198 100.394ZM17.9304 97.5697C17.8539 97.2572 18.0448 96.9389 18.3574 96.8681C18.6699 96.7916 18.9823 96.9768 19.0589 97.2893C19.1354 97.6018 18.9445 97.9201 18.632 97.9967C18.5914 98.0034 18.5502 98.0106 18.5037 98.0117C18.2426 98.0173 17.9944 97.8359 17.9304 97.5697ZM17.241 94.7402C17.1645 94.4335 17.3555 94.1152 17.668 94.0387C17.9805 93.9621 18.293 94.1532 18.3753 94.4655C18.4461 94.7782 18.2557 95.0965 17.9425 95.1672C17.9021 95.1797 17.8609 95.1859 17.8144 95.1869C17.5533 95.1925 17.3108 95.0116 17.241 94.7402ZM16.5516 91.9154C16.4751 91.6029 16.6667 91.291 16.9792 91.2145C17.2911 91.1379 17.6036 91.329 17.686 91.6413C17.7626 91.9539 17.5663 92.2664 17.259 92.3429C17.2127 92.3555 17.1721 92.3616 17.1314 92.3625C16.8639 92.3683 16.6215 92.1874 16.5516 91.9154ZM15.8623 89.0912C15.7921 88.7786 15.9774 88.4668 16.2957 88.3901C16.6024 88.3137 16.9207 88.5046 16.9967 88.8171C17.0732 89.1296 16.8822 89.4421 16.5638 89.5188C16.5234 89.5313 16.4827 89.5322 16.442 89.5331C16.1745 89.5383 15.9322 89.3637 15.8623 89.0912ZM15.1788 86.2669C15.1022 85.9544 15.2931 85.6361 15.6058 85.5659C15.9183 85.4894 16.2308 85.6804 16.3066 85.9871C16.3832 86.2996 16.1922 86.6179 15.8797 86.6939C15.8397 86.7012 15.7933 86.708 15.7521 86.7089C15.4851 86.7141 15.2427 86.5331 15.1788 86.2669ZM14.4894 83.4427C14.4129 83.1302 14.6038 82.8119 14.9163 82.7353C15.2288 82.6588 15.5414 82.8556 15.6178 83.1623C15.6938 83.4749 15.5029 83.7931 15.1904 83.8697C15.144 83.8771 15.104 83.8838 15.0627 83.8847C14.7958 83.8899 14.5534 83.7089 14.4894 83.4427ZM13.8 80.6127C13.7234 80.3002 13.9144 79.9877 14.227 79.9111C14.5395 79.8346 14.8519 80.0256 14.9285 80.3381C15.0051 80.6506 14.8134 80.9631 14.5009 81.0397C14.461 81.0522 14.4147 81.059 14.3734 81.0599C14.1065 81.0662 13.864 80.8847 13.8 80.6127ZM13.1106 77.789C13.0341 77.4765 13.2251 77.1641 13.5376 77.0875C13.8501 77.0109 14.1626 77.202 14.2392 77.5145C14.3157 77.827 14.1241 78.1395 13.8116 78.2161C13.7717 78.2286 13.7304 78.2295 13.6839 78.2305C13.4228 78.2355 13.1747 78.0605 13.1106 77.789ZM12.4213 74.9643C12.3447 74.6518 12.5358 74.3399 12.8483 74.2633C13.1608 74.1867 13.4733 74.3778 13.5498 74.6903C13.6263 74.997 13.4353 75.3153 13.1228 75.3918C13.0823 75.3985 13.0411 75.4052 13.001 75.4061C12.7329 75.4113 12.4911 75.2362 12.4213 74.9643ZM11.7319 72.1401C11.6554 71.8275 11.8463 71.5093 12.1588 71.4333C12.4713 71.3567 12.7897 71.5529 12.8605 71.8661C12.9369 72.1728 12.746 72.4911 12.4335 72.5676C12.3929 72.5743 12.3518 72.581 12.3052 72.582C12.0441 72.5871 11.8017 72.4062 11.7319 72.1401ZM11.0425 69.31C10.9723 68.9974 11.157 68.6851 11.4759 68.6083C11.782 68.5325 12.1003 68.7234 12.1768 69.0359C12.2534 69.3484 12.0625 69.6667 11.7498 69.7369C11.7036 69.7501 11.663 69.7562 11.6223 69.7571C11.3548 69.7629 11.1123 69.582 11.0425 69.31Z" fill="url(#paint34_linear)"/>
<path d="M42.3145 159.904C42.2379 159.592 42.429 159.28 42.7415 159.203C43.054 159.127 43.3664 159.318 43.443 159.63C43.5196 159.943 43.3285 160.255 43.016 160.332C42.9697 160.345 42.929 160.345 42.8877 160.346C42.6208 160.352 42.3779 160.177 42.3145 159.904ZM41.6251 157.08C41.5485 156.768 41.7395 156.449 42.0521 156.379C42.3646 156.303 42.6771 156.494 42.7537 156.806C42.8302 157.119 42.6392 157.431 42.3267 157.507C42.2861 157.514 42.2397 157.521 42.1984 157.522C41.9315 157.527 41.689 157.346 41.6251 157.08ZM40.9358 154.256C40.8592 153.943 41.0501 153.625 41.3626 153.549C41.6752 153.472 41.9876 153.664 42.0642 153.976C42.1408 154.289 41.9498 154.606 41.6373 154.683C41.5968 154.69 41.5504 154.697 41.5091 154.698C41.2416 154.703 40.9997 154.522 40.9358 154.256ZM40.2463 151.426C40.1697 151.113 40.3614 150.801 40.6739 150.724C40.9858 150.648 41.2983 150.839 41.3749 151.151C41.4514 151.464 41.2604 151.776 40.9479 151.853C40.9074 151.865 40.861 151.872 40.8203 151.873C40.5528 151.879 40.3104 151.698 40.2463 151.426ZM39.557 148.602C39.4804 148.29 39.672 147.977 39.9846 147.901C40.2971 147.824 40.609 148.015 40.6855 148.328C40.7621 148.64 40.571 148.953 40.2585 149.029C40.2181 149.042 40.1775 149.049 40.131 149.05C39.8693 149.055 39.621 148.874 39.557 148.602ZM38.8671 145.778C38.7911 145.466 38.9821 145.153 39.2946 145.077C39.6071 145 39.919 145.191 39.9956 145.504C40.0722 145.816 39.8811 146.129 39.5686 146.205C39.528 146.212 39.4874 146.219 39.4467 146.219C39.1798 146.225 38.9316 146.044 38.8671 145.778ZM38.1783 142.953C38.1075 142.641 38.2927 142.323 38.611 142.246C38.9178 142.176 39.2361 142.366 39.3068 142.679C39.3833 142.986 39.1982 143.304 38.8798 143.381C38.8393 143.388 38.7987 143.394 38.758 143.395C38.4905 143.4 38.248 143.219 38.1783 142.953ZM37.4888 140.123C37.4123 139.811 37.6033 139.498 37.9158 139.422C38.2283 139.346 38.5466 139.537 38.6232 139.849C38.6934 140.162 38.5029 140.474 38.1956 140.55C38.1493 140.563 38.1093 140.57 38.068 140.57C37.8011 140.576 37.5587 140.395 37.4888 140.123ZM36.8053 137.299C36.7287 136.986 36.9198 136.674 37.2323 136.597C37.5448 136.521 37.8573 136.713 37.9339 137.025C38.0104 137.338 37.8188 137.649 37.5063 137.726C37.4664 137.739 37.42 137.745 37.3787 137.746C37.1118 137.752 36.8694 137.571 36.8053 137.299ZM36.116 134.475C36.0394 134.162 36.2304 133.85 36.543 133.773C36.8555 133.697 37.1679 133.888 37.2445 134.2C37.3211 134.513 37.13 134.825 36.8175 134.902C36.7771 134.915 36.7305 134.916 36.6893 134.917C36.4223 134.923 36.18 134.747 36.116 134.475ZM35.4266 131.651C35.3501 131.338 35.541 131.02 35.8536 130.949C36.1661 130.872 36.4786 131.064 36.5552 131.376C36.6317 131.689 36.4407 132.001 36.1282 132.078C36.0876 132.084 36.0464 132.091 35.9999 132.092C35.733 132.098 35.49 131.917 35.4266 131.651ZM34.7372 128.821C34.6607 128.514 34.8517 128.196 35.1642 128.12C35.4767 128.043 35.7891 128.234 35.8657 128.547C35.9423 128.859 35.7513 129.177 35.4388 129.254C35.3983 129.261 35.3571 129.267 35.317 129.268C35.0495 129.273 34.8012 129.093 34.7372 128.821ZM34.0478 125.996C33.9712 125.684 34.1629 125.372 34.4748 125.295C34.7873 125.219 35.0998 125.41 35.1764 125.722C35.2529 126.035 35.0619 126.347 34.7494 126.423C34.7089 126.436 34.6677 126.443 34.6276 126.443C34.3601 126.449 34.1119 126.268 34.0478 125.996ZM33.3585 123.172C33.2819 122.86 33.4735 122.547 33.7861 122.471C34.0986 122.395 34.4105 122.586 34.4928 122.898C34.5636 123.211 34.3731 123.523 34.06 123.599C34.0196 123.612 33.979 123.618 33.9383 123.619C33.6708 123.625 33.4283 123.444 33.3585 123.172ZM32.6691 120.348C32.5931 120.035 32.7842 119.723 33.0967 119.646C33.4092 119.57 33.7275 119.761 33.8035 120.074C33.8801 120.386 33.689 120.698 33.3765 120.775C33.3301 120.782 33.2901 120.789 33.2488 120.79C32.9813 120.795 32.7389 120.614 32.6691 120.348ZM31.9792 117.524C31.909 117.211 32.0994 116.893 32.4125 116.816C32.7193 116.746 33.0376 116.937 33.114 117.243C33.19 117.556 32.9991 117.874 32.6866 117.951C32.6402 117.957 32.6002 117.965 32.5589 117.966C32.292 117.971 32.0495 117.79 31.9792 117.524ZM31.2961 114.694C31.2197 114.387 31.4106 114.069 31.7231 113.993C32.0357 113.916 32.3481 114.107 32.4247 114.42C32.5007 114.732 32.3098 115.05 31.9971 115.121C31.9508 115.134 31.9108 115.14 31.8695 115.141C31.6026 115.147 31.3602 114.966 31.2961 114.694ZM30.6068 111.869C30.5302 111.557 30.7213 111.245 31.0338 111.168C31.3463 111.092 31.6588 111.283 31.7354 111.595C31.8119 111.908 31.6203 112.22 31.3078 112.297C31.2679 112.309 31.2215 112.316 31.1802 112.317C30.9133 112.322 30.6709 112.142 30.6068 111.869ZM29.9175 109.045C29.8409 108.733 30.032 108.421 30.3445 108.344C30.657 108.268 30.9695 108.459 31.046 108.771C31.1226 109.084 30.9309 109.396 30.619 109.472C30.5786 109.485 30.5373 109.486 30.4908 109.487C30.2291 109.492 29.9815 109.318 29.9175 109.045ZM29.2281 106.221C29.1516 105.908 29.3425 105.59 29.655 105.514C29.9676 105.443 30.2801 105.634 30.3567 105.947C30.4331 106.254 30.2422 106.571 29.9297 106.648C29.8891 106.655 29.8479 106.662 29.8014 106.663C29.5403 106.668 29.2915 106.487 29.2281 106.221ZM28.5387 103.391C28.4622 103.084 28.6531 102.766 28.9657 102.689C29.2782 102.613 29.5964 102.804 29.6672 103.116C29.7438 103.429 29.5528 103.747 29.2403 103.824C29.1997 103.83 29.1586 103.838 29.1185 103.839C28.851 103.844 28.6027 103.663 28.5387 103.391ZM27.8493 100.567C27.7728 100.255 27.9696 99.9422 28.2763 99.8658C28.5888 99.7892 28.9071 99.9801 28.9837 100.293C29.0602 100.605 28.8692 100.918 28.5567 100.994C28.5104 101.007 28.4698 101.014 28.4291 101.014C28.1616 101.02 27.9192 100.839 27.8493 100.567ZM27.1658 97.743C27.0892 97.4305 27.2745 97.1181 27.5928 97.0414C27.9053 96.9649 28.2172 97.1559 28.2938 97.4684C28.3645 97.7811 28.1793 98.0934 27.8609 98.1701C27.8205 98.1826 27.7792 98.1835 27.7391 98.1844C27.4722 98.1896 27.2298 98.0144 27.1658 97.743ZM26.4764 94.9182C26.3999 94.6057 26.5908 94.2874 26.9035 94.2172C27.216 94.1407 27.5284 94.3317 27.6044 94.6442C27.681 94.9568 27.4899 95.2692 27.1774 95.3458C27.131 95.3526 27.091 95.3593 27.0497 95.3602C26.7828 95.3654 26.5404 95.1844 26.4764 94.9182ZM25.7871 92.094C25.7105 91.7815 25.9015 91.4632 26.214 91.3866C26.5265 91.3106 26.839 91.5017 26.915 91.8142C26.9915 92.1267 26.8006 92.445 26.4881 92.5216C26.4481 92.5283 26.4017 92.5351 26.3604 92.536C26.0935 92.5412 25.851 92.3602 25.7871 92.094ZM25.0976 89.264C25.0211 88.9515 25.2121 88.639 25.5246 88.5624C25.8371 88.4859 26.1496 88.6775 26.2262 88.99C26.3022 89.3025 26.1113 89.6208 25.7986 89.691C25.7587 89.7041 25.7123 89.7103 25.6711 89.7112C25.4041 89.7169 25.1617 89.536 25.0976 89.264ZM24.4083 86.4398C24.3317 86.1272 24.5228 85.8148 24.8353 85.7382C25.1478 85.6616 25.4603 85.8533 25.5368 86.1652C25.6134 86.4777 25.4218 86.7902 25.1093 86.8668C25.0694 86.8799 25.0282 86.886 24.9875 86.8869C24.7206 86.8926 24.4724 86.7118 24.4083 86.4398ZM23.719 83.6156C23.6424 83.303 23.8335 82.9906 24.146 82.914C24.4585 82.8374 24.7709 83.0285 24.8475 83.341C24.9241 83.6535 24.7324 83.966 24.4199 84.0426C24.3799 84.0492 24.3388 84.056 24.2981 84.0568C24.0311 84.0626 23.783 83.8876 23.719 83.6156ZM23.0296 80.7919C22.9531 80.4794 23.144 80.1611 23.4565 80.0846C23.7691 80.0138 24.0874 80.2042 24.1582 80.5174C24.2346 80.8241 24.0437 81.1424 23.7312 81.2189C23.6906 81.2256 23.6494 81.2323 23.6093 81.2332C23.3412 81.2384 23.0994 81.058 23.0296 80.7919ZM22.3402 77.9613C22.2694 77.6487 22.4547 77.3369 22.7736 77.2602C23.0797 77.1838 23.398 77.3747 23.4745 77.6872C23.5511 77.9997 23.3602 78.318 23.0477 78.3946C23.0013 78.4014 22.9607 78.4081 22.92 78.409C22.6525 78.4142 22.41 78.2333 22.3402 77.9613ZM21.6566 75.137C21.5742 74.8246 21.7717 74.512 22.0778 74.4362C22.3903 74.3596 22.7086 74.5505 22.7852 74.863C22.8618 75.1755 22.6707 75.4874 22.3582 75.564C22.3119 75.5772 22.2713 75.5833 22.2306 75.5842C21.9631 75.59 21.7207 75.409 21.6566 75.137ZM20.9667 72.3128C20.8907 72.0003 21.0818 71.6878 21.3943 71.6112C21.7068 71.5353 22.0187 71.7263 22.0953 72.0388C22.1718 72.3513 21.9808 72.6632 21.6683 72.7398C21.6278 72.7529 21.5871 72.7538 21.5406 72.7548C21.2795 72.7598 21.0313 72.5848 20.9667 72.3128ZM20.2779 69.4886C20.2014 69.1761 20.3923 68.8578 20.7049 68.787C21.0175 68.7105 21.3294 68.9021 21.4059 69.2146C21.4824 69.5207 21.2914 69.839 20.9789 69.9156C20.9383 69.9223 20.8925 69.9297 20.8512 69.9306C20.5843 69.9363 20.3419 69.7548 20.2779 69.4886ZM19.5886 66.6644C19.512 66.3519 19.703 66.0336 20.0155 65.957C20.328 65.8804 20.6405 66.0715 20.7164 66.384C20.793 66.6965 20.6021 67.0148 20.2896 67.0914C20.2496 67.0981 20.2032 67.1049 20.1619 67.1058C19.9008 67.1114 19.6525 66.9306 19.5886 66.6644ZM18.8991 63.8344C18.8226 63.5218 19.0136 63.21 19.3262 63.1334C19.6387 63.0568 19.9511 63.2479 20.0277 63.5604C20.1037 63.8729 19.9126 64.1854 19.6001 64.2619C19.5602 64.2744 19.5191 64.2806 19.4784 64.2814C19.2115 64.2872 18.969 64.1069 18.8991 63.8344ZM18.2098 61.0101C18.1332 60.6976 18.3243 60.3857 18.6368 60.3092C18.9493 60.2326 19.2676 60.4235 19.3384 60.7362C19.4143 61.0487 19.2233 61.3612 18.9108 61.4372C18.8709 61.4502 18.8297 61.4564 18.789 61.4572C18.5221 61.463 18.2791 61.2827 18.2098 61.0101ZM17.5205 58.1859C17.4439 57.8734 17.6401 57.555 17.9475 57.485C18.26 57.4084 18.5783 57.5993 18.6548 57.9118C18.7314 58.2244 18.5345 58.5364 18.2278 58.6128C18.1814 58.6202 18.1409 58.6269 18.0996 58.6278C17.8326 58.633 17.5903 58.4579 17.5205 58.1859ZM16.8369 55.3616C16.7604 55.0491 16.9513 54.7308 17.2638 54.6542C17.5763 54.5777 17.8889 54.7745 17.9654 55.0812C18.0419 55.3937 17.851 55.712 17.5385 55.7886C17.4921 55.7954 17.4515 55.8027 17.4102 55.8036C17.1427 55.8088 16.9009 55.6278 16.8369 55.3616ZM16.1475 52.5322C16.071 52.2255 16.2626 51.9072 16.5751 51.8306C16.887 51.754 17.1995 51.9451 17.276 52.2576C17.3526 52.5701 17.1617 52.8884 16.849 52.9592C16.8028 52.9718 16.7622 52.9785 16.7215 52.9794C16.454 52.9851 16.2115 52.8036 16.1475 52.5322ZM15.4581 49.708C15.3816 49.3955 15.5732 49.083 15.8857 49.0064C16.1982 48.9298 16.5101 49.1209 16.5867 49.4334C16.6633 49.7459 16.4722 50.0584 16.1597 50.135C16.1192 50.1475 16.0727 50.1485 16.032 50.1494C15.7645 50.1545 15.5222 49.9794 15.4581 49.708ZM14.7682 46.8832C14.6922 46.5707 14.8833 46.2588 15.1958 46.1822C15.5083 46.1056 15.8202 46.2967 15.8968 46.6092C15.9733 46.9217 15.7823 47.2342 15.4698 47.3108C15.4293 47.3233 15.3886 47.3242 15.3479 47.325C15.081 47.3302 14.8328 47.1552 14.7682 46.8832ZM14.0795 44.059C14.0029 43.7465 14.1938 43.4282 14.5063 43.3516C14.819 43.2814 15.1309 43.4719 15.2074 43.785C15.2839 44.0917 15.0929 44.41 14.7804 44.4866C14.7398 44.4933 14.6993 44.4999 14.6527 44.501C14.3916 44.506 14.1434 44.3252 14.0795 44.059ZM13.39 41.2289C13.3135 40.9223 13.5045 40.604 13.817 40.5274C14.1295 40.4508 14.4478 40.6423 14.518 40.955C14.5945 41.2675 14.4036 41.5858 14.0911 41.6618C14.0505 41.669 14.0099 41.6757 13.9692 41.6766C13.7023 41.6818 13.454 41.501 13.39 41.2289ZM12.7006 38.4047C12.6299 38.0921 12.8151 37.7798 13.1335 37.7031C13.4402 37.6266 13.7585 37.8181 13.8292 38.1302C13.9058 38.4427 13.7147 38.7552 13.4022 38.8317C13.3623 38.8448 13.3212 38.8509 13.2805 38.8518C13.013 38.8576 12.7705 38.6767 12.7006 38.4047ZM12.0171 35.5804C11.9406 35.2679 12.1316 34.9554 12.4441 34.8789C12.7566 34.8023 13.0691 34.9933 13.1457 35.3059C13.2222 35.6184 13.0312 35.9308 12.7187 36.0074C12.6724 36.02 12.6317 36.0209 12.5904 36.0218C12.3235 36.0276 12.0812 35.8525 12.0171 35.5804ZM11.3278 32.7568C11.2512 32.4443 11.4422 32.126 11.7548 32.0552C12.0673 31.9787 12.3798 32.1697 12.4563 32.4822C12.5329 32.7947 12.3418 33.1072 12.0293 33.1838C11.9888 33.1905 11.9424 33.1973 11.9011 33.1982C11.6342 33.2034 11.3911 33.023 11.3278 32.7568ZM10.6383 29.9262C10.5619 29.6195 10.7528 29.3018 11.0653 29.2252C11.3778 29.1486 11.6903 29.3397 11.7669 29.6522C11.8434 29.9647 11.6525 30.283 11.34 30.3596C11.2994 30.3663 11.253 30.3731 11.2117 30.374C10.9448 30.3792 10.7024 30.1982 10.6383 29.9262ZM9.94898 27.102C9.87241 26.7895 10.064 26.477 10.376 26.401C10.6885 26.3244 11.001 26.5155 11.0775 26.828C11.1541 27.1405 10.9632 27.4588 10.6505 27.529C10.6101 27.5421 10.5637 27.5483 10.523 27.5492C10.2549 27.555 10.013 27.374 9.94898 27.102ZM9.25964 24.2778C9.18307 23.9653 9.37471 23.6528 9.68722 23.5762C9.99974 23.5002 10.3116 23.6913 10.3882 24.0038C10.4648 24.3163 10.2737 24.6282 9.96118 24.7048C9.92074 24.7179 9.88015 24.724 9.83363 24.725C9.57182 24.7248 9.32369 24.5498 9.25964 24.2778Z" fill="url(#paint35_linear)"/>
<path d="M49.5785 139.419C49.502 139.107 49.6929 138.788 50.0054 138.712C50.3179 138.635 50.6304 138.826 50.7128 139.139C50.7893 139.451 50.5932 139.769 50.2801 139.846C50.2395 139.853 50.1983 139.86 50.1582 139.861C49.8901 139.866 49.6483 139.685 49.5785 139.419ZM48.8949 136.59C48.8183 136.277 49.0036 135.965 49.3161 135.888C49.635 135.811 49.9469 136.002 50.0234 136.315C50.0942 136.628 49.9089 136.94 49.5964 137.016C49.5502 137.029 49.5096 137.036 49.4689 137.037C49.2014 137.042 48.9589 136.861 48.8949 136.59ZM48.2055 133.765C48.1296 133.453 48.3206 133.14 48.6331 133.064C48.9392 132.987 49.2575 133.178 49.3341 133.491C49.4107 133.803 49.2196 134.116 48.9071 134.192C48.8608 134.205 48.8201 134.206 48.7794 134.207C48.5119 134.212 48.2696 134.037 48.2055 133.765ZM47.5156 130.941C47.4396 130.628 47.6306 130.31 47.9432 130.24C48.2557 130.163 48.5676 130.354 48.6442 130.667C48.7207 130.979 48.5297 131.292 48.2172 131.368C48.1767 131.381 48.1302 131.382 48.0895 131.382C47.8226 131.388 47.5803 131.213 47.5156 130.941ZM46.8269 128.116C46.7503 127.804 46.9412 127.486 47.2539 127.415C47.5662 127.333 47.8783 127.53 47.9548 127.842C48.0313 128.149 47.8403 128.467 47.5278 128.544C47.4873 128.551 47.4414 128.557 47.4002 128.558C47.1332 128.563 46.8908 128.383 46.8269 128.116ZM46.1374 125.286C46.0609 124.98 46.2519 124.661 46.5644 124.585C46.8769 124.508 47.1894 124.7 47.2654 125.012C47.3419 125.325 47.151 125.643 46.8385 125.719C46.7985 125.726 46.7573 125.733 46.7166 125.734C46.4497 125.739 46.2014 125.558 46.1374 125.286ZM45.4481 122.462C45.3715 122.15 45.5625 121.837 45.875 121.761C46.1876 121.684 46.5 121.876 46.5766 122.188C46.6526 122.5 46.4615 122.813 46.149 122.889C46.1092 122.902 46.068 122.908 46.0273 122.909C45.7604 122.915 45.5121 122.734 45.4481 122.462ZM44.7587 119.638C44.6821 119.325 44.8732 119.013 45.1857 118.936C45.4982 118.86 45.8165 119.051 45.8931 119.363C45.9632 119.676 45.7728 119.988 45.4597 120.065C45.4198 120.077 45.3785 120.078 45.3378 120.079C45.0709 120.085 44.828 119.91 44.7587 119.638ZM44.0694 116.814C43.9986 116.502 44.189 116.183 44.5022 116.113C44.8089 116.036 45.1272 116.227 45.2037 116.54C45.2744 116.846 45.0834 117.165 44.7703 117.241C44.7303 117.248 44.6892 117.255 44.6485 117.256C44.3816 117.261 44.1391 117.08 44.0694 116.814ZM43.3857 113.984C43.3092 113.671 43.5002 113.359 43.8127 113.283C44.1252 113.206 44.4377 113.397 44.5143 113.71C44.5908 114.022 44.3999 114.34 44.0874 114.417C44.041 114.424 44.0004 114.43 43.9591 114.431C43.6916 114.437 43.4498 114.256 43.3857 113.984ZM42.6964 111.159C42.6198 110.847 42.8114 110.534 43.124 110.458C43.4359 110.382 43.7484 110.573 43.8249 110.885C43.9015 111.198 43.7104 111.51 43.3979 111.586C43.3575 111.599 43.3111 111.606 43.2704 111.607C43.0029 111.612 42.7604 111.431 42.6964 111.159ZM42.007 108.335C41.9305 108.023 42.1221 107.71 42.4346 107.634C42.7471 107.558 43.059 107.749 43.1356 108.061C43.2122 108.374 43.0211 108.686 42.7086 108.762C42.6681 108.775 42.6216 108.776 42.5809 108.777C42.3134 108.782 42.0711 108.607 42.007 108.335ZM41.3171 105.511C41.2411 105.198 41.4322 104.886 41.7447 104.809C42.0572 104.733 42.3691 104.924 42.4457 105.237C42.5222 105.549 42.3312 105.861 42.0187 105.938C41.9781 105.945 41.9375 105.952 41.891 105.953C41.6299 105.959 41.3818 105.783 41.3171 105.511ZM40.6282 102.681C40.5517 102.369 40.7427 102.056 41.0552 101.98C41.3679 101.909 41.6796 102.094 41.7563 102.413C41.8328 102.719 41.6418 103.038 41.3293 103.114C41.2888 103.121 41.2482 103.128 41.2075 103.129C40.9405 103.134 40.6981 102.953 40.6282 102.681ZM39.9389 99.8567C39.8623 99.5442 40.0534 99.2323 40.3659 99.1557C40.6784 99.0791 40.9967 99.2701 41.0669 99.5827C41.1434 99.8952 40.9525 100.214 40.6399 100.284C40.5994 100.297 40.5588 100.303 40.5181 100.304C40.2512 100.31 40.0088 100.129 39.9389 99.8567ZM39.2496 97.0325C39.173 96.72 39.3641 96.4081 39.6766 96.3315C39.9891 96.2549 40.3074 96.4459 40.3839 96.7584C40.4605 97.0709 40.2689 97.3834 39.9563 97.4594C39.9107 97.4726 39.8701 97.4787 39.8288 97.4796C39.5619 97.4853 39.3194 97.305 39.2496 97.0325ZM38.566 94.2081C38.4895 93.8956 38.6805 93.5831 38.993 93.5072C39.2997 93.4307 39.618 93.6217 39.6946 93.9342C39.7712 94.2467 39.5801 94.5586 39.2676 94.6351C39.2212 94.6425 39.1806 94.6492 39.1393 94.6501C38.8724 94.6553 38.6301 94.4802 38.566 94.2081ZM37.8767 91.3839C37.8001 91.0714 37.9911 90.7531 38.3036 90.6766C38.6162 90.6064 38.9287 90.7969 39.0052 91.11C39.0818 91.4225 38.8907 91.7344 38.5782 91.8109C38.5377 91.8176 38.4913 91.825 38.45 91.8259C38.1831 91.8311 37.9402 91.656 37.8767 91.3839ZM37.1872 88.5545C37.1107 88.242 37.3017 87.9295 37.6142 87.8529C37.9267 87.7764 38.2392 87.9674 38.3158 88.2799C38.3923 88.5924 38.2014 88.9107 37.8889 88.9873C37.8483 88.994 37.8019 89.0014 37.7607 89.0023C37.4937 89.0075 37.2513 88.826 37.1872 88.5545ZM36.4979 85.7303C36.4213 85.4178 36.613 85.1053 36.9249 85.0287C37.2374 84.9522 37.5499 85.1432 37.6264 85.4557C37.703 85.7682 37.512 86.0807 37.1994 86.1573C37.159 86.1698 37.1178 86.1759 37.0719 86.1769C36.8102 86.1826 36.5619 86.0018 36.4979 85.7303ZM35.8085 82.9055C35.732 82.593 35.9236 82.2811 36.2361 82.2045C36.5486 82.1279 36.8605 82.319 36.9371 82.6315C37.0137 82.944 36.8226 83.2565 36.5101 83.3331C36.4696 83.3456 36.4291 83.3517 36.3883 83.3526C36.1209 83.3584 35.8726 83.1776 35.8085 82.9055ZM35.1192 80.0813C35.0432 79.7688 35.2343 79.4569 35.5468 79.3803C35.8593 79.3037 36.1776 79.4947 36.2478 79.8073C36.3243 80.1198 36.1333 80.4323 35.8208 80.5089C35.7802 80.5156 35.7396 80.5223 35.6989 80.5231C35.4314 80.5283 35.1889 80.3474 35.1192 80.0813ZM34.4292 77.2513C34.3533 76.9446 34.5442 76.6263 34.8567 76.5497C35.1692 76.4732 35.4811 76.6648 35.5641 76.9772C35.6401 77.2897 35.4439 77.6081 35.1308 77.6841C35.0903 77.6914 35.0497 77.6981 35.009 77.6989C34.742 77.7041 34.4996 77.5232 34.4292 77.2513ZM33.7462 74.4269C33.6696 74.1144 33.8607 73.802 34.1732 73.7254C34.4857 73.6488 34.7982 73.8405 34.8748 74.1524C34.9507 74.4649 34.7598 74.7832 34.4472 74.8539C34.4009 74.8672 34.3609 74.8733 34.3196 74.8742C34.0527 74.8799 33.8103 74.699 33.7462 74.4269ZM33.0511 71.6029C32.9803 71.2902 33.1708 70.9778 33.4839 70.9012C33.7964 70.8246 34.1089 71.0157 34.1854 71.3282C34.262 71.6407 34.0703 71.9532 33.7578 72.0297C33.7122 72.0424 33.6714 72.0432 33.6302 72.0441C33.3632 72.0499 33.1209 71.8748 33.0511 71.6029ZM32.3675 68.7791C32.291 68.4666 32.482 68.1541 32.7945 68.0776C33.1071 68.001 33.4195 68.192 33.4961 68.5046C33.5727 68.8171 33.381 69.1296 33.0691 69.2061C33.0285 69.2128 32.9821 69.2196 32.9408 69.2205C32.6739 69.2257 32.4315 69.0453 32.3675 68.7791ZM31.6782 65.9543C31.6016 65.6418 31.7926 65.3241 32.1051 65.2475C32.4177 65.1768 32.7301 65.362 32.8066 65.6745C32.8833 65.9929 32.6923 66.3053 32.3798 66.3819C32.3392 66.3886 32.2928 66.3954 32.2515 66.3963C31.9846 66.4015 31.7415 66.2206 31.6782 65.9543ZM30.9887 63.1243C30.9122 62.8118 31.1032 62.4993 31.4157 62.4233C31.7282 62.3468 32.0407 62.5378 32.1173 62.8503C32.1939 63.1628 32.0029 63.4811 31.6903 63.5513C31.6498 63.5644 31.6087 63.5705 31.5621 63.5715C31.301 63.5772 31.0528 63.3963 30.9887 63.1243ZM30.2994 60.3001C30.2228 59.9876 30.4139 59.6751 30.7264 59.5985C31.0389 59.5226 31.3572 59.7135 31.4279 60.0261C31.5045 60.3386 31.3134 60.6505 31.0009 60.7271C30.9605 60.7402 30.9193 60.7463 30.8792 60.7472C30.6117 60.753 30.3634 60.5721 30.2994 60.3001ZM29.61 57.4759C29.5335 57.1634 29.7251 56.8509 30.0376 56.7743C30.3496 56.6978 30.6679 56.8893 30.7444 57.2018C30.821 57.5137 30.6299 57.8262 30.3174 57.9028C30.2712 57.916 30.2304 57.9169 30.1897 57.9177C29.9222 57.9235 29.6799 57.7478 29.61 57.4759ZM28.9207 54.6517C28.8505 54.339 29.041 54.0266 29.3541 53.95C29.6608 53.8736 29.9791 54.0645 30.0551 54.377C30.1316 54.6895 29.9406 55.002 29.6281 55.0786C29.5817 55.0854 29.5417 55.0921 29.5004 55.0929C29.2329 55.0987 28.9905 54.9178 28.9207 54.6517ZM28.2371 51.8215C28.1606 51.5154 28.3516 51.1971 28.6641 51.1206C28.9766 51.044 29.2891 51.2351 29.365 51.5476C29.4416 51.8601 29.2507 52.1784 28.938 52.2491C28.8918 52.2618 28.8518 52.2679 28.8105 52.2688C28.5436 52.2745 28.3011 52.0942 28.2371 51.8215ZM27.5477 48.9973C27.4712 48.6848 27.6622 48.3729 27.9747 48.2964C28.2872 48.2198 28.5997 48.4109 28.6763 48.7234C28.7523 49.0359 28.5612 49.3484 28.2487 49.4243C28.2088 49.4374 28.1624 49.4437 28.1211 49.4445C27.8542 49.4503 27.6118 49.27 27.5477 48.9973ZM26.8584 46.1731C26.7818 45.8606 26.9729 45.5481 27.2854 45.4722C27.5979 45.3956 27.9104 45.5866 27.9869 45.8992C28.0635 46.2117 27.8719 46.5236 27.5593 46.6001C27.5195 46.6132 27.4782 46.6141 27.4317 46.6151C27.1706 46.6202 26.9224 46.4452 26.8584 46.1731ZM26.169 43.3489C26.0925 43.0364 26.2835 42.7239 26.596 42.6474C26.9086 42.5714 27.221 42.7624 27.2976 43.0749C27.3742 43.3875 27.1825 43.6994 26.87 43.7759C26.83 43.7826 26.7889 43.7899 26.7423 43.7909C26.4812 43.796 26.233 43.6152 26.169 43.3489ZM25.4797 40.5247C25.4031 40.2122 25.5941 39.8939 25.9066 39.8173C26.2191 39.7408 26.5317 39.9377 26.6083 40.2507C26.6847 40.5569 26.4938 40.8751 26.1812 40.9517C26.1407 40.9584 26.0995 40.9657 26.0594 40.9666C25.7913 40.9723 25.5494 40.7908 25.4797 40.5247Z" fill="url(#paint36_linear)"/>
<defs>
<filter id="filter0_df" x="65.6114" y="151.923" width="34.7322" height="22.0071" filterUnits="userSpaceOnUse" color-interpolation-filters="sRGB">
<feFlood flood-opacity="0" result="BackgroundImageFix"/>
<feColorMatrix in="SourceAlpha" type="matrix" values="0 0 0 0 0 0 0 0 0 0 0 0 0 0 0 0 0 0 127 0" result="hardAlpha"/>
<feOffset dx="0.762585" dy="0.762585"/>
<feGaussianBlur stdDeviation="0.762585"/>
<feColorMatrix type="matrix" values="0 0 0 0 1 0 0 0 0 1 0 0 0 0 1 0 0 0 0.25 0"/>
<feBlend mode="normal" in2="BackgroundImageFix" result="effect1_dropShadow"/>
<feBlend mode="normal" in="SourceGraphic" in2="effect1_dropShadow" result="shape"/>
<feGaussianBlur stdDeviation="0.381292" result="effect2_foregroundBlur"/>
</filter>
<radialGradient id="paint0_radial" cx="0" cy="0" r="1" gradientUnits="userSpaceOnUse" gradientTransform="translate(126.203 87.7819) rotate(-166.605) scale(4.95338 81.7998)">
<stop offset="0.0014" stop-color="#ED3700"/>
<stop offset="0.759221" stop-color="#FF0000" stop-opacity="0"/>
</radialGradient>
<radialGradient id="paint1_radial" cx="0" cy="0" r="1" gradientUnits="userSpaceOnUse" gradientTransform="translate(115.232 87.6022) rotate(-166.605) scale(4.95338 81.7998)">
<stop offset="0.0014" stop-color="#ED3700"/>
<stop offset="0.759221" stop-color="#FF0000" stop-opacity="0"/>
</radialGradient>
<radialGradient id="paint2_radial" cx="0" cy="0" r="1" gradientUnits="userSpaceOnUse" gradientTransform="translate(132.208 102.22) rotate(-166.605) scale(4.95338 81.8001)">
<stop offset="0.0014" stop-color="#ED3700"/>
<stop offset="0.759221" stop-color="#FF0000" stop-opacity="0"/>
</radialGradient>
<linearGradient id="paint3_linear" x1="149.886" y1="103.496" x2="118.877" y2="111.24" gradientUnits="userSpaceOnUse">
<stop stop-color="#010333" stop-opacity="0"/>
<stop offset="0.154" stop-color="#F15A29"/>
<stop offset="0.3017" stop-color="#F15236"/>
<stop offset="0.5745" stop-color="#EF3E59"/>
<stop offset="0.8089" stop-color="#EE2A7B"/>
<stop offset="0.8271" stop-color="#E12877" stop-opacity="0.9045"/>
<stop offset="0.861" stop-color="#BE226C" stop-opacity="0.7272"/>
<stop offset="0.9069" stop-color="#86195B" stop-opacity="0.4872"/>
<stop offset="0.9623" stop-color="#390C44" stop-opacity="0.1972"/>
<stop offset="1" stop-color="#010333" stop-opacity="0"/>
</linearGradient>
<linearGradient id="paint4_linear" x1="143.822" y1="91.6791" x2="108.32" y2="92.2019" gradientUnits="userSpaceOnUse">
<stop stop-color="#010333" stop-opacity="0"/>
<stop offset="0.154" stop-color="#F15A29"/>
<stop offset="0.3017" stop-color="#F15236"/>
<stop offset="0.5745" stop-color="#EF3E59"/>
<stop offset="0.8089" stop-color="#EE2A7B"/>
<stop offset="0.8271" stop-color="#E12877" stop-opacity="0.9045"/>
<stop offset="0.861" stop-color="#BE226C" stop-opacity="0.7272"/>
<stop offset="0.9069" stop-color="#86195B" stop-opacity="0.4872"/>
<stop offset="0.9623" stop-color="#390C44" stop-opacity="0.1972"/>
<stop offset="1" stop-color="#010333" stop-opacity="0"/>
</linearGradient>
<linearGradient id="paint5_linear" x1="131.824" y1="90.7756" x2="97.3457" y2="94.2856" gradientUnits="userSpaceOnUse">
<stop stop-color="#010333" stop-opacity="0"/>
<stop offset="0.154" stop-color="#F15A29"/>
<stop offset="0.3017" stop-color="#F15236"/>
<stop offset="0.5745" stop-color="#EF3E59"/>
<stop offset="0.8089" stop-color="#EE2A7B"/>
<stop offset="0.8271" stop-color="#E12877" stop-opacity="0.9045"/>
<stop offset="0.861" stop-color="#BE226C" stop-opacity="0.7272"/>
<stop offset="0.9069" stop-color="#86195B" stop-opacity="0.4872"/>
<stop offset="0.9623" stop-color="#390C44" stop-opacity="0.1972"/>
<stop offset="1" stop-color="#010333" stop-opacity="0"/>
</linearGradient>
<linearGradient id="paint6_linear" x1="102.904" y1="177.306" x2="102.904" y2="130.806" gradientUnits="userSpaceOnUse">
<stop stop-color="#DAFFD4"/>
<stop offset="0.586022" stop-color="#DAFFD4" stop-opacity="0"/>
</linearGradient>
<linearGradient id="paint7_linear" x1="79.3281" y1="193.817" x2="79.3281" y2="-35.0015" gradientUnits="userSpaceOnUse">
<stop stop-color="#FAFF00"/>
<stop offset="0.743596" stop-color="white" stop-opacity="0"/>
</linearGradient>
<linearGradient id="paint8_linear" x1="75.0242" y1="193.817" x2="75.0242" y2="-35.0015" gradientUnits="userSpaceOnUse">
<stop stop-color="#FAFF00" stop-opacity="0.56"/>
<stop offset="0.381312" stop-color="white" stop-opacity="0"/>
</linearGradient>
<linearGradient id="paint9_linear" x1="56.6819" y1="133.235" x2="90.163" y2="171.932" gradientUnits="userSpaceOnUse">
<stop/>
<stop offset="0.1748" stop-color="#030300"/>
<stop offset="0.3067" stop-color="#0D0C00"/>
<stop offset="0.4246" stop-color="#1D1B00"/>
<stop offset="0.5342" stop-color="#343100"/>
<stop offset="0.6383" stop-color="#514D00"/>
<stop offset="0.7381" stop-color="#767000"/>
<stop offset="0.8345" stop-color="#A19900"/>
<stop offset="0.9258" stop-color="#D2C700"/>
<stop offset="1" stop-color="#FFF200"/>
</linearGradient>
<linearGradient id="paint10_linear" x1="58.1133" y1="6.65863" x2="86.209" y2="144.817" gradientUnits="userSpaceOnUse">
<stop stop-color="#355984"/>
<stop offset="0.0428" stop-color="#1291CA"/>
<stop offset="0.0643" stop-color="#00AEEF"/>
<stop offset="0.1305" stop-color="#0E6B94"/>
<stop offset="0.1398" stop-color="#106187"/>
<stop offset="0.5806" stop-color="#1B3D68"/>
<stop offset="0.9228" stop-color="#0477C2"/>
<stop offset="1" stop-color="#2F4F75"/>
</linearGradient>
<linearGradient id="paint11_linear" x1="46.2518" y1="81.1226" x2="103.092" y2="69.5638" gradientUnits="userSpaceOnUse">
<stop stop-color="#1B2C40"/>
<stop offset="0.2889" stop-color="#23415E"/>
<stop offset="1" stop-color="#3572A4"/>
</linearGradient>
<radialGradient id="paint12_angular" cx="0" cy="0" r="1" gradientUnits="userSpaceOnUse" gradientTransform="translate(92.4863 141.976) rotate(-55.5605) scale(90.7554 145.378)">
<stop stop-color="#7FFF7C"/>
<stop offset="0.0625" stop-color="#B7BB00"/>
<stop offset="0.0833333" stop-color="#FFF27D"/>
<stop offset="0.104604" stop-color="#FFE600"/>
<stop offset="0.291667" stop-color="#6BCE6A"/>
<stop offset="0.463542" stop-color="#E0FFC8"/>
<stop offset="0.677083" stop-color="#7CFF7C"/>
<stop offset="0.7762" stop-color="#008200"/>
<stop offset="0.869806" stop-color="#06627E"/>
</radialGradient>
<linearGradient id="paint13_linear" x1="41.7048" y1="67.8008" x2="39.625" y2="57.5733" gradientUnits="userSpaceOnUse">
<stop stop-color="#231F20"/>
<stop offset="1" stop-color="#1B2C40"/>
</linearGradient>
<linearGradient id="paint14_linear" x1="41.6522" y1="67.7703" x2="39.5885" y2="57.6221" gradientUnits="userSpaceOnUse">
<stop stop-color="#1B2C40"/>
<stop offset="0.0362" stop-color="#536684"/>
<stop offset="0.0416" stop-color="#455A79"/>
<stop offset="0.0511" stop-color="#344C6C"/>
<stop offset="0.0613" stop-color="#294364"/>
<stop offset="0.0733" stop-color="#264061"/>
<stop offset="0.929" stop-color="#264061"/>
<stop offset="0.9567" stop-color="#536684"/>
<stop offset="0.9661" stop-color="#4E617E"/>
<stop offset="0.9782" stop-color="#41536E"/>
<stop offset="0.9919" stop-color="#2B3D53"/>
<stop offset="1" stop-color="#1B2C40"/>
</linearGradient>
<linearGradient id="paint15_linear" x1="41.1728" y1="67.8508" x2="39.098" y2="57.6485" gradientUnits="userSpaceOnUse">
<stop stop-color="#35426A"/>
<stop offset="0.6602" stop-color="#146FB0"/>
<stop offset="1" stop-color="#0288D6"/>
</linearGradient>
<linearGradient id="paint16_linear" x1="39.0447" y1="54.7294" x2="36.9649" y2="44.5018" gradientUnits="userSpaceOnUse">
<stop stop-color="#231F20"/>
<stop offset="1" stop-color="#1B2C40"/>
</linearGradient>
<linearGradient id="paint17_linear" x1="38.9912" y1="54.6988" x2="36.9275" y2="44.5506" gradientUnits="userSpaceOnUse">
<stop stop-color="#1B2C40"/>
<stop offset="0.0362" stop-color="#536684"/>
<stop offset="0.0416" stop-color="#455A79"/>
<stop offset="0.0511" stop-color="#344C6C"/>
<stop offset="0.0613" stop-color="#294364"/>
<stop offset="0.0733" stop-color="#264061"/>
<stop offset="0.929" stop-color="#264061"/>
<stop offset="0.9567" stop-color="#536684"/>
<stop offset="0.9661" stop-color="#4E617E"/>
<stop offset="0.9782" stop-color="#41536E"/>
<stop offset="0.9919" stop-color="#2B3D53"/>
<stop offset="1" stop-color="#1B2C40"/>
</linearGradient>
<linearGradient id="paint18_linear" x1="38.5129" y1="54.7774" x2="36.4382" y2="44.5751" gradientUnits="userSpaceOnUse">
<stop stop-color="#35426A"/>
<stop offset="0.6602" stop-color="#146FB0"/>
<stop offset="1" stop-color="#0288D6"/>
</linearGradient>
<linearGradient id="paint19_linear" x1="35.7764" y1="39.7693" x2="34.7232" y2="34.5904" gradientUnits="userSpaceOnUse">
<stop stop-color="#231F20"/>
<stop offset="1" stop-color="#1B2C40"/>
</linearGradient>
<linearGradient id="paint20_linear" x1="35.9449" y1="39.7065" x2="34.9031" y2="34.5832" gradientUnits="userSpaceOnUse">
<stop stop-color="#1B2C40"/>
<stop offset="0.0362" stop-color="#536684"/>
<stop offset="0.0416" stop-color="#455A79"/>
<stop offset="0.0511" stop-color="#344C6C"/>
<stop offset="0.0613" stop-color="#294364"/>
<stop offset="0.0733" stop-color="#264061"/>
<stop offset="0.929" stop-color="#264061"/>
<stop offset="0.9567" stop-color="#536684"/>
<stop offset="0.9661" stop-color="#4E617E"/>
<stop offset="0.9782" stop-color="#41536E"/>
<stop offset="0.9919" stop-color="#2B3D53"/>
<stop offset="1" stop-color="#1B2C40"/>
</linearGradient>
<linearGradient id="paint21_linear" x1="35.6436" y1="39.7673" x2="34.6017" y2="34.644" gradientUnits="userSpaceOnUse">
<stop stop-color="#35426A"/>
<stop offset="0.6602" stop-color="#146FB0"/>
<stop offset="1" stop-color="#0288D6"/>
</linearGradient>
<linearGradient id="paint22_linear" x1="67.4983" y1="9.29052" x2="69.9818" y2="11.2249" gradientUnits="userSpaceOnUse">
<stop stop-color="#2C5277"/>
<stop offset="1" stop-color="#104273"/>
</linearGradient>
<linearGradient id="paint23_linear" x1="69.039" y1="10.1988" x2="71.3301" y2="9.7329" gradientUnits="userSpaceOnUse">
<stop stop-color="#2C5277" stop-opacity="0"/>
<stop offset="1" stop-color="#1042A1"/>
</linearGradient>
<linearGradient id="paint24_linear" x1="68.4992" y1="10.3086" x2="66.2081" y2="10.7745" gradientUnits="userSpaceOnUse">
<stop stop-color="#2C5277" stop-opacity="0"/>
<stop offset="1" stop-color="#1042A1"/>
</linearGradient>
<linearGradient id="paint25_linear" x1="69.1782" y1="10.1691" x2="67.9479" y2="10.4193" gradientUnits="userSpaceOnUse">
<stop stop-color="#2C5277" stop-opacity="0"/>
<stop offset="1" stop-color="#1042A1"/>
</linearGradient>
<linearGradient id="paint26_linear" x1="68.9896" y1="11.493" x2="68.4804" y2="8.98863" gradientUnits="userSpaceOnUse">
<stop stop-color="#2C5277" stop-opacity="0"/>
<stop offset="0.6496" stop-color="#B8C5D1" stop-opacity="0.6496"/>
<stop offset="1" stop-color="white"/>
</linearGradient>
<linearGradient id="paint27_linear" x1="52.1022" y1="136.518" x2="57.2714" y2="135.467" gradientUnits="userSpaceOnUse">
<stop stop-color="#00AEEF"/>
<stop offset="0.7507" stop-color="#236794"/>
<stop offset="1" stop-color="#2F4F75"/>
</linearGradient>
<linearGradient id="paint28_linear" x1="30.0182" y1="27.9226" x2="35.1873" y2="26.8715" gradientUnits="userSpaceOnUse">
<stop stop-color="#00AEEF"/>
<stop offset="0.7507" stop-color="#236794"/>
<stop offset="1" stop-color="#2F4F75"/>
</linearGradient>
<linearGradient id="paint29_linear" x1="62.4059" y1="12.1" x2="62.1863" y2="11.0203" gradientUnits="userSpaceOnUse">
<stop stop-color="#414042"/>
<stop offset="1" stop-color="#231F20"/>
</linearGradient>
<linearGradient id="paint30_linear" x1="134.17" y1="118.489" x2="52.4826" y2="6.31681" gradientUnits="userSpaceOnUse">
<stop stop-color="white"/>
<stop offset="0.9946" stop-color="white" stop-opacity="0"/>
</linearGradient>
<radialGradient id="paint31_radial" cx="0" cy="0" r="1" gradientUnits="userSpaceOnUse" gradientTransform="translate(26.1977 87.7951) rotate(-13.6937) scale(4.95338 81.7998)">
<stop offset="0.0014" stop-color="#ED3700"/>
<stop offset="0.759221" stop-color="#FF0000" stop-opacity="0"/>
</radialGradient>
<radialGradient id="paint32_radial" cx="0" cy="0" r="1" gradientUnits="userSpaceOnUse" gradientTransform="translate(37.1676 87.5578) rotate(-13.6937) scale(4.95338 81.7998)">
<stop offset="0.0014" stop-color="#ED3700"/>
<stop offset="0.759221" stop-color="#FF0000" stop-opacity="0"/>
</radialGradient>
<radialGradient id="paint33_radial" cx="0" cy="0" r="1" gradientUnits="userSpaceOnUse" gradientTransform="translate(20.2683 102.263) rotate(-13.6937) scale(4.95338 81.8001)">
<stop offset="0.0014" stop-color="#ED3700"/>
<stop offset="0.759221" stop-color="#FF0000" stop-opacity="0"/>
</radialGradient>
<linearGradient id="paint34_linear" x1="2.59654" y1="103.632" x2="33.6462" y2="111.214" gradientUnits="userSpaceOnUse">
<stop stop-color="#010333" stop-opacity="0"/>
<stop offset="0.154" stop-color="#F15A29"/>
<stop offset="0.3017" stop-color="#F15236"/>
<stop offset="0.5745" stop-color="#EF3E59"/>
<stop offset="0.8089" stop-color="#EE2A7B"/>
<stop offset="0.8271" stop-color="#E12877" stop-opacity="0.9045"/>
<stop offset="0.861" stop-color="#BE226C" stop-opacity="0.7272"/>
<stop offset="0.9069" stop-color="#86195B" stop-opacity="0.4872"/>
<stop offset="0.9623" stop-color="#390C44" stop-opacity="0.1972"/>
<stop offset="1" stop-color="#010333" stop-opacity="0"/>
</linearGradient>
<linearGradient id="paint35_linear" x1="8.59952" y1="91.7839" x2="44.1029" y2="92.1214" gradientUnits="userSpaceOnUse">
<stop stop-color="#010333" stop-opacity="0"/>
<stop offset="0.154" stop-color="#F15A29"/>
<stop offset="0.3017" stop-color="#F15236"/>
<stop offset="0.5745" stop-color="#EF3E59"/>
<stop offset="0.8089" stop-color="#EE2A7B"/>
<stop offset="0.8271" stop-color="#E12877" stop-opacity="0.9045"/>
<stop offset="0.861" stop-color="#BE226C" stop-opacity="0.7272"/>
<stop offset="0.9069" stop-color="#86195B" stop-opacity="0.4872"/>
<stop offset="0.9623" stop-color="#390C44" stop-opacity="0.1972"/>
<stop offset="1" stop-color="#010333" stop-opacity="0"/>
</linearGradient>
<linearGradient id="paint36_linear" x1="20.5917" y1="90.8172" x2="55.0883" y2="94.1473" gradientUnits="userSpaceOnUse">
<stop stop-color="#010333" stop-opacity="0"/>
<stop offset="0.154" stop-color="#F15A29"/>
<stop offset="0.3017" stop-color="#F15236"/>
<stop offset="0.5745" stop-color="#EF3E59"/>
<stop offset="0.8089" stop-color="#EE2A7B"/>
<stop offset="0.8271" stop-color="#E12877" stop-opacity="0.9045"/>
<stop offset="0.861" stop-color="#BE226C" stop-opacity="0.7272"/>
<stop offset="0.9069" stop-color="#86195B" stop-opacity="0.4872"/>
<stop offset="0.9623" stop-color="#390C44" stop-opacity="0.1972"/>
<stop offset="1" stop-color="#010333" stop-opacity="0"/>
</linearGradient>
</defs>
</svg>
