<svg width="348" height="171" viewBox="0 0 348 171" fill="none" xmlns="http://www.w3.org/2000/svg">
<path opacity="0.6" d="M85.1696 154.529C66.8465 154.529 49.595 147.368 36.5924 134.366C23.5525 121.326 16.3711 103.998 16.3711 85.5725C16.3711 67.3103 23.4453 50.179 36.2907 37.3337C49.0982 24.5253 66.1528 17.4717 84.3134 17.4717C102.637 17.4717 119.889 24.6329 132.891 37.6353C145.931 50.6747 153.112 68.0026 153.112 86.4287C153.112 104.691 146.038 121.822 133.193 134.667C120.385 147.476 103.329 154.529 85.1696 154.529ZM84.313 18.2195C66.227 18.2195 49.2491 25.2378 36.5061 37.9806C23.8004 50.6865 16.8023 67.5884 16.8023 85.5725C16.8023 103.72 23.9071 120.818 36.8078 133.719C49.7454 146.657 66.9207 153.782 85.1692 153.782C103.255 153.782 120.233 146.763 132.977 134.021C145.682 121.315 152.68 104.413 152.68 86.4287C152.68 68.2816 145.576 51.1831 132.675 38.2823C119.737 25.3446 102.562 18.2195 84.313 18.2195Z" fill="#FAFF01"/>
<path opacity="0.3" d="M85.151 152.082C67.5477 152.082 50.97 145.199 38.4719 132.701C25.8991 120.129 18.9753 103.396 18.9753 85.5897C18.9753 67.9383 25.7968 51.396 38.1828 39.0095C50.4941 26.6986 66.8831 19.918 84.3307 19.918C101.934 19.918 118.512 26.8002 131.01 39.2985C143.583 51.8708 150.507 68.6029 150.507 86.4106C150.507 104.062 143.685 120.604 131.299 132.99C118.988 145.302 102.599 152.082 85.151 152.082ZM84.3307 21.4127C67.0325 21.4127 50.7963 28.1211 38.6145 40.3043C26.5065 52.4119 19.8383 68.4945 19.8383 85.5897C19.8383 102.841 26.6088 119.112 38.9037 131.406C51.2722 143.775 67.6971 150.588 85.1514 150.588C102.45 150.588 118.686 143.878 130.869 131.695C142.976 119.588 149.644 103.506 149.644 86.4106C149.644 69.1592 142.874 52.8874 130.579 40.5933C118.21 28.2244 101.785 21.4127 84.3307 21.4127Z" fill="#FAFF01"/>
<path opacity="0.8" d="M59.8916 111.056C46.0818 97.2466 46.012 74.9261 59.7354 61.2019C61.0869 59.8509 62.5237 58.6384 64.0256 57.5545L62.7027 55.6699C61.0946 56.8277 59.5554 58.1234 58.1103 59.5685C43.5157 74.1632 43.5899 97.986 58.2767 112.672C61.3435 115.739 64.8124 118.16 68.5089 119.952L69.4679 117.884C66.0111 116.199 62.7658 113.93 59.8916 111.056Z" fill="#FAFF01"/>
<path opacity="0.6" d="M119.794 82.5061L122.07 82.3137C121.222 74.1484 117.71 66.1991 111.548 59.8789L109.924 61.5031C115.696 67.4317 118.989 74.8685 119.794 82.5061Z" fill="#FAFF01"/>
<path opacity="0.8" d="M109.203 60.784L110.827 59.1598C97.8328 46.5221 77.9675 45.0844 63.5334 54.8848L64.8558 56.7694C78.4041 47.5782 96.9931 48.9285 109.203 60.784Z" fill="#FAFF01"/>
<path opacity="0.4" d="M122.156 83.3271L119.881 83.5187C120.635 93.3863 117.266 103.487 109.746 111.007C105.347 115.406 100.063 118.38 94.4604 119.947L95.0576 122.151C101.045 120.489 106.69 117.323 111.38 112.632C119.384 104.629 122.965 93.8518 122.156 83.3271Z" fill="#FAFF01"/>
<path opacity="0.6" d="M70.388 118.111L69.4294 120.178C77.2075 123.692 85.9252 124.44 94.0778 122.412L93.4806 120.208C85.8418 122.107 77.6795 121.405 70.388 118.111Z" fill="#FAFF01"/>
<path opacity="0.4" d="M84.0814 42.6963C63.1771 42.8828 45.845 57.9606 42.166 77.8428L46.1346 78.5544C49.4866 60.5602 65.1718 46.9167 84.0935 46.7252L84.0814 42.6963ZM45.8358 77.7495L42.7481 77.1958C46.741 57.9009 63.765 43.8264 83.6516 43.45L83.6599 45.9849C65.2644 46.3739 49.4866 59.6343 45.8358 77.7495Z" fill="#FAFF01"/>
<path opacity="0.6" d="M85.0883 42.6982L85.1009 46.7271C94.326 46.8674 102.805 50.1947 109.479 55.6612L112.059 52.5834C104.682 46.5271 95.2981 42.8428 85.0883 42.6982ZM109.438 54.8025C102.568 49.2553 94.3163 46.2137 85.5302 45.9885L85.5219 43.4544C94.814 43.6813 103.879 46.9531 111.191 52.7103L109.438 54.8025Z" fill="#FAFF01"/>
<path opacity="0.8" d="M112.826 53.2412L110.248 56.3173C118.64 63.5524 123.987 74.2308 124.024 86.1174C124.046 93.0879 122.234 99.629 119.055 105.3L122.548 107.325C126.069 101.062 128.077 93.8331 128.054 86.13C128.012 73.0074 122.1 61.2191 112.826 53.2412ZM122.426 106.467L119.831 104.964C122.88 99.1929 124.477 92.698 124.456 86.1149C124.42 74.6904 119.56 63.8457 111.09 56.2215L112.861 54.1083C122.207 62.2601 127.583 73.9157 127.621 86.1359C127.644 93.224 125.848 100.246 122.426 106.467Z" fill="#FAFF01"/>
<path d="M97.7998 123.118C93.7866 124.512 89.4794 125.278 84.9908 125.278C84.9496 125.278 84.9088 125.278 84.8671 125.278C63.2075 125.21 45.532 107.534 45.464 85.8747C45.4573 83.7204 45.6324 81.6089 45.9608 79.5496L41.9917 78.8379C41.624 81.125 41.4275 83.47 41.4353 85.863C41.51 109.745 60.9993 129.233 84.8797 129.307C84.9248 129.307 84.9709 129.308 85.016 129.308C89.9839 129.308 94.7505 128.458 99.1896 126.909L97.7998 123.118ZM84.8802 128.559C61.2356 128.485 41.9398 109.329 41.8661 85.8571C41.8598 83.8061 42.0102 81.7199 42.3133 79.6453L45.417 80.2016C45.1555 82.0954 45.0255 84.0002 45.0313 85.8773C45.1007 107.946 62.9698 125.956 84.8652 126.024H84.9893C89.2873 126.024 93.5261 125.326 97.5927 123.949L98.4853 126.384C94.1368 127.826 89.6085 128.557 85.0146 128.557L84.8802 128.559Z" fill="#FAFF01"/>
<path opacity="0.6" d="M118.554 106.174C114.057 113.732 107.082 119.638 98.7456 122.777L100.135 126.568C109.363 123.104 117.082 116.567 122.048 108.198L118.554 106.174ZM99.4388 123.275C107.395 120.126 114.193 114.383 118.664 107.026L121.228 108.512C116.334 116.335 108.958 122.417 100.337 125.726L99.4388 123.275Z" fill="#FAFF01"/>
<path opacity="0.5" d="M124.893 54.9744C125.528 55.7936 126.149 56.6212 126.729 57.469L136.639 50.1961C136.079 49.3903 135.487 48.6022 134.887 47.8191L124.893 54.9744ZM60.4851 41.0662L54.2239 30.4055C53.3687 30.8726 52.5329 31.3869 51.6941 31.896L57.8311 42.6282C58.7086 42.0888 59.5843 41.551 60.4851 41.0662ZM91.4353 35.6006L92.6151 23.3241C91.64 23.1964 90.6674 23.0645 89.6894 22.9821L88.3646 35.2544C89.3916 35.3342 90.4127 35.4603 91.4353 35.6006ZM80.7986 35.2309L79.399 22.9502C78.4206 23.0258 77.449 23.1518 76.4734 23.2745L77.7323 35.5586C78.7519 35.4233 79.7731 35.3031 80.7986 35.2309ZM120.546 34.1033L113.272 44.012C114.119 44.5918 114.947 45.2127 115.766 45.8488L122.922 35.8552C122.139 35.2544 121.35 34.662 120.546 34.1033ZM125.087 117.279L135.127 124.498C135.721 123.717 136.308 122.932 136.862 122.132L126.908 114.796C126.334 115.639 125.718 116.463 125.087 117.279ZM83.356 136.858L83.4666 149.205C84.4489 149.231 85.4288 149.235 86.4107 149.215L86.4441 136.869C85.4133 136.896 84.3863 136.893 83.356 136.858ZM33.8726 84.2964L21.5264 84.3301C21.5075 85.3131 21.5109 86.292 21.5366 87.2742L33.8833 87.3851C33.8483 86.355 33.845 85.3282 33.8726 84.2964ZM134.812 77.0874L146.879 74.4835C146.696 73.5206 146.436 72.5703 146.208 71.6125L134.133 74.071C134.38 75.0733 134.626 76.074 134.812 77.0874ZM134.208 98.2399L146.298 100.773C146.522 99.8179 146.775 98.8693 146.954 97.9064L134.869 95.2277C134.689 96.2402 134.449 97.2392 134.208 98.2399ZM62.782 131.777L57.8665 143.059C58.7557 143.482 59.6366 143.928 60.5414 144.308L65.5869 133.086C64.6375 132.693 63.7134 132.226 62.782 131.777ZM108.997 130.934L115.257 141.595C116.114 141.127 116.949 140.614 117.787 140.105L111.651 129.371C110.774 129.911 109.897 130.451 108.997 130.934ZM34.6691 94.9143L22.6018 97.5182C22.7862 98.4819 23.0447 99.4314 23.2737 100.388L35.3502 97.9307C35.1028 96.9292 34.8549 95.9276 34.6691 94.9143ZM44.3939 54.7232L34.3548 47.5023C33.7596 48.2837 33.1721 49.0685 32.6186 49.8692L42.5728 57.2052C43.1482 56.3608 43.7628 55.5382 44.3939 54.7232ZM32.8427 121.805C33.4025 122.611 33.9948 123.399 34.5949 124.182L44.5899 117.025C43.9534 116.206 43.333 115.378 42.7533 114.53L32.8427 121.805Z" fill="#FAFF01"/>
<path opacity="0.2" d="M101.779 38.1524L105.486 26.4103C104.557 26.0827 103.642 25.7121 102.701 25.4298L98.8534 37.1459C99.8396 37.4357 100.806 37.8012 101.779 38.1524ZM55.946 43.8315L48.6109 33.8766C47.8085 34.4311 47.0236 35.0184 46.2436 35.6125L53.4628 45.6523C54.2783 45.0221 55.1019 44.4062 55.946 43.8315ZM106.7 40.2227L111.614 28.9411C110.725 28.5176 109.844 28.0723 108.941 27.6942L103.895 38.9145C104.845 39.3052 105.77 39.7724 106.7 40.2227ZM124.893 54.9737C125.528 55.7929 126.149 56.6205 126.729 57.4683L136.639 50.1953C136.079 49.3896 135.487 48.6014 134.887 47.8184L124.893 54.9737ZM121.4 50.9289C122.12 51.6792 122.814 52.4429 123.479 53.2252L132.566 44.9532C131.925 44.2104 131.263 43.4811 130.584 42.7619L121.4 50.9289ZM125.787 38.1743L117.515 47.2613C118.297 47.9259 119.061 48.6199 119.811 49.34L127.978 40.1564C127.259 39.4766 126.529 38.8145 125.787 38.1743ZM70.3238 37.0568L66.4004 25.3164C65.4641 25.5928 64.5487 25.9583 63.6241 26.2801L67.4035 38.0441C68.3737 37.7004 69.3391 37.3399 70.3238 37.0568ZM140.145 55.8299C139.673 54.9712 139.153 54.1326 138.639 53.2916L127.943 59.3613C128.49 60.2393 129.033 61.1199 129.522 62.0231L140.145 55.8299ZM65.2919 38.7927L60.1761 27.5413C59.2748 27.916 58.3967 28.3563 57.509 28.7731L62.4963 40.085C63.4233 39.6396 64.345 39.1784 65.2919 38.7927ZM96.67 36.6073L99.1285 24.5316C98.1709 24.3039 97.222 24.0451 96.2577 23.8603L93.6541 35.9275C94.6675 36.1141 95.6678 36.3603 96.67 36.6073ZM60.4851 41.0655L54.2239 30.4048C53.3687 30.8719 52.5329 31.3861 51.6941 31.8953L57.8311 42.6275C58.7086 42.088 59.5843 41.5503 60.4851 41.0655ZM91.4353 35.5999L92.6151 23.3234C91.64 23.1957 90.6674 23.0637 89.6894 22.9814L88.3646 35.2537C89.3916 35.3335 90.4127 35.4595 91.4353 35.5999ZM80.7986 35.2302L79.399 22.9495C78.4206 23.0251 77.449 23.1511 76.4734 23.2738L77.7323 35.5578C78.7519 35.4226 79.7731 35.3024 80.7986 35.2302ZM75.5144 35.8704L72.8362 23.7872C71.8723 23.9645 70.9234 24.2182 69.9688 24.4409L72.5014 36.5308C73.5022 36.2914 74.5025 36.0494 75.5144 35.8704ZM120.546 34.1026L113.272 44.0113C114.119 44.5911 114.947 45.212 115.766 45.848L122.922 35.8544C122.139 35.2537 121.35 34.6613 120.546 34.1026ZM135.61 87.7028L147.955 87.6701C147.974 86.687 147.972 85.7073 147.946 84.7251L135.6 84.615C135.634 85.6451 135.638 86.6727 135.61 87.7028ZM130.655 108.245L141.967 113.232C142.385 112.345 142.825 111.468 143.199 110.565L131.948 105.449C131.562 106.395 131.1 107.317 130.655 108.245ZM128.112 112.909L138.844 119.046C139.354 118.208 139.867 117.372 140.335 116.517L129.674 110.255C129.19 111.157 128.651 112.033 128.112 112.909ZM125.087 117.278L135.127 124.497C135.721 123.716 136.308 122.932 136.862 122.131L126.908 114.795C126.334 115.639 125.718 116.463 125.087 117.278ZM83.356 136.857L83.4666 149.205C84.4489 149.231 85.4288 149.235 86.4107 149.215L86.4441 136.868C85.4133 136.895 84.3863 136.893 83.356 136.857ZM33.8726 84.2957L21.5264 84.3293C21.5075 85.3124 21.5109 86.2913 21.5366 87.2735L33.8833 87.3844C33.8483 86.3543 33.845 85.3275 33.8726 84.2957ZM86.1259 35.1411L86.0153 22.794C85.033 22.768 84.0531 22.7663 83.0703 22.7848L83.0378 35.1302C84.0691 35.1033 85.0956 35.1058 86.1259 35.1411ZM134.812 77.0866L146.879 74.4828C146.696 73.5199 146.436 72.5696 146.208 71.6117L134.133 74.0702C134.38 75.0726 134.626 76.0733 134.812 77.0866ZM135.486 82.3758L147.76 81.0516C147.676 80.0728 147.545 79.1015 147.416 78.1251L135.14 79.3048C135.281 80.3282 135.406 81.3482 135.486 82.3758ZM131.827 66.846L143.045 61.7988C142.667 60.8956 142.222 60.0142 141.798 59.1252L130.517 64.0397C130.968 64.9706 131.436 65.8957 131.827 66.846ZM133.594 71.8873L145.311 68.0383C145.027 67.0989 144.656 66.1839 144.33 65.2563L132.586 68.9634C132.937 69.9347 133.305 70.9009 133.594 71.8873ZM134.208 98.2392L146.298 100.772C146.522 99.8172 146.775 98.8685 146.954 97.9056L134.869 95.227C134.689 96.2395 134.449 97.2385 134.208 98.2392ZM135.183 93.008L147.467 94.2666C147.589 93.292 147.715 92.3198 147.791 91.341L135.51 89.9412C135.436 90.9688 135.317 91.9888 135.183 93.008ZM132.696 103.337L144.461 107.117C144.782 106.192 145.148 105.278 145.424 104.341L133.683 100.416C133.399 101.403 133.039 102.367 132.696 103.337ZM114.91 30.5947L108.716 41.2176C109.619 41.7066 110.5 42.2502 111.379 42.798L117.449 32.1012C116.608 31.587 115.769 31.066 114.91 30.5947ZM49.6708 122.659L41.5032 131.843C42.2216 132.523 42.9517 133.185 43.6944 133.825L51.9682 124.736C51.1862 124.072 50.4227 123.378 49.6708 122.659ZM88.6824 136.769L90.0819 149.05C91.0613 148.973 92.0334 148.847 93.0075 148.726L91.7501 136.441C90.729 136.577 89.7093 136.696 88.6824 136.769ZM67.7033 133.846L63.9962 145.59C64.9237 145.916 65.8401 146.288 66.7797 146.57L70.6299 134.851C69.6437 134.562 68.6764 134.196 67.7033 133.846ZM78.0476 136.398L76.8668 148.678C77.8429 148.805 78.8145 148.937 79.7934 149.019L81.1173 136.745C80.0903 136.665 79.0697 136.54 78.0476 136.398ZM53.716 126.151L46.5594 136.147C47.3423 136.747 48.1316 137.34 48.9364 137.899L56.2104 127.988C55.3629 127.408 54.5354 126.787 53.716 126.151ZM58.1028 129.202L52.0327 139.899C52.8734 140.413 53.7117 140.933 54.5708 141.405L60.7655 130.781C59.8632 130.292 58.9827 129.748 58.1028 129.202ZM62.782 131.776L57.8665 143.058C58.7557 143.482 59.6366 143.927 60.5414 144.307L65.5869 133.085C64.6375 132.693 63.7134 132.225 62.782 131.776ZM72.8109 135.39L70.3539 147.467C71.3105 147.696 72.2603 147.956 73.2247 148.14L75.8273 136.071C74.8139 135.886 73.8131 135.639 72.8109 135.39ZM117.757 124.943L126.088 134.082C126.826 133.448 127.551 132.79 128.266 132.115L120.043 122.881C119.295 123.595 118.535 124.284 117.757 124.943ZM113.535 128.168L120.872 138.122C121.672 137.568 122.457 136.981 123.239 136.386L116.018 126.347C115.203 126.978 114.38 127.592 113.535 128.168ZM93.969 136.127L96.6472 148.212C97.6091 148.035 98.5575 147.781 99.5127 147.558L96.9809 135.467C95.9797 135.707 94.9799 135.949 93.969 136.127ZM121.622 121.3L130.856 129.524C131.532 128.81 132.188 128.085 132.823 127.346L123.685 119.015C123.025 119.793 122.335 120.554 121.622 121.3ZM108.997 130.933L115.257 141.595C116.114 141.127 116.949 140.613 117.787 140.104L111.651 129.37C110.774 129.911 109.897 130.45 108.997 130.933ZM99.1585 134.942L103.082 146.685C104.018 146.408 104.933 146.042 105.858 145.721L102.079 133.955C101.109 134.298 100.144 134.658 99.1585 134.942ZM104.19 133.207L109.305 144.459C110.207 144.085 111.086 143.644 111.972 143.227L106.985 131.914C106.058 132.36 105.137 132.82 104.19 133.207ZM34.6691 94.9136L22.6018 97.5175C22.7862 98.4812 23.0447 99.4306 23.2737 100.387L35.3502 97.93C35.1028 96.9285 34.8549 95.9269 34.6691 94.9136ZM36.7861 68.6617L25.021 64.8833C24.6994 65.8075 24.3341 66.7225 24.0576 67.6593L35.7989 71.5815C36.0822 70.5976 36.4431 69.6313 36.7861 68.6617ZM35.2741 73.7593L23.183 71.2278C22.9598 72.1831 22.7061 73.1317 22.5286 74.0938L34.6124 76.7732C34.7919 75.7608 35.0325 74.7617 35.2741 73.7593ZM38.8255 63.7557L27.5135 58.7681C27.0977 59.6546 26.6568 60.5343 26.2818 61.435L37.5346 66.5503C37.9203 65.6033 38.3806 64.6824 38.8255 63.7557ZM44.3939 54.7225L34.3548 47.5016C33.7596 48.283 33.1721 49.0678 32.6186 49.8685L42.5728 57.2045C43.1482 56.36 43.7628 55.5375 44.3939 54.7225ZM41.3693 59.0899L30.637 52.9529C30.1272 53.7915 29.6144 54.6267 29.1458 55.4829L39.8078 61.7433C40.2914 60.8435 40.8304 59.9663 41.3693 59.0899ZM36.9156 127.046C37.556 127.789 38.2181 128.518 38.8977 129.238L48.0821 121.07C47.3632 120.318 46.669 119.555 46.0049 118.773L36.9156 127.046ZM34.2995 78.9906L22.0144 77.7328C21.8931 78.7066 21.767 79.6787 21.6903 80.6584L33.972 82.0591C34.0458 81.0323 34.1641 80.0114 34.2995 78.9906ZM47.8594 50.6978L38.6261 42.4745C37.9508 43.1887 37.2935 43.9147 36.659 44.6524L45.7983 52.9832C46.457 52.2051 47.1454 51.4447 47.8594 50.6978ZM33.9963 89.6227L21.7228 90.9469C21.8058 91.9266 21.9387 92.8988 22.0653 93.8743L34.3427 92.6937C34.2015 91.6712 34.0759 90.6503 33.9963 89.6227ZM29.336 116.17C29.8075 117.028 30.3275 117.867 30.8427 118.709L41.5391 112.639C40.9924 111.759 40.4486 110.878 39.9601 109.975L29.336 116.17ZM32.8427 121.804C33.4025 122.61 33.9948 123.398 34.5949 124.181L44.5899 117.024C43.9534 116.205 43.333 115.377 42.7533 114.529L32.8427 121.804ZM37.6564 105.153L26.4356 110.201C26.8139 111.104 27.2593 111.985 27.6828 112.874L38.9652 107.959C38.5155 107.027 38.0483 106.103 37.6564 105.153ZM35.8896 100.11L24.1716 103.96C24.4539 104.9 24.825 105.816 25.1525 106.745L36.8952 103.037C36.5445 102.064 36.1788 101.097 35.8896 100.11ZM51.7252 47.0554L43.3941 37.9163C42.6553 38.5524 41.9311 39.2086 41.2165 39.8833L49.4409 49.1182C50.1869 48.4057 50.9471 47.715 51.7252 47.0554Z" fill="#FAFF01"/>
<path opacity="0.3" d="M55.9456 43.8316L48.6104 33.8766C47.808 34.4312 47.0232 35.0185 46.2431 35.6125L53.4623 45.6523C54.2778 45.0222 55.1015 44.4063 55.9456 43.8316ZM106.699 40.2228L111.614 28.9412C110.724 28.5177 109.844 28.0724 108.94 27.6943L103.895 38.9146C104.845 39.3053 105.77 39.7725 106.699 40.2228ZM125.787 38.1744L117.515 47.2614C118.297 47.926 119.06 48.62 119.811 49.3401L127.977 40.1564C127.258 39.4767 126.529 38.8146 125.787 38.1744ZM65.2915 38.7928L60.1756 27.5414C59.2743 27.9161 58.3963 28.3564 57.5085 28.7731L62.4958 40.085C63.4229 39.6397 64.3446 39.1784 65.2915 38.7928ZM96.6695 36.6074L99.128 24.5317C98.1704 24.304 97.2216 24.0452 96.2572 23.8604L93.6537 35.9276C94.6671 36.1141 95.6673 36.3603 96.6695 36.6074ZM128.111 112.91L138.843 119.047C139.353 118.208 139.867 117.372 140.334 116.517L129.674 110.255C129.19 111.157 128.65 112.033 128.111 112.91ZM135.486 82.3759L147.759 81.0517C147.675 80.0728 147.544 79.1015 147.416 78.1252L135.14 79.3049C135.28 80.3283 135.406 81.3483 135.486 82.3759ZM131.827 66.8461L143.045 61.7989C142.666 60.8956 142.221 60.0142 141.798 59.1253L130.516 64.0397C130.967 64.9707 131.436 65.8958 131.827 66.8461ZM133.593 71.8874L145.31 68.0384C145.027 67.099 144.655 66.184 144.329 65.2564L132.586 68.9634C132.937 69.9347 133.304 70.901 133.593 71.8874ZM132.695 103.337L144.46 107.117C144.781 106.192 145.147 105.278 145.424 104.341L133.683 100.416C133.398 101.403 133.039 102.367 132.695 103.337ZM78.0471 136.398L76.8664 148.678C77.8424 148.805 78.8141 148.937 79.793 149.019L81.1168 136.745C80.0899 136.665 79.0692 136.54 78.0471 136.398ZM53.7156 126.151L46.5589 136.147C47.3419 136.747 48.1311 137.34 48.9359 137.899L56.2099 127.988C55.3625 127.408 54.5349 126.787 53.7156 126.151ZM72.8105 135.391L70.3535 147.467C71.3101 147.696 72.2599 147.956 73.2243 148.14L75.8268 136.071C74.8135 135.886 73.8127 135.639 72.8105 135.391ZM113.535 128.168L120.871 138.122C121.672 137.568 122.457 136.981 123.238 136.386L116.018 126.347C115.202 126.978 114.38 127.592 113.535 128.168ZM99.1581 134.942L103.082 146.685C104.018 146.408 104.932 146.042 105.858 145.721L102.078 133.955C101.108 134.298 100.143 134.658 99.1581 134.942ZM34.6687 94.9137L22.6014 97.5175C22.7857 98.4813 23.0443 99.4307 23.2732 100.387L35.3498 97.9301C35.1024 96.9285 34.8545 95.927 34.6687 94.9137ZM35.2736 73.7594L23.1825 71.2278C22.9594 72.1832 22.7057 73.1318 22.5281 74.0938L34.6119 76.7733C34.7914 75.7608 35.032 74.7618 35.2736 73.7594ZM44.3934 54.7225L34.3543 47.5017C33.7591 48.2831 33.1717 49.0678 32.6182 49.8686L42.5724 57.2045C43.1477 56.3601 43.7623 55.5375 44.3934 54.7225ZM37.6559 105.153L26.4351 110.201C26.8135 111.104 27.2588 111.985 27.6823 112.874L38.9647 107.959C38.515 107.027 38.0479 106.103 37.6559 105.153Z" fill="#FAFF01"/>
<path opacity="0.2" d="M102.386 8.1056C101.546 7.91066 100.718 7.65104 99.8744 7.48467L98.0067 16.1457C98.8852 16.3171 99.7608 16.5086 100.634 16.7137L102.386 8.1056ZM98.6044 15.5121L100.16 8.29716C100.539 8.38203 100.919 8.48285 101.288 8.58116C101.46 8.62653 101.632 8.6719 101.804 8.71644L100.344 15.8911C99.7337 15.7508 99.1584 15.6256 98.6044 15.5121ZM110.444 10.428C109.628 10.1473 108.824 9.82133 108.003 9.56758L105.246 17.9564C106.102 18.2185 106.955 18.4958 107.803 18.7907L110.444 10.428ZM105.923 17.4077L108.226 10.3994C108.626 10.5313 109.026 10.6792 109.416 10.822C109.539 10.8674 109.662 10.9119 109.784 10.9573L107.576 17.9513C107.037 17.7665 106.484 17.5841 105.923 17.4077ZM127.482 29.3456L132.582 22.2255C131.892 21.7037 131.2 21.1845 130.496 20.6887L125.31 27.755C126.042 28.2684 126.765 28.8011 127.482 29.3456ZM130.565 21.5449C130.966 21.8315 131.366 22.1264 131.755 22.4179L127.415 28.4784C126.979 28.1499 126.562 27.8424 126.157 27.55L130.565 21.5449ZM94.1366 6.62848C93.2799 6.52262 92.4291 6.38734 91.5704 6.30836L90.6221 15.1038C91.5142 15.1828 92.4053 15.276 93.2945 15.3886L94.1366 6.62848ZM91.1373 14.4031L91.9255 7.09313C92.3597 7.14018 92.7953 7.19984 93.2193 7.25697C93.3575 7.27546 93.4953 7.29478 93.6336 7.31327L92.9336 14.5955C92.3529 14.5257 91.7592 14.4627 91.1373 14.4031ZM125.627 17.5245C124.886 17.0792 124.151 16.6238 123.398 16.2045L118.975 23.7908C119.758 24.2252 120.533 24.6781 121.302 25.1444L125.627 17.5245ZM119.782 23.459L123.515 17.0556C123.96 17.3102 124.406 17.5774 124.842 17.8412L121.187 24.2824C120.704 23.9925 120.239 23.7203 119.782 23.459ZM118.218 13.5788C117.436 13.2141 116.664 12.8234 115.872 12.4848L112.261 20.514C113.085 20.8644 113.905 21.2282 114.718 21.6105L118.218 13.5788ZM113.01 20.0653L116.04 13.3284C116.47 13.5191 116.898 13.725 117.316 13.925C117.374 13.9527 117.432 13.9813 117.491 14.009L114.55 20.7576C114.052 20.5266 113.542 20.2972 113.01 20.0653ZM78.416 15.066L77.4119 6.26383C76.5537 6.33693 75.7039 6.46716 74.8491 6.56883L75.7466 15.334C76.6343 15.2273 77.5244 15.1399 78.416 15.066ZM75.7373 7.20656C76.1715 7.15026 76.6173 7.09229 77.0612 7.04608L77.8955 14.3619C77.2746 14.4165 76.6823 14.477 76.1031 14.5434L75.357 7.25529C75.4841 7.23933 75.6107 7.22336 75.7373 7.20656ZM50.1179 23.5741L45.6467 15.96C44.8972 16.3751 44.1657 16.8263 43.4274 17.2674L47.7981 24.9134C48.5651 24.4521 49.3378 24.0034 50.1179 23.5741ZM45.5308 16.8103L49.3073 23.2422C48.8547 23.4985 48.3933 23.7673 47.9136 24.053L44.2162 17.5841C44.6474 17.3253 45.0888 17.0607 45.5308 16.8103ZM56.8103 20.3401L53.1488 12.2874C52.359 12.6209 51.5887 13.0066 50.8096 13.3671L54.3596 21.4223C55.1706 21.0442 55.9885 20.6854 56.8103 20.3401ZM51.6726 13.7351C52.1009 13.5317 52.5419 13.3225 52.9828 13.1293L56.0569 19.8914C55.5272 20.1191 55.0212 20.3443 54.5279 20.5711L51.5426 13.7973C51.5858 13.7762 51.6289 13.7552 51.6726 13.7351ZM43.8072 27.4996L38.5759 20.4006C37.8754 20.8921 37.1866 21.4071 36.4997 21.9239L41.6442 29.0758C42.3582 28.5364 43.0781 28.0088 43.8072 27.4996ZM38.507 21.2559L42.9564 27.2946C42.5561 27.5819 42.1433 27.8861 41.7111 28.2104L37.3282 22.1171C37.7124 21.8306 38.1073 21.5407 38.507 21.2559ZM63.8102 17.8261L61.0005 9.41886C60.1798 9.66841 59.3798 9.98937 58.5649 10.2641L61.2581 18.6445C62.1046 18.3555 62.9555 18.0832 63.8102 17.8261ZM59.6141 10.6565C59.9959 10.5187 60.3874 10.3767 60.7793 10.249L63.1277 17.2758C62.5718 17.448 62.0217 17.6261 61.4827 17.8068L59.2295 10.7951C59.3575 10.7489 59.4861 10.7027 59.6141 10.6565ZM133.193 34.1659L139.013 27.6223C138.379 27.0324 137.739 26.4501 137.09 25.8847L131.194 32.3603C131.869 32.9476 132.536 33.55 133.193 34.1659ZM137.114 26.7442C137.451 27.0408 137.798 27.3525 138.164 27.6861L133.173 33.2988C132.805 32.9568 132.435 32.6199 132.065 32.2905L137.114 26.7442ZM71.0372 16.0608L69.1148 7.38805C68.2727 7.55021 67.4465 7.80312 66.6083 7.99217L68.4133 16.612C69.286 16.4129 70.1597 16.2263 71.0372 16.0608ZM67.7041 8.47613C68.0742 8.38035 68.4536 8.28204 68.8325 8.19886L70.4342 15.4256C69.8832 15.5348 69.3103 15.6567 68.7015 15.7936L67.1962 8.60637C67.3655 8.56351 67.5348 8.51982 67.7041 8.47613ZM85.8608 14.84L85.7823 6.01428C85.2637 6.0042 84.7461 6 84.2285 6C83.8855 6 83.5426 6.00168 83.1996 6.00672L83.1749 14.8324C83.5494 14.8265 83.9238 14.824 84.2983 14.824C84.8198 14.8232 85.3403 14.829 85.8608 14.84ZM83.6299 6.74948C83.8297 6.7478 84.0296 6.74696 84.2295 6.74696C84.6054 6.74696 84.9814 6.74948 85.3578 6.75452L85.4228 14.0838C85.0483 14.0779 84.6738 14.0754 84.2993 14.0754C84.0694 14.0754 83.8394 14.0762 83.6095 14.0787L83.6299 6.74948ZM37.9511 32.0687L32.0145 25.5545C31.3698 26.1174 30.7343 26.6947 30.1032 27.282L35.9642 33.8617C36.6176 33.2492 37.2797 32.651 37.9511 32.0687ZM31.9902 26.4132L37.0794 31.9973C36.7146 32.3225 36.3483 32.6552 35.984 32.9938L30.9521 27.345C31.3111 27.0173 31.655 26.7081 31.9902 26.4132ZM149.319 116.382L157.374 119.931C157.734 119.153 158.12 118.382 158.453 117.592L150.4 113.931C150.055 114.752 149.697 115.571 149.319 116.382ZM157.714 118.028C157.607 118.257 157.499 118.485 157.393 118.709C157.333 118.836 157.273 118.962 157.213 119.089L150.07 115.94C150.237 115.567 150.405 115.182 150.575 114.783L157.714 118.028ZM152.095 109.483L160.475 112.176C160.751 111.362 161.071 110.561 161.321 109.74L152.913 106.932C152.657 107.786 152.385 108.637 152.095 109.483ZM160.645 110.276C160.58 110.462 160.512 110.65 160.442 110.843C160.381 111.011 160.32 111.179 160.261 111.347L152.775 108.941C152.901 108.556 153.025 108.165 153.146 107.771L160.645 110.276ZM154.129 102.327L162.748 104.133C162.937 103.295 163.19 102.468 163.352 101.626L154.68 99.704C154.514 100.581 154.328 101.455 154.129 102.327ZM154.976 100.523L162.75 102.247C162.705 102.426 162.658 102.608 162.61 102.794C162.565 102.967 162.519 103.144 162.475 103.323L154.731 101.701C154.818 101.295 154.9 100.904 154.976 100.523ZM145.827 122.943L153.473 127.314C153.915 126.577 154.366 125.843 154.781 125.094L147.167 120.623C146.737 121.404 146.289 122.177 145.827 122.943ZM153.988 125.418C153.803 125.732 153.615 126.043 153.431 126.349L153.362 126.463L146.638 122.619C146.863 122.234 147.079 121.857 147.287 121.483L153.988 125.418ZM155.406 94.9954L164.171 95.8928C164.273 95.0374 164.404 94.1871 164.476 93.3301L155.674 92.326C155.6 93.2167 155.513 94.1073 155.406 94.9954ZM156.042 93.1167L163.966 94.0208C163.933 94.2997 163.897 94.582 163.859 94.8727C163.849 94.9517 163.838 95.0299 163.828 95.1088L155.925 94.2997C155.966 93.9132 156.005 93.5208 156.042 93.1167ZM136.88 134.778L143.459 140.64C144.046 140.009 144.623 139.373 145.186 138.728L138.672 132.791C138.089 133.462 137.491 134.124 136.88 134.778ZM144.335 138.796C144.049 139.115 143.752 139.441 143.439 139.78L137.752 134.714C138.073 134.361 138.389 134.009 138.697 133.657L144.335 138.796ZM141.664 129.097L148.817 134.243C149.334 133.555 149.849 132.867 150.34 132.166L143.241 126.935C142.732 127.663 142.204 128.383 141.664 129.097ZM149.509 132.365C149.266 132.698 149.015 133.035 148.752 133.386L142.516 128.9C142.796 128.521 143.06 128.156 143.313 127.798L149.509 132.365ZM138.379 39.5467L144.855 33.6508C144.29 33.0022 143.708 32.3619 143.118 31.7284L136.574 37.5478C137.191 38.2048 137.793 38.8711 138.379 39.5467ZM144.004 33.5811L138.405 38.6796C138.093 38.325 137.774 37.9679 137.448 37.6117L143.098 32.5871C143.418 32.9325 143.719 33.2627 144.004 33.5811ZM155.909 87.5662L164.735 87.5418C164.746 86.6797 164.742 85.821 164.726 84.9581L155.9 84.88C155.92 85.7748 155.923 86.6705 155.909 87.5662ZM164.305 85.7026C164.309 86.0723 164.31 86.4352 164.309 86.7957L156.348 86.8175C156.35 86.4218 156.349 86.026 156.344 85.632L164.305 85.7026ZM146.95 51.766L154.538 47.3423C154.118 46.5919 153.663 45.8567 153.217 45.114L145.597 49.4386C146.063 50.2082 146.516 50.9829 146.95 51.766ZM153.105 45.9635L153.205 46.129C153.382 46.4214 153.562 46.7188 153.739 47.0179L147.07 50.9065C146.858 50.5301 146.639 50.1511 146.411 49.7621L153.105 45.9635ZM142.986 45.4316L150.052 40.2449C149.557 39.5416 149.037 38.8493 148.516 38.1595L141.395 43.2588C141.94 43.9763 142.472 44.6989 142.986 45.4316ZM149.219 40.0449L143.057 44.567C142.801 44.2065 142.534 43.8377 142.25 43.4554L148.451 39.0148C148.704 39.3501 148.962 39.6954 149.219 40.0449ZM150.227 58.4802L158.257 54.8698C157.919 54.0783 157.528 53.3053 157.162 52.5231L149.13 56.0234C149.512 56.8359 149.876 57.6551 150.227 58.4802ZM157.185 53.7456C157.293 53.9716 157.404 54.201 157.512 54.432L150.4 57.6299C150.227 57.2283 150.056 56.8418 149.885 56.4637L157.001 53.3624C157.063 53.4902 157.124 53.6179 157.185 53.7456ZM155.636 80.1184L164.432 79.1698C164.354 78.312 164.218 77.4608 164.112 76.6046L155.351 77.4465C155.463 78.3355 155.557 79.227 155.636 80.1184ZM163.771 77.386L163.808 77.66C163.846 77.9381 163.883 78.2095 163.917 78.4767L156 79.3303C155.961 78.9245 155.92 78.5313 155.876 78.1448L163.771 77.386ZM152.784 65.4952L161.173 62.7385C160.919 61.9167 160.594 61.1135 160.313 60.2985L151.949 62.9393C152.245 63.7862 152.522 64.639 152.784 65.4952ZM160.285 61.6336C160.356 61.826 160.425 62.015 160.492 62.2007L153.014 64.6584C152.89 64.2618 152.763 63.8686 152.635 63.4812L160.099 61.1244C160.161 61.295 160.223 61.4639 160.285 61.6336ZM154.595 72.7337L163.256 70.8659C163.09 70.0215 162.829 69.1939 162.636 68.3537L154.027 70.1064C154.232 70.9794 154.424 71.8549 154.595 72.7337ZM162.365 69.162C162.412 69.3468 162.461 69.53 162.508 69.7106C162.556 69.8921 162.603 70.0694 162.648 70.2442L154.888 71.9179C154.81 71.5348 154.726 71.1424 154.635 70.7357L162.365 69.162ZM67.0958 163.895C67.935 164.089 68.7631 164.35 69.6081 164.518L71.4757 155.856C70.5967 155.685 69.7207 155.492 68.8475 155.288L67.0958 163.895ZM70.8786 156.488L69.3229 163.704C68.9455 163.618 68.5676 163.518 68.1994 163.42C68.0257 163.373 67.8521 163.327 67.6779 163.283L69.1381 156.108C69.7488 156.249 70.3246 156.375 70.8786 156.488ZM83.6221 157.16L83.7012 165.986C84.2183 165.995 84.7349 166 85.2525 166C85.596 166 85.9394 165.997 86.2839 165.993L86.3066 157.168C85.9341 157.173 85.5611 157.176 85.188 157.176C84.666 157.177 84.1436 157.172 83.6221 157.16ZM85.854 165.251C85.6537 165.253 85.4529 165.254 85.2525 165.254C84.8771 165.254 84.5016 165.251 84.1261 165.246L84.0606 157.916C84.4366 157.922 84.8125 157.925 85.1885 157.925C85.417 157.925 85.6455 157.924 85.8735 157.921L85.854 165.251ZM75.3463 165.371C76.2016 165.477 77.0534 165.614 77.9106 165.692L78.8599 156.896C77.9678 156.817 77.0772 156.724 76.1875 156.611L75.3463 165.371ZM78.3452 157.597L77.5564 164.908C77.1155 164.86 76.6726 164.799 76.2409 164.741C76.1104 164.723 75.9799 164.705 75.8494 164.688L76.5489 157.405C77.1301 157.475 77.7238 157.538 78.3452 157.597ZM59.0388 161.573C59.8543 161.854 60.6576 162.179 61.4813 162.432L64.2371 154.044C63.3804 153.782 62.5276 153.504 61.6792 153.209L59.0388 161.573ZM63.5599 154.593L61.2576 161.601C60.854 161.469 60.4504 161.32 60.0575 161.175C59.9372 161.132 59.8174 161.087 59.6971 161.044L61.9053 154.05C62.4442 154.234 62.9977 154.416 63.5599 154.593ZM41.9997 142.655L36.9004 149.775C37.5902 150.297 38.2824 150.816 38.9858 151.312L44.173 144.246C43.4405 143.732 42.7172 143.2 41.9997 142.655ZM38.9169 150.455C38.5124 150.166 38.1088 149.869 37.7265 149.582L42.0672 143.522C42.5033 143.85 42.92 144.158 43.325 144.45L38.9169 150.455ZM43.8572 154.476C44.597 154.923 45.3328 155.378 46.0838 155.796L50.5069 148.21C49.7244 147.776 48.9493 147.324 48.1799 146.856L43.8572 154.476ZM49.7002 148.542L45.9669 154.944C45.522 154.691 45.0767 154.423 44.6416 154.16L48.2963 147.718C48.7775 148.007 49.2427 148.281 49.7002 148.542ZM51.2632 158.422C52.0466 158.788 52.8184 159.179 53.6101 159.518L57.2211 151.488C56.397 151.137 55.5771 150.773 54.7632 150.39L51.2632 158.422ZM56.4721 151.936L53.4422 158.673C53.0095 158.481 52.5768 158.273 52.1562 158.072C52.1009 158.046 52.0456 158.019 51.9908 157.993L54.932 151.243C55.4282 151.473 55.9381 151.702 56.4721 151.936ZM112.671 151.661L116.333 159.713C117.122 159.381 117.893 158.994 118.673 158.633L115.122 150.579C114.311 150.957 113.493 151.315 112.671 151.661ZM117.813 158.263C117.383 158.467 116.941 158.677 116.499 158.872L113.424 152.11C113.956 151.882 114.462 151.657 114.954 151.431L117.939 158.204C117.898 158.223 117.855 158.243 117.813 158.263ZM119.365 148.426L123.836 156.04C124.586 155.625 125.318 155.175 126.056 154.733L121.684 147.087C120.917 147.548 120.145 147.996 119.365 148.426ZM123.952 155.19L120.175 148.758C120.627 148.502 121.089 148.233 121.568 147.947L125.267 154.416C124.835 154.676 124.394 154.939 123.952 155.19ZM125.674 144.501L130.907 151.601C131.607 151.108 132.294 150.594 132.983 150.078L127.838 142.923C127.124 143.464 126.404 143.991 125.674 144.501ZM130.975 150.745L126.525 144.706C126.926 144.417 127.339 144.114 127.771 143.79L132.154 149.884C131.752 150.182 131.365 150.467 130.975 150.745ZM131.531 139.931L137.469 146.446C138.113 145.883 138.748 145.306 139.379 144.719L133.519 138.139C132.865 138.751 132.202 139.349 131.531 139.931ZM137.492 145.587L132.403 140.003C132.768 139.677 133.135 139.344 133.498 139.007L138.529 144.656C138.171 144.983 137.828 145.291 137.492 145.587ZM36.2882 137.834L30.469 144.378C31.103 144.968 31.7433 145.55 32.3914 146.115L38.2873 139.64C37.6125 139.052 36.9465 138.451 36.2882 137.834ZM32.3676 145.257C32.0305 144.96 31.6827 144.647 31.3179 144.314L36.3086 138.702C36.6772 139.044 37.0474 139.382 37.4165 139.711L32.3676 145.257ZM98.4438 155.94L100.366 164.613C101.21 164.451 102.036 164.197 102.874 164.007L101.068 155.388C100.196 155.587 99.3218 155.774 98.4438 155.94ZM101.779 163.524C101.409 163.62 101.028 163.718 100.649 163.801L99.0473 156.574C99.5969 156.465 100.17 156.343 100.781 156.206L102.286 163.393C102.117 163.436 101.948 163.48 101.779 163.524ZM32.6029 37.2218L26.023 31.3612C25.4356 31.9922 24.8598 32.6266 24.2966 33.2719L30.8105 39.2098C31.3926 38.5384 31.9907 37.8763 32.6029 37.2218ZM25.1469 33.203C25.4317 32.8854 25.7291 32.5594 26.0429 32.2199L31.7302 37.2848C31.4081 37.6377 31.0923 37.9906 30.7852 38.3418L25.1469 33.203ZM91.0674 156.934L92.0701 165.736C92.9282 165.663 93.7791 165.532 94.6329 165.431L93.7364 156.666C92.8482 156.773 91.9585 156.861 91.0674 156.934ZM93.7136 164.798C93.2896 164.853 92.8545 164.909 92.4208 164.954L91.5874 157.638C92.2016 157.583 92.8016 157.523 93.3794 157.457L94.1245 164.745C93.9877 164.762 93.8504 164.78 93.7136 164.798ZM105.673 154.174L108.482 162.58C109.302 162.332 110.104 162.011 110.918 161.735L108.225 153.356C107.379 153.645 106.527 153.917 105.673 154.174ZM109.893 161.335C109.503 161.476 109.103 161.622 108.703 161.751L106.355 154.724C106.914 154.551 107.464 154.373 108 154.192L110.254 161.204C110.133 161.248 110.013 161.291 109.893 161.335ZM15.3533 69.672L6.73457 67.8663C6.54538 68.704 6.29216 69.5308 6.12917 70.3736L14.8017 72.296C14.9677 71.4188 15.1544 70.5441 15.3533 69.672ZM14.5058 71.4776L6.73214 69.7543C6.77677 69.5762 6.82334 69.3955 6.87088 69.2107C6.91648 69.0351 6.96257 68.857 7.00768 68.6763L14.7513 70.2988C14.663 70.7055 14.5815 71.097 14.5058 71.4776ZM17.3864 62.5167L9.00725 59.8229C8.73123 60.6388 8.41058 61.4386 8.16173 62.2587L16.568 65.0676C16.8246 64.2139 17.0967 63.3628 17.3864 62.5167ZM8.83747 61.7235C8.90199 61.5412 8.96893 61.3563 9.03733 61.1673C9.09942 60.9958 9.16152 60.8244 9.22264 60.6522L16.7067 63.0578C16.5811 63.4434 16.4569 63.8341 16.3356 64.229L8.83747 61.7235ZM14.076 77.0046L5.31178 76.1072C5.21039 76.9626 5.07942 77.8129 5.00568 78.6707L13.8073 79.6748C13.881 78.7833 13.9688 77.8927 14.076 77.0046ZM13.4401 78.8833L5.51649 77.9801C5.54948 77.7045 5.58537 77.4264 5.62321 77.139C5.63388 77.0558 5.64504 76.9735 5.65571 76.8903L13.5575 77.6995C13.5158 78.0851 13.4769 78.4783 13.4401 78.8833ZM23.6548 49.0571L16.0092 44.6855C15.5682 45.424 15.1171 46.1559 14.7018 46.9045L22.3159 51.3753C22.7457 50.5956 23.1935 49.8234 23.6548 49.0571ZM15.4954 46.5819C15.6618 46.3004 15.8306 46.0197 15.9965 45.7442L16.1212 45.5366L22.8442 49.3806C22.6181 49.7671 22.4028 50.1436 22.1951 50.5158L15.4954 46.5819ZM27.8184 42.9025L20.6646 37.7578C20.1485 38.446 19.6343 39.1333 19.1419 39.8349L26.2408 45.0661C26.7502 44.3368 27.278 43.6167 27.8184 42.9025ZM19.9729 39.6349C20.2164 39.3013 20.4672 38.9644 20.7296 38.614L26.9661 43.0983C26.6866 43.4772 26.4223 43.8427 26.1691 44.2007L19.9729 39.6349ZM13.573 84.4347L4.74858 84.4582C4.73645 85.3194 4.73936 86.179 4.75682 87.0402L13.5817 87.1183C13.5618 86.2243 13.5589 85.3295 13.573 84.4347ZM5.17692 86.2974C5.17304 85.9336 5.17207 85.5681 5.17352 85.2051L13.1335 85.1833C13.1316 85.5782 13.133 85.974 13.1374 86.368L5.17692 86.2974ZM20.1626 55.6184L12.1085 52.0677C11.7471 52.8474 11.3614 53.6179 11.0282 54.4077L19.0813 58.0694C19.4262 57.2476 19.7852 56.4301 20.1626 55.6184ZM11.7679 53.9716C11.8747 53.7422 11.9833 53.5137 12.0905 53.2885C12.1502 53.1625 12.2104 53.0364 12.27 52.9104L19.4121 56.0587C19.2443 56.4343 19.0764 56.8191 18.9066 57.2174L11.7679 53.9716ZM31.102 132.454L24.6264 138.35C25.1916 138.999 25.7732 139.639 26.3636 140.272L32.9071 134.453C32.291 133.795 31.689 133.129 31.102 132.454ZM25.4773 138.42L31.0768 133.321C31.3877 133.676 31.7079 134.033 32.0334 134.39L26.3835 139.415C26.0633 139.068 25.7625 138.737 25.4773 138.42ZM22.5313 120.234L14.9453 124.657C15.3659 125.408 15.82 126.145 16.2667 126.885L23.8847 122.561C23.4185 121.792 22.9659 121.017 22.5313 120.234ZM16.3778 126.036L16.3201 125.94C16.129 125.625 15.9345 125.304 15.7428 124.981L22.411 121.093C22.6225 121.468 22.8413 121.848 23.0702 122.237L16.3778 126.036ZM19.2549 113.521L11.2261 117.133C11.5632 117.923 11.9557 118.696 12.32 119.479L20.3518 115.978C19.969 115.165 19.6052 114.345 19.2549 113.521ZM12.2763 118.212C12.1749 118 12.0721 117.786 11.9702 117.57L19.0813 114.37C19.2545 114.773 19.4252 115.159 19.5955 115.536L12.4801 118.638C12.4126 118.496 12.3447 118.354 12.2763 118.212ZM26.4955 126.568L19.4296 131.755C19.9254 132.459 20.4444 133.151 20.9659 133.841L28.0862 128.74C27.5419 128.025 27.0092 127.301 26.4955 126.568ZM20.263 131.955L26.4237 127.433C26.6789 127.792 26.9467 128.161 27.2314 128.545L21.0304 132.986C20.7777 132.65 20.5191 132.305 20.263 131.955ZM16.6975 106.505L8.3092 109.261C8.5629 110.084 8.88792 110.887 9.16976 111.702L17.5324 109.063C17.2369 108.215 16.9595 107.361 16.6975 106.505ZM9.20469 110.388C9.13095 110.188 9.05867 109.992 8.9893 109.798L16.4671 107.341C16.5918 107.737 16.7184 108.131 16.8474 108.519L9.3832 110.874C9.32402 110.712 9.26436 110.55 9.20469 110.388ZM14.8866 99.2663L6.2257 101.134C6.39306 101.977 6.65259 102.806 6.84711 103.645L15.4547 101.894C15.2495 101.021 15.0579 100.145 14.8866 99.2663ZM7.11731 102.838C7.07026 102.655 7.02272 102.474 6.97518 102.296C6.92667 102.112 6.87913 101.933 6.83353 101.756L14.5927 100.082C14.6713 100.465 14.7552 100.858 14.8459 101.265L7.11731 102.838ZM13.8461 91.8815L5.05031 92.831C5.12792 93.6889 5.26521 94.5392 5.37144 95.3954L14.1313 94.5543C14.0183 93.6645 13.9247 92.773 13.8461 91.8815ZM5.7115 94.6139C5.69889 94.5207 5.68627 94.4274 5.67366 94.3342C5.63582 94.0577 5.59895 93.7897 5.56597 93.5242L13.4818 92.6697C13.5211 93.0738 13.5623 93.4679 13.6065 93.8561L5.7115 94.6139Z" fill="#FAFF01"/>
<path opacity="0.2" d="M94.1366 6.62872C93.2799 6.52285 92.429 6.38757 91.5704 6.30859L90.622 15.104C91.5141 15.183 92.4052 15.2763 93.2944 15.3889L94.1366 6.62872ZM91.1372 14.4033L91.9255 7.09336C92.3596 7.14041 92.7952 7.20007 93.2192 7.2572C93.3575 7.27569 93.4952 7.29501 93.6335 7.3135L92.9335 14.5957C92.3528 14.526 91.7591 14.4629 91.1372 14.4033ZM125.627 17.5247C124.886 17.0794 124.151 16.624 123.398 16.2047L118.975 23.7911C119.757 24.2255 120.533 24.6784 121.302 25.1447L125.627 17.5247ZM119.782 23.4592L123.515 17.0559C123.96 17.3104 124.406 17.5776 124.842 17.8415L121.187 24.2826C120.704 23.9927 120.239 23.7205 119.782 23.4592ZM118.218 13.579C117.436 13.2144 116.664 12.8237 115.872 12.4851L112.261 20.5142C113.085 20.8646 113.905 21.2284 114.718 21.6107L118.218 13.579ZM113.01 20.0655L116.04 13.3286C116.469 13.5194 116.898 13.7252 117.315 13.9252C117.374 13.9529 117.432 13.9815 117.491 14.0092L114.55 20.7579C114.052 20.5268 113.542 20.2974 113.01 20.0655ZM50.1178 23.5743L45.6466 15.9602C44.8972 16.3753 44.1656 16.8265 43.4273 17.2676L47.798 24.9136C48.565 24.4523 49.3378 24.0037 50.1178 23.5743ZM45.5307 16.8105L49.3072 23.2424C48.8546 23.4987 48.3933 23.7676 47.9135 24.0532L44.2161 17.5844C44.6473 17.3256 45.0888 17.0609 45.5307 16.8105ZM71.0372 16.061L69.1147 7.38828C68.2726 7.55044 67.4465 7.80335 66.6082 7.9924L68.4133 16.6122C69.2859 16.4131 70.1596 16.2266 71.0372 16.061ZM67.704 8.47636C68.0742 8.38058 68.4535 8.28227 68.8324 8.19909L70.4342 15.4258C69.8831 15.5351 69.3102 15.6569 68.7014 15.7939L67.1961 8.6066C67.3654 8.56375 67.5347 8.52006 67.704 8.47636ZM37.951 32.0689L32.0144 25.5547C31.3697 26.1176 30.7342 26.6949 30.1031 27.2822L35.9641 33.862C36.6175 33.2494 37.2797 32.6512 37.951 32.0689ZM31.9902 26.4134L37.0793 31.9975C36.7145 32.3227 36.3483 32.6554 35.984 32.994L30.9521 27.3452C31.311 27.0175 31.655 26.7083 31.9902 26.4134ZM152.095 109.484L160.475 112.176C160.751 111.362 161.071 110.562 161.321 109.741L152.913 106.933C152.657 107.786 152.385 108.637 152.095 109.484ZM160.645 110.276C160.58 110.462 160.512 110.651 160.442 110.843C160.381 111.011 160.32 111.179 160.261 111.347L152.775 108.942C152.901 108.556 153.025 108.165 153.146 107.771L160.645 110.276ZM155.406 94.9956L164.171 95.893C164.273 95.0376 164.403 94.1873 164.476 93.3303L155.674 92.3262C155.6 93.2169 155.513 94.1075 155.406 94.9956ZM156.042 93.1169L163.966 94.021C163.933 94.2999 163.897 94.5822 163.859 94.873C163.849 94.9519 163.838 95.0301 163.828 95.1091L155.925 94.2999C155.966 93.9134 156.005 93.521 156.042 93.1169ZM136.88 134.778L143.459 140.64C144.046 140.009 144.623 139.373 145.186 138.728L138.672 132.791C138.089 133.462 137.491 134.124 136.88 134.778ZM144.335 138.796C144.049 139.116 143.752 139.442 143.439 139.78L137.752 134.715C138.073 134.362 138.389 134.009 138.697 133.658L144.335 138.796ZM141.664 129.098L148.817 134.243C149.334 133.555 149.849 132.867 150.34 132.166L143.241 126.935C142.732 127.663 142.204 128.384 141.664 129.098ZM149.509 132.365C149.266 132.698 149.015 133.035 148.752 133.386L142.516 128.9C142.796 128.521 143.06 128.156 143.313 127.799L149.509 132.365ZM146.95 51.7662L154.538 47.3425C154.118 46.5922 153.663 45.857 153.217 45.1142L145.597 49.4388C146.063 50.2085 146.515 50.9832 146.95 51.7662ZM153.105 45.9637L153.205 46.1292C153.382 46.4216 153.562 46.719 153.739 47.0182L147.07 50.9067C146.858 50.5303 146.639 50.1513 146.411 49.7623L153.105 45.9637ZM154.595 72.734L163.256 70.8662C163.09 70.0217 162.829 69.1941 162.636 68.3539L154.027 70.1066C154.232 70.9796 154.424 71.8551 154.595 72.734ZM162.365 69.1622C162.412 69.347 162.461 69.5302 162.508 69.7108C162.556 69.8923 162.603 70.0696 162.648 70.2444L154.888 71.9181C154.81 71.535 154.726 71.1426 154.635 70.7359L162.365 69.1622ZM67.0957 163.895C67.935 164.09 68.763 164.35 69.6081 164.518L71.4757 155.856C70.5967 155.685 69.7206 155.492 68.8474 155.288L67.0957 163.895ZM70.8785 156.488L69.3228 163.704C68.9454 163.618 68.5675 163.518 68.1993 163.42C68.0257 163.374 67.852 163.327 67.6779 163.283L69.138 156.108C69.7487 156.249 70.3245 156.375 70.8785 156.488ZM51.2631 158.422C52.0465 158.788 52.8183 159.179 53.61 159.518L57.2211 151.488C56.3969 151.138 55.5771 150.774 54.7631 150.391L51.2631 158.422ZM56.4721 151.936L53.4422 158.673C53.0095 158.481 52.5768 158.274 52.1562 158.072C52.1009 158.046 52.0456 158.019 51.9908 157.993L54.9319 151.243C55.4282 151.474 55.938 151.702 56.4721 151.936ZM119.365 148.426L123.836 156.04C124.586 155.625 125.318 155.175 126.056 154.733L121.684 147.087C120.917 147.548 120.145 147.996 119.365 148.426ZM123.952 155.19L120.175 148.758C120.627 148.502 121.089 148.233 121.568 147.947L125.267 154.416C124.835 154.676 124.394 154.94 123.952 155.19ZM36.2881 137.834L30.4689 144.378C31.1029 144.969 31.7432 145.55 32.3913 146.116L38.2872 139.64C37.6124 139.053 36.9464 138.451 36.2881 137.834ZM32.3676 145.257C32.0304 144.96 31.6826 144.648 31.3178 144.314L36.3085 138.702C36.6772 139.044 37.0473 139.382 37.4165 139.711L32.3676 145.257ZM98.4437 155.94L100.366 164.613C101.21 164.451 102.036 164.197 102.874 164.007L101.068 155.388C100.196 155.587 99.3218 155.774 98.4437 155.94ZM101.779 163.524C101.409 163.62 101.028 163.718 100.649 163.801L99.0472 156.575C99.5968 156.465 100.17 156.344 100.781 156.207L102.286 163.393C102.117 163.437 101.948 163.48 101.779 163.524ZM91.0673 156.934L92.07 165.736C92.9282 165.663 93.779 165.532 94.6328 165.431L93.7363 156.666C92.8481 156.773 91.9585 156.861 91.0673 156.934ZM93.7135 164.798C93.2896 164.853 92.8544 164.91 92.4208 164.954L91.5874 157.638C92.2015 157.584 92.8016 157.523 93.3793 157.457L94.1244 164.745C93.9876 164.762 93.8503 164.78 93.7135 164.798ZM14.076 77.0048L5.31171 76.1075C5.21033 76.9628 5.07935 77.8131 5.00562 78.671L13.8072 79.675C13.881 78.7836 13.9688 77.8929 14.076 77.0048ZM13.44 78.8835L5.51642 77.9803C5.54941 77.7047 5.58531 77.4266 5.62314 77.1393C5.63382 77.0561 5.64497 76.9737 5.65565 76.8905L13.5574 77.6997C13.5157 78.0853 13.4769 78.4786 13.44 78.8835ZM23.6547 49.0574L16.0091 44.6857C15.5681 45.4243 15.117 46.1561 14.7018 46.9047L22.3159 51.3755C22.7456 50.5958 23.1934 49.8237 23.6547 49.0574ZM15.4954 46.5821C15.6618 46.3006 15.8306 46.02 15.9965 45.7444L16.1212 45.5368L22.8441 49.3809C22.6181 49.7674 22.4027 50.1438 22.1951 50.516L15.4954 46.5821ZM20.1625 55.6187L12.1084 52.0679C11.747 52.8476 11.3614 53.6181 11.0281 54.4079L19.0812 58.0696C19.4261 57.2478 19.7851 56.4303 20.1625 55.6187ZM11.7679 53.9718C11.8746 53.7424 11.9833 53.5139 12.0905 53.2887C12.1501 53.1627 12.2103 53.0367 12.27 52.9106L19.4121 56.0589C19.2442 56.4345 19.0764 56.8193 18.9066 57.2176L11.7679 53.9718ZM22.5312 120.234L14.9453 124.657C15.3659 125.408 15.8199 126.145 16.2667 126.885L23.8847 122.562C23.4185 121.792 22.9659 121.017 22.5312 120.234ZM16.3778 126.036L16.32 125.94C16.1289 125.625 15.9344 125.304 15.7428 124.981L22.4109 121.093C22.6224 121.468 22.8412 121.848 23.0702 122.237L16.3778 126.036ZM16.6974 106.505L8.30913 109.261C8.56284 110.084 8.88785 110.888 9.1697 111.702L17.5323 109.063C17.2369 108.215 16.9594 107.361 16.6974 106.505ZM9.20462 110.388C9.13089 110.189 9.05861 109.992 8.98924 109.798L16.467 107.341C16.5917 107.738 16.7183 108.132 16.8473 108.519L9.38314 110.874C9.32396 110.712 9.26429 110.55 9.20462 110.388ZM14.8866 99.2665L6.22564 101.134C6.393 101.977 6.65252 102.806 6.84705 103.646L15.4546 101.895C15.2494 101.021 15.0578 100.145 14.8866 99.2665ZM7.11725 102.838C7.07019 102.655 7.02265 102.474 6.97511 102.296C6.9266 102.112 6.87906 101.933 6.83346 101.756L14.5926 100.082C14.6712 100.465 14.7551 100.859 14.8458 101.265L7.11725 102.838Z" fill="#FAFF01"/>
<path opacity="0.2" d="M129.689 86.6221C129.614 97.2492 125.833 106.993 119.572 114.626L122.16 116.8C129.426 107.976 132.995 98.0987 133.058 86.633L129.689 86.6221Z" fill="#FAFF01"/>
<path opacity="0.6" d="M93.2921 133.735C104.208 131.844 114.219 126.102 121.535 117.547L118.946 115.372C110.721 124.965 98.5016 131.03 84.8626 130.988C76.8512 130.963 69.3176 128.832 62.7843 125.125L61.1204 128.017C70.9708 133.596 82.376 135.626 93.2921 133.735Z" fill="#FAFF01"/>
<path opacity="0.3" d="M39.749 85.8756C39.6714 61.0782 59.7831 40.9658 84.5803 41.0439C87.0767 41.0515 89.5254 41.2674 91.9131 41.6674L92.4899 38.3392C83.974 36.8873 76.1964 37.5856 68.0564 40.5255C49.0498 47.3926 36.3218 65.6053 36.3849 85.8462C36.4019 91.3127 37.3483 96.7178 39.198 101.921L42.337 100.787C40.6785 96.1154 39.7655 91.0968 39.749 85.8756Z" fill="#FAFF01"/>
<path opacity="0.2" d="M42.6731 101.707L39.534 102.841C43.5822 113.594 50.3726 121.677 60.27 127.527L61.9354 124.632C53.1886 119.416 46.3302 111.337 42.6731 101.707Z" fill="#FAFF01"/>
<path opacity="0.5" d="M129.685 85.6438L133.055 85.6547C132.908 74.3647 128.902 63.483 121.746 54.964C114.591 46.4458 104.558 40.6155 93.4531 38.5107L92.8768 41.838C113.575 45.7753 129.373 63.9056 129.685 85.6438Z" fill="#FAFF01"/>
<path opacity="0.6" d="M264.798 154.529C246.475 154.529 229.224 147.368 216.221 134.366C203.181 121.326 196 103.998 196 85.5725C196 67.3103 203.074 50.179 215.919 37.3337C228.727 24.5253 245.781 17.4717 263.942 17.4717C282.265 17.4717 299.517 24.6329 312.52 37.6353C325.559 50.6747 332.741 68.0026 332.741 86.4287C332.741 104.691 325.667 121.822 312.822 134.667C300.014 147.476 282.958 154.529 264.798 154.529ZM263.942 18.2195C245.856 18.2195 228.878 25.2378 216.135 37.9806C203.429 50.6865 196.431 67.5884 196.431 85.5725C196.431 103.72 203.536 120.818 216.436 133.719C229.374 146.657 246.549 153.782 264.798 153.782C282.883 153.782 299.862 146.763 312.605 134.021C325.311 121.315 332.308 104.413 332.308 86.4287C332.308 68.2816 325.204 51.1831 312.303 38.2823C299.365 25.3446 282.191 18.2195 263.942 18.2195Z" fill="#846C5C"/>
<path opacity="0.3" d="M264.78 152.082C247.176 152.082 230.599 145.199 218.101 132.701C205.528 120.129 198.604 103.396 198.604 85.5897C198.604 67.9383 205.425 51.396 217.811 39.0095C230.123 26.6986 246.512 19.918 263.959 19.918C281.563 19.918 298.141 26.8002 310.639 39.2985C323.212 51.8708 330.135 68.6029 330.135 86.4106C330.135 104.062 323.314 120.604 310.928 132.99C298.617 145.302 282.228 152.082 264.78 152.082ZM263.959 21.4127C246.661 21.4127 230.425 28.1211 218.243 40.3043C206.135 52.4119 199.467 68.4945 199.467 85.5897C199.467 102.841 206.238 119.112 218.532 131.406C230.901 143.775 247.326 150.588 264.78 150.588C282.079 150.588 298.315 143.878 310.497 131.695C322.605 119.588 329.273 103.506 329.273 86.4106C329.273 69.1592 322.502 52.8874 310.208 40.5933C297.839 28.2244 281.414 21.4127 263.959 21.4127Z" fill="#FAFF01"/>
<path opacity="0.8" d="M239.52 111.056C225.71 97.2466 225.641 74.9261 239.364 61.2019C240.716 59.8509 242.152 58.6384 243.654 57.5545L242.331 55.6699C240.723 56.8277 239.184 58.1234 237.739 59.5685C223.144 74.1632 223.219 97.986 237.905 112.672C240.972 115.739 244.441 118.16 248.138 119.952L249.097 117.884C245.64 116.199 242.394 113.93 239.52 111.056Z" fill="#FAFF01"/>
<path opacity="0.6" d="M299.422 82.5061L301.699 82.3137C300.85 74.1484 297.339 66.1991 291.177 59.8789L289.552 61.5031C295.325 67.4317 298.618 74.8685 299.422 82.5061Z" fill="#FAFF01"/>
<path opacity="0.8" d="M288.832 60.784L290.455 59.1598C277.461 46.5221 257.596 45.0844 243.162 54.8848L244.484 56.7694C258.033 47.5782 276.622 48.9285 288.832 60.784Z" fill="#FAFF01"/>
<path opacity="0.4" d="M301.784 83.3271L299.509 83.5187C300.264 93.3863 296.895 103.487 289.375 111.007C284.976 115.406 279.692 118.38 274.089 119.947L274.686 122.151C280.673 120.489 286.318 117.323 291.009 112.632C299.012 104.629 302.594 93.8518 301.784 83.3271Z" fill="#FAFF01"/>
<path opacity="0.6" d="M250.017 118.111L249.058 120.178C256.836 123.692 265.554 124.44 273.706 122.412L273.109 120.208C265.47 122.107 257.308 121.405 250.017 118.111Z" fill="#FAFF01"/>
<path opacity="0.4" d="M263.71 42.6963C242.806 42.8828 225.474 57.9606 221.795 77.8428L225.763 78.5544C229.115 60.5602 244.8 46.9167 263.722 46.7252L263.71 42.6963ZM225.464 77.7495L222.377 77.1958C226.37 57.9009 243.394 43.8264 263.28 43.45L263.289 45.9849C244.893 46.3739 229.115 59.6343 225.464 77.7495Z" fill="#FAFF01"/>
<path opacity="0.6" d="M264.717 42.6982L264.73 46.7271C273.955 46.8674 282.434 50.1947 289.108 55.6612L291.687 52.5834C284.311 46.5271 274.927 42.8428 264.717 42.6982ZM289.067 54.8025C282.196 49.2553 273.945 46.2137 265.159 45.9885L265.151 43.4544C274.443 43.6813 283.507 46.9531 290.82 52.7103L289.067 54.8025Z" fill="#FAFF01"/>
<path opacity="0.8" d="M292.455 53.2412L289.877 56.3173C298.269 63.5524 303.616 74.2308 303.653 86.1174C303.675 93.0879 301.863 99.629 298.683 105.3L302.177 107.325C305.698 101.062 307.706 93.8331 307.682 86.13C307.641 73.0074 301.729 61.2191 292.455 53.2412ZM302.055 106.467L299.46 104.964C302.509 99.1929 304.105 92.698 304.084 86.1149C304.049 74.6904 299.188 63.8457 290.718 56.2215L292.49 54.1083C301.836 62.2601 307.212 73.9157 307.25 86.1359C307.272 93.224 305.477 100.246 302.055 106.467Z" fill="#FAFF01"/>
<path d="M277.428 123.118C273.415 124.512 269.108 125.278 264.619 125.278C264.578 125.278 264.537 125.278 264.496 125.278C242.836 125.21 225.161 107.534 225.093 85.8747C225.086 83.7204 225.261 81.6089 225.589 79.5496L221.62 78.8379C221.253 81.125 221.056 83.47 221.064 85.863C221.139 109.745 240.628 129.233 264.508 129.307C264.553 129.307 264.6 129.308 264.645 129.308C269.613 129.308 274.379 128.458 278.818 126.909L277.428 123.118ZM264.509 128.559C240.864 128.485 221.568 109.329 221.495 85.8571C221.488 83.8061 221.639 81.7199 221.942 79.6453L225.046 80.2016C224.784 82.0954 224.654 84.0002 224.66 85.8773C224.729 107.946 242.598 125.956 264.494 126.024H264.618C268.916 126.024 273.155 125.326 277.221 123.949L278.114 126.384C273.766 127.826 269.237 128.557 264.643 128.557L264.509 128.559Z" fill="#FAFF01"/>
<path opacity="0.6" d="M298.183 106.174C293.685 113.732 286.71 119.638 278.374 122.777L279.764 126.568C288.992 123.104 296.711 116.567 301.676 108.198L298.183 106.174ZM279.067 123.275C287.024 120.126 293.821 114.383 298.293 107.026L300.857 108.512C295.962 116.335 288.587 122.417 279.966 125.726L279.067 123.275Z" fill="#FAFF01"/>
<path opacity="0.5" d="M304.521 54.9744C305.157 55.7936 305.778 56.6212 306.358 57.469L316.267 50.1961C315.708 49.3903 315.115 48.6022 314.515 47.8191L304.521 54.9744ZM240.114 41.0662L233.853 30.4055C232.997 30.8726 232.162 31.3869 231.323 31.896L237.46 42.6282C238.337 42.0888 239.213 41.551 240.114 41.0662ZM271.064 35.6006L272.244 23.3241C271.269 23.1964 270.296 23.0645 269.318 22.9821L267.993 35.2544C269.02 35.3342 270.041 35.4603 271.064 35.6006ZM260.427 35.2309L259.028 22.9502C258.049 23.0258 257.078 23.1518 256.102 23.2745L257.361 35.5586C258.381 35.4233 259.402 35.3031 260.427 35.2309ZM300.174 34.1033L292.9 44.012C293.748 44.5918 294.575 45.2127 295.395 45.8488L302.55 35.8552C301.767 35.2544 300.979 34.662 300.174 34.1033ZM304.716 117.279L314.756 124.498C315.35 123.717 315.937 122.932 316.49 122.132L306.536 114.796C305.963 115.639 305.347 116.463 304.716 117.279ZM262.985 136.858L263.095 149.205C264.078 149.231 265.057 149.235 266.039 149.215L266.073 136.869C265.042 136.896 264.015 136.893 262.985 136.858ZM213.501 84.2964L201.155 84.3301C201.136 85.3131 201.14 86.292 201.165 87.2742L213.512 87.3851C213.477 86.355 213.474 85.3282 213.501 84.2964ZM314.44 77.0874L326.508 74.4835C326.324 73.5206 326.065 72.5703 325.837 71.6125L313.761 74.071C314.008 75.0733 314.255 76.074 314.44 77.0874ZM313.837 98.2399L325.927 100.773C326.15 99.8179 326.404 98.8693 326.582 97.9064L314.497 95.2277C314.318 96.2402 314.078 97.2392 313.837 98.2399ZM242.411 131.777L237.495 143.059C238.384 143.482 239.265 143.928 240.17 144.308L245.216 133.086C244.266 132.693 243.342 132.226 242.411 131.777ZM288.626 130.934L294.886 141.595C295.742 141.127 296.578 140.614 297.416 140.105L291.28 129.371C290.402 129.911 289.526 130.451 288.626 130.934ZM214.298 94.9143L202.23 97.5182C202.415 98.4819 202.673 99.4314 202.902 100.388L214.979 97.9307C214.731 96.9292 214.484 95.9276 214.298 94.9143ZM224.023 54.7232L213.983 47.5023C213.388 48.2837 212.801 49.0685 212.247 49.8692L222.201 57.2052C222.777 56.3608 223.391 55.5382 224.023 54.7232ZM212.471 121.805C213.031 122.611 213.624 123.399 214.224 124.182L224.219 117.025C223.582 116.206 222.962 115.378 222.382 114.53L212.471 121.805Z" fill="#FAFF01"/>
<path opacity="0.2" d="M281.407 38.1524L285.114 26.4103C284.186 26.0827 283.27 25.7121 282.33 25.4298L278.482 37.1459C279.468 37.4357 280.435 37.8012 281.407 38.1524ZM235.575 43.8315L228.24 33.8766C227.437 34.4311 226.652 35.0184 225.872 35.6125L233.091 45.6523C233.907 45.0221 234.731 44.4062 235.575 43.8315ZM286.329 40.2227L291.243 28.9411C290.353 28.5176 289.473 28.0723 288.569 27.6942L283.524 38.9145C284.474 39.3052 285.399 39.7724 286.329 40.2227ZM304.521 54.9737C305.157 55.7929 305.778 56.6205 306.358 57.4683L316.267 50.1953C315.708 49.3896 315.115 48.6014 314.515 47.8184L304.521 54.9737ZM301.029 50.9289C301.749 51.6792 302.443 52.4429 303.108 53.2252L312.194 44.9532C311.554 44.2104 310.892 43.4811 310.212 42.7619L301.029 50.9289ZM305.416 38.1743L297.144 47.2613C297.926 47.9259 298.689 48.6199 299.44 49.34L307.606 40.1564C306.887 39.4766 306.158 38.8145 305.416 38.1743ZM249.953 37.0568L246.029 25.3164C245.093 25.5928 244.177 25.9583 243.253 26.2801L247.032 38.0441C248.002 37.7004 248.968 37.3399 249.953 37.0568ZM319.774 55.8299C319.302 54.9712 318.782 54.1326 318.268 53.2916L307.571 59.3613C308.118 60.2393 308.662 61.1199 309.15 62.0231L319.774 55.8299ZM244.921 38.7927L239.805 27.5413C238.903 27.916 238.025 28.3563 237.138 28.7731L242.125 40.085C243.052 39.6396 243.974 39.1784 244.921 38.7927ZM276.299 36.6073L278.757 24.5316C277.8 24.3039 276.851 24.0451 275.886 23.8603L273.283 35.9275C274.296 36.1141 275.296 36.3603 276.299 36.6073ZM240.114 41.0655L233.853 30.4048C232.997 30.8719 232.162 31.3861 231.323 31.8953L237.46 42.6275C238.337 42.088 239.213 41.5503 240.114 41.0655ZM271.064 35.5999L272.244 23.3234C271.269 23.1957 270.296 23.0637 269.318 22.9814L267.993 35.2537C269.02 35.3335 270.041 35.4595 271.064 35.5999ZM260.427 35.2302L259.028 22.9495C258.049 23.0251 257.078 23.1511 256.102 23.2738L257.361 35.5578C258.381 35.4226 259.402 35.3024 260.427 35.2302ZM255.143 35.8704L252.465 23.7872C251.501 23.9645 250.552 24.2182 249.597 24.4409L252.13 36.5308C253.131 36.2914 254.131 36.0494 255.143 35.8704ZM300.174 34.1026L292.9 44.0113C293.748 44.5911 294.575 45.212 295.395 45.848L302.55 35.8544C301.767 35.2537 300.979 34.6613 300.174 34.1026ZM315.238 87.7028L327.584 87.6701C327.603 86.687 327.601 85.7073 327.574 84.7251L315.229 84.615C315.263 85.6451 315.267 86.6727 315.238 87.7028ZM310.284 108.245L321.596 113.232C322.014 112.345 322.454 111.468 322.828 110.565L311.576 105.449C311.19 106.395 310.729 107.317 310.284 108.245ZM307.74 112.909L318.473 119.046C318.982 118.208 319.496 117.372 319.963 116.517L309.303 110.255C308.819 111.157 308.279 112.033 307.74 112.909ZM304.716 117.278L314.756 124.497C315.35 123.716 315.937 122.932 316.49 122.131L306.536 114.795C305.963 115.639 305.347 116.463 304.716 117.278ZM262.985 136.857L263.095 149.205C264.078 149.231 265.057 149.235 266.039 149.215L266.073 136.868C265.042 136.895 264.015 136.893 262.985 136.857ZM213.501 84.2957L201.155 84.3293C201.136 85.3124 201.14 86.2913 201.165 87.2735L213.512 87.3844C213.477 86.3543 213.474 85.3275 213.501 84.2957ZM265.755 35.1411L265.644 22.794C264.662 22.768 263.682 22.7663 262.699 22.7848L262.666 35.1302C263.698 35.1033 264.724 35.1058 265.755 35.1411ZM314.44 77.0866L326.508 74.4828C326.324 73.5199 326.065 72.5696 325.837 71.6117L313.761 74.0702C314.008 75.0726 314.255 76.0733 314.44 77.0866ZM315.115 82.3758L327.388 81.0516C327.304 80.0728 327.173 79.1015 327.045 78.1251L314.769 79.3048C314.91 80.3282 315.035 81.3482 315.115 82.3758ZM311.456 66.846L322.674 61.7988C322.295 60.8956 321.85 60.0142 321.427 59.1252L310.145 64.0397C310.597 64.9706 311.065 65.8957 311.456 66.846ZM313.222 71.8873L324.939 68.0383C324.656 67.0989 324.285 66.1839 323.959 65.2563L312.215 68.9634C312.566 69.9347 312.933 70.9009 313.222 71.8873ZM313.837 98.2392L325.927 100.772C326.15 99.8172 326.404 98.8685 326.582 97.9056L314.497 95.227C314.318 96.2395 314.078 97.2385 313.837 98.2392ZM314.812 93.008L327.095 94.2666C327.218 93.292 327.344 92.3198 327.419 91.341L315.139 89.9412C315.065 90.9688 314.946 91.9888 314.812 93.008ZM312.324 103.337L324.09 107.117C324.41 106.192 324.776 105.278 325.053 104.341L313.312 100.416C313.027 101.403 312.668 102.367 312.324 103.337ZM294.539 30.5947L288.345 41.2176C289.248 41.7066 290.129 42.2502 291.008 42.798L297.078 32.1012C296.236 31.587 295.397 31.066 294.539 30.5947ZM229.299 122.659L221.132 131.843C221.85 132.523 222.58 133.185 223.323 133.825L231.597 124.736C230.815 124.072 230.051 123.378 229.299 122.659ZM268.311 136.769L269.711 149.05C270.69 148.973 271.662 148.847 272.636 148.726L271.379 136.441C270.358 136.577 269.338 136.696 268.311 136.769ZM247.332 133.846L243.625 145.59C244.552 145.916 245.469 146.288 246.408 146.57L250.259 134.851C249.272 134.562 248.305 134.196 247.332 133.846ZM257.676 136.398L256.495 148.678C257.472 148.805 258.443 148.937 259.422 149.019L260.746 136.745C259.719 136.665 258.698 136.54 257.676 136.398ZM233.345 126.151L226.188 136.147C226.971 136.747 227.76 137.34 228.565 137.899L235.839 127.988C234.992 127.408 234.164 126.787 233.345 126.151ZM237.731 129.202L231.661 139.899C232.502 140.413 233.34 140.933 234.199 141.405L240.394 130.781C239.492 130.292 238.611 129.748 237.731 129.202ZM242.411 131.776L237.495 143.058C238.384 143.482 239.265 143.927 240.17 144.307L245.216 133.085C244.266 132.693 243.342 132.225 242.411 131.776ZM252.44 135.39L249.983 147.467C250.939 147.696 251.889 147.956 252.853 148.14L255.456 136.071C254.443 135.886 253.442 135.639 252.44 135.39ZM297.386 124.943L305.717 134.082C306.454 133.448 307.18 132.79 307.895 132.115L299.671 122.881C298.924 123.595 298.164 124.284 297.386 124.943ZM293.164 128.168L300.5 138.122C301.301 137.568 302.086 136.981 302.867 136.386L295.647 126.347C294.831 126.978 294.009 127.592 293.164 128.168ZM273.598 136.127L276.276 148.212C277.238 148.035 278.186 147.781 279.141 147.558L276.61 135.467C275.608 135.707 274.609 135.949 273.598 136.127ZM301.25 121.3L310.485 129.524C311.16 128.81 311.817 128.085 312.452 127.346L303.313 119.015C302.654 119.793 301.964 120.554 301.25 121.3ZM288.626 130.933L294.886 141.595C295.742 141.127 296.578 140.613 297.416 140.104L291.28 129.37C290.402 129.911 289.526 130.45 288.626 130.933ZM278.787 134.942L282.711 146.685C283.647 146.408 284.561 146.042 285.487 145.721L281.708 133.955C280.737 134.298 279.772 134.658 278.787 134.942ZM283.819 133.207L288.934 144.459C289.836 144.085 290.715 143.644 291.601 143.227L286.613 131.914C285.686 132.36 284.766 132.82 283.819 133.207ZM214.298 94.9136L202.23 97.5175C202.415 98.4812 202.673 99.4306 202.902 100.387L214.979 97.93C214.731 96.9285 214.484 95.9269 214.298 94.9136ZM216.415 68.6617L204.65 64.8833C204.328 65.8075 203.963 66.7225 203.686 67.6593L215.428 71.5815C215.711 70.5976 216.072 69.6313 216.415 68.6617ZM214.903 73.7593L202.812 71.2278C202.589 72.1831 202.335 73.1317 202.157 74.0938L214.241 76.7732C214.421 75.7608 214.661 74.7617 214.903 73.7593ZM218.454 63.7557L207.142 58.7681C206.726 59.6546 206.285 60.5343 205.91 61.435L217.163 66.5503C217.549 65.6033 218.009 64.6824 218.454 63.7557ZM224.023 54.7225L213.983 47.5016C213.388 48.283 212.801 49.0678 212.247 49.8685L222.201 57.2045C222.777 56.36 223.391 55.5375 224.023 54.7225ZM220.998 59.0899L210.266 52.9529C209.756 53.7915 209.243 54.6267 208.774 55.4829L219.436 61.7433C219.92 60.8435 220.459 59.9663 220.998 59.0899ZM216.544 127.046C217.185 127.789 217.847 128.518 218.526 129.238L227.711 121.07C226.992 120.318 226.298 119.555 225.634 118.773L216.544 127.046ZM213.928 78.9906L201.643 77.7328C201.522 78.7066 201.396 79.6787 201.319 80.6584L213.601 82.0591C213.674 81.0323 213.793 80.0114 213.928 78.9906ZM227.488 50.6978L218.255 42.4745C217.579 43.1887 216.922 43.9147 216.288 44.6524L225.427 52.9832C226.086 52.2051 226.774 51.4447 227.488 50.6978ZM213.625 89.6227L201.351 90.9469C201.434 91.9266 201.567 92.8988 201.694 93.8743L213.971 92.6937C213.83 91.6712 213.705 90.6503 213.625 89.6227ZM208.965 116.17C209.436 117.028 209.956 117.867 210.471 118.709L221.168 112.639C220.621 111.759 220.077 110.878 219.589 109.975L208.965 116.17ZM212.471 121.804C213.031 122.61 213.624 123.398 214.224 124.181L224.219 117.024C223.582 116.205 222.962 115.377 222.382 114.529L212.471 121.804ZM217.285 105.153L206.064 110.201C206.443 111.104 206.888 111.985 207.311 112.874L218.594 107.959C218.144 107.027 217.677 106.103 217.285 105.153ZM215.518 100.11L203.8 103.96C204.083 104.9 204.454 105.816 204.781 106.745L216.524 103.037C216.173 102.064 215.807 101.097 215.518 100.11ZM231.354 47.0554L223.023 37.9163C222.284 38.5524 221.56 39.2086 220.845 39.8833L229.07 49.1182C229.816 48.4057 230.576 47.715 231.354 47.0554Z" fill="#FAFF01"/>
<path opacity="0.3" d="M235.574 43.8316L228.239 33.8766C227.437 34.4312 226.652 35.0185 225.872 35.6125L233.091 45.6523C233.906 45.0222 234.73 44.4063 235.574 43.8316ZM286.328 40.2228L291.243 28.9412C290.353 28.5177 289.472 28.0724 288.569 27.6943L283.523 38.9146C284.474 39.3053 285.398 39.7725 286.328 40.2228ZM305.415 38.1744L297.143 47.2614C297.925 47.926 298.689 48.62 299.439 49.3401L307.606 40.1564C306.887 39.4767 306.157 38.8146 305.415 38.1744ZM244.92 38.7928L239.804 27.5414C238.903 27.9161 238.025 28.3564 237.137 28.7731L242.125 40.085C243.052 39.6397 243.973 39.1784 244.92 38.7928ZM276.298 36.6074L278.757 24.5317C277.799 24.304 276.85 24.0452 275.886 23.8604L273.282 35.9276C274.296 36.1141 275.296 36.3603 276.298 36.6074ZM307.74 112.91L318.472 119.047C318.982 118.208 319.496 117.372 319.963 116.517L309.302 110.255C308.818 111.157 308.279 112.033 307.74 112.91ZM315.114 82.3759L327.388 81.0517C327.304 80.0728 327.173 79.1015 327.044 78.1252L314.768 79.3049C314.909 80.3283 315.034 81.3483 315.114 82.3759ZM311.455 66.8461L322.674 61.7989C322.295 60.8956 321.85 60.0142 321.426 59.1253L310.145 64.0397C310.596 64.9707 311.064 65.8958 311.455 66.8461ZM313.222 71.8874L324.939 68.0384C324.655 67.099 324.284 66.184 323.958 65.2564L312.214 68.9634C312.566 69.9347 312.933 70.901 313.222 71.8874ZM312.324 103.337L324.089 107.117C324.41 106.192 324.776 105.278 325.052 104.341L313.311 100.416C313.027 101.403 312.667 102.367 312.324 103.337ZM257.676 136.398L256.495 148.678C257.471 148.805 258.443 148.937 259.422 149.019L260.745 136.745C259.719 136.665 258.698 136.54 257.676 136.398ZM233.344 126.151L226.188 136.147C226.971 136.747 227.76 137.34 228.565 137.899L235.839 127.988C234.991 127.408 234.164 126.787 233.344 126.151ZM252.439 135.391L249.982 147.467C250.939 147.696 251.889 147.956 252.853 148.14L255.455 136.071C254.442 135.886 253.441 135.639 252.439 135.391ZM293.164 128.168L300.5 138.122C301.301 137.568 302.086 136.981 302.867 136.386L295.646 126.347C294.831 126.978 294.008 127.592 293.164 128.168ZM278.787 134.942L282.71 146.685C283.646 146.408 284.561 146.042 285.486 145.721L281.707 133.955C280.737 134.298 279.772 134.658 278.787 134.942ZM214.297 94.9137L202.23 97.5175C202.414 98.4813 202.673 99.4307 202.902 100.387L214.978 97.9301C214.731 96.9285 214.483 95.927 214.297 94.9137ZM214.902 73.7594L202.811 71.2278C202.588 72.1832 202.334 73.1318 202.157 74.0938L214.241 76.7733C214.42 75.7608 214.661 74.7618 214.902 73.7594ZM224.022 54.7225L213.983 47.5017C213.388 48.2831 212.8 49.0678 212.247 49.8686L222.201 57.2045C222.776 56.3601 223.391 55.5375 224.022 54.7225ZM217.285 105.153L206.064 110.201C206.442 111.104 206.887 111.985 207.311 112.874L218.593 107.959C218.144 107.027 217.677 106.103 217.285 105.153Z" fill="#FAFF01"/>
<path opacity="0.2" d="M282.014 8.1056C281.175 7.91066 280.347 7.65104 279.503 7.48467L277.635 16.1457C278.514 16.3171 279.39 16.5086 280.263 16.7137L282.014 8.1056ZM278.233 15.5121L279.789 8.29716C280.168 8.38203 280.547 8.48285 280.917 8.58116C281.089 8.62653 281.261 8.6719 281.433 8.71644L279.973 15.8911C279.362 15.7508 278.787 15.6256 278.233 15.5121ZM290.072 10.428C289.257 10.1473 288.453 9.82133 287.631 9.56758L284.875 17.9564C285.731 18.2185 286.584 18.4958 287.431 18.7907L290.072 10.428ZM285.551 17.4077L287.854 10.3994C288.254 10.5313 288.655 10.6792 289.045 10.822C289.168 10.8674 289.29 10.9119 289.413 10.9573L287.204 17.9513C286.666 17.7665 286.112 17.5841 285.551 17.4077ZM307.11 29.3456L312.21 22.2255C311.52 21.7037 310.828 21.1845 310.125 20.6887L304.938 27.755C305.67 28.2684 306.393 28.8011 307.11 29.3456ZM310.194 21.5449C310.595 21.8315 310.995 22.1264 311.384 22.4179L307.043 28.4784C306.607 28.1499 306.191 27.8424 305.786 27.55L310.194 21.5449ZM273.765 6.62848C272.909 6.52262 272.058 6.38734 271.199 6.30836L270.251 15.1038C271.143 15.1828 272.034 15.276 272.923 15.3886L273.765 6.62848ZM270.766 14.4031L271.554 7.09313C271.988 7.14018 272.424 7.19984 272.848 7.25697C272.986 7.27546 273.124 7.29478 273.262 7.31327L272.562 14.5955C271.982 14.5257 271.388 14.4627 270.766 14.4031ZM305.255 17.5245C304.515 17.0792 303.779 16.6238 303.026 16.2045L298.604 23.7908C299.386 24.2252 300.161 24.6781 300.931 25.1444L305.255 17.5245ZM299.41 23.459L303.143 17.0556C303.589 17.3102 304.035 17.5774 304.471 17.8412L300.815 24.2824C300.333 23.9925 299.867 23.7203 299.41 23.459ZM297.847 13.5788C297.065 13.2141 296.293 12.8234 295.501 12.4848L291.89 20.514C292.714 20.8644 293.534 21.2282 294.347 21.6105L297.847 13.5788ZM292.639 20.0653L295.669 13.3284C296.098 13.5191 296.527 13.725 296.944 13.925C297.002 13.9527 297.061 13.9813 297.119 14.009L294.179 20.7576C293.681 20.5266 293.171 20.2972 292.639 20.0653ZM258.045 15.066L257.041 6.26383C256.182 6.33693 255.333 6.46716 254.478 6.56883L255.375 15.334C256.263 15.2273 257.153 15.1399 258.045 15.066ZM255.366 7.20656C255.8 7.15026 256.246 7.09229 256.69 7.04608L257.524 14.3619C256.903 14.4165 256.311 14.477 255.732 14.5434L254.986 7.25529C255.113 7.23933 255.239 7.22336 255.366 7.20656ZM229.747 23.5741L225.275 15.96C224.526 16.3751 223.794 16.8263 223.056 17.2674L227.427 24.9134C228.194 24.4521 228.966 24.0034 229.747 23.5741ZM225.159 16.8103L228.936 23.2422C228.483 23.4985 228.022 23.7673 227.542 24.053L223.845 17.5841C224.276 17.3253 224.718 17.0607 225.159 16.8103ZM236.439 20.3401L232.777 12.2874C231.988 12.6209 231.217 13.0066 230.438 13.3671L233.988 21.4223C234.799 21.0442 235.617 20.6854 236.439 20.3401ZM231.301 13.7351C231.73 13.5317 232.171 13.3225 232.612 13.1293L235.686 19.8914C235.156 20.1191 234.65 20.3443 234.157 20.5711L231.171 13.7973C231.214 13.7762 231.258 13.7552 231.301 13.7351ZM223.436 27.4996L218.205 20.4006C217.504 20.8921 216.815 21.4071 216.128 21.9239L221.273 29.0758C221.987 28.5364 222.707 28.0088 223.436 27.4996ZM218.136 21.2559L222.585 27.2946C222.185 27.5819 221.772 27.8861 221.34 28.2104L216.957 22.1171C217.341 21.8306 217.736 21.5407 218.136 21.2559ZM243.439 17.8261L240.629 9.41886C239.808 9.66841 239.008 9.98937 238.194 10.2641L240.887 18.6445C241.733 18.3555 242.584 18.0832 243.439 17.8261ZM239.243 10.6565C239.625 10.5187 240.016 10.3767 240.408 10.249L242.756 17.2758C242.2 17.448 241.65 17.6261 241.111 17.8068L238.858 10.7951C238.986 10.7489 239.115 10.7027 239.243 10.6565ZM312.822 34.1659L318.641 27.6223C318.007 27.0324 317.367 26.4501 316.719 25.8847L310.823 32.3603C311.498 32.9476 312.164 33.55 312.822 34.1659ZM316.743 26.7442C317.08 27.0408 317.427 27.3525 317.793 27.6861L312.802 33.2988C312.434 32.9568 312.064 32.6199 311.694 32.2905L316.743 26.7442ZM250.666 16.0608L248.743 7.38805C247.901 7.55021 247.075 7.80312 246.237 7.99217L248.042 16.612C248.915 16.4129 249.788 16.2263 250.666 16.0608ZM247.333 8.47613C247.703 8.38035 248.082 8.28204 248.461 8.19886L250.063 15.4256C249.512 15.5348 248.939 15.6567 248.33 15.7936L246.825 8.60637C246.994 8.56351 247.163 8.51982 247.333 8.47613ZM265.49 14.84L265.411 6.01428C264.892 6.0042 264.375 6 263.857 6C263.514 6 263.171 6.00168 262.828 6.00672L262.804 14.8324C263.178 14.8265 263.553 14.824 263.927 14.824C264.448 14.8232 264.969 14.829 265.49 14.84ZM263.259 6.74948C263.458 6.7478 263.658 6.74696 263.858 6.74696C264.234 6.74696 264.61 6.74948 264.986 6.75452L265.051 14.0838C264.677 14.0779 264.302 14.0754 263.928 14.0754C263.698 14.0754 263.468 14.0762 263.238 14.0787L263.259 6.74948ZM217.58 32.0687L211.643 25.5545C210.998 26.1174 210.363 26.6947 209.732 27.282L215.593 33.8617C216.246 33.2492 216.908 32.651 217.58 32.0687ZM211.619 26.4132L216.708 31.9973C216.343 32.3225 215.977 32.6552 215.613 32.9938L210.581 27.345C210.94 27.0173 211.284 26.7081 211.619 26.4132ZM328.948 116.382L337.002 119.931C337.363 119.153 337.748 118.382 338.082 117.592L330.029 113.931C329.684 114.752 329.325 115.571 328.948 116.382ZM337.342 118.028C337.236 118.257 337.128 118.485 337.022 118.709C336.961 118.836 336.901 118.962 336.842 119.089L329.699 115.94C329.866 115.567 330.034 115.182 330.204 114.783L337.342 118.028ZM331.724 109.483L340.104 112.176C340.38 111.362 340.7 110.561 340.949 109.74L332.542 106.932C332.286 107.786 332.013 108.637 331.724 109.483ZM340.274 110.276C340.209 110.462 340.14 110.65 340.071 110.843C340.01 111.011 339.949 111.179 339.889 111.347L332.404 108.941C332.53 108.556 332.654 108.165 332.775 107.771L340.274 110.276ZM333.757 102.327L342.377 104.133C342.566 103.295 342.819 102.468 342.981 101.626L334.308 99.704C334.143 100.581 333.956 101.455 333.757 102.327ZM334.604 100.523L342.379 102.247C342.334 102.426 342.287 102.608 342.239 102.794C342.194 102.967 342.148 103.144 342.103 103.323L334.359 101.701C334.447 101.295 334.529 100.904 334.604 100.523ZM325.456 122.943L333.102 127.314C333.544 126.577 333.995 125.843 334.409 125.094L326.795 120.623C326.365 121.404 325.917 122.177 325.456 122.943ZM333.616 125.418C333.432 125.732 333.244 126.043 333.059 126.349L332.99 126.463L326.266 122.619C326.492 122.234 326.707 121.857 326.916 121.483L333.616 125.418ZM335.035 94.9954L343.8 95.8928C343.902 95.0374 344.032 94.1871 344.105 93.3301L335.303 92.326C335.229 93.2167 335.141 94.1073 335.035 94.9954ZM335.671 93.1167L343.595 94.0208C343.562 94.2997 343.525 94.582 343.487 94.8727C343.477 94.9517 343.467 95.0299 343.457 95.1088L335.554 94.2997C335.595 93.9132 335.634 93.5208 335.671 93.1167ZM316.508 134.778L323.088 140.64C323.675 140.009 324.252 139.373 324.815 138.728L318.301 132.791C317.718 133.462 317.12 134.124 316.508 134.778ZM323.964 138.796C323.678 139.115 323.381 139.441 323.067 139.78L317.38 134.714C317.702 134.361 318.018 134.009 318.325 133.657L323.964 138.796ZM321.293 129.097L328.446 134.243C328.963 133.555 329.478 132.867 329.969 132.166L322.87 126.935C322.36 127.663 321.833 128.383 321.293 129.097ZM329.138 132.365C328.895 132.698 328.644 133.035 328.381 133.386L322.145 128.9C322.424 128.521 322.689 128.156 322.942 127.798L329.138 132.365ZM318.008 39.5467L324.484 33.6508C323.919 33.0022 323.336 32.3619 322.747 31.7284L316.203 37.5478C316.819 38.2048 317.421 38.8711 318.008 39.5467ZM323.633 33.5811L318.033 38.6796C317.722 38.325 317.402 37.9679 317.077 37.6117L322.727 32.5871C323.047 32.9325 323.348 33.2627 323.633 33.5811ZM335.537 87.5662L344.364 87.5418C344.375 86.6797 344.371 85.821 344.354 84.9581L335.528 84.88C335.548 85.7748 335.551 86.6705 335.537 87.5662ZM343.934 85.7026C343.938 86.0723 343.939 86.4352 343.938 86.7957L335.977 86.8175C335.979 86.4218 335.977 86.026 335.973 85.632L343.934 85.7026ZM326.579 51.766L334.166 47.3423C333.747 46.5919 333.292 45.8567 332.845 45.114L325.226 49.4386C325.692 50.2082 326.144 50.9829 326.579 51.766ZM332.733 45.9635L332.833 46.129C333.01 46.4214 333.19 46.7188 333.368 47.0179L326.699 50.9065C326.487 50.5301 326.268 50.1511 326.039 49.7621L332.733 45.9635ZM322.615 45.4316L329.681 40.2449C329.185 39.5416 328.666 38.8493 328.144 38.1595L321.024 43.2588C321.568 43.9763 322.101 44.6989 322.615 45.4316ZM328.847 40.0449L322.686 44.567C322.43 44.2065 322.163 43.8377 321.879 43.4554L328.08 39.0148C328.332 39.3501 328.591 39.6954 328.847 40.0449ZM329.855 58.4802L337.886 54.8698C337.547 54.0783 337.157 53.3053 336.791 52.5231L328.759 56.0234C329.141 56.8359 329.505 57.6551 329.855 58.4802ZM336.813 53.7456C336.922 53.9716 337.032 54.201 337.14 54.432L330.028 57.6299C329.855 57.2283 329.684 56.8418 329.514 56.4637L336.63 53.3624C336.691 53.4902 336.752 53.6179 336.813 53.7456ZM335.265 80.1184L344.06 79.1698C343.983 78.312 343.846 77.4608 343.741 76.6046L334.98 77.4465C335.092 78.3355 335.185 79.227 335.265 80.1184ZM343.4 77.386L343.437 77.66C343.475 77.9381 343.512 78.2095 343.545 78.4767L335.629 79.3303C335.59 78.9245 335.548 78.5313 335.504 78.1448L343.4 77.386ZM332.413 65.4952L340.801 62.7385C340.547 61.9167 340.223 61.1135 339.941 60.2985L331.578 62.9393C331.873 63.7862 332.151 64.639 332.413 65.4952ZM339.914 61.6336C339.985 61.826 340.053 62.015 340.121 62.2007L332.643 64.6584C332.519 64.2618 332.392 63.8686 332.264 63.4812L339.728 61.1244C339.79 61.295 339.852 61.4639 339.914 61.6336ZM334.224 72.7337L342.885 70.8659C342.719 70.0215 342.458 69.1939 342.265 68.3537L333.656 70.1064C333.861 70.9794 334.052 71.8549 334.224 72.7337ZM341.993 69.162C342.041 69.3468 342.089 69.53 342.137 69.7106C342.185 69.8921 342.232 70.0694 342.277 70.2442L334.517 71.9179C334.438 71.5348 334.355 71.1424 334.264 70.7357L341.993 69.162ZM246.724 163.895C247.564 164.089 248.392 164.35 249.237 164.518L251.104 155.856C250.225 155.685 249.349 155.492 248.476 155.288L246.724 163.895ZM250.507 156.488L248.952 163.704C248.574 163.618 248.196 163.518 247.828 163.42C247.654 163.373 247.481 163.327 247.307 163.283L248.767 156.108C249.377 156.249 249.953 156.375 250.507 156.488ZM263.251 157.16L263.33 165.986C263.847 165.995 264.364 166 264.881 166C265.225 166 265.568 165.997 265.913 165.993L265.935 157.168C265.563 157.173 265.19 157.176 264.817 157.176C264.295 157.177 263.772 157.172 263.251 157.16ZM265.483 165.251C265.282 165.253 265.082 165.254 264.881 165.254C264.506 165.254 264.13 165.251 263.755 165.246L263.689 157.916C264.065 157.922 264.441 157.925 264.817 157.925C265.046 157.925 265.274 157.924 265.502 157.921L265.483 165.251ZM254.975 165.371C255.83 165.477 256.682 165.614 257.539 165.692L258.489 156.896C257.596 156.817 256.706 156.724 255.816 156.611L254.975 165.371ZM257.974 157.597L257.185 164.908C256.744 164.86 256.301 164.799 255.87 164.741C255.739 164.723 255.609 164.705 255.478 164.688L256.178 157.405C256.759 157.475 257.352 157.538 257.974 157.597ZM238.667 161.573C239.483 161.854 240.286 162.179 241.11 162.432L243.866 154.044C243.009 153.782 242.156 153.504 241.308 153.209L238.667 161.573ZM243.189 154.593L240.886 161.601C240.483 161.469 240.079 161.32 239.686 161.175C239.566 161.132 239.446 161.087 239.326 161.044L241.534 154.05C242.073 154.234 242.626 154.416 243.189 154.593ZM221.628 142.655L216.529 149.775C217.219 150.297 217.911 150.816 218.614 151.312L223.802 144.246C223.069 143.732 222.346 143.2 221.628 142.655ZM218.546 150.455C218.141 150.166 217.737 149.869 217.355 149.582L221.696 143.522C222.132 143.85 222.549 144.158 222.954 144.45L218.546 150.455ZM223.486 154.476C224.226 154.923 224.962 155.378 225.712 155.796L230.136 148.21C229.353 147.776 228.578 147.324 227.809 146.856L223.486 154.476ZM229.329 148.542L225.596 154.944C225.151 154.691 224.705 154.423 224.27 154.16L227.925 147.718C228.406 148.007 228.871 148.281 229.329 148.542ZM230.892 158.422C231.675 158.788 232.447 159.179 233.239 159.518L236.85 151.488C236.026 151.137 235.206 150.773 234.392 150.39L230.892 158.422ZM236.101 151.936L233.071 158.673C232.638 158.481 232.205 158.273 231.785 158.072C231.73 158.046 231.674 158.019 231.619 157.993L234.561 151.243C235.057 151.473 235.567 151.702 236.101 151.936ZM292.3 151.661L295.961 159.713C296.751 159.381 297.521 158.994 298.302 158.633L294.751 150.579C293.94 150.957 293.122 151.315 292.3 151.661ZM297.441 158.263C297.012 158.467 296.57 158.677 296.127 158.872L293.053 152.11C293.584 151.882 294.091 151.657 294.582 151.431L297.568 158.204C297.526 158.223 297.484 158.243 297.441 158.263ZM298.994 148.426L303.464 156.04C304.214 155.625 304.947 155.175 305.684 154.733L301.313 147.087C300.546 147.548 299.773 147.996 298.994 148.426ZM303.58 155.19L299.804 148.758C300.256 148.502 300.717 148.233 301.197 147.947L304.895 154.416C304.463 154.676 304.022 154.939 303.58 155.19ZM305.303 144.501L310.535 151.601C311.236 151.108 311.923 150.594 312.611 150.078L307.467 142.923C306.753 143.464 306.033 143.991 305.303 144.501ZM310.604 150.745L306.154 144.706C306.555 144.417 306.968 144.114 307.4 143.79L311.782 149.884C311.381 150.182 310.994 150.467 310.604 150.745ZM311.16 139.931L317.098 146.446C317.741 145.883 318.377 145.306 319.008 144.719L313.147 138.139C312.494 138.751 311.831 139.349 311.16 139.931ZM317.121 145.587L312.031 140.003C312.397 139.677 312.763 139.344 313.127 139.007L318.158 144.656C317.8 144.983 317.457 145.291 317.121 145.587ZM215.917 137.834L210.098 144.378C210.732 144.968 211.372 145.55 212.02 146.115L217.916 139.64C217.241 139.052 216.575 138.451 215.917 137.834ZM211.996 145.257C211.659 144.96 211.311 144.647 210.947 144.314L215.937 138.702C216.306 139.044 216.676 139.382 217.045 139.711L211.996 145.257ZM278.072 155.94L279.995 164.613C280.839 164.451 281.665 164.197 282.502 164.007L280.697 155.388C279.825 155.587 278.95 155.774 278.072 155.94ZM281.408 163.524C281.037 163.62 280.657 163.718 280.278 163.801L278.676 156.574C279.226 156.465 279.799 156.343 280.41 156.206L281.915 163.393C281.746 163.436 281.577 163.48 281.408 163.524ZM212.232 37.2218L205.652 31.3612C205.064 31.9922 204.488 32.6266 203.925 33.2719L210.439 39.2098C211.021 38.5384 211.619 37.8763 212.232 37.2218ZM204.776 33.203C205.06 32.8854 205.358 32.5594 205.672 32.2199L211.359 37.2848C211.037 37.6377 210.721 37.9906 210.414 38.3418L204.776 33.203ZM270.696 156.934L271.699 165.736C272.557 165.663 273.408 165.532 274.262 165.431L273.365 156.666C272.477 156.773 271.587 156.861 270.696 156.934ZM273.342 164.798C272.918 164.853 272.483 164.909 272.049 164.954L271.216 157.638C271.83 157.583 272.43 157.523 273.008 157.457L273.753 164.745C273.616 164.762 273.479 164.78 273.342 164.798ZM285.301 154.174L288.111 162.58C288.931 162.332 289.733 162.011 290.547 161.735L287.854 153.356C287.007 153.645 286.156 153.917 285.301 154.174ZM289.521 161.335C289.132 161.476 288.732 161.622 288.332 161.751L285.984 154.724C286.542 154.551 287.093 154.373 287.629 154.192L289.882 161.204C289.762 161.248 289.642 161.291 289.521 161.335ZM194.982 69.672L186.363 67.8663C186.174 68.704 185.921 69.5308 185.758 70.3736L194.43 72.296C194.596 71.4188 194.783 70.5441 194.982 69.672ZM194.135 71.4776L186.361 69.7543C186.405 69.5762 186.452 69.3955 186.5 69.2107C186.545 69.0351 186.591 68.857 186.636 68.6763L194.38 70.2988C194.292 70.7055 194.21 71.097 194.135 71.4776ZM197.015 62.5167L188.636 59.8229C188.36 60.6388 188.039 61.4386 187.79 62.2587L196.197 65.0676C196.453 64.2139 196.725 63.3628 197.015 62.5167ZM188.466 61.7235C188.531 61.5412 188.598 61.3563 188.666 61.1673C188.728 60.9958 188.79 60.8244 188.851 60.6522L196.335 63.0578C196.21 63.4434 196.086 63.8341 195.964 64.229L188.466 61.7235ZM193.705 77.0046L184.94 76.1072C184.839 76.9626 184.708 77.8129 184.634 78.6707L193.436 79.6748C193.51 78.7833 193.597 77.8927 193.705 77.0046ZM193.069 78.8833L185.145 77.9801C185.178 77.7045 185.214 77.4264 185.252 77.139C185.263 77.0558 185.274 76.9735 185.284 76.8903L193.186 77.6995C193.144 78.0851 193.106 78.4783 193.069 78.8833ZM203.283 49.0571L195.638 44.6855C195.197 45.424 194.746 46.1559 194.33 46.9045L201.945 51.3753C202.374 50.5956 202.822 49.8234 203.283 49.0571ZM195.124 46.5819C195.29 46.3004 195.459 46.0197 195.625 45.7442L195.75 45.5366L202.473 49.3806C202.247 49.7671 202.031 50.1436 201.824 50.5158L195.124 46.5819ZM207.447 42.9025L200.293 37.7578C199.777 38.446 199.263 39.1333 198.771 39.8349L205.87 45.0661C206.379 44.3368 206.907 43.6167 207.447 42.9025ZM199.602 39.6349C199.845 39.3013 200.096 38.9644 200.358 38.614L206.595 43.0983C206.315 43.4772 206.051 43.8427 205.798 44.2007L199.602 39.6349ZM193.202 84.4347L184.377 84.4582C184.365 85.3194 184.368 86.179 184.385 87.0402L193.21 87.1183C193.191 86.2243 193.188 85.3295 193.202 84.4347ZM184.806 86.2974C184.802 85.9336 184.801 85.5681 184.802 85.2051L192.762 85.1833C192.76 85.5782 192.762 85.974 192.766 86.368L184.806 86.2974ZM199.791 55.6184L191.737 52.0677C191.376 52.8474 190.99 53.6179 190.657 54.4077L198.71 58.0694C199.055 57.2476 199.414 56.4301 199.791 55.6184ZM191.397 53.9716C191.503 53.7422 191.612 53.5137 191.719 53.2885C191.779 53.1625 191.839 53.0364 191.899 52.9104L199.041 56.0587C198.873 56.4343 198.705 56.8191 198.535 57.2174L191.397 53.9716ZM210.731 132.454L204.255 138.35C204.82 138.999 205.402 139.639 205.992 140.272L212.536 134.453C211.92 133.795 211.318 133.129 210.731 132.454ZM205.106 138.42L210.705 133.321C211.016 133.676 211.337 134.033 211.662 134.39L206.012 139.415C205.692 139.068 205.391 138.737 205.106 138.42ZM202.16 120.234L194.574 124.657C194.995 125.408 195.449 126.145 195.895 126.885L203.513 122.561C203.047 121.792 202.595 121.017 202.16 120.234ZM196.006 126.036L195.949 125.94C195.758 125.625 195.563 125.304 195.372 124.981L202.04 121.093C202.251 121.468 202.47 121.848 202.699 122.237L196.006 126.036ZM198.884 113.521L190.855 117.133C191.192 117.923 191.584 118.696 191.949 119.479L199.98 115.978C199.598 115.165 199.234 114.345 198.884 113.521ZM191.905 118.212C191.804 118 191.701 117.786 191.599 117.57L198.71 114.37C198.883 114.773 199.054 115.159 199.224 115.536L192.109 118.638C192.041 118.496 191.973 118.354 191.905 118.212ZM206.124 126.568L199.058 131.755C199.554 132.459 200.073 133.151 200.595 133.841L207.715 128.74C207.171 128.025 206.638 127.301 206.124 126.568ZM199.892 131.955L206.052 127.433C206.308 127.792 206.575 128.161 206.86 128.545L200.659 132.986C200.406 132.65 200.148 132.305 199.892 131.955ZM196.326 106.505L187.938 109.261C188.192 110.084 188.517 110.887 188.798 111.702L197.161 109.063C196.866 108.215 196.588 107.361 196.326 106.505ZM188.833 110.388C188.76 110.188 188.687 109.992 188.618 109.798L196.096 107.341C196.22 107.737 196.347 108.131 196.476 108.519L189.012 110.874C188.953 110.712 188.893 110.55 188.833 110.388ZM194.515 99.2663L185.854 101.134C186.022 101.977 186.281 102.806 186.476 103.645L195.083 101.894C194.878 101.021 194.687 100.145 194.515 99.2663ZM186.746 102.838C186.699 102.655 186.651 102.474 186.604 102.296C186.555 102.112 186.508 101.933 186.462 101.756L194.221 100.082C194.3 100.465 194.384 100.858 194.475 101.265L186.746 102.838ZM193.475 91.8815L184.679 92.831C184.757 93.6889 184.894 94.5392 185 95.3954L193.76 94.5543C193.647 93.6645 193.553 92.773 193.475 91.8815ZM185.34 94.6139C185.328 94.5207 185.315 94.4274 185.302 94.3342C185.264 94.0577 185.228 93.7897 185.195 93.5242L193.11 92.6697C193.15 93.0738 193.191 93.4679 193.235 93.8561L185.34 94.6139Z" fill="#64595E"/>
<path opacity="0.2" d="M273.765 6.62872C272.909 6.52285 272.058 6.38757 271.199 6.30859L270.251 15.104C271.143 15.183 272.034 15.2763 272.923 15.3889L273.765 6.62872ZM270.766 14.4033L271.554 7.09336C271.988 7.14041 272.424 7.20007 272.848 7.2572C272.986 7.27569 273.124 7.29501 273.262 7.3135L272.562 14.5957C271.982 14.526 271.388 14.4629 270.766 14.4033ZM305.255 17.5247C304.515 17.0794 303.779 16.624 303.026 16.2047L298.604 23.7911C299.386 24.2255 300.161 24.6784 300.931 25.1447L305.255 17.5247ZM299.41 23.4592L303.143 17.0559C303.589 17.3104 304.035 17.5776 304.47 17.8415L300.815 24.2826C300.333 23.9927 299.867 23.7205 299.41 23.4592ZM297.847 13.579C297.064 13.2144 296.293 12.8237 295.501 12.4851L291.889 20.5142C292.714 20.8646 293.533 21.2284 294.347 21.6107L297.847 13.579ZM292.638 20.0655L295.669 13.3286C296.098 13.5194 296.527 13.7252 296.944 13.9252C297.002 13.9529 297.061 13.9815 297.119 14.0092L294.179 20.7579C293.681 20.5268 293.171 20.2974 292.638 20.0655ZM229.746 23.5743L225.275 15.9602C224.526 16.3753 223.794 16.8265 223.056 17.2676L227.427 24.9136C228.194 24.4523 228.966 24.0037 229.746 23.5743ZM225.159 16.8105L228.936 23.2424C228.483 23.4987 228.022 23.7676 227.542 24.0532L223.845 17.5844C224.276 17.3256 224.717 17.0609 225.159 16.8105ZM250.666 16.061L248.743 7.38828C247.901 7.55044 247.075 7.80335 246.237 7.9924L248.042 16.6122C248.915 16.4131 249.788 16.2266 250.666 16.061ZM247.333 8.47636C247.703 8.38058 248.082 8.28227 248.461 8.19909L250.063 15.4258C249.512 15.5351 248.939 15.6569 248.33 15.7939L246.825 8.6066C246.994 8.56375 247.163 8.52006 247.333 8.47636ZM217.58 32.0689L211.643 25.5547C210.998 26.1176 210.363 26.6949 209.732 27.2822L215.593 33.862C216.246 33.2494 216.908 32.6512 217.58 32.0689ZM211.619 26.4134L216.708 31.9975C216.343 32.3227 215.977 32.6554 215.613 32.994L210.581 27.3452C210.94 27.0175 211.284 26.7083 211.619 26.4134ZM331.724 109.484L340.104 112.176C340.38 111.362 340.7 110.562 340.949 109.741L332.542 106.933C332.285 107.786 332.013 108.637 331.724 109.484ZM340.274 110.276C340.209 110.462 340.14 110.651 340.071 110.843C340.01 111.011 339.949 111.179 339.889 111.347L332.404 108.942C332.53 108.556 332.654 108.165 332.775 107.771L340.274 110.276ZM335.035 94.9956L343.8 95.893C343.902 95.0376 344.032 94.1873 344.105 93.3303L335.303 92.3262C335.229 93.2169 335.141 94.1075 335.035 94.9956ZM335.671 93.1169L343.595 94.021C343.562 94.2999 343.525 94.5822 343.487 94.873C343.477 94.9519 343.467 95.0301 343.457 95.1091L335.554 94.2999C335.595 93.9134 335.634 93.521 335.671 93.1169ZM316.508 134.778L323.088 140.64C323.675 140.009 324.252 139.373 324.815 138.728L318.301 132.791C317.718 133.462 317.12 134.124 316.508 134.778ZM323.964 138.796C323.678 139.116 323.381 139.442 323.067 139.78L317.38 134.715C317.702 134.362 318.018 134.009 318.325 133.658L323.964 138.796ZM321.293 129.098L328.446 134.243C328.963 133.555 329.478 132.867 329.969 132.166L322.87 126.935C322.36 127.663 321.833 128.384 321.293 129.098ZM329.138 132.365C328.895 132.698 328.644 133.035 328.38 133.386L322.145 128.9C322.424 128.521 322.689 128.156 322.942 127.799L329.138 132.365ZM326.579 51.7662L334.166 47.3425C333.747 46.5922 333.292 45.857 332.845 45.1142L325.226 49.4388C325.692 50.2085 326.144 50.9832 326.579 51.7662ZM332.733 45.9637L332.833 46.1292C333.01 46.4216 333.19 46.719 333.368 47.0182L326.699 50.9067C326.487 50.5303 326.268 50.1513 326.039 49.7623L332.733 45.9637ZM334.223 72.734L342.885 70.8662C342.719 70.0217 342.458 69.1941 342.264 68.3539L333.656 70.1066C333.861 70.9796 334.052 71.8551 334.223 72.734ZM341.993 69.1622C342.041 69.347 342.089 69.5302 342.137 69.7108C342.185 69.8923 342.232 70.0696 342.277 70.2444L334.517 71.9181C334.438 71.535 334.354 71.1426 334.264 70.7359L341.993 69.1622ZM246.724 163.895C247.564 164.09 248.392 164.35 249.237 164.518L251.104 155.856C250.225 155.685 249.349 155.492 248.476 155.288L246.724 163.895ZM250.507 156.488L248.951 163.704C248.574 163.618 248.196 163.518 247.828 163.42C247.654 163.374 247.481 163.327 247.307 163.283L248.767 156.108C249.377 156.249 249.953 156.375 250.507 156.488ZM230.892 158.422C231.675 158.788 232.447 159.179 233.239 159.518L236.85 151.488C236.026 151.138 235.206 150.774 234.392 150.391L230.892 158.422ZM236.101 151.936L233.071 158.673C232.638 158.481 232.205 158.274 231.785 158.072C231.73 158.046 231.674 158.019 231.619 157.993L234.561 151.243C235.057 151.474 235.567 151.702 236.101 151.936ZM298.994 148.426L303.464 156.04C304.214 155.625 304.947 155.175 305.684 154.733L301.312 147.087C300.546 147.548 299.773 147.996 298.994 148.426ZM303.58 155.19L299.804 148.758C300.256 148.502 300.717 148.233 301.197 147.947L304.895 154.416C304.463 154.676 304.022 154.94 303.58 155.19ZM215.917 137.834L210.098 144.378C210.732 144.969 211.372 145.55 212.02 146.116L217.916 139.64C217.241 139.053 216.575 138.451 215.917 137.834ZM211.996 145.257C211.659 144.96 211.311 144.648 210.946 144.314L215.937 138.702C216.306 139.044 216.676 139.382 217.045 139.711L211.996 145.257ZM278.072 155.94L279.995 164.613C280.839 164.451 281.665 164.197 282.502 164.007L280.697 155.388C279.825 155.587 278.95 155.774 278.072 155.94ZM281.407 163.524C281.037 163.62 280.657 163.718 280.278 163.801L278.676 156.575C279.225 156.465 279.799 156.344 280.41 156.207L281.915 163.393C281.746 163.437 281.577 163.48 281.407 163.524ZM270.696 156.934L271.699 165.736C272.557 165.663 273.408 165.532 274.261 165.431L273.365 156.666C272.477 156.773 271.587 156.861 270.696 156.934ZM273.342 164.798C272.918 164.853 272.483 164.91 272.049 164.954L271.216 157.638C271.83 157.584 272.43 157.523 273.008 157.457L273.753 164.745C273.616 164.762 273.479 164.78 273.342 164.798ZM193.705 77.0048L184.94 76.1075C184.839 76.9628 184.708 77.8131 184.634 78.671L193.436 79.675C193.51 78.7836 193.597 77.8929 193.705 77.0048ZM193.069 78.8835L185.145 77.9803C185.178 77.7047 185.214 77.4266 185.252 77.1393C185.262 77.0561 185.274 76.9737 185.284 76.8905L193.186 77.6997C193.144 78.0853 193.106 78.4786 193.069 78.8835ZM203.283 49.0574L195.638 44.6857C195.197 45.4243 194.746 46.1561 194.33 46.9047L201.945 51.3755C202.374 50.5958 202.822 49.8237 203.283 49.0574ZM195.124 46.5821C195.29 46.3006 195.459 46.02 195.625 45.7444L195.75 45.5368L202.473 49.3809C202.247 49.7674 202.031 50.1438 201.824 50.516L195.124 46.5821ZM199.791 55.6187L191.737 52.0679C191.376 52.8476 190.99 53.6181 190.657 54.4079L198.71 58.0696C199.055 57.2478 199.414 56.4303 199.791 55.6187ZM191.397 53.9718C191.503 53.7424 191.612 53.5139 191.719 53.2887C191.779 53.1627 191.839 53.0367 191.899 52.9106L199.041 56.0589C198.873 56.4345 198.705 56.8193 198.535 57.2176L191.397 53.9718ZM202.16 120.234L194.574 124.657C194.995 125.408 195.449 126.145 195.895 126.885L203.513 122.562C203.047 121.792 202.595 121.017 202.16 120.234ZM196.006 126.036L195.949 125.94C195.758 125.625 195.563 125.304 195.371 124.981L202.04 121.093C202.251 121.468 202.47 121.848 202.699 122.237L196.006 126.036ZM196.326 106.505L187.938 109.261C188.192 110.084 188.517 110.888 188.798 111.702L197.161 109.063C196.866 108.215 196.588 107.361 196.326 106.505ZM188.833 110.388C188.76 110.189 188.687 109.992 188.618 109.798L196.096 107.341C196.22 107.738 196.347 108.132 196.476 108.519L189.012 110.874C188.953 110.712 188.893 110.55 188.833 110.388ZM194.515 99.2665L185.854 101.134C186.022 101.977 186.281 102.806 186.476 103.646L195.083 101.895C194.878 101.021 194.686 100.145 194.515 99.2665ZM186.746 102.838C186.699 102.655 186.651 102.474 186.604 102.296C186.555 102.112 186.508 101.933 186.462 101.756L194.221 100.082C194.3 100.465 194.384 100.859 194.474 101.265L186.746 102.838Z" fill="#FAFF01"/>
<path opacity="0.2" d="M309.317 86.6221C309.242 97.2492 305.462 106.993 299.2 114.626L301.789 116.8C309.055 107.976 312.623 98.0987 312.686 86.633L309.317 86.6221Z" fill="#FAFF01"/>
<path opacity="0.6" d="M272.921 133.735C283.836 131.844 293.847 126.102 301.163 117.547L298.574 115.372C290.35 124.965 278.13 131.03 264.491 130.988C256.48 130.963 248.946 128.832 242.413 125.125L240.749 128.017C250.599 133.596 262.005 135.626 272.921 133.735Z" fill="#FAFF01"/>
<path opacity="0.3" d="M219.378 85.8756C219.3 61.0782 239.412 40.9658 264.209 41.0439C266.705 41.0515 269.154 41.2674 271.542 41.6674L272.119 38.3392C263.603 36.8873 255.825 37.5856 247.685 40.5255C228.678 47.3926 215.95 65.6053 216.014 85.8462C216.031 91.3127 216.977 96.7178 218.827 101.921L221.966 100.787C220.307 96.1154 219.394 91.0968 219.378 85.8756Z" fill="#FAFF01"/>
<path opacity="0.2" d="M222.302 101.707L219.163 102.841C223.211 113.594 230.001 121.677 239.899 127.527L241.564 124.632C232.817 119.416 225.959 111.337 222.302 101.707Z" fill="#FAFF01"/>
<path opacity="0.5" d="M309.314 85.6438L312.683 85.6547C312.536 74.3647 308.531 63.483 301.375 54.964C294.219 46.4458 284.187 40.6155 273.082 38.5107L272.505 41.838C293.204 45.7753 309.001 63.9056 309.314 85.6438Z" fill="#FAFF01"/>
<g filter="url(#filter0_f)">
<path d="M84.3697 151.047C101.848 151.047 118.302 144.27 130.697 131.958C143.328 119.411 150.285 102.589 150.285 84.5892C150.285 66.5896 143.328 49.7618 130.697 37.2204C118.302 24.9087 101.848 18.1316 84.3697 18.1316C66.8914 18.1316 50.4413 24.9087 38.0428 37.2204C25.411 49.7677 18.4542 66.5897 18.4542 84.5892C18.4542 102.589 25.411 119.417 38.0428 131.958C50.4413 144.264 66.8915 151.047 84.3697 151.047ZM84.3697 22.7831C101.391 22.7831 117.371 29.3482 129.371 41.2596C141.134 52.9413 147.61 68.3266 147.61 84.5833C147.61 100.84 141.134 116.231 129.371 127.907C117.371 139.824 101.391 146.384 84.3697 146.384C67.348 146.384 51.368 139.818 39.3686 127.907C27.6059 116.225 21.1293 100.84 21.1293 84.5833C21.1293 68.3266 27.6059 52.9355 39.3686 41.2596C51.368 29.3423 67.348 22.7831 84.3697 22.7831Z" fill="url(#paint0_linear)"/>
<path d="M84.3696 164.59C105.666 164.59 125.701 156.341 140.782 141.368C155.994 126.259 164.371 106.099 164.371 84.5898C164.371 63.081 155.994 42.9206 140.782 27.812C125.701 12.833 105.67 4.58983 84.3696 4.58983C63.0731 4.58983 43.038 12.8389 27.9575 27.812C12.7452 42.9206 4.37133 63.081 4.37133 84.5898C4.37133 106.099 12.7486 126.259 27.9575 141.368C43.038 156.341 63.0731 164.59 84.3696 164.59ZM84.3696 6.68009C127.937 6.68008 163.38 41.6311 163.38 84.5898C163.38 127.549 127.937 162.494 84.3696 162.494C40.8025 162.494 5.35889 127.543 5.35888 84.584C5.35888 41.6253 40.8025 6.68009 84.3696 6.68009Z" fill="url(#paint1_linear)"/>
</g>
<g filter="url(#filter1_f)">
<path d="M264 150C281.236 150 297.46 143.321 309.683 131.186C322.14 118.82 329 102.24 329 84.5C329 66.7598 322.14 50.1744 309.683 37.8138C297.46 25.6794 281.235 19 264 19C246.764 19 230.543 25.6794 218.317 37.8138C205.86 50.1803 199 66.7598 199 84.5C199 102.24 205.86 118.826 218.317 131.186C230.543 143.315 246.764 150 264 150ZM264 23.5845C280.785 23.5845 296.543 30.055 308.376 41.7947C319.975 53.3081 326.362 68.4717 326.362 84.4942C326.362 100.517 319.975 115.686 308.376 127.194C296.543 138.939 280.785 145.404 264 145.404C247.215 145.404 231.457 138.933 219.624 127.194C208.025 115.68 201.638 100.517 201.638 84.4942C201.638 68.4717 208.025 53.3024 219.624 41.7947C231.457 30.0492 247.215 23.5845 264 23.5845Z" fill="#6B2E90"/>
<path d="M263.998 164.59C285.295 164.59 305.33 156.341 320.41 141.368C335.623 126.259 344 106.099 344 84.5898C344 63.081 335.623 42.9206 320.41 27.812C305.33 12.833 285.298 4.58983 263.998 4.58983C242.702 4.58983 222.667 12.8389 207.586 27.812C192.374 42.9206 184 63.081 184 84.5898C184 106.099 192.377 126.259 207.586 141.368C222.667 156.341 242.702 164.59 263.998 164.59ZM263.998 6.68009C307.565 6.68008 343.009 41.6311 343.009 84.5898C343.009 127.549 307.565 162.494 263.998 162.494C220.431 162.494 184.988 127.543 184.988 84.584C184.988 41.6253 220.431 6.68009 263.998 6.68009Z" fill="#833797"/>
</g>
<g filter="url(#filter2_f)">
<path d="M85.9252 20.249C68.4469 20.249 51.9934 27.0261 39.5983 39.3379C26.9664 51.8851 20.0096 68.7071 20.0096 86.7067C20.0096 104.706 26.9664 121.534 39.5983 134.075C51.9934 146.387 68.4469 153.164 85.9252 153.164C103.403 153.164 119.854 146.387 132.252 134.075C144.884 121.528 151.841 104.706 151.841 86.7067C151.841 68.7071 144.884 51.8793 132.252 39.3379C119.854 27.032 103.403 20.249 85.9252 20.249ZM85.9252 148.513C68.9035 148.513 52.9234 141.948 40.924 130.036C29.1614 118.355 22.6848 102.969 22.6848 86.7126C22.6848 70.4558 29.1614 55.0647 40.924 43.3888C52.9234 31.4715 68.9035 24.9123 85.9252 24.9123C102.947 24.9123 118.927 31.4774 130.926 43.3888C142.689 55.0705 149.166 70.4558 149.166 86.7126C149.166 102.969 142.689 118.36 130.926 130.036C118.927 141.954 102.947 148.513 85.9252 148.513Z" fill="url(#paint2_linear)"/>
<path d="M85.9253 6.70605C64.6287 6.70605 44.5936 14.9551 29.5132 29.9283C14.3008 45.0368 5.92358 65.1973 5.92358 86.7061C5.92358 108.215 14.3008 128.375 29.5132 143.484C44.5936 158.463 64.6253 166.706 85.9253 166.706C107.222 166.706 127.257 158.457 142.337 143.484C157.55 128.375 165.924 108.215 165.924 86.7061C165.924 65.1973 157.546 45.0368 142.337 29.9283C127.257 14.9551 107.222 6.70605 85.9253 6.70605ZM85.9253 164.616C42.3581 164.616 6.91452 129.665 6.91452 86.7061C6.91452 43.7473 42.3581 8.80217 85.9253 8.80217C129.492 8.80217 164.936 43.7532 164.936 86.7119C164.936 129.671 129.492 164.616 85.9253 164.616Z" fill="url(#paint3_linear)"/>
</g>
<defs>
<filter id="filter0_f" x="0.371338" y="0.589844" width="168" height="168" filterUnits="userSpaceOnUse" color-interpolation-filters="sRGB">
<feFlood flood-opacity="0" result="BackgroundImageFix"/>
<feBlend mode="normal" in="SourceGraphic" in2="BackgroundImageFix" result="shape"/>
<feGaussianBlur stdDeviation="2" result="effect1_foregroundBlur"/>
</filter>
<filter id="filter1_f" x="180" y="0.589844" width="168" height="168" filterUnits="userSpaceOnUse" color-interpolation-filters="sRGB">
<feFlood flood-opacity="0" result="BackgroundImageFix"/>
<feBlend mode="normal" in="SourceGraphic" in2="BackgroundImageFix" result="shape"/>
<feGaussianBlur stdDeviation="2" result="effect1_foregroundBlur"/>
</filter>
<filter id="filter2_f" x="1.92358" y="2.70605" width="168" height="168" filterUnits="userSpaceOnUse" color-interpolation-filters="sRGB">
<feFlood flood-opacity="0" result="BackgroundImageFix"/>
<feBlend mode="normal" in="SourceGraphic" in2="BackgroundImageFix" result="shape"/>
<feGaussianBlur stdDeviation="2" result="effect1_foregroundBlur"/>
</filter>
<linearGradient id="paint0_linear" x1="24.4304" y1="37.6062" x2="128.539" y2="83.3854" gradientUnits="userSpaceOnUse">
<stop stop-color="#FF57BB"/>
<stop offset="1" stop-color="#FF57BB" stop-opacity="0"/>
</linearGradient>
<linearGradient id="paint1_linear" x1="11.6245" y1="28.0328" x2="137.641" y2="83.9013" gradientUnits="userSpaceOnUse">
<stop stop-color="#FF57BB"/>
<stop offset="1" stop-color="#FF57BB" stop-opacity="0"/>
</linearGradient>
<linearGradient id="paint2_linear" x1="145.865" y1="133.69" x2="41.7563" y2="87.9105" gradientUnits="userSpaceOnUse">
<stop stop-color="#FF57BB"/>
<stop offset="1" stop-color="#FF57BB" stop-opacity="0"/>
</linearGradient>
<linearGradient id="paint3_linear" x1="158.67" y1="143.263" x2="32.6542" y2="87.3946" gradientUnits="userSpaceOnUse">
<stop stop-color="#FF57BB"/>
<stop offset="1" stop-color="#FF57BB" stop-opacity="0"/>
</linearGradient>
</defs>
</svg>
