<svg width="223" height="203" viewBox="0 0 223 203" fill="none" xmlns="http://www.w3.org/2000/svg">
<ellipse opacity="0.6" cx="112" cy="156.5" rx="96" ry="39.5" fill="url(#paint0_radial)"/>
<ellipse cx="111.481" cy="150.72" rx="31.9829" ry="18.9561" fill="#3F45A6"/>
<ellipse cx="111.481" cy="150.72" rx="31.9829" ry="18.9561" fill="#626AFF"/>
<ellipse cx="111.481" cy="150.72" rx="35.121" ry="21.4232" fill="#626AFF" fill-opacity="0.5"/>
<ellipse cx="111.481" cy="150.731" rx="38.4807" ry="24.3757" fill="#626AFF" fill-opacity="0.3"/>
<ellipse cx="111.481" cy="150.665" rx="29.182" ry="16.551" fill="#6419AE"/>
<ellipse cx="111.481" cy="150.422" rx="25.9715" ry="13.7402" fill="#9E8EFF"/>
<path d="M137.254 131.648C137.669 131.648 138.005 131.312 138.005 130.897C138.005 130.483 137.669 130.146 137.254 130.146C136.84 130.146 136.503 130.483 136.503 130.897C136.503 131.312 136.84 131.648 137.254 131.648Z" fill="#48D8F5"/>
<path d="M134.359 107.872C134.568 107.872 134.737 107.703 134.737 107.494C134.737 107.285 134.568 107.115 134.359 107.115C134.15 107.115 133.98 107.285 133.98 107.494C133.98 107.703 134.15 107.872 134.359 107.872Z" fill="#48D8F5"/>
<path d="M140.067 91.3133C140.067 91.4178 139.983 91.5008 139.879 91.5008C139.778 91.5008 139.693 91.4178 139.693 91.3133C139.693 91.2108 139.778 91.127 139.879 91.127C139.983 91.127 140.067 91.2108 140.067 91.3133Z" fill="#48D8F5"/>
<path d="M133.187 123.286C133.29 123.286 133.374 123.203 133.374 123.099C133.374 122.996 133.29 122.912 133.187 122.912C133.084 122.912 133 122.996 133 123.099C133 123.203 133.084 123.286 133.187 123.286Z" fill="#48D8F5"/>
<path d="M140.435 102.259C140.538 102.259 140.622 102.175 140.622 102.072C140.622 101.969 140.538 101.885 140.435 101.885C140.331 101.885 140.247 101.969 140.247 102.072C140.247 102.175 140.331 102.259 140.435 102.259Z" fill="#48D8F5"/>
<path d="M138.006 115.975C138.215 115.975 138.384 115.805 138.384 115.597C138.384 115.388 138.215 115.219 138.006 115.219C137.798 115.219 137.628 115.388 137.628 115.597C137.628 115.805 137.798 115.975 138.006 115.975Z" fill="#48D8F5"/>
<path d="M87.1817 105.453C87.2156 105.867 86.9095 106.229 86.496 106.263C86.0841 106.298 85.7198 105.989 85.6859 105.577C85.6508 105.164 85.9606 104.802 86.3716 104.767C86.7856 104.733 87.1486 105.04 87.1817 105.453Z" fill="#48D8F5"/>
<path d="M94.1884 116.184C94.2244 116.597 93.9158 116.96 93.5023 116.993C93.0897 117.028 92.7278 116.719 92.6935 116.307C92.6584 115.895 92.9662 115.532 93.3792 115.498C93.7911 115.463 94.1554 115.77 94.1884 116.184Z" fill="#48D8F5"/>
<path d="M89.8601 94.4861C89.8778 94.6939 89.7209 94.8777 89.5131 94.8946C89.3053 94.912 89.1244 94.7566 89.1062 94.5489C89.088 94.3403 89.2417 94.1573 89.4515 94.1412C89.6593 94.1226 89.8439 94.2783 89.8601 94.4861Z" fill="#48D8F5"/>
<path d="M82.3729 96.9069C82.3815 97.0102 82.3051 97.1011 82.2039 97.1102C82.0994 97.1176 82.0085 97.0412 82.0007 96.9379C81.992 96.8355 82.0684 96.7446 82.1717 96.7359C82.2741 96.7281 82.365 96.8045 82.3729 96.9069Z" fill="#48D8F5"/>
<path d="M91.9635 122.303C91.9714 122.405 91.8945 122.497 91.7925 122.505C91.6888 122.513 91.5992 122.437 91.5905 122.334C91.581 122.231 91.6603 122.141 91.7599 122.133C91.8648 122.122 91.9532 122.199 91.9635 122.303Z" fill="#48D8F5"/>
<path d="M86.9604 116.401C86.9786 116.609 86.8212 116.792 86.6143 116.809C86.4061 116.825 86.2239 116.671 86.207 116.463C86.19 116.255 86.3437 116.071 86.5523 116.054C86.7592 116.038 86.9427 116.193 86.9604 116.401Z" fill="#48D8F5"/>
<path d="M90.1956 129.013C90.2142 129.221 90.0572 129.404 89.8507 129.421C89.6417 129.438 89.4599 129.284 89.4417 129.076C89.4264 128.868 89.5797 128.685 89.7887 128.667C89.9969 128.65 90.1791 128.805 90.1956 129.013Z" fill="#48D8F5"/>
<path d="M86.0721 134.704C86.0882 134.911 85.9337 135.094 85.7267 135.112C85.5161 135.128 85.3343 134.975 85.3161 134.765C85.2996 134.558 85.4554 134.375 85.6635 134.358C85.873 134.341 86.0547 134.495 86.0721 134.704Z" fill="#48D8F5"/>
<g opacity="0.3">
<path d="M151 7H74L82.9448 144.07C87.4604 158.101 94.4479 164 112.501 164C130.555 164 139.399 158.456 142.055 144.07L151 7Z" fill="url(#paint1_linear)"/>
<path d="M151 7H74L82.9448 144.07C87.4604 158.101 94.4479 164 112.501 164C130.555 164 139.399 158.456 142.055 144.07L151 7Z" fill="url(#paint2_linear)" fill-opacity="0.5"/>
</g>
<path opacity="0.3" d="M151 7H74L82.9448 144.07C87.4604 158.101 94.4479 164 112.501 164C130.555 164 139.399 158.456 142.055 144.07L151 7Z" fill="url(#paint3_linear)" fill-opacity="0.3"/>
<g style="mix-blend-mode:color-dodge">
<path d="M112 163C124.703 163 135 157.404 135 150.5C135 143.596 124.703 138 112 138C99.2975 138 89 143.596 89 150.5C89 157.404 99.2975 163 112 163Z" fill="url(#paint4_radial)"/>
</g>
<g style="mix-blend-mode:color-dodge">
<path d="M138 143C138 154.598 126.583 164 112.499 164C98.4169 164 87 154.598 87 143C87 131.403 98.4169 122 112.499 122C126.583 122 138 131.403 138 143Z" fill="url(#paint5_radial)"/>
</g>
<path d="M122.416 146.574C127.909 149.744 127.909 154.885 122.416 158.055C116.925 161.226 108.02 161.226 102.53 158.055C97.0395 154.884 97.0395 149.744 102.53 146.574C108.02 143.404 116.925 143.404 122.416 146.574Z" fill="white"/>
<g style="mix-blend-mode:lighten" opacity="0.3">
<path d="M127.958 94H98.2438L100.196 150.591L113.101 159.854L126.005 150.591L127.958 94Z" fill="url(#paint6_linear)"/>
</g>
<g style="mix-blend-mode:lighten" opacity="0.3">
<path d="M129.564 94H96.6372L100.462 150.591L113.101 159.854L125.739 150.591L129.564 94Z" fill="url(#paint7_linear)"/>
</g>
<path d="M125.66 136.954C126.075 136.954 126.411 136.618 126.411 136.203C126.411 135.788 126.075 135.452 125.66 135.452C125.245 135.452 124.909 135.788 124.909 136.203C124.909 136.618 125.245 136.954 125.66 136.954Z" fill="#48D8F5"/>
<path d="M122.764 113.178C122.973 113.178 123.143 113.008 123.143 112.799C123.143 112.59 122.973 112.421 122.764 112.421C122.555 112.421 122.386 112.59 122.386 112.799C122.386 113.008 122.555 113.178 122.764 113.178Z" fill="#48D8F5"/>
<path d="M128.472 96.6189C128.472 96.7234 128.388 96.8065 128.285 96.8065C128.183 96.8065 128.098 96.7234 128.098 96.6189C128.098 96.5165 128.183 96.4326 128.285 96.4326C128.388 96.4326 128.472 96.5165 128.472 96.6189Z" fill="#48D8F5"/>
<path d="M121.593 128.592C121.696 128.592 121.78 128.508 121.78 128.405C121.78 128.302 121.696 128.218 121.593 128.218C121.489 128.218 121.406 128.302 121.406 128.405C121.406 128.508 121.489 128.592 121.593 128.592Z" fill="#48D8F5"/>
<path d="M128.84 107.565C128.943 107.565 129.027 107.481 129.027 107.378C129.027 107.274 128.943 107.19 128.84 107.19C128.737 107.19 128.653 107.274 128.653 107.378C128.653 107.481 128.737 107.565 128.84 107.565Z" fill="#48D8F5"/>
<path d="M126.412 121.28C126.621 121.28 126.79 121.111 126.79 120.902C126.79 120.694 126.621 120.524 126.412 120.524C126.203 120.524 126.034 120.694 126.034 120.902C126.034 121.111 126.203 121.28 126.412 121.28Z" fill="#48D8F5"/>
<path d="M101.602 110.759C101.635 111.172 101.329 111.535 100.916 111.569C100.504 111.604 100.14 111.295 100.106 110.882C100.071 110.47 100.381 110.108 100.792 110.073C101.205 110.039 101.569 110.346 101.602 110.759Z" fill="#48D8F5"/>
<path d="M108.608 121.49C108.644 121.902 108.336 122.266 107.922 122.298C107.51 122.333 107.148 122.025 107.113 121.612C107.078 121.2 107.386 120.837 107.799 120.803C108.211 120.769 108.575 121.076 108.608 121.49Z" fill="#48D8F5"/>
<path d="M104.28 99.7917C104.298 99.9995 104.141 100.183 103.933 100.2C103.725 100.218 103.544 100.062 103.526 99.8545C103.508 99.6459 103.662 99.4629 103.871 99.4468C104.079 99.4282 104.264 99.584 104.28 99.7917Z" fill="#48D8F5"/>
<path d="M96.7928 102.213C96.8014 102.316 96.725 102.407 96.6238 102.416C96.5193 102.423 96.4284 102.347 96.4206 102.244C96.4119 102.141 96.4883 102.05 96.5916 102.042C96.694 102.034 96.7849 102.11 96.7928 102.213Z" fill="#48D8F5"/>
<path d="M106.383 127.609C106.391 127.711 106.314 127.802 106.212 127.81C106.109 127.819 106.019 127.742 106.01 127.639C106.001 127.537 106.08 127.446 106.18 127.438C106.285 127.428 106.373 127.505 106.383 127.609Z" fill="#48D8F5"/>
<path d="M101.381 121.707C101.399 121.914 101.242 122.098 101.035 122.115C100.827 122.131 100.645 121.977 100.628 121.768C100.611 121.561 100.765 121.377 100.973 121.36C101.18 121.343 101.364 121.498 101.381 121.707Z" fill="#48D8F5"/>
<path d="M104.616 134.318C104.634 134.527 104.477 134.71 104.271 134.726C104.062 134.744 103.88 134.589 103.862 134.381C103.846 134.174 104 133.991 104.209 133.973C104.417 133.956 104.599 134.111 104.616 134.318Z" fill="#48D8F5"/>
<path d="M100.492 140.009C100.508 140.217 100.354 140.4 100.147 140.418C99.936 140.434 99.7542 140.281 99.7361 140.071C99.7195 139.863 99.8753 139.681 100.083 139.663C100.293 139.647 100.475 139.8 100.492 140.009Z" fill="#48D8F5"/>
<g style="mix-blend-mode:color-dodge">
<path d="M111.847 162.933C111.459 162.925 111.071 162.913 110.683 162.893L110.739 161.747C111.116 161.765 111.494 161.777 111.871 161.785L111.847 162.933ZM114.171 162.924L114.138 161.775C114.517 161.764 114.895 161.75 115.273 161.73L115.333 162.876C114.946 162.897 114.559 162.913 114.171 162.924ZM108.364 162.73C107.977 162.692 107.592 162.651 107.206 162.603L107.346 161.464C107.721 161.509 108.097 161.55 108.472 161.586L108.364 162.73ZM117.651 162.695L117.535 161.553C117.911 161.514 118.285 161.47 118.66 161.421L118.807 162.561C118.424 162.609 118.038 162.656 117.651 162.695ZM104.902 162.262C104.52 162.193 104.138 162.123 103.76 162.046L103.988 160.92C104.356 160.994 104.729 161.066 105.103 161.132L104.902 162.262ZM121.109 162.2L120.898 161.072C121.272 161.001 121.642 160.928 122.012 160.85L122.251 161.974C121.873 162.054 121.491 162.131 121.109 162.2ZM101.49 161.514C101.113 161.413 100.739 161.308 100.367 161.198L100.695 160.098C101.055 160.205 101.419 160.308 101.785 160.404L101.49 161.514ZM124.514 161.423L124.21 160.314C124.576 160.214 124.938 160.108 125.295 159.998L125.634 161.096C125.265 161.211 124.891 161.32 124.514 161.423ZM98.1531 160.458C97.7854 160.322 97.4199 160.179 97.0625 160.03L97.5044 158.968C97.8493 159.112 98.1976 159.248 98.5528 159.379L98.1531 160.458ZM127.839 160.335L127.432 159.263C127.785 159.128 128.132 158.988 128.476 158.84L128.927 159.898C128.569 160.049 128.207 160.196 127.839 160.335ZM94.9338 159.055C94.5832 158.878 94.2383 158.695 93.8991 158.505L94.461 157.503C94.7865 157.685 95.1165 157.861 95.4534 158.032L94.9338 159.055ZM131.044 158.9L130.513 157.88C130.848 157.706 131.175 157.526 131.497 157.339C131.735 157.203 131.964 157.065 132.189 156.925L132.796 157.901C132.561 158.047 132.32 158.192 132.072 158.335C131.737 158.528 131.393 158.716 131.044 158.9ZM91.9041 157.264C91.574 157.036 91.2565 156.803 90.9516 156.566L91.6585 155.66C91.9452 155.884 92.2455 156.104 92.5573 156.319L91.9041 157.264ZM134.729 156.556L134.025 155.649C134.325 155.417 134.61 155.18 134.883 154.941L135.642 155.802C135.353 156.056 135.047 156.309 134.729 156.556ZM89.1747 154.999C88.8903 154.711 88.6208 154.42 88.3673 154.125L89.2398 153.376C89.475 153.65 89.7251 153.922 89.9912 154.189L89.1747 154.999ZM137.315 154.113L136.44 153.368C136.684 153.082 136.91 152.794 137.121 152.502L138.052 153.172C137.825 153.489 137.578 153.803 137.315 154.113ZM86.9683 152.18C86.7605 151.827 86.5743 151.472 86.4099 151.114L87.4537 150.632C87.6033 150.956 87.7711 151.278 87.9584 151.598L86.9683 152.18ZM139.268 151.097L138.224 150.619C138.376 150.286 138.507 149.949 138.619 149.611L139.709 149.967C139.586 150.346 139.439 150.723 139.268 151.097ZM85.6539 148.808C85.5739 148.406 85.518 148.004 85.4883 147.6L86.6349 147.515C86.6611 147.872 86.7102 148.228 86.781 148.583L85.6539 148.808ZM140.185 147.585L139.038 147.503C139.053 147.301 139.06 147.098 139.06 146.896C139.059 146.742 139.054 146.586 139.046 146.428L140.193 146.365C140.203 146.54 140.207 146.716 140.209 146.893C140.209 147.126 140.201 147.356 140.185 147.585ZM86.7491 145.375L85.6185 145.167C85.6916 144.773 85.7875 144.38 85.9085 143.989L87.006 144.326C86.8987 144.674 86.813 145.023 86.7491 145.375ZM138.66 144.312C138.555 143.973 138.428 143.636 138.28 143.3L139.33 142.836C139.497 143.212 139.64 143.591 139.757 143.973L138.66 144.312ZM87.8762 142.338L86.877 141.772C87.0711 141.429 87.2858 141.09 87.521 140.756L88.4598 141.416C88.2474 141.721 88.0521 142.028 87.8762 142.338ZM137.2 141.405C136.994 141.111 136.771 140.821 136.531 140.533L137.412 139.796C137.673 140.108 137.917 140.426 138.142 140.747L137.2 141.405ZM89.8701 139.723L89.0468 138.923C89.3163 138.645 89.6029 138.37 89.9044 138.101L90.6696 138.957C90.3886 139.208 90.1225 139.464 89.8701 139.723ZM134.987 138.947C134.719 138.704 134.435 138.465 134.138 138.231L134.849 137.33C135.165 137.58 135.468 137.833 135.757 138.093L134.987 138.947ZM92.4168 137.572L91.7545 136.633C92.0685 136.412 92.3963 136.193 92.7332 135.98L93.3487 136.951C93.0278 137.153 92.716 137.361 92.4168 137.572ZM132.31 136.944C132.047 136.777 131.775 136.614 131.496 136.453L131.349 136.368L131.913 135.369L132.072 135.458C132.364 135.627 132.648 135.798 132.924 135.973L132.31 136.944ZM95.3004 135.838L94.7739 134.816C95.1199 134.639 95.4705 134.467 95.8291 134.301L96.3111 135.345C95.9684 135.502 95.6304 135.668 95.3004 135.838ZM129.347 135.339C129.008 135.182 128.664 135.031 128.317 134.886L128.759 133.826C129.122 133.977 129.479 134.134 129.831 134.298L129.347 135.339ZM98.3918 134.474L97.9829 133.399C98.3461 133.262 98.7138 133.131 99.0861 133.005L99.4516 134.093C99.093 134.213 98.7401 134.341 98.3918 134.474ZM126.203 134.088C125.848 133.966 125.489 133.851 125.128 133.741L125.461 132.642C125.835 132.756 126.205 132.875 126.574 132.998L126.203 134.088ZM101.616 133.435L101.316 132.327C101.69 132.225 102.067 132.129 102.445 132.039L102.712 133.157C102.344 133.245 101.978 133.338 101.616 133.435ZM122.943 133.152C122.577 133.064 122.208 132.982 121.838 132.904L122.072 131.781C122.454 131.859 122.833 131.944 123.21 132.035L122.943 133.152ZM104.93 132.692L104.724 131.561C105.106 131.492 105.489 131.43 105.873 131.371L106.047 132.506C105.673 132.563 105.3 132.626 104.93 132.692ZM119.607 132.504C119.234 132.446 118.86 132.394 118.484 132.347L118.627 131.207C119.014 131.256 119.398 131.309 119.782 131.368L119.607 132.504ZM108.295 132.221L108.181 131.079C108.566 131.041 108.953 131.006 109.341 130.978L109.424 132.124C109.047 132.152 108.671 132.185 108.295 132.221ZM116.225 132.123C115.848 132.095 115.472 132.071 115.095 132.052L115.151 130.906C115.539 130.925 115.927 130.948 116.312 130.977L116.225 132.123ZM111.693 132.011L111.662 130.863C112.05 130.852 112.437 130.848 112.827 130.848V131.997C112.449 131.998 112.07 132.002 111.693 132.011Z" fill="#76D6FD"/>
<path opacity="0.3" d="M139.263 20H85.6682V150.279H85.7002C85.5232 153.538 88.1132 156.824 93.517 159.311C103.982 164.127 120.949 164.127 131.416 159.311C136.648 156.903 139.264 153.746 139.264 150.589V20H139.263Z" fill="url(#paint8_linear)" fill-opacity="0.3"/>
<path d="M128.583 112.882C129.314 112.882 129.908 112.289 129.908 111.557C129.908 110.826 129.314 110.232 128.583 110.232C127.851 110.232 127.258 110.826 127.258 111.557C127.258 112.289 127.851 112.882 128.583 112.882Z" fill="#6BD2FE"/>
<path d="M114.876 94.3975C115.607 94.3975 116.201 93.8044 116.201 93.0728C116.201 92.3412 115.607 91.748 114.876 91.748C114.144 91.748 113.551 92.3412 113.551 93.0728C113.551 93.8044 114.144 94.3975 114.876 94.3975Z" fill="#6BD2FE"/>
<path d="M125.572 80.9746C126.304 80.9746 126.897 80.3815 126.897 79.6499C126.897 78.9183 126.304 78.3252 125.572 78.3252C124.841 78.3252 124.248 78.9183 124.248 79.6499C124.248 80.3815 124.841 80.9746 125.572 80.9746Z" fill="#6BD2FE"/>
</g>
<path d="M117.556 130.668C114.949 132.143 110.782 132.1 108.248 130.572C107.002 129.821 106.383 128.851 106.385 127.883C106.365 135.005 106.345 142.127 106.325 149.25C106.323 150.217 106.942 151.188 108.188 151.94C110.722 153.467 114.889 153.509 117.496 152.035C118.822 151.285 119.488 150.288 119.49 149.288C119.51 142.165 119.531 135.043 119.55 127.921C119.547 128.921 118.881 129.918 117.556 130.668Z" fill="url(#paint9_diamond)"/>
<path d="M137.492 120.148C129.345 108.878 121.199 97.607 113.051 86.3356L113.05 86.333C113.05 86.333 113.049 86.333 113.049 86.334C113.049 86.333 113.049 86.333 113.049 86.333L113.049 86.334C104.839 97.5584 96.63 108.782 88.4187 120.006C84.3278 125.598 86.1033 132.332 93.8237 136.985C104.084 143.17 120.96 143.342 131.515 137.369C139.628 132.779 141.648 125.897 137.492 120.148Z" fill="#003302"/>
<g style="mix-blend-mode:screen">
<path d="M137.492 120.547C129.345 109.276 121.199 98.0055 113.051 86.734L113.05 86.7314C113.05 86.7314 113.049 86.7314 113.049 86.7325C113.049 86.7314 113.049 86.7314 113.049 86.7314L113.049 86.7325C104.839 97.9568 96.63 109.18 88.4187 120.404C84.3278 125.997 86.1033 132.73 93.8237 137.383C104.084 143.568 120.96 143.741 131.515 137.768C139.628 133.177 141.648 126.296 137.492 120.547Z" fill="url(#paint10_angular)"/>
</g>
<path d="M113.044 85.8776L113.042 85.875C113.042 85.875 113.042 85.875 113.042 85.876C106.242 95.1718 99.4422 104.468 92.6429 113.764C93.623 115.511 95.2787 117.159 97.618 118.568C105.838 123.524 119.358 123.663 127.814 118.877C130.39 117.419 132.195 115.673 133.233 113.809C126.504 104.498 119.774 95.1882 113.044 85.8776Z" fill="url(#paint11_radial)"/>
<g style="mix-blend-mode:screen">
<path d="M132.61 98.8249C126.082 89.7957 119.556 80.7661 113.028 71.7364L113.027 71.7344C113.027 71.7344 113.027 71.7344 113.027 71.7349C113.027 71.7344 113.027 71.7344 113.027 71.7344V71.7349C106.45 80.7267 99.8732 89.7179 93.2953 98.7102C90.0175 103.19 91.4402 108.584 97.6252 112.312C105.845 117.268 119.364 117.405 127.821 112.621C134.319 108.943 135.937 103.431 132.61 98.8249Z" fill="url(#paint12_angular)"/>
</g>
<path d="M113.012 71.7374L113.011 71.7354C113.011 71.7354 113.011 71.7354 113.011 71.7359C108.446 77.975 103.883 84.2142 99.3184 90.4534C99.9117 91.0087 100.608 91.5384 101.42 92.0277C107.594 95.7492 117.748 95.8521 124.099 92.2581C125.064 91.713 125.879 91.1121 126.556 90.4749C122.042 84.229 117.527 77.9837 113.012 71.7374Z" fill="url(#paint13_radial)"/>
<g style="mix-blend-mode:screen">
<path d="M127.713 77.2856C122.811 70.5039 117.909 63.7217 113.006 56.9395L113.005 56.9385C113.005 56.9385 113.005 56.9385 113.005 56.939C113.005 56.9385 113.005 56.9385 113.005 56.9385V56.939C108.066 63.6931 103.125 70.4456 98.1848 77.1991C95.7241 80.5644 96.7925 84.616 101.438 87.4162C107.611 91.1387 117.766 91.2416 124.116 87.6471C128.997 84.8852 130.213 80.7446 127.713 77.2856Z" fill="url(#paint14_angular)"/>
</g>
<g style="mix-blend-mode:color-dodge" opacity="0.5">
<path d="M125.542 148.384C125.542 148.384 125.542 155.237 113.496 155.237C101.451 155.237 99.4413 148.384 99.4413 148.384L86.1458 125.692L60 85.249L164.187 88.0245L141.606 125.692L125.542 148.384Z" fill="url(#paint15_linear)"/>
</g>
<defs>
<radialGradient id="paint0_radial" cx="0" cy="0" r="1" gradientUnits="userSpaceOnUse" gradientTransform="translate(114.05 156.5) scale(93.9502 31.735)">
<stop stop-color="#48FF44"/>
<stop offset="0.265455" stop-color="#48FF44"/>
<stop offset="1" stop-color="#48FF44" stop-opacity="0"/>
</radialGradient>
<linearGradient id="paint1_linear" x1="112.5" y1="40.8863" x2="112.5" y2="167.119" gradientUnits="userSpaceOnUse">
<stop stop-color="white" stop-opacity="0"/>
<stop offset="1" stop-color="#00FFF0"/>
</linearGradient>
<linearGradient id="paint2_linear" x1="115.067" y1="-5.10844" x2="115.068" y2="157.129" gradientUnits="userSpaceOnUse">
<stop offset="0.325214" stop-color="#FBA4A4" stop-opacity="0"/>
<stop offset="1" stop-color="#00FFE0"/>
</linearGradient>
<linearGradient id="paint3_linear" x1="115.961" y1="-15.4781" x2="115.961" y2="155.702" gradientUnits="userSpaceOnUse">
<stop offset="0.325214" stop-color="#FFDEDE" stop-opacity="0"/>
<stop offset="1" stop-color="#BFFFF7" stop-opacity="0.72"/>
</linearGradient>
<radialGradient id="paint4_radial" cx="0" cy="0" r="1" gradientUnits="userSpaceOnUse" gradientTransform="translate(112 150.5) scale(31.9999 17.25)">
<stop offset="0.0622" stop-color="#FF0000"/>
<stop offset="0.0661" stop-color="#FA0000"/>
<stop offset="0.468749" stop-color="#CC0000"/>
<stop offset="0.921875"/>
</radialGradient>
<radialGradient id="paint5_radial" cx="0" cy="0" r="1" gradientUnits="userSpaceOnUse" gradientTransform="translate(112.5 143) scale(25.4994 21.0005)">
<stop stop-color="#4CEAF5"/>
<stop offset="1"/>
</radialGradient>
<linearGradient id="paint6_linear" x1="113.101" y1="94.6332" x2="113.101" y2="160.107" gradientUnits="userSpaceOnUse">
<stop/>
<stop offset="1" stop-color="#4CEAF5"/>
</linearGradient>
<linearGradient id="paint7_linear" x1="113.101" y1="94.6332" x2="113.101" y2="160.107" gradientUnits="userSpaceOnUse">
<stop/>
<stop offset="1" stop-color="#4CEAF5"/>
</linearGradient>
<linearGradient id="paint8_linear" x1="114.875" y1="-0.462642" x2="114.876" y2="155.369" gradientUnits="userSpaceOnUse">
<stop offset="0.325214" stop-color="#FFDEDE" stop-opacity="0"/>
<stop offset="1" stop-color="#BFFFF7" stop-opacity="0.72"/>
</linearGradient>
<radialGradient id="paint9_diamond" cx="0" cy="0" r="1" gradientUnits="userSpaceOnUse" gradientTransform="translate(112.938 140.498) rotate(90) scale(12.6155 8.51838)">
<stop offset="0.578125" stop-color="#380C71"/>
<stop offset="1" stop-color="#380C71" stop-opacity="0"/>
</radialGradient>
<radialGradient id="paint10_angular" cx="0" cy="0" r="1" gradientUnits="userSpaceOnUse" gradientTransform="translate(112.844 86.5062) rotate(40.6004) scale(42.5297 40.3189)">
<stop stop-color="#060606"/>
<stop offset="0.0452" stop-color="#000218"/>
<stop offset="0.651042" stop-color="#004757"/>
<stop offset="0.6875" stop-color="#7DE8FF"/>
<stop offset="0.81069" stop-color="#40C6FF"/>
<stop offset="0.838542" stop-color="#5BFFCE"/>
<stop offset="0.878305" stop-color="#00FF00"/>
<stop offset="0.923647" stop-color="#008200"/>
<stop offset="1"/>
</radialGradient>
<radialGradient id="paint11_radial" cx="0" cy="0" r="1" gradientUnits="userSpaceOnUse" gradientTransform="translate(112.938 104.126) rotate(90) scale(18.2514 20.2951)">
<stop offset="0.286458"/>
<stop offset="1" stop-color="#927EBD" stop-opacity="0.78"/>
</radialGradient>
<radialGradient id="paint12_angular" cx="0" cy="0" r="1" gradientUnits="userSpaceOnUse" gradientTransform="translate(112.862 71.5539) rotate(40.6002) scale(34.0712 32.3001)">
<stop stop-color="#060606"/>
<stop offset="0.0452" stop-color="#000218"/>
<stop offset="0.651042" stop-color="#004757"/>
<stop offset="0.6875" stop-color="#7DE8FF"/>
<stop offset="0.81069" stop-color="#40C6FF"/>
<stop offset="0.838542" stop-color="#5BFFCE"/>
<stop offset="0.878305" stop-color="#00FF00"/>
<stop offset="0.923647" stop-color="#008200"/>
<stop offset="1"/>
</radialGradient>
<radialGradient id="paint13_radial" cx="0" cy="0" r="1" gradientUnits="userSpaceOnUse" gradientTransform="translate(112.937 83.3115) rotate(90) scale(11.5762 13.619)">
<stop offset="0.286458"/>
<stop offset="1" stop-color="#927EBD" stop-opacity="0.78"/>
</radialGradient>
<radialGradient id="paint14_angular" cx="0" cy="0" r="1" gradientUnits="userSpaceOnUse" gradientTransform="translate(112.882 56.8029) rotate(40.6013) scale(25.5904 24.2602)">
<stop stop-color="#060606"/>
<stop offset="0.0452" stop-color="#000218"/>
<stop offset="0.651042" stop-color="#004757"/>
<stop offset="0.6875" stop-color="#7DE8FF"/>
<stop offset="0.81069" stop-color="#40C6FF"/>
<stop offset="0.838542" stop-color="#5BFFCE"/>
<stop offset="0.878305" stop-color="#00FF00"/>
<stop offset="0.923647" stop-color="#008200"/>
<stop offset="1"/>
</radialGradient>
<linearGradient id="paint15_linear" x1="113.496" y1="75.076" x2="113.496" y2="156.216" gradientUnits="userSpaceOnUse">
<stop offset="0.325214" stop-color="#FBFF2A" stop-opacity="0"/>
<stop offset="1" stop-color="#2AF6FF"/>
<stop offset="1" stop-color="#FFF62A" stop-opacity="0.85"/>
</linearGradient>
</defs>
</svg>
